<svg width="625" height="630" viewBox="0 0 625 630" fill="none" xmlns="http://www.w3.org/2000/svg">
    <g clip-path="url(#clip0_1_68)">
        <path opacity="0.9"
            d="M532.666 215.941C525.545 214.626 518.469 213.31 511.438 211.677C501.277 209.319 491.071 206.234 481.999 200.972C473.109 195.756 465.851 188.408 460.771 179.427C459.501 177.159 458.367 174.8 457.323 172.441C447.753 171.262 437.138 170.717 425.345 170.854C285.546 172.532 165.886 124.586 163.165 211.677C160.443 298.768 123.384 424.869 194.145 430.312C264.907 435.755 402.665 422.147 469.797 426.683C536.93 431.219 541.466 369.53 539.652 325.984C538.654 300.764 551.309 252.093 532.666 215.941Z"
            fill="#2222FF" />
        <path
            d="M271.395 268.105C256.563 268.105 243.318 262.344 234.563 251.73C234.064 251.14 233.429 250.324 232.839 249.462C231.433 247.512 230.163 245.425 229.075 243.248C223.087 231.59 220.275 217.347 221.318 204.057C221.454 202.061 221.726 199.929 222.089 197.797C223.359 190.358 225.854 183.6 229.528 177.748C236.831 166.045 248.761 157.427 262.369 154.025C262.958 153.843 263.593 153.707 264.183 153.617C265.68 153.299 266.905 153.072 268.084 152.846C278.335 151.031 293.712 149.897 308.454 160.965C311.448 163.233 314.306 165.864 316.891 168.858C317.526 169.583 318.207 170.4 318.933 171.307C320.52 173.303 322.017 175.48 323.423 177.793C324.24 179.109 325.011 180.515 325.691 181.876C332.767 195.484 335.217 210.952 332.404 224.333C329.048 240.39 317.526 253.59 299.927 261.528C298.521 262.163 297.296 262.662 296.117 263.115C292.261 264.612 288.224 265.792 284.142 266.653C279.742 267.651 275.523 268.105 271.395 268.105ZM280.014 152.664C275.614 152.664 271.531 153.208 268.084 153.798C266.95 154.025 265.725 154.252 264.229 154.569C263.684 154.705 263.094 154.841 262.459 154.977C249.124 158.289 237.33 166.771 230.163 178.292C226.58 184.053 224.13 190.676 222.86 198.024C222.497 200.156 222.225 202.197 222.089 204.193C221.046 217.302 223.858 231.409 229.755 242.885C230.844 245.017 232.068 247.058 233.475 248.963C234.064 249.78 234.699 250.551 235.198 251.186C246.175 264.476 264.365 270.01 283.824 265.882C287.861 265.021 291.853 263.841 295.663 262.39C296.842 261.936 298.022 261.437 299.428 260.802C316.755 253 328.095 239.982 331.361 224.242C334.128 211.042 331.724 195.801 324.739 182.375C324.058 181.014 323.287 179.653 322.471 178.338C321.064 176.024 319.568 173.893 318.025 171.942C317.3 171.035 316.665 170.264 316.029 169.538C313.489 166.635 310.677 164.004 307.729 161.781C298.248 154.615 288.496 152.664 280.014 152.664Z"
            fill="#FF5C82" />
        <path
            d="M559.566 190.812C559.521 190.63 559.339 190.494 559.113 190.494C551.9 190.494 548.997 198.206 545.368 203.15C544.371 204.511 543.237 205.917 541.74 206.733C540.969 207.141 540.107 207.414 539.2 207.414C537.884 207.414 538.202 206.869 537.975 205.826C537.43 203.241 535.48 203.014 533.439 204.238C530.536 206.007 528.177 208.956 526.181 211.677C525.818 212.131 526.635 212.585 526.952 212.131C528.449 210.135 530.082 208.23 531.942 206.552C532.804 205.781 533.938 204.737 535.117 204.42C537.113 203.921 537.204 206.234 537.249 207.686C537.249 207.867 537.385 208.094 537.567 208.139C544.371 209.455 547.455 201.245 550.63 196.799C551.719 195.257 552.989 193.76 554.577 192.717C555.348 192.218 556.21 191.81 557.162 191.583C558.704 191.22 558.931 191.492 559.249 192.989C560.247 198.024 557.343 202.605 554.713 206.643C552.082 210.725 549.224 214.989 549.224 220.024C549.224 220.613 550.131 220.613 550.131 220.024C550.131 209.273 563.558 202.152 559.566 190.812Z"
            fill="#FFD25F" />
        <path
            d="M319.518 196.799C319.428 196.527 319.201 196.436 318.974 196.482C316.57 196.935 315.481 200.428 314.982 202.424C314.982 202.424 315.028 203.966 315.118 204.012C316.57 204.465 317.704 202.696 318.339 201.608C319.065 200.337 319.972 198.387 319.518 196.799Z"
            fill="#68D1C8" />
        <path
            d="M328.682 196.074C326.505 195.03 325.416 198.977 325.008 201.88C324.691 202.696 324.509 203.558 324.464 204.42C324.464 204.692 324.781 204.964 325.054 204.873C325.099 204.873 325.144 204.828 325.144 204.828C325.371 204.919 325.689 204.783 325.734 204.511C327.004 203.649 328.002 201.744 328.592 200.519C329.136 199.385 330.27 196.845 328.682 196.074Z"
            fill="#68D1C8" />
        <path
            d="M340.43 196.618C338.615 195.167 337.073 198.16 336.166 200.837C335.44 201.971 334.896 203.195 335.032 204.42C335.077 204.737 335.304 204.919 335.622 204.874C337.255 204.511 338.751 202.424 339.659 201.154C340.384 200.065 341.836 197.797 340.43 196.618ZM336.982 201.562C336.892 201.925 336.801 202.288 336.71 202.651C336.71 202.742 336.71 202.787 336.71 202.878C336.62 202.968 336.574 203.014 336.483 203.105C336.62 202.606 336.801 202.107 336.982 201.562ZM339.931 197.389C339.795 197.344 339.613 197.344 339.477 197.48C339.432 197.525 339.386 197.571 339.341 197.616C339.205 197.616 339.114 197.616 338.978 197.752C338.842 197.888 338.706 198.024 338.57 198.206C338.525 198.206 338.525 198.16 338.479 198.16C338.978 197.389 339.477 196.981 339.931 197.389Z"
            fill="#68D1C8" />
        <path
            d="M319.518 210.906C319.428 210.634 319.201 210.543 318.974 210.589C316.57 211.042 315.481 214.535 314.982 216.531C314.982 216.531 315.028 218.073 315.118 218.119C316.57 218.572 317.704 216.803 318.339 215.714C319.065 214.444 319.972 212.494 319.518 210.906Z"
            fill="#68D1C8" />
        <path
            d="M328.682 210.181C326.505 209.137 325.416 213.084 325.008 215.987C324.691 216.803 324.509 217.665 324.464 218.527C324.464 218.799 324.781 219.071 325.054 218.98C325.099 218.98 325.144 218.935 325.144 218.935C325.371 219.026 325.689 218.89 325.734 218.617C327.004 217.756 328.002 215.851 328.592 214.626C329.136 213.492 330.27 210.952 328.682 210.181Z"
            fill="#68D1C8" />
        <path
            d="M340.43 210.725C338.615 209.273 337.073 212.267 336.166 214.943C335.44 216.077 334.896 217.302 335.032 218.527C335.077 218.844 335.304 219.026 335.622 218.98C337.255 218.617 338.751 216.531 339.659 215.261C340.384 214.172 341.836 211.904 340.43 210.725ZM336.982 215.669C336.892 216.032 336.801 216.395 336.71 216.758C336.71 216.848 336.71 216.894 336.71 216.984C336.62 217.075 336.574 217.12 336.483 217.211C336.62 216.712 336.801 216.213 336.982 215.669ZM339.931 211.496C339.795 211.451 339.613 211.45 339.477 211.587C339.432 211.632 339.386 211.677 339.341 211.723C339.205 211.723 339.114 211.723 338.978 211.859C338.842 211.995 338.706 212.131 338.57 212.312C338.525 212.312 338.525 212.267 338.479 212.267C338.978 211.496 339.477 211.088 339.931 211.496Z"
            fill="#68D1C8" />
        <path
            d="M361.568 179.018H341.609C341.02 179.018 341.02 179.926 341.609 179.926H361.568C362.158 179.926 362.158 179.018 361.568 179.018Z"
            fill="#FF495D" />
        <path
            d="M349.321 193.08H342.971C342.381 193.08 342.381 193.987 342.971 193.987H349.321C349.911 193.987 349.911 193.08 349.321 193.08Z"
            fill="#FF495D" />
        <path
            d="M379.622 192.173C372.365 195.121 364.154 192.672 356.625 192.626C356.035 192.626 356.035 193.534 356.625 193.534C364.245 193.624 372.546 196.028 379.894 193.08C380.393 192.853 380.121 191.946 379.622 192.173Z"
            fill="#FF495D" />
        <path
            d="M366.56 210.77C359.756 211.45 352.952 210.362 346.148 210.77C345.558 210.815 345.558 211.723 346.148 211.677C352.952 211.269 359.756 212.358 366.56 211.677C367.149 211.587 367.149 210.679 366.56 210.77Z"
            fill="#FF495D" />
        <path
            d="M349.777 230.275H345.694C345.105 230.275 345.105 231.182 345.694 231.182H349.777C350.366 231.182 350.366 230.275 349.777 230.275Z"
            fill="#FF495D" />
        <path
            d="M361.571 230.275H357.942C357.352 230.275 357.352 231.182 357.942 231.182H361.571C362.16 231.182 362.16 230.275 361.571 230.275Z"
            fill="#FF495D" />
        <path
            d="M364.292 243.883C358.078 243.883 351.863 244.019 345.694 243.429C345.105 243.384 345.105 244.291 345.694 244.337C351.863 244.926 358.078 244.79 364.292 244.79C364.882 244.79 364.882 243.883 364.292 243.883Z"
            fill="#FF495D" />
        <path
            d="M567.183 377.695L417.496 374.066C410.374 352.837 407.879 329.069 407.562 303.894C407.562 303.577 407.562 303.305 407.562 302.987C407.516 297.453 407.562 291.828 407.698 286.204C407.698 285.886 407.698 285.614 407.698 285.297C407.834 279.853 408.015 274.32 408.287 268.786C408.287 268.468 408.333 268.196 408.333 267.878C409.149 250.007 410.465 231.681 411.508 213.265H538.153C548.132 211.269 553.122 207.641 564.462 209.001C566.094 263.751 565.505 322.9 567.183 377.695Z"
            fill="#8D7ADD" />
        <path
            d="M520.598 346.986C523.456 346.85 526.268 346.805 529.126 346.759C541.6 346.669 554.028 347.53 566.502 347.757C565.958 318.364 565.822 288.154 565.459 258.489C563.735 261.483 562.102 264.522 560.288 267.516C557.158 272.732 553.393 277.631 549.356 282.167C542.099 290.377 533.707 297.68 527.538 306.797C524.454 311.333 522.05 316.278 521.006 321.675C519.872 327.481 519.963 333.424 520.235 339.275C520.326 341.86 520.462 344.446 520.598 346.986Z"
            fill="#B3C7F9" />
        <path
            d="M466.439 329.523C465.985 318.863 465.94 308.203 465.849 297.498C465.622 277.404 464.897 257.219 460.814 237.487H441.808C446.662 257.718 447.07 278.22 447.297 299.63C447.388 310.517 447.524 321.403 448.068 332.244C448.386 338.413 448.839 344.582 449.565 350.751C449.61 350.751 449.656 350.751 449.701 350.751C456.278 349.572 461.858 348.574 467.8 347.939C467.165 342.223 466.756 336.372 466.484 330.203C466.439 329.976 466.439 329.749 466.439 329.523Z"
            fill="#B3C7F9" />
        <path
            d="M539.153 333.65C539.062 333.65 539.017 333.65 538.926 333.65C535.025 334.195 531.079 334.331 527.132 334.149C525.273 334.058 523.413 333.922 521.553 333.741C521.372 333.741 519.739 333.514 519.603 333.514C518.877 333.423 518.196 333.333 517.471 333.197C509.442 331.972 501.504 330.294 493.43 329.296C484.403 328.162 475.377 328.479 466.395 329.477C460.226 330.158 454.103 331.155 448.025 332.244C448.342 338.413 448.796 344.582 449.522 350.751C449.567 350.751 449.612 350.751 449.658 350.751C456.235 349.572 461.814 348.574 467.756 347.939C468.981 347.803 470.206 347.666 471.476 347.576C475.377 347.258 479.323 347.077 483.269 347.122C485.129 347.168 486.989 347.258 488.894 347.394C489.756 347.44 490.572 347.53 491.434 347.621C491.434 347.621 493.067 347.803 493.339 347.848C508.489 349.934 523.503 354.244 538.926 352.202C539.017 352.202 539.062 352.157 539.153 352.157V333.65Z"
            fill="#B3C7F9" />
        <path
            d="M432.01 269.285C424.118 269.239 416.18 268.332 408.287 268.74C408.287 268.423 408.332 268.151 408.332 267.833C416.225 267.47 424.118 268.332 432.01 268.377C432.6 268.377 432.6 269.285 432.01 269.285Z"
            fill="#FFD25F" />
        <path
            d="M419.764 286.521C415.727 286.521 411.69 286.294 407.699 286.158C407.699 285.841 407.699 285.569 407.699 285.251C411.736 285.387 415.727 285.614 419.764 285.614C420.354 285.614 420.354 286.521 419.764 286.521Z"
            fill="#FFD25F" />
        <path
            d="M433.826 285.614H427.022C426.432 285.614 426.432 286.521 427.022 286.521H433.826C434.416 286.521 434.416 285.614 433.826 285.614Z"
            fill="#FFD25F" />
        <path
            d="M432.918 303.758C424.526 303.713 415.908 302.67 407.562 303.894C407.562 303.577 407.562 303.305 407.562 302.987C415.908 301.808 424.526 302.851 432.918 302.851C433.508 302.851 433.508 303.758 432.918 303.758Z"
            fill="#FFD25F" />
        <path
            d="M430.968 312.059C429.97 311.242 428.201 311.333 427.022 311.469C426.432 311.515 426.432 312.422 427.022 312.376C427.657 312.331 428.292 312.286 428.927 312.376C429.335 312.422 430.016 312.467 430.333 312.694C430.787 313.057 431.422 312.422 430.968 312.059Z"
            fill="#FFD25F" />
        <path
            d="M358.528 275.816C331.313 256.312 294.571 233.632 283.685 223.426C272.798 213.22 224.49 166.953 224.49 166.953C224.49 166.953 167.337 218.663 142.162 281.94C142.162 281.94 182.986 295.548 212.923 297.589C242.861 299.63 233.335 320.723 281.643 349.98C329.952 379.237 377.58 425.504 397.992 435.71C397.992 435.71 429.97 411.896 442.898 388.762C455.825 365.629 466.031 350.66 466.031 350.66C466.031 350.66 399.352 305.073 358.528 275.816Z"
            fill="#B3EFF9" />
        <path
            d="M227.438 301.263C229.434 300.764 231.385 300.129 233.244 299.267C236.42 297.816 239.187 295.639 241.092 292.69C242.77 290.059 243.632 287.02 244.222 283.936C245.537 276.769 245.673 269.466 247.76 262.435C248.848 258.806 250.799 255.767 253.339 253C255.607 250.506 258.328 248.283 260.234 245.425C264.906 238.349 255.698 231.863 250.3 228.687C239.368 222.246 226.44 221.657 214.919 216.758C209.929 214.626 205.484 211.405 202.853 206.552C200.585 202.379 199.678 197.707 199.497 192.944C180.944 214.082 156.45 246.151 142.253 281.94C142.253 281.94 183.076 295.548 213.014 297.589C219.183 297.997 223.719 299.267 227.438 301.263Z"
            fill="#FFF7C9" />
        <path
            d="M240.276 220.205C238.417 222.745 236.33 225.694 234.062 228.869C230.343 234.131 231.658 241.388 237.01 244.972C248.305 252.547 266.903 264.975 277.88 272.097C282.688 275.227 289.084 274.274 292.803 269.92L297.611 264.25C301.875 259.26 301.059 251.685 295.842 247.739L256.47 217.801C251.344 213.9 244.041 214.989 240.276 220.205Z"
            fill="white" />
        <path
            d="M453.014 345.535C445.666 349.39 438.499 353.518 430.788 356.693C415.593 362.908 398.719 365.72 382.389 363.905C374.134 362.998 365.969 361.275 357.94 359.052C350.592 357.011 343.47 354.425 336.304 351.976C323.693 347.667 310.675 344.038 297.339 343.131C289.628 342.586 281.736 343.085 274.342 345.263C276.61 346.805 279.059 348.347 281.645 349.889C329.953 379.237 377.581 425.504 397.993 435.71C397.993 435.71 429.972 411.896 442.899 388.763C455.827 365.629 466.033 350.66 466.033 350.66C466.033 350.66 462.359 348.166 456.235 343.947C455.146 344.446 454.103 344.99 453.014 345.535Z"
            fill="#FFF7C9" />
        <path
            d="M401.618 356.829C419.762 371.798 436.091 383.591 436.091 383.591C436.091 383.591 438.359 354.107 438.359 347.757C438.359 347.757 407.968 353.2 401.618 356.829Z"
            fill="#00AAD3" />
        <path
            d="M419.175 364.404C406.837 375.245 400.804 391.257 388.874 402.416C390.553 403.958 392.276 405.455 394 406.952C405.703 395.748 411.736 379.963 423.983 369.212C427.294 366.309 422.441 361.501 419.175 364.404Z"
            fill="#00AAD3" />
        <path
            d="M374.268 323.853C364.561 315.597 353.311 309.383 343.604 301.127C334.532 293.371 325.823 285.66 314.166 282.031C313.621 281.849 313.349 282.711 313.939 282.893C319.7 284.707 325.007 287.519 329.906 290.967C334.986 294.55 339.386 298.859 344.149 302.76C353.584 310.517 364.288 316.595 373.587 324.488C374.086 324.851 374.721 324.215 374.268 323.853Z"
            fill="#2222FF" />
        <path
            d="M388.239 336.054C386.107 333.696 383.657 331.7 380.981 329.976C380.482 329.659 380.074 330.475 380.573 330.793C383.204 332.425 385.562 334.421 387.649 336.735C388.057 337.143 388.647 336.463 388.239 336.054Z"
            fill="#2222FF" />
        <path
            d="M377.58 341.361C370.957 334.875 363.155 329.749 355.444 324.624C351.588 322.038 347.96 319.316 344.285 316.504C340.702 313.783 336.71 311.56 333.717 308.113C333.354 307.659 332.673 308.294 333.082 308.748C335.712 311.787 339.16 313.919 342.38 316.232C346.145 318.954 349.729 321.902 353.63 324.487C361.704 329.931 369.959 335.192 376.945 342.042C377.353 342.405 378.033 341.77 377.58 341.361Z"
            fill="#2222FF" />
        <path
            d="M325.597 304.166C324.781 303.168 323.647 302.806 322.468 302.261C321.923 302.034 321.47 302.806 322.014 303.032C323.103 303.486 324.146 303.849 324.962 304.756C325.325 305.255 325.96 304.62 325.597 304.166Z"
            fill="#2222FF" />
        <path
            d="M341.02 327.754C339.84 326.483 338.616 325.349 337.391 324.125C336.983 323.717 336.348 324.352 336.756 324.76C337.981 325.985 339.205 327.119 340.385 328.389C340.748 328.842 341.383 328.207 341.02 327.754Z"
            fill="#2222FF" />
        <path
            d="M286.995 255.994C286.859 255.359 286.043 255.405 285.771 255.813C285.634 256.04 285.498 256.221 285.362 256.448C285.272 256.493 285.226 256.584 285.135 256.675C284.954 256.992 284.773 257.264 284.637 257.582C283.865 258.897 283.23 260.258 282.641 261.664C282.55 261.891 282.595 262.073 282.686 262.209C282.595 262.39 282.55 262.526 282.459 262.708C282.096 263.388 282.958 264.068 283.548 263.524C285.317 261.755 287.54 258.716 286.995 255.994Z"
            fill="#FF5C82" />
        <path
            d="M295.296 257.173C295.206 256.629 294.48 256.584 294.162 256.856C293.8 257.173 293.527 257.536 293.255 257.899C293.164 257.945 293.028 258.035 292.938 258.171C291.849 259.895 290.488 261.347 290.216 263.433C290.171 263.524 290.171 263.615 290.171 263.705C290.171 263.751 290.171 263.841 290.171 263.887C290.125 264.295 290.624 264.658 291.033 264.522C293.618 263.705 295.705 259.804 295.296 257.173Z"
            fill="#FF5C82" />
        <path
            d="M304.05 257.763C303.959 257.31 303.415 257.128 303.052 257.355C301.011 258.58 300.466 261.074 299.287 263.025C299.151 263.297 299.151 263.524 299.287 263.705C299.151 263.978 298.969 264.25 298.833 264.522C298.47 265.112 299.196 265.747 299.786 265.474C302.371 264.068 304.685 260.757 304.05 257.763Z"
            fill="white" />
        <path
            d="M312.259 387.402C298.061 399.921 296.383 403.64 303.005 418.246C309.628 432.852 311.215 436.753 311.215 436.753C311.215 436.753 301.327 462.291 297.88 471.68C294.432 481.07 294.069 484.381 295.612 485.016C297.154 485.696 298.651 480.798 298.651 480.798C298.651 480.798 296.791 485.515 298.469 486.694C300.148 487.874 301.146 485.833 301.146 485.833C301.146 485.833 300.284 487.919 301.735 488.418C303.187 488.917 304.049 487.284 304.049 487.284C304.049 487.284 303.686 488.509 305.001 489.28C306.317 490.051 307.36 490.142 310.127 482.294C312.894 474.447 320.968 456.258 324.37 447.503C327.772 438.749 328.815 437.524 324.324 427.908C319.879 418.292 313.71 403.686 313.71 403.686L312.259 387.402Z"
            fill="#68D1C8" />
        <path
            d="M300.238 467.78C293.933 471.68 291.302 474.629 291.801 475.99C292.3 477.35 294.885 476.761 300.601 472.452C306.316 468.097 300.238 467.78 300.238 467.78Z"
            fill="#68D1C8" />
        <path
            d="M304.365 475.718C304.592 475.536 304.274 475.219 304.047 475.4C302.051 476.897 298.967 477.396 297.697 474.81C297.561 474.538 297.153 474.765 297.289 475.037C298.695 477.895 302.142 477.396 304.365 475.718Z"
            fill="#00AAD3" />
        <path
            d="M297.607 483.882C298.877 482.567 299.195 480.616 299.467 478.847C299.512 478.575 299.059 478.439 299.013 478.711C298.741 480.39 298.514 482.295 297.29 483.52C297.108 483.746 297.426 484.109 297.607 483.882Z"
            fill="#00AAD3" />
        <path
            d="M301.555 485.969C302.417 484.245 302.643 482.34 303.278 480.526C303.369 480.253 302.961 480.117 302.825 480.39C302.19 482.159 301.963 484.064 301.147 485.742C301.056 486.014 301.419 486.241 301.555 485.969Z"
            fill="#00AAD3" />
        <path
            d="M305.227 486.967C305.908 485.288 306.271 483.474 306.906 481.75C306.997 481.478 306.588 481.342 306.452 481.614C305.817 483.338 305.454 485.107 304.774 486.831C304.683 487.103 305.137 487.239 305.227 486.967Z"
            fill="#00AAD3" />
        <path
            d="M308.04 429.496C313.075 428.135 318.065 426.683 323.054 425.096C318.79 415.706 313.71 403.64 313.71 403.64L312.259 387.402C298.061 399.921 296.383 403.64 303.005 418.246C305.182 423.1 306.815 426.774 308.04 429.496Z"
            fill="#121212" />
        <path
            d="M312.848 433.76C312.213 434.531 311.668 435.438 311.442 436.436C311.351 436.708 311.804 436.844 311.895 436.572C312.122 435.665 312.576 434.803 313.211 434.122C313.347 433.85 313.029 433.533 312.848 433.76Z"
            fill="#2222FF" />
        <path
            d="M312.077 364.994C312.758 362.091 307.45 361.955 307.632 364.359C307.813 366.718 312.077 364.994 312.077 364.994Z"
            fill="#FF495D" />
        <path d="M306.319 374.61L312.851 391.121L321.242 389.398L312.216 372.388L306.319 374.61Z" fill="#68D1C8" />
        <path d="M309.539 382.684L306.319 374.565L310.673 373.068C310.991 376.379 310.537 379.6 309.539 382.684Z"
            fill="#64B2BF" />
        <path
            d="M305.136 374.973C306.18 375.608 307.404 376.016 308.584 376.107C309.763 376.198 310.943 375.926 311.94 375.245C313.936 373.839 315.025 370.936 314.571 368.577C314.163 366.491 312.712 365.493 311.578 364.767C310.625 364.177 309.491 363.905 308.357 363.951C307.949 363.951 307.541 364.041 307.132 364.132C304.864 364.722 303.05 366.944 302.415 369.167C301.825 371.526 303.095 373.703 305.136 374.973Z"
            fill="#68D1C8" />
        <path
            d="M308.675 373.975C308.267 375.109 309.401 376.243 310.535 375.88C311.034 375.744 311.533 375.517 311.941 375.2C313.937 373.794 315.026 370.891 314.572 368.532C314.164 366.445 312.712 365.447 311.578 364.722C310.626 364.132 309.492 363.86 308.358 363.905C308.947 364.45 309.945 364.903 309.401 366.264C308.993 367.307 308.902 368.487 309.31 369.575C309.628 370.437 309.855 371.299 309.492 372.206C309.31 372.75 309.038 373.249 308.721 373.794C308.721 373.884 308.721 373.93 308.675 373.975Z"
            fill="#FF495D" />
        <path
            d="M308.767 368.124L306.635 373.386C307.27 374.157 309.856 374.701 310.99 373.113C312.351 371.254 311.262 369.258 308.767 368.124Z"
            fill="#68D1C8" />
        <path
            d="M302.508 365.81C303.007 365.946 303.505 365.946 303.959 365.72C304.231 365.583 304.413 365.992 304.141 366.128C303.596 366.4 302.961 366.4 302.371 366.218C302.054 366.173 302.235 365.765 302.508 365.81Z"
            fill="#121212" />
        <path
            d="M305.729 366.808L305.14 367.126C304.867 367.262 304.686 366.854 304.913 366.718L305.503 366.4C305.775 366.264 306.001 366.672 305.729 366.808Z"
            fill="#121212" />
        <path
            d="M307.634 371.254C308.042 371.208 308.405 371.072 308.632 370.709C308.813 370.483 309.131 370.755 308.994 370.981C308.677 371.39 308.223 371.617 307.679 371.662C307.361 371.753 307.316 371.299 307.634 371.254Z"
            fill="#121212" />
        <path
            d="M365.105 411.08L342.607 434.259C342.607 434.259 338.615 431.855 319.791 415.208C303.96 401.237 299.696 399.377 310.447 388.491C312.488 386.404 315.073 384.045 318.203 381.142C318.339 381.006 318.475 380.916 318.611 380.779C333.399 367.58 339.159 380.235 347.37 389.806C355.58 399.513 365.105 411.08 365.105 411.08Z"
            fill="#121212" />
        <path
            d="M310.401 388.536C312.442 386.449 315.028 384.091 318.158 381.188C318.294 381.052 318.43 380.961 318.566 380.825C320.426 386.767 315.118 390.577 310.401 388.536Z"
            fill="#68D1C8" />
        <path
            d="M318.113 412.849C316.526 410.672 314.711 408.766 312.806 406.861C312.398 406.453 311.763 407.088 312.171 407.496C313.986 409.356 315.8 411.216 317.297 413.302C317.66 413.756 318.431 413.302 318.113 412.849Z"
            fill="white" />
        <path
            d="M386.785 491.684C384.925 489.96 382.975 488.101 380.117 486.422C374.311 483.02 370.864 484.744 368.732 482.022C366.6 479.301 368.188 473.903 363.606 473.404C359.025 472.905 350.361 463.833 350.361 463.833C350.361 463.833 368.959 422.147 369.14 421.286C361.338 419.607 350.906 419.879 343.194 417.929L342.423 426.774C342.423 426.774 334.44 440.382 331.764 451.631C329.087 462.881 324.551 471.045 335.665 480.934C342.65 487.148 357.347 498.397 367.28 505.836C369.186 507.379 370.456 508.467 370.456 508.467C360.476 519.036 360.159 521.758 366.237 517.539C371.998 513.502 394.678 497.581 394.678 497.581C394.678 497.581 391.866 494.088 386.785 491.684Z"
            fill="#FF495D" />
        <path
            d="M339.429 478.757C337.797 477.169 336.073 475.581 335.166 473.449C334.349 471.363 334.621 469.14 335.12 467.054C336.436 461.747 347.095 446.959 349.454 442.106C352.266 436.39 346.823 440.427 349.635 434.712C352.085 429.768 354.489 424.869 356.53 419.743C351.858 419.335 347.141 418.927 343.194 417.929L342.423 426.774C342.423 426.774 334.44 440.382 331.764 451.631C329.087 462.881 324.551 471.045 335.665 480.934C337.887 482.93 340.881 485.379 344.238 488.101C343.648 484.427 342.06 481.387 339.429 478.757Z"
            fill="#2222FF" />
        <path
            d="M386.787 491.684C385.744 490.732 384.701 489.734 383.476 488.781C376.944 493.816 370.276 498.216 364.334 503.659C365.332 504.43 366.33 505.156 367.282 505.882C369.187 507.424 370.458 508.513 370.458 508.513C360.478 519.082 360.161 521.803 366.239 517.585C372 513.548 394.68 497.626 394.68 497.626C394.68 497.626 391.867 494.088 386.787 491.684Z"
            fill="#037BAF" />
        <path
            d="M358.211 403.142L338.751 424.688C338.751 424.688 326.459 435.392 317.568 442.786C308.678 450.18 300.15 453.945 303.053 468.551C305.185 479.119 311.626 503.886 314.983 516.677H315.028C315.074 516.95 315.119 517.086 315.119 517.086C299.107 519.807 300.014 521.622 306.637 521.622C313.667 521.622 341.428 521.44 341.428 521.44C341.428 521.44 339.795 514.455 337.073 509.374C336.801 506.29 336.665 503.069 335.259 499.667C332.673 493.453 328.908 492.773 328.818 489.28C328.727 485.833 333.263 482.476 329.906 479.346C326.55 476.216 325.098 463.742 325.098 463.742C325.098 463.742 339.114 452.72 357.757 438.25C378.487 422.147 368.508 415.162 358.211 403.142Z"
            fill="#FF495D" />
        <path
            d="M313.032 509.193C313.758 511.96 314.439 514.5 314.983 516.723H315.028C315.074 516.995 315.119 517.131 315.119 517.131C299.107 519.853 300.014 521.667 306.637 521.667C313.667 521.667 341.428 521.486 341.428 521.486C341.428 521.486 339.885 514.999 337.345 509.964C329.271 509.737 321.152 509.601 313.032 509.193Z"
            fill="#037BAF" />
        <path
            d="M324.507 419.381C339.34 432.263 342.606 434.304 342.606 434.304L365.104 411.125C365.104 411.125 359.343 404.185 352.948 396.565C343.513 404.14 333.443 411.171 324.507 419.381Z"
            fill="#FF495D" />
        <path
            d="M361.022 432.626C357.121 435.574 352.948 438.069 349.137 441.153C348.684 441.516 349.319 442.151 349.772 441.789C353.492 438.749 357.665 436.3 361.475 433.397C361.929 433.079 361.475 432.263 361.022 432.626Z"
            fill="#121212" />
        <path
            d="M340.749 429.314C340.704 429.314 340.658 429.269 340.658 429.269H340.613C340.522 429.224 340.431 429.224 340.341 429.178C340.295 429.178 340.295 429.178 340.25 429.133C340.205 429.133 340.205 429.133 340.159 429.087C339.343 428.861 338.526 428.861 337.71 428.906C337.12 428.951 337.12 429.859 337.71 429.813C337.891 429.813 338.073 429.813 338.254 429.813C338.3 429.813 338.3 429.813 338.345 429.813C338.753 429.859 339.161 429.859 339.57 429.859C339.887 429.904 340.205 429.995 340.477 430.131C340.885 430.358 341.203 429.541 340.749 429.314Z"
            fill="#121212" />
        <path
            d="M323.466 462.745C323.42 462.699 323.33 462.654 323.284 462.563C323.239 462.382 323.058 462.2 322.831 462.2C322.105 461.701 321.243 461.339 320.381 461.293C320.018 461.293 319.837 461.701 319.973 461.974C320.427 462.745 321.152 463.062 321.969 463.108C322.332 463.198 322.649 463.334 323.012 463.47C323.466 463.652 323.738 463.062 323.466 462.745Z"
            fill="#121212" />
        <path
            d="M349.23 463.153C348.459 463.606 347.733 464.151 347.008 464.74C346.554 465.103 347.189 465.738 347.643 465.375C348.278 464.831 348.958 464.377 349.684 463.924C350.183 463.652 349.729 462.881 349.23 463.153Z"
            fill="#121212" />
        <path
            d="M398.944 380.825C395.86 377.74 381.889 361.592 368.916 353.473C363.7 350.207 358.166 350.343 350.182 356.557C348.413 357.963 346.463 359.415 344.467 360.957C347.007 363.588 349.094 366.536 351.316 369.485C352.496 371.027 353.721 372.524 354.945 374.021L362.339 368.759C362.339 368.759 368.916 374.746 377.217 382.548C385.563 390.305 389.51 392.8 390.644 391.802C392.004 390.577 390.326 389.262 390.326 389.262C390.326 389.262 392.186 390.758 393.683 389.806C395.18 388.808 393.138 386.086 393.138 386.086C393.138 386.086 395.225 387.81 396.359 386.994C398.173 385.769 396.404 383.773 396.404 383.773C398.718 385.905 402.029 383.909 398.944 380.825Z"
            fill="#68D1C8" />
        <path
            d="M325.01 382.321C327.097 383.183 329.183 384.09 331.27 384.952C333.039 385.678 334.808 386.358 336.531 387.084L357.216 372.388C353.859 367.852 350.366 363.497 346.647 359.279C337.303 366.445 325.827 374.792 319.658 380.099C321.336 381.006 323.286 381.596 325.01 382.321Z"
            fill="#121212" />
        <path
            d="M379.397 382.503C379.034 390.35 379.578 393.888 381.846 393.707C383.842 393.571 383.479 382.593 383.479 382.593L379.397 382.503Z"
            fill="#68D1C8" />
        <path
            d="M364.747 366.446C364.066 366.763 363.567 367.307 362.932 367.67C362.66 367.806 362.887 368.215 363.159 368.079C363.794 367.716 364.293 367.171 364.974 366.854C365.246 366.718 365.019 366.31 364.747 366.446Z"
            fill="#2222FF" />
        <path
            d="M380.122 389.624C379.85 389.624 379.85 390.078 380.167 390.078C380.984 390.032 381.574 390.35 381.574 391.212C381.574 391.801 381.301 392.391 380.984 392.89C380.848 393.162 381.256 393.344 381.392 393.071C381.8 392.391 382.163 391.484 381.937 390.667C381.755 389.806 380.939 389.579 380.122 389.624Z"
            fill="#00AAD3" />
        <path
            d="M387.377 385.678C388.284 386.812 389.464 387.765 390.326 388.99C390.507 389.216 390.87 388.99 390.734 388.763C389.827 387.538 388.647 386.54 387.695 385.361C387.513 385.134 387.196 385.451 387.377 385.678Z"
            fill="#00AAD3" />
        <path
            d="M389.873 382.775C391.324 384.317 392.957 385.633 394.227 387.311C394.409 387.538 394.772 387.311 394.636 387.084C393.366 385.36 391.687 384 390.19 382.457C390.009 382.231 389.691 382.548 389.873 382.775Z"
            fill="#00AAD3" />
        <path
            d="M392.641 379.554C394.41 381.006 395.725 382.82 397.131 384.589C397.313 384.816 397.63 384.499 397.449 384.272C396.043 382.503 394.682 380.688 392.958 379.237C392.731 379.055 392.414 379.373 392.641 379.554Z"
            fill="#00AAD3" />
        <path
            d="M385.476 381.187C385.476 381.278 385.476 381.323 385.476 381.414C385.43 381.46 385.43 381.55 385.476 381.641C385.521 381.686 385.521 381.732 385.566 381.777C385.702 382.095 385.929 382.367 386.111 382.639C386.156 382.684 386.201 382.73 386.201 382.73C386.383 382.911 386.519 383.138 386.746 383.319C386.882 383.455 387.154 383.365 387.109 383.138C387.018 382.276 386.473 381.46 385.748 381.006C385.657 380.87 385.476 381.051 385.476 381.187Z"
            fill="#00AAD3" />
        <path
            d="M388.059 390.395C388.105 390.667 388.558 390.531 388.513 390.259C388.377 389.579 388.921 389.443 389.511 389.624C390.055 389.806 390.554 390.169 390.645 390.758C390.69 391.03 391.144 390.894 391.098 390.622C390.781 389.08 387.696 388.309 388.059 390.395Z"
            fill="#00AAD3" />
        <path
            d="M396.998 384.816C396.091 383.229 393.687 384.09 394.004 385.905C394.049 386.177 394.503 386.086 394.458 385.769C394.231 384.453 395.955 383.954 396.635 385.043C396.726 385.315 397.134 385.088 396.998 384.816Z"
            fill="#00AAD3" />
        <path
            d="M399.673 382.503C399.174 382.004 398.539 381.369 397.768 381.414C396.997 381.459 396.68 382.276 396.589 382.911C396.544 383.183 396.997 383.319 397.042 383.047C397.133 382.503 397.315 381.777 397.995 381.868C398.539 381.958 399.038 382.457 399.356 382.82C399.537 383.047 399.855 382.729 399.673 382.503Z"
            fill="#00AAD3" />
        <path
            d="M390.827 388.263C390.873 388.536 391.326 388.536 391.281 388.263C391.145 386.767 393.322 387.175 393.549 388.309C393.594 388.581 394.048 388.49 394.003 388.173C393.64 386.54 390.646 386.268 390.827 388.263Z"
            fill="#00AAD3" />
        <path
            d="M195.414 454.535C194.779 438.885 194.28 424.28 194.28 424.28L185.389 422.148L170.557 414.21L168.334 413.03C168.289 413.575 168.289 414.3 168.289 415.162C168.289 415.661 168.289 416.251 168.334 416.886C168.47 422.284 169.105 431.356 169.876 440.836C171.192 457.937 172.916 476.262 172.916 476.262C172.916 476.262 166.248 478.349 161.122 477.215C155.996 476.081 155.361 480.753 150.054 484.336C144.747 487.919 139.349 483.157 133.543 487.647C128.554 491.503 128.145 492.455 125.832 493.227C128.78 496.22 128.78 498.307 131.321 501.618C134.178 505.338 141.164 508.105 143.704 512.051C157.629 507.288 178.087 499.985 184.845 496.901C194.416 492.546 195.323 493.544 195.732 482.249C195.958 477.351 195.868 465.965 195.414 454.535Z"
            fill="#FD7960" />
        <path
            d="M195.414 454.535C194.779 438.885 194.28 424.28 194.28 424.28L185.39 422.148L183.212 420.968C183.122 427.908 182.94 434.803 183.394 441.743C183.666 445.78 184.165 449.772 184.981 453.718C185.843 457.664 187.159 461.475 188.247 465.33C190.062 471.998 191.287 478.847 191.513 485.742C191.604 488.509 191.513 491.231 191.287 493.952C194.915 492.047 195.46 490.142 195.732 482.204C195.959 477.351 195.868 465.965 195.414 454.535Z"
            fill="#FF495D" />
        <path
            d="M174.232 479.981C174.322 478.847 174.005 477.759 173.551 476.761C173.37 476.307 172.78 476.443 172.689 476.806C172.599 476.897 172.553 476.987 172.599 477.169C172.826 478.212 172.871 479.255 173.415 480.208C173.597 480.525 174.186 480.344 174.232 479.981Z"
            fill="#121212" />
        <path
            d="M136.855 514.999C136.22 514.863 139.849 513.593 143.75 512.051C137.717 505.836 131.548 499.758 125.878 493.226C121.342 495.585 116.534 497.944 115.899 498.851C115.899 498.851 139.078 524.479 141.436 526.974C143.704 529.469 143.659 525.25 136.855 514.999Z"
            fill="#121212" />
        <path
            d="M223.174 472.769C218.82 475.717 221.768 479.392 220.679 485.697C219.591 492.002 211.607 493.907 210.836 501.21C210.473 504.793 209.385 509.102 208.704 510.599C213.014 510.191 214.919 515.906 218.91 515.906C223.31 515.906 229.887 510.282 234.65 510.599C240.955 496.9 251.615 475.355 253.792 469.14C257.239 459.206 258.555 459.206 250.708 451.132C247.26 447.594 238.959 439.792 230.386 432.263C218.638 421.921 207.661 412.214 207.661 412.214L199.995 417.158L184.029 422.42L181.625 423.191C181.987 423.599 182.486 424.098 183.167 424.688C183.53 425.05 183.983 425.413 184.437 425.867C188.428 429.45 195.459 435.302 202.853 441.289C216.143 452.13 230.568 463.516 230.568 463.516C230.568 463.516 227.529 469.821 223.174 472.769Z"
            fill="#FD7960" />
        <path
            d="M234.198 465.194C233.473 464.332 232.429 463.833 231.386 463.425C230.932 463.243 230.615 463.788 230.842 464.105C230.842 464.241 230.887 464.332 231.023 464.423C231.885 464.967 232.747 465.693 233.745 465.92C234.153 466.01 234.425 465.466 234.198 465.194Z"
            fill="#121212" />
        <path
            d="M232.066 517.63C231.522 517.993 233.109 514.5 234.697 510.599C226.033 510.645 217.369 510.917 208.705 510.554C207.254 515.453 205.666 520.578 205.893 521.667C205.893 521.667 240.457 522.529 243.859 522.574C247.261 522.62 244.177 519.717 232.066 517.63Z"
            fill="#121212" />
        <path
            d="M194.418 398.787C186.163 398.107 177.953 397.154 169.697 396.428C169.38 401.101 168.971 406.589 168.382 412.985L180.493 428.589C184.303 428.453 188.068 428.815 191.878 429.314L206.575 422.556C206.575 422.556 208.389 411.942 210.067 399.604C204.851 399.468 199.635 399.195 194.418 398.787Z"
            fill="#FD7960" />
        <path
            d="M194.462 429.405C189.337 428.543 184.12 428.044 178.904 428.044C178.314 428.044 178.314 428.951 178.904 428.951C184.03 428.997 189.155 429.45 194.19 430.312C194.78 430.358 195.007 429.496 194.462 429.405Z"
            fill="#121212" />
        <path
            d="M207.253 412.849C206.255 412.803 205.347 412.395 204.349 412.168C204.077 412.077 203.941 412.531 204.213 412.622C205.211 412.849 206.164 413.257 207.207 413.302C207.525 413.302 207.525 412.849 207.253 412.849Z"
            fill="#121212" />
        <path
            d="M185.025 309.655C185.615 314.01 185.298 327.164 185.071 334.875C190.741 334.875 196.411 334.966 202.035 335.465C202.534 329.341 202.353 323.036 202.489 316.368C202.716 304.257 200.72 303.577 196.91 297.816C191.693 289.923 190.469 287.655 188.654 288.245C186.885 288.835 188.745 293.144 190.151 296.183C190.151 296.183 186.159 288.608 184.028 289.334C182.485 289.833 183.03 291.647 183.03 291.647C183.03 291.647 182.304 289.878 180.444 290.74C178.584 291.602 180.127 293.688 180.127 293.688C178.766 291.783 175.364 292.645 177.768 296.546C180.58 300.946 184.118 303.35 185.025 309.655Z"
            fill="#68D1C8" />
        <path
            d="M185.207 330.203C185.071 336.009 184.844 340.681 184.844 340.681C184.844 340.681 180.263 353.745 172.552 376.198L180.354 389.488C180.354 389.488 195.141 360.685 199.042 350.161C201.265 344.174 201.99 338.005 202.263 331.609C196.593 331.02 190.877 330.385 185.207 330.203Z"
            fill="#FEB9CC" />
        <path
            d="M223.127 310.789C223.263 314.917 221.766 326.756 220.723 334.512C226.166 336.327 231.609 338.186 237.007 340.046C238.368 333.469 238.912 326.574 239.774 319.317C241.271 307.296 238.867 306.616 236.145 300.265C233.424 293.915 230.248 290.15 228.298 290.15C226.347 290.15 226.801 291.738 226.801 291.738C226.801 291.738 225.758 290.15 224.17 290.468C222.583 290.785 223.263 292.282 223.263 292.282C223.263 292.282 222.129 290.332 220.179 291.012C218.228 291.692 219.362 293.96 219.362 293.96C218.228 291.919 214.372 291.239 215.96 295.548C217.548 299.857 222.9 304.438 223.127 310.789Z"
            fill="#68D1C8" />
        <path
            d="M221.404 329.296C220.542 335.918 219.726 341.588 219.726 341.588C219.726 341.588 214.509 352.928 204.53 374.474L210.427 391.62C210.427 391.62 227.891 362.59 232.88 352.475C235.965 346.215 237.325 339.593 238.233 332.607C232.88 330.883 227.029 330.339 221.404 329.296Z"
            fill="#FEB9CC" />
        <path
            d="M223.9 305.663C217.731 301.264 215.872 300.765 215.01 302.125C214.148 303.486 217.55 305.346 223.583 309.61C229.616 313.874 223.9 305.663 223.9 305.663Z"
            fill="#68D1C8" />
        <path
            d="M199.316 306.48C201.766 299.313 201.63 293.96 200.087 293.507C198.545 293.053 197.729 296.863 195.37 303.894C193.011 310.88 199.316 306.48 199.316 306.48Z"
            fill="#68D1C8" />
        <path
            d="M224.49 345.58C223.628 344.537 222.947 343.312 221.813 342.541C221.587 342.405 221.36 342.722 221.541 342.904C221.451 342.995 221.451 343.131 221.541 343.221C222.448 344.129 223.038 345.353 224.217 345.943C224.444 346.034 224.671 345.762 224.49 345.58Z"
            fill="#FD7960" />
        <path
            d="M188.109 339.093C187.61 339.502 187.02 339.91 186.385 340.091C186.113 340.182 186.204 340.59 186.521 340.545C187.247 340.364 187.882 339.865 188.426 339.411C188.653 339.275 188.336 338.912 188.109 339.093Z"
            fill="#FD7960" />
        <path
            d="M221.859 304.711C221.723 304.529 221.633 304.348 221.542 304.121C221.451 303.849 220.998 303.985 221.088 304.257C221.179 304.529 221.315 304.802 221.542 305.028C221.723 305.255 222.041 304.938 221.859 304.711Z"
            fill="#64B2BF" />
        <path
            d="M217.367 303.305C217.186 302.715 216.641 302.261 216.142 301.944C215.916 301.808 215.689 302.171 215.916 302.352C216.278 302.579 216.596 302.851 216.823 303.214C217.14 303.713 216.913 304.076 216.414 304.393C216.142 304.529 216.369 304.938 216.641 304.802C217.186 304.439 217.594 303.985 217.367 303.305Z"
            fill="#FD7960" />
        <path
            d="M218.275 295.276C217.277 296.228 216.461 294.505 216.234 293.734C216.143 293.462 215.735 293.552 215.781 293.87C216.098 295.049 217.277 296.909 218.593 295.639C218.82 295.367 218.502 295.049 218.275 295.276Z"
            fill="#FD7960" />
        <path
            d="M222.674 293.915C222.175 294.097 221.585 294.187 221.132 293.915C220.588 293.643 220.406 293.008 220.406 292.464C220.406 292.191 219.953 292.191 219.953 292.464C219.998 293.144 220.179 293.87 220.814 294.278C221.404 294.641 222.175 294.596 222.81 294.369C223.082 294.278 222.946 293.824 222.674 293.915Z"
            fill="#FD7960" />
        <path
            d="M222.402 300.084C221.313 298.134 220.769 295.956 219.68 294.051C219.544 293.779 219.136 294.006 219.272 294.278C220.36 296.229 220.905 298.406 221.993 300.311C222.175 300.538 222.538 300.311 222.402 300.084Z"
            fill="#FD7960" />
        <path
            d="M226.939 298.995C224.989 297.544 224.49 294.868 223.447 292.781C223.311 292.509 222.902 292.736 223.038 293.008C224.127 295.185 224.671 297.816 226.667 299.358C226.939 299.585 227.166 299.177 226.939 298.995Z"
            fill="#FD7960" />
        <path
            d="M226.122 293.326C225.124 293.87 224.172 293.144 223.945 292.101C223.9 291.829 223.446 291.919 223.491 292.237C223.764 293.598 225.079 294.414 226.304 293.734C226.576 293.598 226.349 293.189 226.122 293.326Z"
            fill="#FD7960" />
        <path
            d="M230.523 298.315C229.207 296.274 228.345 294.006 227.438 291.783C227.347 291.511 226.894 291.647 226.984 291.919C227.892 294.187 228.799 296.501 230.114 298.542C230.25 298.814 230.659 298.587 230.523 298.315Z"
            fill="#FD7960" />
        <path
            d="M230.204 292.963C229.16 293.507 228.253 292.373 228.117 291.42C228.072 291.148 227.618 291.148 227.663 291.42C227.799 292.736 229.07 294.097 230.43 293.371C230.657 293.235 230.43 292.827 230.204 292.963Z"
            fill="#FD7960" />
        <path
            d="M229.704 310.335C228.389 308.975 226.121 309.428 224.397 309.247C224.216 309.247 224.17 309.428 224.216 309.564C224.125 309.655 224.08 309.837 224.216 309.927C225.123 310.562 226.075 311.651 227.209 311.832C228.253 312.014 228.752 311.061 229.659 310.698C229.795 310.608 229.795 310.426 229.704 310.335Z"
            fill="#64B2BF" />
        <path
            d="M196.862 298.27C196.499 298.86 196.136 299.585 195.32 299.585C195.047 299.585 195.047 300.039 195.32 300.039C196.318 300.039 196.771 299.222 197.27 298.497C197.406 298.224 196.998 297.998 196.862 298.27Z"
            fill="#64B2BF" />
        <path
            d="M188.656 309.61C188.429 308.975 187.749 308.43 187.25 308.022C186.978 307.795 185.798 306.933 185.662 307.75C185.662 307.841 185.662 307.931 185.662 308.022C185.571 308.067 185.526 308.203 185.571 308.294C185.98 309.065 186.433 310.109 187.34 310.381C187.93 310.562 188.928 310.426 188.656 309.61Z"
            fill="#64B2BF" />
        <path
            d="M192.283 298.134C191.012 296.501 189.969 294.686 189.062 292.827C188.926 292.555 188.563 292.781 188.654 293.054C189.561 294.959 190.65 296.773 191.92 298.451C192.146 298.678 192.464 298.361 192.283 298.134Z"
            fill="#FD7960" />
        <path
            d="M189.605 288.79C189.469 288.563 189.061 288.79 189.197 289.016C189.65 289.742 190.149 291.057 189.106 291.466C188.834 291.556 188.97 292.01 189.242 291.919C190.603 291.375 190.24 289.833 189.605 288.79Z"
            fill="#FD7960" />
        <path
            d="M200.673 296.728C200.129 296.909 199.358 297.136 199.131 296.41C198.95 295.866 199.131 295.185 199.313 294.641C199.403 294.369 198.95 294.233 198.859 294.505C198.632 295.185 198.405 296.093 198.814 296.773C199.222 297.544 200.129 297.408 200.809 297.136C201.082 297.045 200.946 296.637 200.673 296.728Z"
            fill="#FD7960" />
        <path
            d="M187.612 298.769C185.435 297.317 184.619 294.46 183.621 292.192C183.485 291.92 183.122 292.146 183.213 292.419C184.256 294.777 185.118 297.68 187.386 299.132C187.658 299.359 187.885 298.95 187.612 298.769Z"
            fill="#FD7960" />
        <path
            d="M184.301 299.676C182.305 298.633 181.216 295.956 180.627 293.915C180.627 293.87 180.627 293.87 180.581 293.825C180.627 293.915 180.763 294.006 180.899 293.915C181.988 293.416 182.169 292.237 181.307 291.375C181.08 291.148 180.763 291.466 180.99 291.693C181.625 292.373 181.489 293.144 180.672 293.507C180.536 293.552 180.536 293.689 180.581 293.779C180.445 293.598 180.128 293.734 180.173 293.961C180.808 296.138 181.942 298.905 184.074 299.994C184.346 300.22 184.573 299.812 184.301 299.676Z"
            fill="#FD7960" />
        <path
            d="M184.89 289.697C184.664 289.515 184.437 289.924 184.664 290.105C185.661 290.785 185.253 292.509 183.938 292.418C183.666 292.373 183.666 292.827 183.938 292.872C185.752 293.008 186.206 290.649 184.89 289.697Z"
            fill="#FD7960" />
        <path
            d="M178.541 293.416C178.269 293.28 178.042 293.643 178.314 293.824C179.131 294.278 179.403 295.412 178.36 295.82C178.088 295.911 178.224 296.364 178.496 296.274C179.857 295.684 179.766 294.096 178.541 293.416Z"
            fill="#FD7960" />
        <path
            d="M199.363 356.421L198.456 363.542L197.05 374.066L188.023 370.664L193.103 355.74L195.689 356.013L199.363 356.421Z"
            fill="#68D1C8" />
        <path d="M199.363 356.421L198.411 363.497C197.05 361.184 196.097 358.689 195.644 356.013L199.363 356.421Z"
            fill="#64B2BF" />
        <path
            d="M198.998 357.737C197.909 358.281 196.684 358.644 195.459 358.689C194.28 358.689 193.101 358.372 192.148 357.601C190.243 356.058 189.336 353.155 189.926 350.797C190.47 348.755 191.967 347.803 193.101 347.168C194.099 346.623 195.278 346.397 196.367 346.533C196.775 346.578 197.183 346.669 197.546 346.76C199.814 347.485 201.492 349.799 201.946 352.067C202.49 354.516 201.129 356.648 198.998 357.737Z"
            fill="#68D1C8" />
        <path
            d="M195.55 356.602C195.913 357.736 194.688 358.825 193.554 358.417C193.055 358.235 192.602 358.008 192.148 357.645C190.243 356.103 189.336 353.2 189.926 350.841C190.47 348.8 191.967 347.848 193.101 347.213C194.099 346.668 195.278 346.442 196.367 346.578C195.732 347.077 194.734 347.485 195.187 348.891C195.55 349.98 195.596 351.159 195.097 352.202C194.734 353.019 194.462 353.881 194.779 354.833C194.96 355.377 195.187 355.922 195.459 356.466C195.505 356.466 195.505 356.511 195.55 356.602Z"
            fill="#FF495D" />
        <path
            d="M202.537 349.708C202.038 349.799 201.539 349.799 201.086 349.527C200.814 349.391 200.632 349.799 200.859 349.935C201.403 350.252 202.038 350.252 202.628 350.162C202.991 350.071 202.855 349.617 202.537 349.708Z"
            fill="#121212" />
        <path
            d="M198.82 349.844L199.182 350.433C199.318 350.66 199.727 350.433 199.545 350.207L199.182 349.617C199.046 349.345 198.638 349.572 198.82 349.844Z"
            fill="#121212" />
        <path
            d="M197.275 351.023C194.553 351.205 192.829 352.702 193.419 354.924C193.918 356.784 196.504 357.237 197.411 356.693L197.275 351.023Z"
            fill="#68D1C8" />
        <path
            d="M197.276 354.334C196.914 354.153 196.641 353.881 196.551 353.518C196.46 353.246 196.052 353.382 196.142 353.654C196.278 354.153 196.641 354.516 197.095 354.743C197.322 354.879 197.549 354.471 197.276 354.334Z"
            fill="#121212" />
        <path
            d="M193.919 348.528C194.101 348.029 193.602 347.349 193.012 347.667C191.651 348.392 190.563 349.345 189.383 350.343C187.614 351.885 185.8 352.747 183.532 353.2C179.767 353.972 175.866 354.38 172.192 355.559C168.654 356.648 165.433 358.598 162.122 360.231C160.308 361.138 156.77 362.499 156.271 364.767C155.59 367.852 161.623 366.491 163.029 366.264C166.613 365.72 169.697 363.497 173.417 364.586C176.274 365.402 179.404 365.13 182.171 364.132C185.392 362.998 186.526 359.596 189.293 357.873C190.245 357.283 191.198 356.739 191.787 355.741C192.876 353.745 193.239 351.25 194.146 349.163C194.237 348.937 194.101 348.664 193.919 348.528Z"
            fill="#FF495D" />
        <path
            d="M194.418 357.555C193.602 356.013 191.288 355.831 189.701 356.013C189.247 356.058 189.02 356.603 189.202 356.965C189.247 357.056 189.293 357.102 189.338 357.147C189.157 357.147 188.975 357.192 188.794 357.238C187.297 357.51 186.163 358.644 184.802 359.143C183.985 359.46 184.575 360.64 185.392 360.367C187.025 359.778 188.159 358.508 189.973 358.508C191.334 358.508 192.559 358.78 193.919 358.508C194.328 358.462 194.6 357.963 194.418 357.555Z"
            fill="#FF495D" />
        <path
            d="M177.907 399.694C188.567 399.921 199.181 400.511 209.795 401.282C210.249 398.016 210.702 394.659 211.065 391.257C212.88 375.835 217.869 371.753 192.921 370.392C170.967 369.212 171.512 370.8 169.425 399.558C172.283 399.604 175.095 399.649 177.907 399.694Z"
            fill="#FEB9CC" />
        <path
            d="M185.485 369.394C183.943 369.394 182.401 369.167 180.813 369.031C180.223 368.986 180.223 369.893 180.813 369.938C182.355 370.074 183.897 370.256 185.485 370.301C186.075 370.301 186.075 369.394 185.485 369.394Z"
            fill="#FD7960" />
        <path d="M545.862 302.806L548.72 320.36L556.884 316.822L552.122 301.944L545.862 302.806Z" fill="#FEB9CC" />
        <path
            d="M549.536 310.608C549.083 311.923 548.493 313.103 547.676 314.1L545.862 302.806L550.852 302.261C550.897 305.21 550.489 307.886 549.536 310.608Z"
            fill="#FF5C82" />
        <path
            d="M544.821 302.715C545.683 303.577 546.726 304.302 547.86 304.711C548.994 305.119 550.173 305.164 551.353 304.756C553.666 303.894 555.435 301.399 555.616 299.041C555.753 296.954 554.664 295.548 553.711 294.595C552.94 293.779 551.897 293.189 550.808 292.962C550.4 292.872 549.992 292.826 549.584 292.826C547.225 292.826 544.911 294.459 543.732 296.455C542.507 298.542 543.142 300.991 544.821 302.715Z"
            fill="#FEB9CC" />
        <path
            d="M548.497 302.67C547.817 303.668 548.588 305.029 549.812 304.983C550.311 304.983 550.856 304.892 551.355 304.711C553.668 303.849 555.437 301.354 555.618 298.996C555.755 296.909 554.666 295.503 553.713 294.55C552.942 293.734 551.899 293.144 550.81 292.917C551.264 293.598 552.08 294.278 551.219 295.458C550.538 296.365 550.13 297.499 550.266 298.633C550.357 299.54 550.357 300.402 549.767 301.218C549.45 301.672 549.041 302.126 548.633 302.579C548.542 302.579 548.497 302.624 548.497 302.67Z"
            fill="#121212" />
        <path
            d="M550.174 296.637L546.953 301.309C547.407 302.216 549.811 303.259 551.263 301.989C552.986 300.447 552.351 298.27 550.174 296.637Z"
            fill="#FEB9CC" />
        <path
            d="M544.728 293.779C545.136 294.006 545.635 294.142 546.134 294.051C546.406 294.006 546.497 294.46 546.225 294.505C545.635 294.641 545 294.46 544.501 294.142C544.229 293.961 544.501 293.598 544.728 293.779Z"
            fill="#121212" />
        <path
            d="M547.631 295.049L547.087 295.503C546.86 295.684 546.588 295.321 546.815 295.14L547.359 294.686C547.586 294.505 547.858 294.868 547.631 295.049Z"
            fill="#121212" />
        <path
            d="M548.36 299.449C548.768 299.495 549.131 299.404 549.449 299.132C549.675 298.95 549.948 299.313 549.721 299.495C549.313 299.857 548.814 299.948 548.315 299.903C548.043 299.857 548.088 299.404 548.36 299.449Z"
            fill="#121212" />
        <path
            d="M616.538 439.157C613.725 438.114 611.276 436.662 608.191 436.481C605.334 436.345 602.476 436.799 599.618 436.436C597.35 436.163 595.264 435.392 593.631 433.759C592.043 432.217 590.955 430.176 589.276 428.724C587.326 427.046 584.559 426.593 582.109 426.048C579.615 425.504 577.074 425.05 574.489 424.824C574.308 424.824 574.217 424.642 574.217 424.506H574.171C574.171 424.506 574.444 404.185 574.489 385.315C574.489 374.837 574.444 364.767 574.171 358.825C574.126 358.144 574.126 357.509 574.081 356.92C574.035 355.967 573.945 355.151 573.899 354.561L571.813 356.058L558.023 366.037L549.541 369.167C549.541 369.167 550.131 385.315 550.675 402.552C551.083 415.162 551.355 425.141 551.9 430.539C553.17 442.922 553.941 441.743 563.603 445.734C570.724 448.683 597.214 459.252 610.142 463.153C614.632 464.513 617.581 465.421 617.581 465.421C617.581 478.983 619.803 482.884 620.348 479.165C620.801 476.171 624.113 450.905 625.383 441.335C622.344 440.972 619.395 440.246 616.538 439.157Z"
            fill="#121212" />
        <path
            d="M569.135 445.009C567.412 443.104 565.733 441.108 564.962 438.613C563.874 435.075 564.327 431.446 564.1 427.817C563.828 424.143 562.014 420.877 561.288 417.339C560.517 413.756 560.472 409.991 560.381 406.362C560.29 402.688 560.29 399.059 560.789 395.385C561.288 392.119 562.468 387.583 560.789 384.499C558.839 380.915 553.94 380.462 549.857 380.462C550.084 386.54 550.356 394.433 550.583 402.552C550.991 415.162 551.264 425.141 551.808 430.539C553.078 442.922 553.849 441.743 563.511 445.735C565.371 446.506 568.591 447.821 572.537 449.363C571.63 447.821 570.405 446.415 569.135 445.009Z"
            fill="#2222FF" />
        <path
            d="M617.036 439.384C615.993 444.918 615.267 450.543 614.223 456.031C613.725 458.662 613.18 461.293 612.636 463.924C615.675 464.831 617.535 465.376 617.535 465.376C617.535 478.938 619.757 482.839 620.302 479.12C620.755 476.126 624.067 450.86 625.337 441.289C622.524 440.972 619.757 440.337 617.036 439.384Z"
            fill="#00AAD3" />
        <path
            d="M569.816 426.411C570.27 426.139 570.769 426.048 571.223 425.867C571.767 425.685 572.13 426.502 571.54 426.729C571.132 426.865 570.678 426.956 570.315 427.182C569.862 427.455 569.317 426.729 569.816 426.411Z"
            fill="#2222FF" />
        <path
            d="M555.483 347.848C550.947 348.256 546.502 348.619 541.966 348.71C539.516 348.755 537.022 348.8 534.618 349.118C537.112 366.264 538.02 372.252 537.974 373.385C537.974 373.385 521.191 408.313 516.428 416.659C513.843 421.195 510.577 433.215 508.173 441.062C504.408 453.446 498.647 472.497 496.561 479.528C504.499 482.022 512.89 482.567 521.236 482.975C521.645 481.569 522.144 480.299 522.96 479.255C528.766 471.907 529.855 466.01 528.948 464.332C527.178 461.248 529.764 458.118 530.535 451.223C531.352 443.829 532.531 434.667 532.531 434.667C532.531 434.667 549.904 399.876 559.066 386.086C561.153 382.956 573.173 385.587 573.173 385.587C573.173 385.587 573.945 359.233 574.262 346.532C567.957 346.85 561.697 347.304 555.483 347.848Z"
            fill="#121212" />
        <path
            d="M495.653 482.249C495.653 482.249 496.197 480.435 497.104 477.441C505.451 478.394 513.751 479.981 522.143 480.435C520.828 482.93 520.646 486.196 519.557 489.235C519.557 489.235 499.826 487.874 490.709 487.647C469.435 487.103 483.723 484.427 495.653 482.249Z"
            fill="#00AAD3" />
        <path
            d="M531.851 430.63C531.896 431.038 532.078 431.446 532.214 431.809C532.395 432.354 531.533 432.671 531.352 432.127C531.17 431.673 531.034 431.174 530.944 430.721C530.853 430.086 531.76 430.04 531.851 430.63Z"
            fill="#2222FF" />
        <path
            d="M566.595 384.771C562.059 384.816 557.523 385.179 552.987 385.089C552.397 385.089 552.397 385.996 552.987 385.996C557.523 386.132 562.059 385.724 566.595 385.678C567.139 385.678 567.139 384.771 566.595 384.771Z"
            fill="#2222FF" />
        <path
            d="M536.613 242.613C537.248 234.539 537.747 231.5 540.196 231.591C543.235 231.681 541.92 245.561 541.92 245.561L536.613 242.613Z"
            fill="#FEB9CC" />
        <path
            d="M473.744 257.037C473.744 253.635 475.104 250.914 477.599 251.367C480.094 251.821 487.578 264.295 487.578 264.295L477.599 262.481L473.744 257.037Z"
            fill="#FEB9CC" />
        <path
            d="M551.535 252.774C544.55 247.194 540.921 243.974 537.791 241.388C536.703 239.891 535.296 238.621 533.936 237.17C532.756 235.9 531.668 234.539 530.534 233.223C529.763 232.316 528.901 231.046 527.767 230.502C526.497 229.867 524.637 230.593 524.773 232.044C524.864 232.906 525.227 233.858 525.544 234.63C525.544 234.675 525.589 234.675 525.589 234.72C524.047 233.314 522.278 232.225 520.872 233.45C519.602 234.539 520.418 236.126 521.552 237.578C520.282 236.535 518.921 235.718 517.651 236.308C516.155 236.988 516.654 238.893 517.742 240.799C517.379 240.617 516.971 240.572 516.563 240.662C515.474 240.889 515.61 241.842 515.973 242.658C516.654 244.337 518.105 245.697 519.33 246.967C520.6 248.328 521.825 249.734 523.185 251.004C523.82 251.594 532.257 258.761 539.424 264.794C543.325 260.666 547.453 256.72 551.535 252.774Z"
            fill="#FEB9CC" />
        <path
            d="M529.672 245.924C529.808 244.972 530.851 241.071 530.08 240.708C529.49 240.436 528.084 240.799 527.449 240.889C526.769 241.025 526.089 241.207 525.408 241.434C522.777 242.341 520.373 243.974 518.695 246.242C518.922 246.469 519.148 246.741 519.375 246.968C520.645 248.328 521.87 249.734 523.231 251.005C523.548 251.322 525.907 253.318 529.082 255.994C529.763 252.638 529.218 249.281 529.672 245.924Z"
            fill="#FF5C82" />
        <path
            d="M573.488 292.101C572.944 269.103 569.451 266.245 557.885 257.718C552.986 254.089 549.448 251.095 546.545 248.737C542.553 252.728 538.471 256.584 534.842 260.893C541.963 266.926 554.8 279.99 554.8 279.99L558.384 315.189C547.225 315.416 537.745 315.007 533.617 315.824C527.766 317.003 530.533 320.723 532.302 333.061C533.39 340.772 534.116 346.85 534.978 351.749C547.905 351.068 561.15 350.706 574.078 350.388C574.214 345.671 574.305 341.951 574.305 340.545C574.441 331.292 573.67 299.494 573.488 292.101Z"
            fill="#2222FF" />
        <path
            d="M490.526 291.874C496.741 291.329 502.955 290.558 509.169 289.923C507.264 283.119 504.951 274.909 503.635 271.416C501.277 264.975 479.731 261.709 477.599 260.666C475.467 259.578 474.786 254.406 473.063 254.406C471.339 254.406 472.655 256.992 473.29 259.986C473.925 262.98 474.56 264.522 477.372 266.427C480.184 268.332 484.04 269.239 485.99 276.134C487.034 279.808 488.576 285.523 490.526 291.874Z"
            fill="#FEB9CC" />
        <path
            d="M550.128 325.894C543.869 323.081 512.026 300.492 512.026 300.492C512.026 300.492 509.531 291.103 507.082 282.666C500.867 283.392 494.562 283.845 488.348 284.707C490.435 291.919 493.292 301.082 496.785 309.111C501.956 320.859 522.595 327.209 547.588 340.091L552.487 340.953C552.487 340.953 556.388 328.661 550.128 325.894Z"
            fill="#2222FF" />
        <path
            d="M478.913 261.437C478.46 260.394 477.87 259.442 477.598 258.308C477.507 258.035 477.099 258.126 477.144 258.444C477.416 259.578 478.051 260.576 478.55 261.664C478.641 261.936 479.049 261.71 478.913 261.437Z"
            fill="#FF495D" />
        <path
            d="M499.008 270.691C498.509 268.922 497.103 267.652 495.787 266.518C495.561 266.336 495.243 266.654 495.47 266.835C496.74 267.924 498.101 269.148 498.6 270.827C498.645 271.099 499.099 270.963 499.008 270.691Z"
            fill="#FF495D" />
        <path
            d="M535.75 240.481C531.85 240.662 530.307 246.831 532.258 249.689C532.439 249.916 532.802 249.689 532.666 249.462C530.897 246.922 532.212 241.116 535.75 240.98C536.068 240.889 536.068 240.436 535.75 240.481Z"
            fill="#FF495D" />
        <path
            d="M528.084 236.58C527.222 235.673 526.406 234.72 525.453 233.858C525.227 233.677 524.909 233.994 525.136 234.176C526.088 235.038 526.86 235.99 527.767 236.897C527.994 237.079 528.311 236.761 528.084 236.58Z"
            fill="#FF495D" />
        <path
            d="M522.187 238.032C521.779 237.623 521.371 237.215 520.917 236.762C520.69 236.535 520.373 236.898 520.6 237.079L521.87 238.349C522.096 238.576 522.414 238.258 522.187 238.032Z"
            fill="#FF495D" />
        <path
            d="M541.736 235.038C541.237 234.222 541.101 233.314 541.328 232.362C541.374 232.09 540.965 231.954 540.875 232.226C540.648 233.314 540.784 234.312 541.374 235.219C541.464 235.492 541.872 235.265 541.736 235.038Z"
            fill="#FF495D" />
        <path
            d="M566.094 315.552C564.189 315.007 562.193 315.234 560.243 315.234C559.653 315.234 559.653 316.141 560.243 316.141C562.148 316.141 564.008 315.915 565.868 316.413C566.412 316.595 566.639 315.688 566.094 315.552Z"
            fill="white" />
        <path
            d="M535.25 334.83C534.342 334.149 533.299 333.605 532.256 333.106C533.072 338.957 533.707 343.902 534.342 348.075C534.841 346.306 535.613 344.673 536.52 342.904C538.062 339.955 538.107 336.962 535.25 334.83Z"
            fill="#121212" />
        <path
            d="M511.164 299.857C510.166 299.177 508.896 299.268 507.853 298.632C507.354 298.36 506.9 299.131 507.399 299.404C508.442 299.993 509.758 299.948 510.71 300.628C511.209 300.991 511.663 300.22 511.164 299.857Z"
            fill="#121212" />
        <path
            d="M557.206 275.408C556.889 275.68 556.707 276.043 556.526 276.406C555.981 277.223 555.573 278.266 555.528 279.219C555.528 279.445 555.8 279.627 556.027 279.491C557.115 278.72 557.75 276.905 557.75 275.635C557.75 275.363 557.433 275.227 557.206 275.408Z"
            fill="#121212" />
        <path
            d="M490.979 214.717C488.484 216.44 481.907 221.022 477.915 224.242C463.4 235.991 459 239.619 459 239.619L482.542 263.025L512.661 240.209C505.222 231.863 498.327 223.108 490.979 214.717Z"
            fill="#121212" />
        <path
            d="M491.117 218.527C489.121 219.888 483.723 223.653 480.502 226.238C468.754 235.764 465.125 238.712 465.125 238.712L484.222 257.718L508.626 239.211C502.729 232.452 497.104 225.331 491.117 218.527Z"
            fill="#34BAAE" />
        <path
            d="M482.499 263.07L503.319 260.848L538.065 235.718L512.573 240.3C512.618 240.254 486.763 254.044 482.499 263.07Z"
            fill="#121212" />
        <path
            d="M510.303 248.011C506.81 250.642 503.272 253.273 500.097 256.266C499.689 256.675 500.324 257.31 500.732 256.901C503.862 253.953 507.355 251.413 510.757 248.827C511.21 248.464 510.757 247.648 510.303 248.011Z"
            fill="white" />
        <path
            d="M508.261 244.654C507.399 245.38 506.401 245.924 505.539 246.65C505.085 247.013 505.675 247.739 506.129 247.33C506.991 246.605 507.988 246.06 508.85 245.335C509.259 244.972 508.714 244.291 508.261 244.654Z"
            fill="white" />
        <path
            d="M495.198 254.77C494.155 255.813 492.93 256.539 491.887 257.627C491.478 258.035 492.113 258.67 492.522 258.262C493.52 257.219 494.79 256.448 495.833 255.405C496.241 254.996 495.606 254.361 495.198 254.77Z"
            fill="white" />
        <path
            d="M519.329 241.524C518.422 242.432 517.424 243.248 516.381 243.929C515.882 244.246 516.335 245.017 516.834 244.7C517.968 243.974 519.012 243.067 520.01 242.114C520.418 241.751 519.783 241.116 519.329 241.524Z"
            fill="white" />
        <path
            d="M499.959 251.368C499.279 251.957 498.508 252.411 497.918 253.091C497.51 253.5 498.145 254.18 498.553 253.726C499.143 253.091 499.914 252.638 500.594 252.003C501.048 251.64 500.367 251.005 499.959 251.368Z"
            fill="white" />
        <path
            d="M514.884 246.922C510.802 250.097 507.037 253.726 507.037 253.726L509.532 254.769L521.552 245.334L514.884 246.922Z"
            fill="#2222FF" />
        <path
            d="M482.042 231.999C478.958 234.856 475.51 237.351 472.154 239.846C471.7 240.209 472.154 240.98 472.607 240.617C476.055 238.032 479.547 235.537 482.677 232.589C483.085 232.226 482.45 231.591 482.042 231.999Z"
            fill="#FFD25F" />
        <path
            d="M486.802 228.597C486.077 229.368 485.124 229.958 484.308 230.638C483.854 231.001 484.489 231.681 484.943 231.273C485.759 230.593 486.712 230.003 487.437 229.232C487.846 228.778 487.211 228.143 486.802 228.597Z"
            fill="#FFD25F" />
        <path
            d="M485.536 236.172C485.581 235.582 484.674 235.582 484.629 236.172C484.538 238.757 485.4 241.297 485.309 243.883C485.264 244.473 486.171 244.473 486.216 243.883C486.307 241.252 485.445 238.757 485.536 236.172Z"
            fill="#FFD25F" />
        <path
            d="M500.866 238.168C500.413 237.578 499.233 237.669 498.598 237.669C497.555 237.669 496.512 237.759 495.514 237.759C494.924 237.759 494.924 238.667 495.514 238.667C496.194 238.667 496.92 238.621 497.6 238.576C498.054 238.576 499.778 238.349 500.141 238.712C500.413 238.984 499.823 240.345 499.687 240.753C499.415 241.479 499.143 242.25 498.78 242.976C498.508 243.475 499.279 243.928 499.551 243.429C500.005 242.567 500.367 241.615 500.685 240.662C500.866 240.027 501.365 238.803 500.866 238.168Z"
            fill="#FFD25F" />
        <path
            d="M487.256 250.143C486.168 251.186 484.988 252.139 483.854 253.091C483.401 253.454 484.036 254.089 484.489 253.726C485.623 252.774 486.803 251.821 487.891 250.778C488.3 250.37 487.665 249.735 487.256 250.143Z"
            fill="#FFD25F" />
        <path
            d="M492.112 246.196C491.296 246.786 490.479 247.376 489.754 248.101C489.345 248.51 489.98 249.145 490.389 248.736C491.069 248.056 491.795 247.512 492.566 247.013C493.019 246.65 492.566 245.879 492.112 246.196Z"
            fill="#FFD25F" />
        <path
            d="M482.948 244.7C482.267 245.38 481.587 246.061 480.907 246.741C480.498 247.149 481.133 247.784 481.542 247.376C482.222 246.696 482.902 246.015 483.583 245.335C483.991 244.927 483.356 244.291 482.948 244.7Z"
            fill="#FFD25F" />
        <path
            d="M496.149 267.334C494.471 264.204 491.25 263.161 487.939 263.025C485.489 259.805 482.632 256.403 481.725 256.765C480.001 257.4 478.731 258.036 484.537 268.604L487.304 268.514C488.392 272.46 490.933 276.179 495.287 274.32C498.099 273.095 497.328 269.557 496.149 267.334Z"
            fill="#FEB9CC" />
        <path
            d="M481.952 256.901C481.68 256.811 481.544 257.219 481.816 257.355C482.904 257.809 482.995 260.485 481.498 260.213C481.226 260.167 481.09 260.576 481.362 260.666C483.539 261.029 483.585 257.582 481.952 256.901Z"
            fill="#FF495D" />
        <path
            d="M481.77 262.798C481.589 262.571 481.226 262.798 481.362 263.025C482.314 264.431 483.131 265.792 483.131 267.561C483.131 267.833 483.584 267.833 483.584 267.561C483.584 265.747 482.723 264.295 481.77 262.798Z"
            fill="#FF495D" />
        <path
            d="M119.798 305.799C119.753 304.257 127.963 301.127 127.872 299.585C127.192 282.122 117.485 266.2 116.986 248.737L74.2566 242.522L66.1825 248.737C66.7268 267.788 68.4051 286.794 68.9948 305.845H119.798V305.799Z"
            fill="#B3C7F9" />
        <path
            d="M216.551 258.988C216.506 257.627 225.215 251.73 225.169 250.37C224.262 229.368 213.376 212.902 212.65 191.901L151.641 182.919L142.342 191.901C140.755 215.624 138.94 240.39 146.243 258.988H216.551Z"
            fill="#B3C7F9" />
        <path
            d="M225.17 250.37C224.398 228.007 222.04 205.645 221.269 183.282H150.915C149.328 207.006 147.513 231.772 154.816 250.37H225.17Z"
            fill="#8D7ADD" />
        <path
            d="M127.873 299.585C127.284 280.579 125.605 261.528 125.061 242.477H74.258C74.8023 261.528 76.4806 280.534 77.0703 299.585H127.873Z"
            fill="#8D7ADD" />
        <path
            d="M158.449 145.867C165.14 137.649 171.799 129.375 178.73 121.315L173.57 116.892C166.683 124.964 160.024 133.238 153.289 141.444C149.961 145.488 146.677 149.543 143.273 153.519C140.114 157.279 137.283 161.22 134.168 164.991L139.328 169.414C142.32 165.751 145.041 161.874 148.109 158.278C151.636 154.194 155.043 150.031 158.449 145.867Z"
            fill="#FFD25F" />
        <path
            d="M524.589 503.296C533.479 497.49 542.324 491.639 551.306 486.014L547.722 480.208C538.695 485.788 529.85 491.684 521.005 497.49C516.605 500.348 512.251 503.206 507.805 505.973C503.678 508.558 499.731 511.507 495.649 514.183L499.232 519.989C503.179 517.403 506.989 514.546 510.981 512.006C515.562 509.148 520.098 506.199 524.589 503.296Z"
            fill="#B3EFF9" />
        <path
            d="M473.739 421.966C468.75 416.432 463.67 410.944 458.861 405.274L453.645 409.674C458.453 415.344 463.533 420.832 468.523 426.366C470.973 429.088 473.467 431.855 475.826 434.622C478.094 437.252 480.589 439.566 482.902 442.106L488.119 437.706C485.851 435.257 483.401 432.989 481.224 430.448C478.82 427.591 476.28 424.778 473.739 421.966Z"
            fill="#FFD25F" />
        <path
            d="M194.28 247.013H186.342L186.523 246.378C187.431 243.203 187.068 239.801 186.75 236.49C186.659 235.673 186.569 234.811 186.523 233.95C186.251 230.094 186.206 226.193 186.16 222.383C186.16 221.476 186.16 220.614 186.115 219.707C186.024 212.494 186.024 205.191 186.07 198.115C186.07 194.985 186.07 191.856 186.115 188.726V188.635L186.16 188.227L186.569 188.181H193.826V188.635C193.826 188.68 193.826 188.68 193.826 188.726C193.826 191.856 193.826 194.94 193.826 198.07C193.781 205.464 193.781 213.084 193.872 220.568L193.917 222.473C193.962 226.692 194.008 231.001 194.416 235.265L194.461 235.809C194.779 239.347 195.096 243.022 194.461 246.605L194.28 247.013ZM187.521 246.106H193.509C194.053 242.749 193.736 239.302 193.463 235.9L193.418 235.356C193.055 231.092 193.01 226.737 192.919 222.519L192.874 220.614C192.783 213.084 192.783 205.464 192.828 198.07C192.828 195.076 192.828 192.082 192.828 189.134H186.932C186.932 192.128 186.932 195.121 186.886 198.161C186.841 205.237 186.841 212.54 186.932 219.752C186.932 220.659 186.932 221.521 186.977 222.428C187.022 226.193 187.068 230.139 187.34 233.95C187.385 234.766 187.476 235.628 187.567 236.444C187.929 239.62 188.292 242.976 187.521 246.106Z"
            fill="#FFEEDE" />
        <path
            d="M107.55 255.949C98.7047 256.13 89.9503 253.046 81.1051 254.77C80.5154 254.86 80.7876 255.768 81.3319 255.631C90.0863 253.953 98.7501 257.038 107.505 256.856C108.094 256.856 108.094 255.949 107.55 255.949Z"
            fill="#FFD25F" />
        <path
            d="M118.437 255.223C116.94 255.722 115.352 255.45 113.81 255.45C113.22 255.45 113.22 256.357 113.81 256.357C115.443 256.357 117.121 256.675 118.709 256.13C119.253 255.904 118.981 255.042 118.437 255.223Z"
            fill="#FFD25F" />
        <path
            d="M96.3462 267.243C91.6288 266.926 86.8206 266.699 82.1485 267.697C81.5589 267.833 81.831 268.695 82.3753 268.559C86.9567 267.561 91.6741 267.788 96.3008 268.105C96.9359 268.196 96.9359 267.289 96.3462 267.243Z"
            fill="#FFD25F" />
        <path
            d="M105.645 261.664C104.193 265.293 103.286 269.149 101.154 272.46C100.837 272.959 101.608 273.412 101.925 272.913C104.057 269.557 105.055 265.611 106.507 261.936C106.734 261.347 105.872 261.12 105.645 261.664Z"
            fill="#FFD25F" />
        <path
            d="M114.944 268.151C112.949 268.106 110.907 267.743 108.912 268.151C108.322 268.287 108.594 269.149 109.138 269.013C111.044 268.65 112.994 269.013 114.899 269.013C115.534 269.058 115.534 268.151 114.944 268.151Z"
            fill="#FFD25F" />
        <path
            d="M92.0375 282.439C89.3159 282.53 86.685 281.668 83.9634 282.212C83.3737 282.348 83.6459 283.21 84.1902 283.074C86.8211 282.53 89.3612 283.392 91.9921 283.301C92.6272 283.301 92.6272 282.394 92.0375 282.439Z"
            fill="#FFD25F" />
        <path
            d="M117.123 282.893C114.537 281.804 111.679 282.031 108.958 282.122C105.284 282.258 101.609 281.986 97.9806 281.94C97.391 281.94 97.391 282.847 97.9806 282.847C101.428 282.893 104.875 283.165 108.323 283.029C111.18 282.938 114.219 282.575 116.896 283.709C117.395 283.981 117.621 283.12 117.123 282.893Z"
            fill="#FFD25F" />
        <path
            d="M134.767 289.243C131.547 289.107 128.372 289.969 125.106 289.924C121.658 289.878 118.256 289.606 114.809 289.561C114.219 289.561 114.219 290.468 114.809 290.468C118.256 290.513 121.658 290.785 125.106 290.831C128.326 290.876 131.547 290.014 134.767 290.15C135.312 290.15 135.312 289.243 134.767 289.243Z"
            fill="#FFD25F" />
        <path
            d="M135.356 294.051H130.82C130.23 294.051 130.23 294.958 130.82 294.958H135.356C135.945 294.958 135.945 294.051 135.356 294.051Z"
            fill="#FFD25F" />
        <path
            d="M303.189 519.671C300.195 521.712 296.113 523.572 292.439 523.844C287.903 524.207 287.948 519.308 284.592 517.63C282.142 516.405 279.466 517.222 277.107 518.265C274.386 519.49 270.847 522.03 267.718 520.896C261.639 518.628 264.361 510.871 266.085 506.653C268.217 501.346 271.074 496.311 273.115 490.958C274.159 488.191 275.973 483.383 272.979 481.16C268.126 477.532 260.596 482.748 256.922 485.651C249.574 491.457 243.178 498.579 236.51 505.111C232.473 509.057 228.436 513.048 224.036 516.541C219.999 519.762 215.191 522.347 209.838 521.758C206.709 521.395 204.168 520.079 201.764 518.083C200.404 516.949 199.088 515.679 197.546 514.772C193.962 512.776 189.789 513.275 186.297 515.226C181.897 517.675 178.631 521.576 173.641 522.982C167.835 524.57 161.666 523.753 155.769 523.708C155.18 523.708 155.18 524.615 155.769 524.615C160.85 524.661 165.975 525.16 171.01 524.434C175.456 523.799 178.812 521.848 182.35 519.127C186.07 516.269 190.288 513.275 195.233 514.772C198.952 515.906 201.265 519.444 204.667 521.213C213.467 525.704 221.859 519.852 228.3 514.137C236.147 507.197 243.405 499.622 250.889 492.319C254.064 489.235 257.376 486.15 261.14 483.791C263.998 482.022 268.171 480.026 271.619 481.433C276.019 483.247 272.48 490.323 271.256 493.181C268.988 498.443 266.13 503.432 264.27 508.875C262.864 512.958 261.957 517.811 265.858 520.85C272.118 525.749 280.192 513.185 285.726 519.716C286.814 520.986 287.222 522.756 288.629 523.799C289.899 524.751 291.441 524.887 292.983 524.706C296.657 524.207 300.604 522.574 303.643 520.488C304.142 520.125 303.688 519.353 303.189 519.671Z"
            fill="#FFD25F" />
        <path
            d="M116.987 406.09C116.851 405.909 116.715 405.727 116.533 405.591C116.352 405.183 115.898 404.911 115.444 405.001C114.356 404.82 113.222 405.727 112.224 406.997C112.042 407.088 111.861 407.224 111.725 407.451C111.634 407.678 111.543 407.859 111.453 408.041C110.908 408.857 110.455 409.764 110.047 410.626C109.094 412.259 108.278 413.937 108.096 415.888C108.051 416.523 108.777 417.022 109.366 416.84C110.001 416.659 110.636 416.341 111.271 415.933C111.589 415.933 111.906 415.797 112.088 415.434C112.133 415.389 112.133 415.298 112.179 415.253C113.313 414.3 114.356 413.166 115.127 412.168C116.397 410.671 118.393 408.041 116.987 406.09Z"
            fill="#FF5C82" />
        <path
            d="M134.086 407.406C134.177 407.043 134.041 406.725 133.814 406.498C133.723 406.272 133.633 406.09 133.497 405.863C133.224 405.364 132.635 405.274 132.136 405.5C131.818 405.682 131.501 405.863 131.183 406.09C131.002 406.136 130.82 406.226 130.684 406.408C130.594 406.498 130.503 406.589 130.412 406.725C129.414 407.632 128.598 408.812 128.053 410.082C127.01 411.805 126.239 413.711 126.103 415.525C126.058 416.205 126.783 416.614 127.373 416.478C130.911 415.616 134.857 411.261 134.086 407.406Z"
            fill="#FF5C82" />
        <path
            d="M112.133 427.545C110.908 427.954 109.956 428.634 109.185 429.496C108.822 429.405 108.459 429.541 108.232 429.995C107.053 432.671 105.874 435.393 104.603 438.023C104.286 438.704 104.694 439.475 105.465 439.52C110.682 439.747 113.267 432.762 113.358 428.498C113.403 427.863 112.723 427.319 112.133 427.545Z"
            fill="#FF5C82" />
        <path
            d="M129.37 428.861C129.234 428.226 128.417 427.953 127.918 428.271C127.737 428.362 127.555 428.498 127.419 428.588C126.966 428.226 126.285 428.18 125.968 428.815C124.516 431.628 123.473 434.576 122.339 437.524C122.158 438.023 122.566 438.613 123.019 438.749C127.828 439.974 130.141 432.399 129.37 428.861Z"
            fill="#FF5C82" />
        <path
            d="M146.832 429.224C146.787 428.679 146.424 428.226 145.834 428.226C145.698 428.226 145.607 428.226 145.471 428.271C145.154 427.636 144.156 427.318 143.702 428.135C143.475 428.543 143.203 428.997 142.931 429.405C142.16 430.131 141.57 431.129 141.117 432.217C139.937 434.122 138.985 436.073 138.849 438.341C138.803 438.84 139.348 439.384 139.847 439.339C144.519 439.067 147.104 433.442 146.832 429.224Z"
            fill="#FF5C82" />
        <path
            d="M151.732 406.09C151.686 405.591 151.278 405.047 150.734 405.092C147.332 405.364 146.198 408.857 145.019 411.76C144.701 412.395 144.383 413.03 144.066 413.71C143.93 413.846 143.748 413.937 143.612 414.073C143.113 414.436 143.113 415.026 143.34 415.434V415.479C143.068 416.069 143.703 416.75 144.293 416.75C149.01 416.613 151.959 410.218 151.732 406.09Z"
            fill="#FF5C82" />
        <path
            d="M274.93 409.9C267.309 409.809 260.732 414.617 253.384 416.069C251.524 416.432 249.619 416.568 247.759 416.205C247.169 416.069 245.718 415.797 245.627 415.389C245.536 415.026 246.081 414.209 246.262 413.846C247.305 411.669 248.666 409.628 249.891 407.541C251.252 405.183 254.427 400.102 251.116 397.97C249.21 396.746 246.262 397.154 244.176 397.471C241.136 397.97 238.506 399.377 236.011 401.146C233.289 403.096 230.794 405.409 227.801 406.952C223.854 408.947 219.953 408.449 216.143 406.407C215.644 406.135 215.191 406.906 215.69 407.178C219.273 409.129 223.083 409.9 226.984 408.312C230.794 406.77 233.788 403.776 237.099 401.463C240.501 399.15 245.763 396.836 249.936 398.379C253.338 399.649 250.617 404.321 249.483 406.317C247.85 409.265 245.4 412.259 244.584 415.57C244.538 415.751 244.629 415.978 244.811 416.069C254.744 420.832 264.905 410.671 274.884 410.762C275.519 410.807 275.519 409.9 274.93 409.9Z"
            fill="white" />
        <path d="M497.468 166.635L479.687 166.499L481.955 157.881L497.377 160.33L497.468 166.635Z" fill="#FEB9CC" />
        <path
            d="M489.165 164.231C487.94 164.912 486.852 165.637 485.99 166.59L497.421 166.681L497.239 161.646C494.336 162.054 491.751 162.87 489.165 164.231Z"
            fill="#FF5C82" />
        <path
            d="M504.273 166.363C505.044 165.048 505.226 163.369 504.818 161.918C504.455 160.648 503.82 158.97 501.96 158.062C499.828 156.974 496.744 157.246 494.838 158.833C492.888 160.421 492.616 163.188 493.251 165.501C493.886 167.815 495.655 169.629 498.15 169.629C500.463 169.584 503.049 168.404 504.273 166.363Z"
            fill="#FEB9CC" />
        <path
            d="M493.973 157.201C492.975 158.017 492.023 160.058 493.066 161.873C493.656 162.281 494.427 162.417 495.107 162.281C495.652 162.19 496.196 162.099 496.74 162.054C498.373 161.963 499.416 163.279 500.777 164.005C504.179 162.734 503.635 165.139 504.587 165.637C505.041 164.458 505.132 163.143 504.814 161.873C504.451 160.603 503.816 158.924 501.957 158.017C499.779 156.928 495.878 155.658 493.973 157.201Z"
            fill="#FF495D" />
        <path
            d="M496.923 159.604C494.972 159.695 494.02 162.144 494.337 163.142L499.917 164.186C500.325 161.509 499.236 159.514 496.923 159.604Z"
            fill="#FEB9CC" />
        <path
            d="M500.735 169.629C500.735 169.13 500.871 168.631 501.234 168.268C501.415 168.042 501.098 167.769 500.871 167.996C500.463 168.45 500.281 169.085 500.281 169.675C500.281 169.947 500.735 169.901 500.735 169.629Z"
            fill="#121212" />
        <path
            d="M500.326 166.182L499.691 166.408C499.419 166.499 499.555 166.953 499.827 166.817L500.462 166.59C500.734 166.499 500.598 166.091 500.326 166.182Z"
            fill="#121212" />
        <path
            d="M496.65 163.505C496.923 163.188 497.24 162.961 497.648 162.961C497.92 162.961 497.875 162.508 497.603 162.508C497.104 162.553 496.65 162.825 496.333 163.233C496.151 163.415 496.469 163.732 496.65 163.505Z"
            fill="#121212" />
        <path
            d="M501.505 158.743C500.598 157.926 499.464 157.745 498.784 156.747C498.602 156.475 498.466 156.202 498.285 155.93C498.285 155.885 498.24 155.84 498.24 155.794C498.194 155.704 498.149 155.658 498.104 155.613C497.922 155.341 497.741 155.068 497.468 154.796C496.471 153.934 495.064 153.708 493.794 153.753C491.526 153.844 489.984 155.068 491.118 156.974C489.848 157.427 488.805 158.334 489.032 159.831C489.258 161.283 490.71 162.553 492.161 162.734C492.887 162.825 493.613 162.644 494.203 162.235C495.246 161.464 495.155 160.466 495.699 159.423C496.38 158.108 497.786 158.244 498.33 157.654C499.056 158.516 500.099 158.697 500.916 159.423C501.279 159.741 501.959 159.106 501.505 158.743Z"
            fill="#FF495D" />
        <path
            d="M482.815 165.184C489.165 194.214 490.526 199.657 490.526 199.657C490.526 199.657 512.525 205.554 520.463 207.142C528.401 208.729 539.061 213.039 538.607 215.08C538.154 217.121 534.979 215.533 528.628 215.76C522.278 215.987 520.237 217.801 507.536 216.667C494.835 215.533 478.052 216.441 478.052 216.441L473.97 203.286L468.073 170.854L482.815 165.184Z"
            fill="#FEB9CC" />
        <path
            d="M488.439 190.585C487.26 185.369 485.491 177.34 482.815 165.184L468.073 170.854L472.246 193.897C477.689 192.899 483.041 191.719 488.439 190.585Z"
            fill="#121212" />
        <path
            d="M512.525 215.08C522.05 217.348 525.906 219.162 528.174 218.028C530.442 216.894 525.679 213.265 520.236 211.678C514.793 210.09 512.525 215.08 512.525 215.08Z"
            fill="#FEB9CC" />
        <path
            d="M527.086 213.946C525.952 213.538 523.457 212.721 524.047 211.043C524.137 210.771 523.729 210.634 523.593 210.907C522.867 212.857 525.543 213.855 526.904 214.354C527.267 214.49 527.358 214.036 527.086 213.946Z"
            fill="#FF495D" />
        <path
            d="M527.949 217.03C527.495 215.352 525.227 215.397 524.774 217.03C524.683 217.302 525.137 217.438 525.227 217.166C525.545 215.941 527.178 215.941 527.495 217.166C527.586 217.438 527.994 217.348 527.949 217.03Z"
            fill="#FF495D" />
        <path
            d="M538.155 213.492C535.115 212.086 531.305 212.948 528.584 210.816C528.357 210.634 528.039 210.952 528.266 211.133C531.078 213.311 534.843 212.494 537.973 213.9C538.2 214.036 538.427 213.628 538.155 213.492Z"
            fill="#FF495D" />
        <path
            d="M538.246 214.762C537.52 215.17 535.434 214.808 535.751 213.674C535.842 213.401 535.388 213.265 535.298 213.538C534.844 215.125 537.384 215.715 538.473 215.17C538.745 214.989 538.518 214.626 538.246 214.762Z"
            fill="#FF495D" />
        <path
            d="M415.681 159.65C415.636 159.741 415.591 159.831 415.545 159.922C415.182 161.192 414.774 163.279 414.275 165.91C413.867 168.041 413.958 168.949 413.504 171.67C411.417 184.598 408.242 204.465 407.199 211.95C396.177 222.882 390.643 226.329 386.016 235.991C383.294 241.661 375.22 241.252 372.544 247.966C369.868 254.679 367.192 254.543 365.377 257.083C365.377 257.083 388.738 281.849 391.096 284.253C393.455 286.658 393.319 282.53 386.379 272.596C386.379 272.596 415.863 237.805 421.805 229.323C423.347 227.1 424.572 225.467 425.479 224.152C425.751 223.789 426.023 223.471 426.205 223.154C426.296 223.108 428.019 219.48 429.017 215.805C430.968 208.639 433.825 191.266 435.504 180.606C436.184 176.342 436.638 173.167 436.774 172.169C436.819 171.942 436.819 171.806 436.819 171.806L415.681 159.65Z"
            fill="#FF5C82" />
        <path
            d="M419.265 179.88C419.311 180.107 419.084 180.334 418.857 180.198C418.857 180.288 418.857 180.379 418.857 180.425C418.857 180.561 418.812 180.606 418.721 180.651C418.494 188.136 417.995 195.665 416.453 203.014C415.727 206.461 414.775 209.818 413.505 213.084C412.189 216.486 410.329 219.615 409.014 223.017C407.653 226.601 406.61 230.275 405.476 233.904C404.387 237.397 403.026 240.753 401.575 244.11C399.942 247.92 398.173 251.685 396.676 255.586C395.769 257.899 394.998 260.258 394.862 262.707C404.07 251.73 418.041 234.902 421.942 229.368C423.484 227.145 424.708 225.512 425.616 224.197C425.888 223.834 426.16 223.516 426.341 223.199C426.432 223.154 428.156 219.525 429.154 215.851C431.104 208.684 433.962 191.311 435.64 180.651C435.731 179.971 435.822 179.336 435.912 178.746C430.242 178.61 424.708 178.973 419.265 179.88Z"
            fill="#FF495D" />
        <path
            d="M371.908 249.508C378.44 255.223 384.7 261.21 391.05 267.107C388.238 270.464 386.423 272.596 386.423 272.596C393.363 282.53 393.499 286.657 391.141 284.253C388.782 281.849 365.422 257.083 365.422 257.083C367.055 254.769 369.459 254.679 371.908 249.508Z"
            fill="#00AAD3" />
        <path
            d="M446.524 175.163C480.317 192.173 495.286 198.523 495.286 208.729C495.286 216.758 491.657 217.801 468.297 218.255C444.936 218.708 412.731 220.75 412.731 220.75C408.059 229.549 400.937 242.069 406.38 225.739C410.463 213.492 413.865 198.296 413.865 198.296C426.792 195.348 429.514 200.338 444.936 196.028L432.236 181.286L446.524 175.163Z"
            fill="#FF5C82" />
        <path
            d="M437.498 197.571C440.446 204.783 443.667 211.904 446.978 218.935C453.419 218.663 460.087 218.436 466.211 218.3C466.12 218.028 466.029 217.756 465.939 217.529C465.167 215.216 464.396 212.902 463.534 210.634C462.673 208.366 461.539 206.28 460.677 204.012C459.089 199.929 459.407 196.255 461.04 192.264C462.128 189.542 463.58 187.002 465.031 184.416C459.634 181.695 453.51 178.656 446.57 175.163L432.281 181.286L444.982 196.028C442.079 196.8 439.63 197.298 437.498 197.571Z"
            fill="#FF495D" />
        <path
            d="M424.479 197.344C421.531 197.162 418.31 197.253 413.865 198.251C413.865 198.251 410.463 213.446 406.38 225.694C400.937 242.023 408.059 229.504 412.731 220.704C412.731 220.704 415.861 220.523 420.896 220.205C421.984 212.585 423.164 204.964 424.479 197.344Z"
            fill="#00AAD3" />
        <path
            d="M439.222 151.303C424.434 152.392 416.542 155.204 415.544 159.922L417.449 180.243C420.261 182.874 427.564 188.952 430.513 191.447L448.974 183.6C449.02 183.554 454.009 150.215 439.222 151.303Z"
            fill="#FF5C82" />
        <path
            d="M448.842 150.169C443.127 150.804 439.226 151.303 439.226 151.303L440.587 180.561C440.587 180.561 445.803 181.422 454.331 182.148C452.381 171.489 450.702 160.829 448.842 150.169Z"
            fill="#FF5C82" />
        <path
            d="M441.628 174.392C441.129 176.478 441.175 178.61 441.583 180.697C443.488 180.969 447.979 181.604 454.329 182.103C453.286 176.433 452.333 170.763 451.381 165.093C446.935 166.771 442.807 169.538 441.628 174.392Z"
            fill="#FF495D" />
        <path
            d="M428.927 190.267C425.026 186.593 420.944 183.146 417.133 179.381C416.725 178.973 416.09 179.608 416.498 180.016C420.309 183.781 424.391 187.228 428.292 190.903C428.7 191.311 429.335 190.63 428.927 190.267Z"
            fill="#121212" />
        <path
            d="M464.897 197.162C461.359 197.162 457.775 196.936 454.237 196.936C453.647 196.936 453.647 197.843 454.237 197.843C457.775 197.843 461.359 198.07 464.897 198.07C465.486 198.07 465.486 197.162 464.897 197.162Z"
            fill="#121212" />
        <path
            d="M483.45 156.52C485.038 182.148 488.894 183.509 470.977 183.055C453.059 182.602 440.585 180.561 440.585 180.561L439.225 151.304C439.225 151.304 453.967 149.489 468.028 148.128C482.09 146.768 482.861 147.176 483.45 156.52Z"
            fill="#00AAD3" />
        <path
            d="M449.746 196.437L466.167 180.062C463.264 175.208 460.497 170.264 457.458 165.501C440.538 177.884 435.141 182.647 431.829 185.822C427.974 189.587 429.833 194.849 437.091 210.453C444.349 226.057 452.332 246.423 455.19 246.106C456.959 245.924 456.868 244.065 456.369 242.296C457.231 244.11 458.456 245.924 459.726 245.652C462.447 245.062 460.996 240.753 460.996 240.753C460.996 240.753 462.357 244.79 464.262 244.427C466.167 244.019 466.348 243.203 465.123 238.712C465.123 238.712 466.938 242.976 469.16 242.477C471.383 241.978 469.16 236.671 466.348 230.729C463.536 224.787 449.746 196.437 449.746 196.437Z"
            fill="#FEB9CC" />
        <path
            d="M459.999 225.331C468.572 228.551 474.787 229.912 474.242 232.362C473.698 234.811 466.214 232.951 459.727 230.865C453.241 228.733 459.999 225.331 459.999 225.331Z"
            fill="#FEB9CC" />
        <path
            d="M466.212 240.254C465.395 238.939 464.715 237.533 464.034 236.081C463.898 235.809 463.535 236.036 463.626 236.308C463.671 236.399 463.671 236.489 463.717 236.58C463.717 236.625 463.762 236.625 463.762 236.671C464.352 237.986 464.987 239.256 465.758 240.481C465.985 240.708 466.393 240.481 466.212 240.254Z"
            fill="#FF495D" />
        <path
            d="M462.267 242.976C461.451 241.252 460.317 239.755 459.682 237.986C459.727 237.941 459.727 237.85 459.682 237.759L459.637 237.669C459.591 237.533 459.5 237.487 459.364 237.533H459.319C459.183 237.533 459.138 237.714 459.183 237.805C459.818 239.755 461.088 241.388 461.95 243.203C461.995 243.429 462.358 243.203 462.267 242.976Z"
            fill="#FF495D" />
        <path
            d="M457.05 243.475C456.551 241.615 455.644 239.937 454.873 238.213C454.736 237.941 454.374 238.168 454.464 238.44C455.19 240.163 456.097 241.796 456.596 243.611C456.687 243.883 457.141 243.747 457.05 243.475Z"
            fill="#FF495D" />
        <path
            d="M472.698 231.863C471.473 231.954 470.203 231.273 470.657 229.867C470.747 229.595 470.294 229.459 470.203 229.731C469.704 231.409 471.156 232.362 472.698 232.271C473.015 232.271 473.015 231.817 472.698 231.863Z"
            fill="#FF495D" />
        <path
            d="M469.841 240.027C469.432 239.483 468.888 238.757 468.072 238.984C467.119 239.256 467.255 240.163 467.255 240.935C467.255 241.207 467.709 241.207 467.709 240.935C467.709 240.39 467.527 239.619 468.208 239.438C468.752 239.256 469.16 239.891 469.478 240.254C469.614 240.481 470.022 240.254 469.841 240.027Z"
            fill="#FF495D" />
        <path
            d="M464.805 241.207C464.306 240.708 463.535 240.39 462.991 241.071C462.537 241.615 462.401 242.477 462.583 243.157C462.673 243.429 463.082 243.339 463.036 243.021C462.9 242.522 462.991 241.932 463.218 241.524C463.581 240.934 464.034 241.161 464.442 241.57C464.715 241.751 465.032 241.433 464.805 241.207Z"
            fill="#FF495D" />
        <path
            d="M460.636 242.114C460.046 241.615 459.093 241.207 458.413 241.796C457.778 242.386 458.005 243.384 458.368 244.064C458.504 244.337 458.912 244.11 458.776 243.838C458.504 243.384 458.277 242.613 458.685 242.159C459.139 241.66 459.91 242.069 460.318 242.386C460.545 242.613 460.862 242.295 460.636 242.114Z"
            fill="#FF495D" />
        <path
            d="M453.514 242.613C453.242 242.704 453.378 243.157 453.65 243.067C455.011 242.522 455.555 244.382 455.737 245.425C455.782 245.697 456.236 245.607 456.19 245.289C455.918 244.019 455.147 241.978 453.514 242.613Z"
            fill="#FF495D" />
        <path
            d="M462.765 231.999C462.629 231.908 462.448 231.999 462.402 232.18C462.402 232.271 462.402 232.362 462.402 232.407C462.357 232.452 462.357 232.543 462.402 232.588C462.674 233.133 462.856 233.677 463.083 234.221C463.128 234.357 463.355 234.448 463.445 234.312C464.035 233.722 463.491 232.316 462.765 231.999Z"
            fill="#FF495D" />
        <path
            d="M448.433 195.257C448.297 194.395 447.526 193.261 446.709 192.899C446.528 192.808 446.301 192.944 446.392 193.171C446.437 193.307 446.482 193.443 446.573 193.579C446.528 193.624 446.528 193.715 446.619 193.76C447.072 194.395 447.48 195.076 448.161 195.529C448.297 195.62 448.478 195.439 448.433 195.257Z"
            fill="#FF5C82" />
        <path
            d="M433.778 189.224C433.461 188.68 433.007 188.862 432.599 189.27C432.554 189.27 432.508 189.315 432.508 189.361C432.508 189.406 432.463 189.451 432.463 189.451C432.191 189.769 431.964 190.177 431.828 190.358C431.782 190.449 431.828 190.54 431.873 190.631C431.284 192.218 431.011 194.441 432.508 195.031C432.644 195.076 432.78 194.94 432.78 194.804C432.871 193.624 433.143 192.49 433.506 191.356C433.688 190.767 434.096 189.769 433.778 189.224Z"
            fill="#FF5C82" />
        <path
            d="M476.102 172.396C473.245 174.573 470.432 176.796 467.484 178.882C467.03 179.2 467.484 180.016 467.938 179.653C470.886 177.612 473.698 175.344 476.556 173.167C477.055 172.804 476.601 172.033 476.102 172.396Z"
            fill="white" />
        <path
            d="M461.405 161.963C460.588 162.462 459.817 163.097 459.182 163.868C458.819 164.322 459.454 164.957 459.817 164.503C460.407 163.823 461.087 163.233 461.858 162.78C462.357 162.462 461.904 161.691 461.405 161.963Z"
            fill="white" />
    </g>
    <defs>
        <clipPath id="clip0_1_68">
            <rect width="624.736" height="624.736" fill="white" transform="translate(0 0.907227)" />
        </clipPath>
    </defs>
</svg>