<svg width="345" height="276" viewBox="0 0 345 276" fill="none" xmlns="http://www.w3.org/2000/svg">
    <path
        d="M355.979 1.06332C354.779 1.13758 353.58 1.13759 352.38 1.21185C349.724 1.28611 346.983 1.43463 344.327 1.50889C343.127 1.50889 341.928 1.58315 340.728 1.58315C339.358 1.65742 337.901 1.65742 336.53 1.65742C315.882 2.10299 295.149 2.10299 274.501 2.10299C271.074 2.10299 267.561 2.10299 264.134 2.10299C259.765 2.10299 255.395 2.17724 251.111 2.2515C238.517 2.40002 226.008 2.8456 213.5 3.95952C210.073 4.25656 206.731 4.5536 203.304 4.9249C189.425 6.33587 175.631 8.04386 161.837 9.23204C146.415 10.5687 130.651 13.2421 115.144 12.6481C107.09 12.351 100.75 10.1974 93.382 7.74682C87.3847 5.74177 81.5587 5.37046 75.2187 6.2616C70.7636 6.92995 66.4797 7.89535 62.2816 9.00927C62.7957 9.45483 63.3097 9.90039 63.8238 10.346C71.4489 17.178 77.3606 26.6092 84.9001 32.9214C92.6966 39.4563 102.464 43.8377 113.087 45.7685C123.454 47.625 134.164 47.625 144.702 48.2934C158.153 49.1103 170.576 52.3035 183.513 55.3482C197.907 58.7642 212.129 59.6553 227.036 58.7642C242.372 57.8731 257.451 56.8334 272.873 57.3533C288.38 57.8731 303.888 58.8385 319.395 58.9128C329.077 58.987 338.844 59.2098 348.525 58.987C348.611 53.4174 348.953 47.9221 349.639 42.3525C349.724 41.2386 349.896 40.1247 350.067 39.0108C350.067 38.9365 350.067 38.8622 350.067 38.788C350.067 38.7137 350.067 38.5652 350.153 38.4167C350.581 36.1146 351.01 33.8867 351.438 31.6589C352.552 26.5349 353.922 21.4109 355.55 16.3611C357.007 11.6827 358.635 7.07849 360.348 2.4743C360.52 1.95447 360.691 1.43464 360.862 0.989075C359.234 0.989075 357.607 0.989057 355.979 1.06332Z"
        fill="#8D7ADD" />
    <path
        d="M10.4458 164.048C10.4458 164.048 5.17321 168.355 7.32678 171.548C8.36644 173.182 11.4111 171.994 14.2331 170.434C11.8567 172.291 9.92591 174.519 11.2626 176.004C13.936 179.123 17.4263 176.301 30.7933 166.499C37.4768 161.672 49.7299 153.206 60.4235 146.003C53.9628 138.799 47.2793 131.893 40.5958 124.987C5.99007 149.344 -1.95585 153.206 0.420507 157.216C2.12851 160.038 4.20782 158.998 5.47025 158.181C3.98503 159.37 1.38592 161.969 2.5741 164.048C3.98506 166.647 6.65844 166.053 10.4458 164.048Z"
        fill="#FEB9CC" />
    <path
        d="M55.2996 149.567C68.1468 140.804 98.074 122.981 98.074 122.981L150.131 109.911L165.726 77.3109C126.07 83.7716 108.693 84.5142 93.8411 90.2323C80.6969 95.282 69.4835 104.416 46.611 120.754C43.6406 122.907 40.7444 124.912 38.1453 126.769C43.8634 134.343 49.5815 141.992 55.2996 149.567Z"
        fill="#34BAAE" />
    <path
        d="M138.026 105.901C131.639 106.421 125.402 107.981 119.015 108.426C112.703 108.872 104.98 108.352 99.6329 112.436C95.1772 115.778 91.9098 121.051 89.0136 125.729C88.1224 127.14 87.3056 128.551 86.4144 129.962C93.0979 125.878 98.0734 122.982 98.0734 122.982L150.13 109.912L151.244 107.609C147.086 106.124 142.779 105.53 138.026 105.901Z"
        fill="#037BAF" />
    <path
        d="M40.8918 156.919C33.2429 171.622 31.0894 178.9 27.302 178.529C23.5147 178.157 26.9307 171.622 29.1586 163.825C31.3864 156.028 40.8918 156.919 40.8918 156.919Z"
        fill="#FEB9CC" />
    <path
        d="M27.8976 177.118C27.7491 175.039 29.3085 172.365 31.6106 172.811C32.0562 172.885 32.2047 172.142 31.6849 172.068C28.863 171.548 26.8579 174.667 27.0807 177.192C27.2293 177.712 27.9718 177.563 27.8976 177.118Z"
        fill="#FF495D" />
    <path
        d="M16.5361 169.469C18.7639 167.687 20.8432 165.682 23.5166 164.419C23.9622 164.196 23.6651 163.528 23.2196 163.751C20.5462 165.013 18.3926 167.093 16.0905 168.875C15.7192 169.172 16.1648 169.766 16.5361 169.469Z"
        fill="#FF495D" />
    <path
        d="M9.85293 164.271C13.566 161.449 17.279 158.775 21.1406 156.25C21.5119 155.953 21.0663 155.434 20.695 155.656C16.8335 158.181 13.0461 160.855 9.40733 163.677C8.96177 163.974 9.40736 164.568 9.85293 164.271Z"
        fill="#FF495D" />
    <path
        d="M4.87588 158.701C8.6632 155.805 12.599 153.057 16.6091 150.384C16.9804 150.087 16.5349 149.493 16.1636 149.79C12.2277 152.463 8.29191 155.211 4.43033 158.107C4.05903 158.404 4.50457 158.998 4.87588 158.701Z"
        fill="#FF495D" />
    <path
        d="M10.0745 170.954C11.4112 170.583 12.5994 169.395 12.8964 167.984C13.1935 166.499 12.2281 165.533 10.8914 165.236C10.4458 165.162 10.2973 165.905 10.8171 165.979C13.639 166.573 11.634 169.692 9.85173 170.286C9.3319 170.435 9.62894 171.103 10.0745 170.954Z"
        fill="#FF495D" />
    <path
        d="M5.7686 165.013C6.95678 164.494 7.69936 163.38 7.92214 162.117C8.14493 160.706 7.62513 159.964 6.51121 159.221C6.1399 158.924 5.69431 159.518 6.06562 159.815C6.36266 160.038 6.80826 160.261 7.03105 160.558C7.32809 161.003 7.32808 161.523 7.25382 162.043C7.1053 163.008 6.51122 163.899 5.54582 164.345C5.026 164.568 5.32303 165.236 5.7686 165.013Z"
        fill="#FF495D" />
    <path
        d="M2.57377 157.29C3.83621 156.993 4.87587 156.102 5.17291 154.765C5.3957 153.651 4.87587 152.686 3.68769 152.612C3.24212 152.612 3.09358 153.354 3.6134 153.354C4.5788 153.429 4.65306 154.245 4.35601 154.988C4.05897 155.805 3.39062 156.325 2.49949 156.548C1.97966 156.696 2.05395 157.364 2.57377 157.29Z"
        fill="#FF495D" />
    <path
        d="M15.645 175.484C16.3134 174.89 16.9074 174.073 16.8332 173.182C16.7589 172.291 16.1648 171.548 15.4965 171.029C15.1252 170.732 14.6796 171.326 15.0509 171.623C15.5708 171.994 16.0906 172.44 16.0906 173.108C16.1648 173.851 15.645 174.445 15.1995 174.89C14.8282 175.262 15.2737 175.856 15.645 175.484Z"
        fill="#FF495D" />
    <path
        d="M28.8635 162.414C29.9031 161.82 30.6457 160.929 31.3141 159.963C31.4626 159.741 31.4626 159.444 31.3884 159.295C31.5369 159.072 31.6112 158.924 31.7597 158.627C31.9825 157.958 31.2398 157.216 30.6458 157.736C29.3833 158.775 28.4179 160.038 27.7496 161.523C27.4525 162.265 28.2694 162.711 28.8635 162.414Z"
        fill="#FF5C82" />
    <path
        d="M98.7428 121.868C99.5596 120.679 100.451 119.566 101.49 118.526C102.159 117.858 101.119 116.818 100.451 117.486C99.3368 118.6 98.3714 119.788 97.4803 121.125C96.8862 121.868 98.1487 122.61 98.7428 121.868Z"
        fill="#121212" />
    <path d="M159.783 133.898L173.076 126.992L166.392 116.224L159.783 133.898Z" fill="#FF5C82" />
    <path
        d="M182.284 66.3945C175.823 63.6469 169.436 60.8992 162.976 58.0773C159.114 65.6519 154.807 72.9295 149.98 80.0586C145.079 87.4104 140.103 94.688 136.167 102.56C137.578 109.392 146.49 114.961 166.169 126.62C196.319 144.517 195.279 145.037 209.612 118.006C213.325 110.951 219.637 99.3665 227.063 85.6282C212.582 78.3506 197.21 72.7067 182.284 66.3945Z"
        fill="#34BAAE" />
    <path
        d="M211.988 78.6476C209.983 82.3606 208.201 86.2222 206.716 90.1581C204.414 96.3217 202.186 103.971 204.191 110.431C205.156 113.55 207.236 115.927 209.612 117.932C213.325 110.877 219.637 99.2922 227.063 85.5539C222.162 83.1032 217.112 80.8754 211.988 78.6476Z"
        fill="#037BAF" />
    <path
        d="M298.577 1.49023C295.31 5.05477 291.3 9.36193 286.176 14.783C263.971 38.2495 239.02 70.4046 230.554 78.5733C221.271 71.2214 220.454 51.468 210.949 44.8587C210.429 44.4874 209.909 44.1904 209.315 43.8933C210.429 42.2596 211.617 40.7001 212.88 39.0664C222.608 26.1449 234.193 13.2235 244.886 1.86154C262.783 1.78728 280.68 2.01006 298.577 1.49023Z"
        fill="#0258A3" />
    <path
        d="M214.959 44.8587C217.41 46.641 219.786 48.4975 222.089 50.354C223.722 47.6064 225.43 45.0072 226.915 42.1853C230.48 35.7246 232.262 28.2242 234.342 21.2437C235.53 17.2336 236.718 13.2235 237.98 9.21338C228.624 19.4614 219.044 30.5263 210.949 41.5912C212.286 42.7051 213.623 43.7448 214.959 44.8587Z"
        fill="#121212" />
    <path
        d="M165.279 53.3989C164.165 55.701 162.977 58.0031 161.788 60.3052C173.373 65.5034 184.958 70.7017 196.32 76.4198C205.677 81.1726 215.034 86.0738 224.688 90.1581C227.955 84.2173 231.445 77.7565 235.084 70.9988C228.178 60.7507 219.415 51.9879 210.355 43.4479C210.281 43.5964 210.281 43.6707 210.281 43.6707L173.967 35.7247C173.967 35.7247 167.803 48.2749 165.279 53.3989Z"
        fill="#0258A3" />
    <path
        d="M225.504 1.93591C221.42 13.6692 217.187 26.2936 212.88 38.9922C212.211 40.923 211.617 42.8538 210.949 44.7846C209.464 49.166 208.053 53.6217 206.567 58.0031C199.587 46.9382 173.076 37.5813 173.076 37.5813C173.076 37.5813 177.754 23.1746 184.066 4.60932C194.389 3.42114 204.785 2.53002 215.256 2.15871C218.598 2.08445 222.088 2.01017 225.504 1.93591Z"
        fill="#0258A3" />
    <path
        d="M211.098 42.3339C215.256 45.4529 219.341 48.7204 223.5 51.9136C224.242 52.5077 225.059 51.2453 224.242 50.6512C220.083 47.458 215.999 44.2647 211.84 41.0715C211.172 40.5517 210.355 41.8141 211.098 42.3339Z"
        fill="#121212" />
    <path
        d="M214.516 193.455C224.839 192.861 235.161 193.604 245.557 194.346C242.735 177.044 240.879 166.201 236.349 156.25C229.814 141.77 218.007 128.922 194.466 96.396L182.584 130.482L210.283 176.375C210.209 176.45 212.14 183.95 214.516 193.455Z"
        fill="#34BAAE" />
    <path
        d="M210.581 175.113C210.878 173.702 210.952 172.291 210.952 170.806C210.952 169.84 212.438 169.84 212.438 170.806C212.438 172.365 212.289 173.925 211.992 175.484C211.844 176.45 210.358 176.078 210.581 175.113Z"
        fill="#121212" />
    <path
        d="M149.759 119.937C147.532 120.531 144.635 120.531 143.224 122.313C142.036 123.872 143.002 126.397 144.71 126.769C152.953 128.477 149.759 119.937 149.759 119.937Z"
        fill="#121212" />
    <path
        d="M163.795 131.967C162.83 133.675 161.493 135.309 159.785 136.423C158.225 137.537 156.295 138.131 154.29 137.908C150.28 137.537 146.418 134.343 145.081 130.63C143.967 127.363 145.155 124.689 146.195 122.833C147.086 121.199 148.423 119.862 150.057 118.971C150.651 118.674 151.245 118.377 151.913 118.229C155.626 117.189 160.008 118.823 162.681 121.496C165.726 124.392 165.726 128.551 163.795 131.967Z"
        fill="#FEB9CC" />
    <path
        d="M162.829 121.571C160.156 118.897 155.775 117.263 152.062 118.303C151.393 118.452 150.799 118.749 150.205 119.046C148.571 119.937 147.235 121.273 146.343 122.907C145.675 124.095 145.007 125.506 144.858 127.214C146.121 122.313 153.844 120.382 158.3 122.759C158.671 122.759 162.904 124.244 164.537 124.095C164.092 123.13 163.572 122.313 162.829 121.571Z"
        fill="#121212" />
    <path
        d="M151.022 129.813C151.022 130.63 150.799 131.447 150.279 132.041C149.982 132.413 150.502 132.858 150.874 132.487C151.542 131.744 151.839 130.705 151.839 129.739C151.765 129.294 151.022 129.368 151.022 129.813Z"
        fill="#121212" />
    <path
        d="M155.032 126.695L155.626 127.586C155.923 127.957 156.517 127.586 156.22 127.14L155.626 126.249C155.403 125.878 154.809 126.323 155.032 126.695Z"
        fill="#121212" />
    <path
        d="M146.937 129.368L147.531 130.259C147.828 130.631 148.422 130.259 148.125 129.814L147.531 128.923C147.309 128.551 146.714 128.997 146.937 129.368Z"
        fill="#121212" />
    <path
        d="M163.795 130.036C165.429 130.333 169.142 128.031 168.399 124.987C167.657 121.868 164.538 120.457 160.379 122.907L163.795 130.036Z"
        fill="#FEB9CC" />
    <path
        d="M164.018 126.694C164.463 126.249 164.76 125.655 164.686 124.986C164.612 124.541 165.354 124.467 165.429 124.986C165.503 125.803 165.131 126.62 164.537 127.214C164.24 127.511 163.72 126.991 164.018 126.694Z"
        fill="#121212" />
    <path
        d="M160.602 121.199C160.082 120.754 159.414 121.199 159.34 121.645C159.265 121.571 159.191 121.496 159.117 121.496C158.374 120.902 157.335 121.942 158.077 122.536C158.597 122.981 159.191 123.353 159.488 124.021C159.785 124.541 160.082 125.061 160.602 125.284C161.122 125.506 161.716 125.284 161.716 124.615C161.79 123.353 161.642 122.016 160.602 121.199Z"
        fill="#121212" />
    <path
        d="M168.926 264.908L156.301 261.715L156.45 261.047C157.712 255.254 159.197 249.462 160.534 243.818C161.351 240.551 162.168 237.135 162.985 233.793L163.95 229.783C167.44 215.079 171.079 199.93 175.386 185.226L175.609 184.558L188.159 187.751L187.936 188.494C183.704 203.049 180.139 218.124 176.649 232.605C176.055 235.055 175.461 237.432 174.941 239.882C174.347 242.333 173.753 244.858 173.159 247.308C171.822 252.804 170.411 258.522 169.148 264.166L168.926 264.908ZM158.158 260.601L167.886 263.052C169.074 257.631 170.411 252.21 171.748 246.863C172.342 244.412 172.936 241.887 173.53 239.437C174.124 236.986 174.718 234.61 175.238 232.159C178.654 217.827 182.218 203.049 186.377 188.716L176.723 186.266C172.564 200.747 169 215.673 165.51 230.08L164.544 234.09C163.727 237.432 162.911 240.848 162.094 244.115C160.757 249.462 159.346 255.106 158.158 260.601Z"
        fill="#FF495D" />
    <path
        d="M100.227 60.5277C96.5886 60.5277 93.0983 59.4138 90.3507 56.8146C86.8604 53.6214 85.6722 49.0172 86.9347 43.8932C89.2368 34.6848 99.6333 24.4368 109.139 21.9119C114.337 20.5752 118.867 21.6149 121.986 24.9566C129.041 32.457 128.001 42.9278 119.312 51.6163C114.114 56.8889 106.837 60.5277 100.227 60.5277ZM113.372 29.5608C112.778 29.5608 112.035 29.6351 111.218 29.8578C104.609 31.5659 96.5144 39.5118 94.8806 45.8983C94.138 48.7944 95.1034 50.1311 95.9202 50.8737C99.8561 54.5125 108.322 51.1708 113.52 45.8983C115.525 43.8189 121.763 36.6899 116.045 30.6005C115.822 30.3034 115.08 29.5608 113.372 29.5608Z"
        fill="white" />
    <path
        d="M292.935 67.9539L300.138 71.8897C303.109 65.5033 305.337 58.8198 307.936 52.2105C311.203 43.819 315.733 36.1701 320.189 28.447C321.526 26.0706 322.937 23.6943 324.273 21.3179C321.823 20.1297 319.446 18.7188 317.144 17.3821C317.144 17.3821 317.144 17.4563 317.07 17.4563C315.733 19.8327 314.397 22.209 313.06 24.5854C308.604 32.3086 304.074 39.9574 300.807 48.2747C298.208 54.8097 295.906 61.5674 292.935 67.9539Z"
        fill="#34BAAE" />
    <path
        d="M317.145 17.3078C316.997 17.2335 316.848 17.1592 316.7 17.085C312.838 14.7829 309.051 12.258 305.115 10.1044L301.179 17.3078C305.189 19.5356 309.051 22.1347 313.061 24.5111C315.437 25.922 317.814 27.2588 320.19 28.4469C321.527 26.0706 322.938 23.6942 324.274 21.3179C321.75 20.0554 319.373 18.6445 317.145 17.3078Z"
        fill="#34BAAE" />
    <path
        d="M302.941 149.537L311.778 143.002C305.688 135.799 298.708 129.264 292.099 122.358C283.707 113.669 276.801 103.792 269.895 93.9898C267.741 91.0194 265.662 87.9747 263.434 85.0042C260.612 87.3806 257.493 89.4599 254.597 91.4649C254.597 91.5392 254.671 91.5392 254.671 91.5392C256.825 94.5096 258.978 97.4801 261.057 100.451C267.964 110.253 274.796 120.055 283.187 128.744C289.797 135.725 296.777 142.26 302.941 149.537Z"
        fill="white" />
    <path
        d="M254.523 91.5392C254.374 91.6877 254.152 91.762 254.003 91.9105C249.028 95.3265 243.829 98.594 238.928 102.159L245.537 110.996C250.513 107.357 255.86 104.015 261.058 100.525C264.103 98.4455 267.073 96.2919 269.895 93.9898C267.741 91.0194 265.662 87.9747 263.434 85.0042C260.538 87.3806 257.493 89.4599 254.523 91.5392Z"
        fill="white" />
    <path
        d="M243.404 267.345C243.404 267.345 244.147 274.103 240.285 274.92C238.355 275.291 237.018 272.321 236.201 269.276C236.572 272.246 236.35 275.217 234.345 275.365C230.26 275.662 229.74 271.281 227.141 254.869C225.879 246.701 223.057 232.071 220.532 219.447C230.186 218.927 239.766 218.704 249.42 218.556C256.771 260.216 259.668 268.608 255.212 269.722C252.019 270.538 251.276 268.385 250.979 266.825C251.202 268.756 251.202 272.395 248.9 272.989C246.152 273.732 244.667 271.43 243.404 267.345Z"
        fill="#FEB9CC" />
    <path
        d="M250.087 221.452C240.656 222.714 231.225 224.051 221.868 225.388C221.051 221.229 215.5 197.323 214.163 191.456L245.474 194.359C245.548 194.804 248.231 210.684 248.305 211.204C248.899 214.843 249.493 218.259 250.087 221.452Z"
        fill="#34BAAE" />
    <path
        d="M226.843 240.76C221.868 256.651 218.303 263.261 221.273 265.711C224.244 268.088 226.472 261.033 230.333 253.978C234.269 246.849 226.843 240.76 226.843 240.76Z"
        fill="#FEB9CC" />
    <path
        d="M221.793 264.226C223.352 262.889 224.095 259.845 222.164 258.508C221.793 258.211 222.238 257.617 222.61 257.914C224.986 259.548 224.169 263.112 222.238 264.82C221.941 265.117 221.496 264.597 221.793 264.226Z"
        fill="#FF495D" />
    <path
        d="M235.31 266.825C234.938 264.003 234.864 261.107 233.899 258.36C233.75 257.914 234.418 257.617 234.567 258.062C235.607 260.884 235.681 263.781 236.052 266.677C236.126 267.197 235.384 267.271 235.31 266.825Z"
        fill="#FF495D" />
    <path
        d="M243.701 267.939C243.033 263.335 242.29 258.805 241.325 254.275C241.25 253.83 241.993 253.681 242.067 254.201C243.033 258.731 243.775 263.261 244.443 267.865C244.518 268.31 243.775 268.385 243.701 267.939Z"
        fill="#FF495D" />
    <path
        d="M251.128 267.419C250.459 262.667 249.642 257.988 248.677 253.236C248.603 252.79 249.345 252.641 249.42 253.161C250.311 257.84 251.202 262.592 251.87 267.345C251.944 267.791 251.202 267.939 251.128 267.419Z"
        fill="#FF495D" />
    <path
        d="M238.799 272.469C238.13 271.207 238.13 269.573 238.873 268.385C239.69 267.122 241.101 267.122 242.215 267.865C242.586 268.162 242.14 268.682 241.769 268.459C239.318 266.9 238.502 270.538 239.467 272.172C239.69 272.618 239.021 272.915 238.799 272.469Z"
        fill="#FF495D" />
    <path
        d="M246.077 271.281C245.632 270.093 245.854 268.756 246.597 267.716C247.414 266.602 248.379 266.38 249.642 266.677C250.087 266.751 250.013 267.494 249.567 267.419C249.196 267.345 248.751 267.197 248.379 267.271C247.86 267.345 247.488 267.791 247.191 268.162C246.597 268.979 246.449 270.019 246.82 270.984C246.894 271.429 246.226 271.726 246.077 271.281Z"
        fill="#FF495D" />
    <path
        d="M253.8 268.088C253.132 266.974 252.984 265.637 253.726 264.449C254.32 263.484 255.434 263.187 256.251 264.003C256.622 264.301 256.177 264.895 255.806 264.598C255.063 264.003 254.469 264.523 254.172 265.192C253.8 266.009 253.949 266.825 254.395 267.568C254.617 268.014 254.023 268.459 253.8 268.088Z"
        fill="#FF495D" />
    <path
        d="M231.671 271.727C231.597 270.835 231.746 269.87 232.414 269.202C233.082 268.608 234.048 268.533 234.864 268.682C235.31 268.756 235.236 269.499 234.79 269.425C234.196 269.35 233.454 269.276 233.008 269.722C232.488 270.167 232.414 270.984 232.414 271.652C232.414 272.098 231.671 272.246 231.671 271.727Z"
        fill="#FF495D" />
    <path
        d="M231.522 253.087C231.225 251.973 231.299 250.785 231.448 249.671C231.522 249.374 231.671 249.225 231.893 249.151C231.893 248.928 231.968 248.706 232.116 248.409C232.413 247.814 233.453 247.814 233.527 248.557C233.676 250.191 233.527 251.75 232.933 253.31C232.636 254.052 231.671 253.755 231.522 253.087Z"
        fill="#FEB9CC" />
</svg>