<svg width="390" height="372" viewBox="0 0 390 372" fill="none" xmlns="http://www.w3.org/2000/svg">
    <path
        d="M289.798 92.2809C290.828 92.2809 291.944 92.1951 292.975 92.1951C292.46 91.4223 291.859 90.7354 291.258 90.0485C285.762 83.6947 278.979 78.5429 273.055 72.7043C272.625 72.275 272.024 72.1891 271.509 72.5325C265.327 76.1388 259.832 81.3764 254.766 86.4423C253.049 88.1595 251.074 90.0485 249.185 92.1092C249.958 92.5385 250.816 92.7961 251.761 93.0537C253.65 91.0789 255.625 89.2757 257.342 87.5585C261.807 83.1795 266.615 78.6288 272.024 75.2801C277.777 80.8612 284.217 85.8412 289.454 91.9375C289.626 92.0233 289.712 92.1092 289.798 92.2809Z"
        fill="#FD7960" />
    <path
        d="M240.77 93.3113C245.149 93.3113 249.614 93.5688 253.993 93.7406C255.967 93.8264 258.028 93.9123 260.003 93.9982C264.897 94.1699 270.221 94.2557 276.317 94.2557C281.554 94.2557 286.878 94.1699 291.944 94.084C296.494 93.9982 301.217 93.9982 305.854 93.9123V163.289C301.045 163.289 296.237 163.375 291.514 163.375C286.449 163.461 281.125 163.461 275.973 163.461C270.736 163.461 266.099 163.375 261.892 163.289C259.144 163.203 256.397 163.032 253.735 162.946C249.614 162.688 245.32 162.516 241.113 162.516C240.77 162.516 240.512 162.516 240.169 162.516C237.85 162.516 235.618 162.774 233.386 162.946C233.3 162.946 233.128 162.946 233.042 162.946V93.483C233.214 93.483 233.471 93.483 233.729 93.3971C235.876 93.3971 238.194 93.3113 240.77 93.3113ZM240.77 90.7354C238.366 90.7354 235.876 90.8212 233.471 90.993C232.441 91.0788 231.411 91.1647 230.466 91.2506V165.865C230.895 165.865 231.239 165.779 231.668 165.779C234.502 165.522 237.335 165.264 240.169 165.178C240.512 165.178 240.77 165.178 241.113 165.178C247.982 165.178 254.937 165.779 261.806 166.037C266.528 166.209 271.251 166.209 275.973 166.209C286.105 166.209 296.237 165.951 306.283 165.951H308.429V91.4223H306.455C296.409 91.4223 286.363 91.6799 276.317 91.6799C270.907 91.6799 265.498 91.594 260.089 91.4223C253.735 91.1647 247.295 90.7354 240.77 90.7354Z"
        fill="#FD7960" />
    <path
        d="M254.851 142.596C246.951 149.637 237.421 156.592 231.754 165.779C231.324 165.779 230.981 165.865 230.552 165.865V162.946C236.476 154.359 245.406 147.576 253.048 140.707C254.25 139.677 256.053 141.48 254.851 142.596Z"
        fill="#FD7960" />
    <path
        d="M308.429 164.577V166.037H306.283C298.297 157.622 289.282 150.582 279.579 143.97C278.205 143.026 279.493 140.793 280.867 141.738C290.913 148.521 300.186 155.905 308.429 164.577Z"
        fill="#FD7960" />
    <path
        d="M308.429 91.5083V93.1397C301.13 100.524 293.66 107.736 286.276 115.12C285.074 116.323 283.271 114.434 284.473 113.317C291.771 106.019 299.241 98.8925 306.454 91.5083H308.429Z"
        fill="#FD7960" />
    <path
        d="M256.225 124.05C250.987 117.009 246.608 109.282 240.941 102.67C238.966 100.352 236.82 98.2055 234.759 96.0589C233.9 95.1144 232.269 93.1396 230.552 91.9375V91.2506C231.582 91.1647 232.612 91.0789 233.557 90.993C236.047 93.1396 238.194 95.973 239.739 97.6044C247.037 105.16 252.189 114.348 258.457 122.762C259.487 124.05 257.169 125.338 256.225 124.05Z"
        fill="#FD7960" />
    <path
        d="M247.295 149.723C249.098 149.551 250.987 149.38 252.79 149.38C256.912 149.38 260.947 149.723 265.068 149.895C273.912 150.152 282.756 149.895 291.6 149.895V107.565C282.499 107.565 273.311 107.908 264.124 107.565C258.543 107.307 252.876 106.878 247.295 107.479V149.723Z"
        fill="#00AAD3" />
    <path
        d="M186.332 125.681C175.342 117.181 165.467 106.963 156.194 96.6598C155.507 95.8871 154.305 96.4023 154.048 97.2609C149.926 108.852 139.795 116.923 131.552 125.939C132.668 125.939 133.87 125.939 134.986 125.939C142.628 117.782 151.386 110.226 155.765 100.008C164.094 109.11 172.852 118.211 182.468 126.025C183.756 125.853 185.044 125.681 186.332 125.681Z"
        fill="#FFD25F" />
    <path
        d="M106.394 125.596C113.864 125.596 121.506 126.025 128.89 126.454C132.153 126.626 135.502 126.884 138.85 126.969C147.179 127.399 155.937 127.57 166.412 127.57C175.17 127.57 184.014 127.399 192.6 127.313C200.586 127.227 208.828 127.055 216.899 127.055C217.243 127.055 217.586 127.055 218.016 127.055V268.471C209.344 268.471 200.5 268.557 191.999 268.728C183.413 268.814 174.655 268.986 165.897 268.986C156.967 268.986 149.068 268.9 141.856 268.643C137.219 268.471 132.497 268.213 127.86 267.87C120.991 267.441 113.778 266.925 106.738 266.925C106.223 266.925 105.793 266.925 105.278 266.925C101.5 266.925 97.7222 267.355 94.0301 267.698C93.1715 267.784 92.3128 267.87 91.4542 267.956V126.282C96.0049 125.767 100.899 125.596 106.394 125.596ZM106.394 123.02C100.642 123.02 94.8029 123.277 89.0501 123.964H88.9642V270.789C89.5652 270.703 90.0804 270.703 90.6815 270.617C95.5756 270.188 100.47 269.501 105.364 269.501C105.879 269.501 106.308 269.501 106.824 269.501C118.501 269.501 130.178 270.789 141.856 271.133C149.841 271.39 157.912 271.476 165.983 271.476C183.327 271.476 200.757 271.047 218.187 271.047C219.046 271.047 219.905 271.047 220.677 271.047V124.479H220.334C219.218 124.479 218.102 124.479 216.985 124.479C200.156 124.479 183.327 124.995 166.498 124.995C157.311 124.995 148.209 124.823 139.108 124.393C128.203 123.878 117.213 123.02 106.394 123.02Z"
        fill="#FFD25F" />
    <path
        d="M117.042 156.592C111.976 148.263 102.617 143.197 96.0053 135.985C93.6011 133.323 91.197 130.661 88.8787 128V123.964H88.9645C89.308 124.393 89.5656 124.909 89.8232 125.166C90.8535 126.454 91.9697 127.656 93.0001 128.858C95.3184 131.52 97.7225 134.096 100.127 136.672C106.223 143.197 114.466 147.49 119.188 155.304C120.133 156.764 117.9 158.051 117.042 156.592Z"
        fill="#FFD25F" />
    <path
        d="M220.163 124.479C214.925 130.747 209.516 137.273 205.223 144.056C201.616 149.723 198.611 156.42 193.202 160.542C191.914 161.572 190.626 159.254 191.914 158.309C197.838 153.844 200.672 145.859 204.879 139.935C208.657 134.697 212.693 129.545 216.814 124.479C217.93 124.479 219.047 124.479 220.163 124.479Z"
        fill="#FFD25F" />
    <path
        d="M110.43 248.465C103.046 255.162 96.2629 262.46 90.5959 270.617C89.9949 270.703 89.4797 270.703 88.8787 270.789V268.557C94.5456 260.486 101.329 253.273 108.627 246.576C109.829 245.545 111.718 247.349 110.43 248.465Z"
        fill="#FFD25F" />
    <path
        d="M220.592 267.183V270.961C212.864 262.89 205.48 254.475 196.808 247.349C195.52 246.318 197.323 244.515 198.611 245.545C206.51 252.071 213.465 259.713 220.592 267.183Z"
        fill="#FFD25F" />
    <path
        d="M203.162 143.713V251.556C184.101 251.47 165.039 252.243 145.978 251.642C145.72 251.642 145.463 251.642 145.205 251.642C144.432 251.642 143.746 251.556 142.973 251.556C134.73 251.127 126.573 250.354 118.33 250.44C114.295 250.44 110.345 251.041 106.309 251.384V143.369C118.502 141.824 130.952 143.112 143.144 143.713C163.065 144.571 183.156 143.627 203.162 143.713Z"
        fill="#8D7ADD" />
    <path
        d="M167.272 223.908C161.347 223.736 155.423 224.252 149.498 223.994C145.205 223.822 139.452 223.822 136.19 220.559C128.033 212.488 134.387 202.271 139.71 194.629C142.629 190.422 146.236 186.129 147.609 181.149C149.241 175.31 147.953 169.214 144.948 164.148C140.74 156.935 133.957 151.011 131.553 143.026C123.139 142.596 114.638 142.339 106.309 143.369V251.384C110.345 251.041 114.295 250.44 118.33 250.44C127.26 250.354 136.19 251.384 145.205 251.642C164.438 252.329 183.843 251.556 203.162 251.556V232.408C191.399 228.545 179.636 224.252 167.272 223.908Z"
        fill="#FF495D" />
    <path
        d="M153.275 195.23C166.326 200.811 181.18 201.326 194.575 196.69C202.56 193.942 209.601 189.391 215.525 183.639C215.525 182.265 195.176 164.405 182.898 161.829C163.922 157.794 147.265 167.582 135.072 181.234C135.072 181.75 135.072 182.351 134.986 182.866C140.31 188.018 146.406 192.311 153.275 195.23Z"
        fill="white" />
    <path
        d="M199.383 173.936C197.237 171.36 194.06 169.729 190.711 169.471C187.878 169.214 184.014 169.3 180.751 172.391C176.973 175.911 175.256 182.351 176.973 187.331C178.776 192.483 184.1 195.058 189.251 195.488C194.403 195.917 199.383 193.685 201.272 188.619C203.075 183.982 202.646 177.886 199.383 173.936Z"
        fill="#93D3C5" />
    <path
        d="M145.978 251.642C145.72 251.642 145.463 251.642 145.205 251.642C144.432 251.642 143.746 251.556 142.973 251.556C137.048 240.565 129.149 230.691 123.139 219.701C117.214 208.796 112.749 197.205 106.309 186.644V181.921C114.037 193.341 118.845 206.306 125.371 218.413C131.639 229.833 139.968 240.05 145.978 251.642Z"
        fill="white" />
    <path
        d="M304.479 131.263C299.671 132.636 295.721 135.727 291.084 137.616C288.423 138.733 285.847 139.505 283.443 137.53C281.983 136.414 280.867 135.04 279.321 133.924C277.518 132.722 276.23 131.778 274.341 132.98C271.078 134.955 266.957 142.253 262.32 140.879C263.78 134.525 267.043 128.601 267.558 121.989C267.901 117.61 265.841 111.686 260.431 112.544C255.022 113.403 250.643 119.328 247.552 123.277C244.118 127.656 241.112 132.293 238.021 136.929C237.077 138.303 239.309 139.591 240.254 138.217C245.32 130.747 250.214 121.131 258.113 116.237C264.81 112.029 265.583 120.701 264.467 125.424C263.265 130.833 260.689 135.813 259.659 141.308C259.573 141.824 259.744 142.511 260.26 142.768C263.608 144.485 266.699 142.94 269.533 140.793C271.422 139.419 273.225 136.758 275.286 135.642C277.432 134.525 279.235 136.758 280.953 138.389C283.528 140.879 285.332 141.738 289.109 140.879C294.948 139.591 299.585 135.212 305.338 133.581C306.797 133.323 306.11 130.833 304.479 131.263Z"
        fill="#FFD25F" />
    <path
        d="M265.325 180.032C254.077 179.775 243.344 175.911 232.354 180.118C230.808 180.719 231.495 183.209 233.041 182.608C243.773 178.573 254.335 182.437 265.325 182.694C267.042 182.608 267.042 180.032 265.325 180.032Z"
        fill="#8D7ADD" />
    <path
        d="M252.017 199.781C245.577 199.867 239.137 200.554 232.698 200.639C231.066 200.639 231.066 203.215 232.698 203.215C239.137 203.129 245.577 202.443 252.017 202.357C253.734 202.357 253.734 199.781 252.017 199.781Z"
        fill="#8D7ADD" />
    <path
        d="M285.503 180.462C281.897 180.462 278.377 180.805 274.77 180.891C273.139 180.891 273.139 183.467 274.77 183.467C278.377 183.381 281.897 183.038 285.503 183.038C287.22 183.038 287.22 180.462 285.503 180.462Z"
        fill="#8D7ADD" />
</svg>
