<svg width="91" height="112" viewBox="0 0 91 112" fill="none" xmlns="http://www.w3.org/2000/svg">
    <path
        d="M55.9181 72.4724C54.0181 72.4724 52.0181 72.1724 50.0181 71.6724C42.8181 69.6724 37.8181 63.9724 35.9181 55.7724C32.4181 40.4724 40.0181 17.4724 52.1181 6.6724C58.5181 0.972402 65.7181 -0.827574 72.4181 1.57243C88.1181 7.17243 94.2181 23.1724 88.1181 42.2724C83.1181 58.2724 70.2181 72.4724 55.9181 72.4724ZM66.6181 11.5724C64.4181 11.5724 62.0181 12.6724 59.5181 14.8724C50.4181 22.8724 44.1181 41.9724 46.7181 53.2724C48.2181 59.6724 51.9181 60.7724 53.1181 61.0724C62.8181 63.7724 73.7181 51.7724 77.8181 38.9724C79.4181 33.9724 83.5181 17.2724 68.9181 11.9724C68.1181 11.6724 67.3181 11.5724 66.6181 11.5724Z"
        fill="#FFD25F" />
    <path
        d="M79.5195 101.472C66.4195 85.9724 50.3196 72.0724 37.6196 55.9724C34.6196 52.1724 31.8196 48.1724 29.3196 44.0724C25.6196 46.4724 21.8196 48.7724 18.1196 51.0724C17.6196 51.3724 17.1195 51.7724 16.5195 52.0724C19.1195 56.2724 22.0195 60.2724 25.0195 64.0724C38.0195 80.6724 54.3196 94.9724 67.8196 111.072L79.5195 101.472Z"
        fill="#B3EFF9" />
    <path
        d="M18.1196 50.9724C17.6196 51.2724 17.1195 51.6724 16.5195 51.9724C10.5195 55.8724 4.91953 60.0724 0.0195312 65.1724L9.51953 76.8724C14.0195 71.7724 19.4195 67.7724 25.0195 64.0724C29.1195 61.3724 33.4196 58.7724 37.6196 55.9724C34.6196 52.1724 31.8196 48.1724 29.3196 44.0724C25.6196 46.4724 21.8196 48.6724 18.1196 50.9724Z"
        fill="#B3EFF9" />
</svg>