<svg width="1036" height="353" viewBox="0 0 1036 353" fill="none" xmlns="http://www.w3.org/2000/svg">
  <g filter="url(#filter0_d_4000_8066)">
    <path
      d="M19.6883 257.919C18.7444 257.918 17.9725 257.616 17.3727 257.015C16.7729 256.413 16.4738 255.64 16.4752 254.696L16.6048 171.026C16.6062 170.082 16.9078 169.311 17.5094 168.711C18.111 168.111 18.8838 167.812 19.8278 167.813L36.433 167.839C37.377 167.841 38.1489 168.142 38.7486 168.744C39.3484 169.345 39.6476 170.118 39.6461 171.062L39.5981 202.084L71.3926 202.133L71.4406 171.111C71.4421 170.167 71.7436 169.395 72.3452 168.796C72.9469 168.196 73.7197 167.897 74.6636 167.898L91.2689 167.924C92.2128 167.925 92.9847 168.227 93.5845 168.829C94.1842 169.43 94.4834 170.203 94.4819 171.147L94.3524 254.817C94.351 255.761 94.0494 256.533 93.4478 257.132C92.8462 257.732 92.0734 258.031 91.1294 258.03L74.5242 258.004C73.5802 258.003 72.8083 257.701 72.2086 257.099C71.6088 256.498 71.3096 255.725 71.3111 254.781L71.3607 222.729L39.5662 222.68L39.5166 254.732C39.5151 255.676 39.2136 256.448 38.612 257.047C38.0103 257.647 37.2375 257.946 36.2936 257.945L19.6883 257.919ZM107.235 258.055C106.548 258.054 105.905 257.795 105.305 257.279C104.791 256.678 104.535 256.034 104.536 255.347C104.536 254.918 104.58 254.532 104.666 254.189L135.044 171.596C135.303 170.652 135.819 169.838 136.593 169.153C137.452 168.382 138.611 167.997 140.07 167.999L159.121 168.029C160.58 168.031 161.695 168.419 162.466 169.193C163.323 169.88 163.879 170.697 164.135 171.641L194.129 254.327C194.3 254.671 194.385 255.057 194.384 255.486C194.383 256.173 194.082 256.816 193.48 257.416C192.964 257.93 192.32 258.186 191.548 258.185L175.715 258.161C174.428 258.159 173.442 257.857 172.756 257.255C172.156 256.568 171.771 255.966 171.6 255.451L166.6 242.314L132.231 242.26L127.32 255.383C127.147 255.897 126.76 256.497 126.158 257.183C125.557 257.783 124.527 258.081 123.068 258.079L107.235 258.055ZM137.538 223.733L161.48 223.77L149.433 189.768L137.538 223.733ZM239.582 259.547C231.429 259.534 224.437 258.193 218.606 255.524C212.861 252.855 208.361 248.943 205.108 243.789C201.941 238.635 200.192 232.239 199.86 224.601C199.78 221.083 199.743 217.307 199.749 213.274C199.756 209.24 199.804 205.379 199.896 201.689C200.251 194.223 202.063 187.919 205.332 182.775C208.601 177.545 213.155 173.605 218.995 170.954C224.834 168.216 231.744 166.854 239.725 166.866C245.389 166.875 250.623 167.613 255.426 169.079C260.23 170.46 264.431 172.526 268.031 175.277C271.631 177.943 274.415 181.208 276.383 185.073C278.437 188.852 279.503 193.145 279.581 197.95C279.666 198.723 279.407 199.366 278.806 199.88C278.29 200.394 277.646 200.651 276.874 200.649L259.496 200.622C258.381 200.621 257.523 200.405 256.923 199.975C256.323 199.459 255.809 198.557 255.382 197.269C254.188 192.719 252.219 189.627 249.475 187.992C246.818 186.272 243.515 185.408 239.568 185.402C234.848 185.395 231.113 186.719 228.363 189.375C225.613 191.946 224.104 196.277 223.837 202.369C223.569 209.406 223.558 216.614 223.804 223.995C224.052 230.088 225.547 234.467 228.289 237.131C231.031 239.71 234.762 241.003 239.482 241.011C243.429 241.017 246.777 240.164 249.526 238.452C252.275 236.74 254.21 233.653 255.333 229.193C255.678 227.906 256.152 227.048 256.753 226.62C257.44 226.106 258.342 225.85 259.457 225.852L276.835 225.879C277.607 225.88 278.25 226.139 278.764 226.654C279.364 227.17 279.621 227.814 279.534 228.586C279.441 233.392 278.361 237.724 276.296 241.582C274.316 245.355 271.522 248.612 267.913 251.352C264.305 254.007 260.097 256.06 255.289 257.512C250.481 258.877 245.246 259.556 239.582 259.547ZM296.241 258.347C295.297 258.346 294.525 258.044 293.925 257.443C293.325 256.841 293.026 256.068 293.028 255.124L293.157 171.454C293.159 170.511 293.46 169.739 294.062 169.139C294.664 168.539 295.436 168.24 296.38 168.241L312.599 168.267C313.543 168.268 314.315 168.57 314.915 169.171C315.515 169.773 315.814 170.546 315.812 171.49L315.768 200.066L339.627 170.754C339.971 170.24 340.53 169.726 341.303 169.212C342.162 168.613 343.278 168.314 344.651 168.316L363.187 168.345C363.96 168.346 364.603 168.647 365.117 169.249C365.631 169.765 365.887 170.366 365.886 171.052C365.885 171.653 365.713 172.167 365.369 172.596L334.544 211.423L367.688 254.21C368.031 254.554 368.202 255.069 368.201 255.755C368.2 256.442 367.899 257.085 367.297 257.685C366.781 258.199 366.18 258.455 365.494 258.454L346.314 258.425C344.769 258.422 343.568 258.077 342.711 257.389C341.94 256.702 341.426 256.186 341.169 255.842L315.731 224.008L315.683 255.159C315.681 256.103 315.38 256.875 314.778 257.475C314.177 258.075 313.404 258.374 312.46 258.372L296.241 258.347ZM381.469 258.479C380.525 258.478 379.753 258.176 379.154 257.575C378.554 256.973 378.255 256.2 378.256 255.256L378.386 171.586C378.387 170.642 378.689 169.871 379.29 169.271C379.892 168.671 380.665 168.372 381.609 168.373L441.722 168.466C442.666 168.468 443.438 168.769 444.038 169.371C444.638 169.973 444.937 170.745 444.935 171.689L444.917 183.789C444.915 184.733 444.614 185.505 444.012 186.105C443.41 186.705 442.637 187.004 441.694 187.002L400.631 186.939L400.604 204.316L438.835 204.376C439.779 204.377 440.55 204.722 441.15 205.409C441.75 206.011 442.049 206.783 442.048 207.727L442.03 218.926C442.029 219.784 441.727 220.556 441.126 221.242C440.524 221.842 439.751 222.141 438.807 222.139L400.577 222.08L400.549 239.973L442.641 240.038C443.585 240.039 444.357 240.341 444.957 240.942C445.557 241.544 445.856 242.317 445.854 243.261L445.836 255.361C445.834 256.305 445.533 257.077 444.931 257.676C444.329 258.276 443.556 258.575 442.613 258.574L381.469 258.479ZM463.681 258.606C462.737 258.605 461.965 258.303 461.365 257.702C460.765 257.1 460.466 256.327 460.468 255.383L460.597 171.714C460.599 170.77 460.9 169.998 461.502 169.398C462.103 168.798 462.876 168.499 463.82 168.501L498.833 168.555C509.903 168.572 518.609 171.16 524.952 176.319C531.38 181.392 534.587 188.605 534.572 197.959C534.563 204.052 533.053 209.198 530.043 213.399C527.119 217.599 523.252 220.768 518.443 222.906L536.158 254.599C536.415 255.115 536.543 255.587 536.542 256.016C536.541 256.703 536.24 257.346 535.638 257.945C535.122 258.46 534.478 258.716 533.706 258.715L516.715 258.688C515.084 258.686 513.883 258.298 513.112 257.524C512.341 256.665 511.784 255.892 511.442 255.205L496.812 226.863L483.553 226.843L483.509 255.419C483.508 256.363 483.206 257.135 482.604 257.735C482.003 258.334 481.23 258.634 480.286 258.632L463.681 258.606ZM483.581 208.693L498.513 208.716C502.547 208.722 505.552 207.74 507.528 205.769C509.591 203.799 510.625 201.097 510.63 197.664C510.635 194.318 509.653 191.613 507.682 189.55C505.797 187.488 502.753 186.453 498.548 186.447L483.616 186.424L483.581 208.693Z"
      fill="url(#paint0_linear_4000_8066)" shape-rendering="crispEdges" />
  </g>
  <path
    d="M40.4771 162.493C40.4386 163.81 41.4159 165.135 41.9159 166.326C42.7016 168.198 42.8389 171.087 42.8259 173.097C42.8028 176.663 43.5036 180.235 43.3982 183.846"
    stroke="white" stroke-width="1.72126" stroke-linecap="round" />
  <path d="M44.0625 191.398C44.2359 193.522 46.4279 193.607 47.9691 194.171" stroke="white" stroke-width="1.72126"
    stroke-linecap="round" />
  <path d="M76.3582 162.655C81.725 162.812 88.0777 162.085 92.673 165.346" stroke="white" stroke-width="1.72126"
    stroke-linecap="round" />
  <path d="M11.0109 215.687C10.5866 230.219 8.36289 245.745 11.4893 260.007" stroke="white" stroke-width="1.72126"
    stroke-linecap="round" />
  <path d="M2.14941 246.001C2.07303 248.617 2.57796 250.337 3.28362 252.68" stroke="white" stroke-width="1.72126"
    stroke-linecap="round" />
  <path
    d="M69.8844 263.042C75.5546 263.208 81.3584 262.934 86.9408 263.097C88.4773 263.142 89.639 262.229 90.8538 261.439C91.8963 260.761 95.1617 259.349 93.9188 259.313"
    stroke="white" stroke-width="1.72126" stroke-linecap="round" />
  <path d="M96.4813 262.49C95.9695 262.588 94.0627 264.9 93.7347 265.511" stroke="white" stroke-width="1.72126"
    stroke-linecap="round" />
  <path
    d="M99.3413 202.519C99.2696 204.974 99.228 207.225 99.6524 209.66C100.31 213.432 103.586 217.285 103.474 221.131C103.391 223.989 101.916 224.975 100.74 227.428C99.6773 229.641 99.7704 231.505 99.698 233.986"
    stroke="white" stroke-width="1.72126" stroke-linecap="round" />
  <path
    d="M121.206 194.787C121.4 188.129 122.154 181.841 124.666 175.585C126.609 170.745 129.132 163.257 133.637 160.079"
    stroke="white" stroke-width="1.72126" stroke-linecap="round" />
  <path d="M139.692 162.294C137.895 162.242 136.682 163.605 134.743 164.189" stroke="white" stroke-width="1.72126"
    stroke-linecap="round" />
  <path d="M146.907 209.191C146.834 211.677 144.352 213.537 144.279 216.049" stroke="white" stroke-width="1.72126"
    stroke-linecap="round" />
  <path d="M132.104 254.631C132.604 250.772 137.469 248.326 140.901 248.426" stroke="white" stroke-width="1.72126"
    stroke-linecap="round" />
  <path d="M190.6 224.51C188 218.907 185.353 213.475 183.153 207.677C181.199 202.529 178.391 197.228 177.213 191.854"
    stroke="white" stroke-width="1.72126" stroke-linecap="round" />
  <path
    d="M211.922 261.192C214.683 261.549 217.821 264.468 220.351 265.664C223.372 267.092 226.352 268.143 229.62 268.823C234.397 269.817 239.786 270.072 244.675 269.824C255.725 269.264 269.709 263.148 273.817 251.925"
    stroke="white" stroke-width="1.72126" stroke-linecap="round" />
  <path
    d="M281.13 248.769C281.071 250.785 279.55 251.925 279.085 253.764C278.637 255.533 278.478 257.139 278.423 259.014C278.335 262.04 277.531 265.14 275.291 267.374C273.564 269.096 271.273 272.717 268.855 273.445"
    stroke="white" stroke-width="1.72126" stroke-linecap="round" />
  <path
    d="M228.102 222.562C228.341 214.361 228.581 206.161 228.82 197.96C228.943 193.735 233.129 191.16 237.095 191.276"
    stroke="white" stroke-width="1.72126" stroke-linecap="round" />
  <path d="M244.048 190.324C245.8 190.375 247.794 191.451 248.583 193.15" stroke="white" stroke-width="1.72126"
    stroke-linecap="round" />
  <path
    d="M282.934 189.535C283.155 181.955 278.659 176.86 273.444 171.944C269.02 167.775 263.385 164.543 257.781 162.253C253.075 160.33 248.057 158.351 243.094 157.207"
    stroke="white" stroke-width="1.72126" stroke-linecap="round" />
  <path d="M281.811 175.267C281.829 174.628 282.036 174.021 281.471 173.718" stroke="white" stroke-width="1.72126"
    stroke-linecap="round" />
  <path
    d="M345.843 217.391C344.867 216.357 343.968 215.06 343.243 213.844C342.532 212.652 342.685 211.501 342.726 210.115C342.899 204.189 347.323 198.853 350.615 194.282C352.253 192.008 354.026 189.836 355.927 187.778C356.525 187.131 357.642 186.467 358.036 185.734"
    stroke="white" stroke-width="1.72126" stroke-linecap="round" />
  <path d="M361.74 181.744C361.785 180.203 362.112 178.843 362.635 177.416" stroke="white" stroke-width="1.72126"
    stroke-linecap="round" />
  <path
    d="M297.638 263.109C301.866 263.232 305.774 263.078 309.951 262.444C315.005 261.676 320.838 258.144 324.023 254.147"
    stroke="white" stroke-width="1.72126" stroke-linecap="round" />
  <path d="M324.839 261.341C323.943 261.315 323.18 261.549 322.272 261.522" stroke="white" stroke-width="1.72126"
    stroke-linecap="round" />
  <path d="M301.306 163.846L311.285 164.137" stroke="white" stroke-width="1.72126" stroke-linecap="round" />
  <path d="M316.631 165.315C317.415 165.338 317.552 165.81 318.144 166.128" stroke="white" stroke-width="1.72126"
    stroke-linecap="round" />
  <path d="M352.774 261.624L362.414 261.905" stroke="white" stroke-width="1.72126" stroke-linecap="round" />
  <path
    d="M410.502 159.086C417.725 159.297 424.948 159.508 432.171 159.719C435.113 159.804 443.639 162.099 440.697 162.013"
    stroke="white" stroke-width="1.72126" stroke-linecap="round" />
  <path d="M420.999 149.983C426.105 150.645 431.141 154.385 435.959 156.149" stroke="white" stroke-width="1.72126"
    stroke-linecap="round" />
  <path
    d="M443.881 199.817C445.992 200.114 445.598 204.584 445.559 205.933C445.458 209.373 445.358 212.813 445.258 216.253"
    stroke="white" stroke-width="1.72126" stroke-linecap="round" />
  <path
    d="M393.176 262.373C398.105 262.517 403.917 261.84 408.612 263.442C413.144 264.99 417.717 267.437 422.462 268.246C428.041 269.198 433.34 267.315 438.558 265.554C440.942 264.749 443.048 263.272 445.302 262.348C446.529 261.845 446.823 260.227 448.302 260.27"
    stroke="white" stroke-width="1.72126" stroke-linecap="round" />
  <path
    d="M404.089 270.116C406.442 270.185 408.719 273.071 410.39 274.442C411.527 275.375 412.59 277.19 413.918 277.828C415.628 278.648 416.993 279.155 418.982 279.213C421.082 279.274 423.148 278.716 425.181 278.775"
    stroke="white" stroke-width="1.72126" stroke-linecap="round" />
  <path d="M494.893 163.031C495.909 163.061 498.527 163.575 498.999 162.696" stroke="white" stroke-width="1.72126"
    stroke-linecap="round" />
  <path
    d="M506.688 164.285C510.413 164.394 514.562 164.009 518.201 164.849C520.356 165.345 522.372 166.673 524.447 167.433C527.745 168.64 532.153 170.325 534.656 172.839C543.48 181.701 544.013 195.337 543.665 207.237"
    stroke="white" stroke-width="1.72126" stroke-linecap="round" />
  <path d="M533.657 238.35C534.499 240.744 538.751 245.935 541.136 247.215" stroke="white" stroke-width="1.72126"
    stroke-linecap="round" />
  <path
    d="M464.558 261.536C470.673 261.714 476.345 262.141 482.214 260.779C484.989 260.134 486.69 258.874 488.844 257.134C490.161 256.07 492.613 248.93 491.127 248.132"
    stroke="white" stroke-width="1.72126" stroke-linecap="round" />
  <path d="M488.463 202.607C488.497 201.447 488.066 196.161 489.028 195.715" stroke="white" stroke-width="1.72126"
    stroke-linecap="round" />
  <g filter="url(#filter1_d_4000_8066)">
    <path
      d="M568.073 259.039C567.119 259.041 566.338 258.739 565.729 258.133C565.121 257.526 564.816 256.746 564.814 255.792L564.656 171.197C564.654 170.242 564.957 169.461 565.563 168.853C566.169 168.244 566.949 167.939 567.904 167.937L584.693 167.906C585.647 167.904 586.428 168.206 587.037 168.813C587.645 169.419 587.951 170.199 587.952 171.153L588.011 202.519L620.157 202.459L620.098 171.094C620.097 170.139 620.399 169.358 621.005 168.749C621.611 168.141 622.392 167.836 623.346 167.834L640.135 167.803C641.089 167.801 641.871 168.103 642.479 168.709C643.088 169.316 643.393 170.096 643.394 171.05L643.552 255.645C643.554 256.599 643.252 257.381 642.645 257.989C642.039 258.598 641.259 258.903 640.304 258.905L623.516 258.936C622.561 258.938 621.78 258.636 621.171 258.029C620.563 257.423 620.258 256.643 620.256 255.688L620.196 223.282L588.05 223.342L588.11 255.748C588.112 256.703 587.809 257.484 587.203 258.093C586.597 258.701 585.817 259.006 584.862 259.008L568.073 259.039ZM699.018 260.097C691.036 260.112 684.092 258.823 678.187 256.231C672.282 253.639 667.677 249.744 664.37 244.544C661.063 239.257 659.229 232.667 658.867 224.772C658.773 221.041 658.723 217.31 658.716 213.58C658.709 209.849 658.745 206.074 658.825 202.257C659.158 194.447 660.967 187.893 664.255 182.594C667.628 177.209 672.263 173.166 678.158 170.465C684.053 167.764 690.948 166.407 698.843 166.392C706.652 166.377 713.509 167.709 719.414 170.388C725.406 173.067 730.098 177.092 733.492 182.466C736.886 187.752 738.72 194.299 738.995 202.107C739.176 205.925 739.269 209.699 739.276 213.43C739.283 217.16 739.203 220.891 739.037 224.623C738.705 232.519 736.895 239.116 733.608 244.415C730.32 249.627 725.729 253.54 719.834 256.154C713.939 258.768 707 260.082 699.018 260.097ZM698.983 241.356C703.581 241.347 707.31 239.952 710.168 237.17C713.113 234.388 714.666 229.961 714.828 223.887C714.995 220.069 715.075 216.468 715.068 213.084C715.062 209.7 714.969 206.187 714.789 202.543C714.607 198.465 713.82 195.17 712.428 192.656C711.121 190.056 709.296 188.15 706.951 186.94C704.606 185.73 701.915 185.127 698.878 185.133C695.928 185.138 693.283 185.751 690.943 186.97C688.602 188.189 686.741 190.101 685.357 192.707C683.974 195.225 683.199 198.524 683.033 202.602C682.953 206.246 682.916 209.76 682.922 213.144C682.929 216.528 682.979 220.128 683.073 223.946C683.344 230.019 684.914 234.441 687.783 237.212C690.651 239.983 694.384 241.364 698.983 241.356ZM792.582 259.923C784.773 259.937 777.916 258.692 772.012 256.187C766.193 253.595 761.674 249.655 758.454 244.369C755.234 238.995 753.616 232.187 753.601 223.945L753.502 170.845C753.5 169.891 753.802 169.109 754.409 168.501C755.015 167.892 755.795 167.587 756.75 167.586L773.538 167.554C774.493 167.552 775.274 167.855 775.883 168.461C776.491 169.067 776.796 169.847 776.798 170.802L776.897 223.771C776.907 229.411 778.26 233.66 780.955 236.518C783.737 239.289 787.6 240.67 792.546 240.661C797.405 240.652 801.176 239.257 803.861 236.475C806.632 233.607 808.012 229.353 808.002 223.713L807.903 170.744C807.901 169.79 808.203 169.008 808.81 168.4C809.503 167.791 810.283 167.486 811.151 167.484L828.07 167.453C828.937 167.451 829.675 167.753 830.284 168.36C830.979 168.966 831.327 169.746 831.329 170.7L831.428 223.8C831.443 232.042 829.851 238.856 826.651 244.242C823.45 249.54 818.946 253.496 813.138 256.11C807.329 258.637 800.477 259.908 792.582 259.923ZM882.722 259.755C874.045 259.771 866.842 258.57 861.111 256.151C855.38 253.646 851.035 250.4 848.078 246.414C845.121 242.429 843.551 238.18 843.369 233.669C843.368 232.975 843.627 232.367 844.147 231.845C844.753 231.237 845.446 230.932 846.227 230.93L862.626 230.9C863.84 230.898 864.752 231.113 865.36 231.545C866.055 231.978 866.663 232.541 867.185 233.234C867.882 234.534 868.838 235.79 870.055 237.003C871.359 238.215 873.009 239.21 875.006 239.987C877.09 240.677 879.65 241.02 882.687 241.014C887.719 241.005 891.492 240.217 894.005 238.65C896.605 237.084 897.903 234.955 897.898 232.266C897.894 230.357 897.197 228.796 895.807 227.584C894.416 226.286 892.158 225.162 889.033 224.213C885.994 223.178 881.914 222.144 876.793 221.112C870.197 219.737 864.554 217.968 859.864 215.808C855.262 213.561 851.742 210.661 849.306 207.108C846.87 203.468 845.647 198.959 845.637 193.579C845.627 188.287 847.093 183.555 850.036 179.385C853.065 175.215 857.267 171.953 862.642 169.601C868.017 167.248 874.392 166.065 881.766 166.051C887.753 166.04 893.004 166.811 897.519 168.365C902.12 169.918 905.985 171.993 909.113 174.59C912.241 177.187 914.589 179.959 916.157 182.906C917.81 185.766 918.683 188.585 918.775 191.361C918.776 192.055 918.517 192.706 917.998 193.315C917.478 193.836 916.828 194.098 916.047 194.099L898.868 194.131C897.914 194.133 897.089 193.961 896.394 193.615C895.699 193.269 895.091 192.706 894.569 191.927C894.045 190.019 892.654 188.373 890.395 186.989C888.223 185.518 885.359 184.786 881.801 184.792C877.984 184.799 874.992 185.499 872.825 186.891C870.745 188.197 869.708 190.238 869.713 193.014C869.716 194.749 870.283 196.267 871.413 197.566C872.631 198.865 874.585 199.989 877.276 200.939C880.055 201.888 883.831 202.879 888.605 203.911C896.503 205.371 902.883 207.225 907.746 209.472C912.609 211.632 916.172 214.488 918.434 218.042C920.697 221.508 921.833 225.887 921.843 231.18C921.854 237.08 920.171 242.202 916.796 246.547C913.506 250.804 908.914 254.066 903.018 256.333C897.123 258.6 890.357 259.741 882.722 259.755ZM938.176 258.35C937.221 258.352 936.44 258.05 935.831 257.444C935.223 256.837 934.918 256.057 934.916 255.103L934.759 170.508C934.757 169.553 935.059 168.772 935.665 168.163C936.271 167.555 937.052 167.25 938.006 167.248L998.784 167.135C999.739 167.133 1000.52 167.435 1001.13 168.042C1001.74 168.648 1002.04 169.428 1002.04 170.382L1002.07 182.616C1002.07 183.571 1001.77 184.352 1001.16 184.961C1000.55 185.569 999.774 185.874 998.819 185.876L957.303 185.953L957.335 203.523L995.989 203.451C996.943 203.449 997.725 203.795 998.333 204.488C998.942 205.094 999.247 205.874 999.249 206.829L999.27 218.151C999.271 219.019 998.969 219.8 998.363 220.496C997.757 221.104 996.977 221.409 996.022 221.411L957.369 221.483L957.403 239.573L999.96 239.494C1000.91 239.492 1001.7 239.795 1002.3 240.401C1002.91 241.007 1003.22 241.787 1003.22 242.742L1003.24 254.975C1003.24 255.93 1002.94 256.711 1002.34 257.32C1001.73 257.928 1000.95 258.233 999.995 258.235L938.176 258.35Z"
      fill="url(#paint1_linear_4000_8066)" shape-rendering="crispEdges" />
  </g>
  <path
    d="M555.279 238.235C554.645 233.669 556.113 229.371 555.476 224.785C554.632 218.712 552.909 212.321 552.933 206.208C552.954 200.75 555.603 195.335 556.29 189.91C556.531 188.005 558.458 177.841 555.708 176.912"
    stroke="white" stroke-width="2.00462" stroke-linecap="round" />
  <path
    d="M591.464 181.58C591.98 185.294 592.496 189.009 593.012 192.723C593.458 195.936 598.349 194.921 600.957 195.405"
    stroke="white" stroke-width="2.00462" stroke-linecap="round" />
  <path d="M613.188 174.434C613.01 173.157 612.223 171.027 613.3 170.288" stroke="white" stroke-width="2.00462"
    stroke-linecap="round" />
  <path d="M617.365 164.904L634.248 162.559" stroke="white" stroke-width="2.00462" stroke-linecap="round" />
  <path d="M627.207 263.998L642.913 261.816" stroke="white" stroke-width="2.00462" stroke-linecap="round" />
  <path
    d="M686.885 224.476C685.963 217.844 685.562 210.754 687.71 204.393C688.774 201.241 689.957 198.533 691.393 195.561C692.023 194.256 695.086 191.857 696.275 193.589"
    stroke="white" stroke-width="2.00462" stroke-linecap="round" />
  <path
    d="M657.72 184.894C657.594 182.244 660.342 179.126 661.497 176.892C663.475 173.067 665.865 169.694 668.766 166.514C672.372 162.561 677.284 162.578 682.256 161.887C685.623 161.419 689.458 160.378 692.869 160.495C693.603 160.52 699.825 160.55 699.509 160.969"
    stroke="white" stroke-width="2.00462" stroke-linecap="round" />
  <path d="M696.229 153.291C700.286 152.727 704.786 155.215 707.918 157.583" stroke="white" stroke-width="2.00462"
    stroke-linecap="round" />
  <path d="M691.872 266.392L693.698 266.138" stroke="white" stroke-width="2.00462" stroke-linecap="round" />
  <path
    d="M700.341 267.077C704.94 266.438 709.539 265.799 714.139 265.16C717.619 264.676 722.129 264.817 725.3 263.247C728.782 261.522 732.668 258.814 735.064 255.737C739.316 250.274 741.355 243.607 744.65 237.652"
    stroke="white" stroke-width="2.00462" stroke-linecap="round" />
  <path d="M760.22 162.745C761.777 162.528 766.753 161.709 767.722 163.121" stroke="white" stroke-width="2.00462"
    stroke-linecap="round" />
  <path
    d="M775.721 164.495C780.64 163.812 780.252 171.575 780.7 174.801C781.233 178.633 781.056 182.58 781.213 186.437C781.339 189.519 781.04 192.57 781.465 195.625C781.572 196.393 782.286 198.684 781.6 199.154"
    stroke="white" stroke-width="2.00462" stroke-linecap="round" />
  <path
    d="M779.506 265.783C789.202 264.436 799.116 264.333 808.712 262.356C812.425 261.591 816.1 260.309 819.487 258.632C820.858 257.953 821.77 256.984 822.811 255.884C823.516 255.139 824.992 254.695 823.978 253.928"
    stroke="white" stroke-width="2.00462" stroke-linecap="round" />
  <path
    d="M800.706 270.289C803.838 269.854 806.97 269.419 810.103 268.984C812.584 268.639 816.652 268.871 818.755 267.427"
    stroke="white" stroke-width="2.00462" stroke-linecap="round" />
  <path
    d="M840.535 199.813C840.096 196.655 839.224 193.326 839.262 190.134C839.292 187.518 839.582 184.989 839.896 182.402C840.462 177.737 842.689 172.292 845.864 168.785C847.524 166.95 848.946 164.864 851.014 163.393C854.702 160.768 858.944 159.264 863.246 157.97C870.985 155.644 879.368 154.656 887.411 154.289C891.191 154.117 896.553 153.479 899.837 155.962"
    stroke="white" stroke-width="2.00462" stroke-linecap="round" />
  <path
    d="M882.809 161.563C887.379 160.928 891.813 160.455 896.352 161.696C897.66 162.054 900.464 162.702 901.257 163.856"
    stroke="white" stroke-width="2.00462" stroke-linecap="round" />
  <path d="M914.318 199.596L919.4 198.89" stroke="white" stroke-width="2.00462" stroke-linecap="round" />
  <path
    d="M876.198 265.433C878.597 265.099 880.747 265.197 883.154 265.276C886.46 265.384 889.798 264.838 893.067 264.384C896.519 263.904 900.067 263.549 903.239 261.999C905.427 260.931 907.026 258.993 909.15 257.941"
    stroke="white" stroke-width="2.00462" stroke-linecap="round" />
  <path
    d="M998.668 235.79C1001.91 235.339 1005.72 238.021 1007.57 240.543C1009.64 243.377 1010.02 247.569 1010.49 250.982"
    stroke="white" stroke-width="2.00462" stroke-linecap="round" />
  <path d="M950.764 263.813C953.575 263.422 956.383 263 959.198 262.641C960.78 262.44 962.325 262.854 963.874 262.639"
    stroke="white" stroke-width="2.00462" stroke-linecap="round" />
  <path
    d="M965.027 161.473C974.151 160.205 982.897 158.863 992.069 160.377C994.556 160.788 997.203 161.441 999.621 162.17C999.996 162.283 1001.53 162.505 1000.85 162.971"
    stroke="white" stroke-width="2.00462" stroke-linecap="round" />
  <path
    d="M1007.38 163.357C1007.07 161.123 1006.43 159.756 1004.65 158.232C1003.34 157.107 1000.35 154.621 998.431 154.888"
    stroke="white" stroke-width="2.00462" stroke-linecap="round" />
  <path d="M929.643 167.745L931.858 183.688" stroke="white" stroke-width="2.00462" stroke-linecap="round" />
  <g filter="url(#filter2_d_4000_8066)">
    <path
      d="M160.854 123.744C160.16 123.745 159.509 123.486 158.901 122.966C158.379 122.36 158.117 121.71 158.116 121.016C158.115 120.582 158.158 120.191 158.244 119.844L188.673 36.2334C188.931 35.2785 189.45 34.4533 190.23 33.7577C191.096 32.9752 192.267 32.5826 193.742 32.5798L213.003 32.544C214.478 32.5412 215.607 32.9296 216.389 33.709C217.258 34.4015 217.824 35.2247 218.086 36.1786L248.695 119.676C248.87 120.022 248.957 120.413 248.958 120.846C248.959 121.541 248.657 122.192 248.05 122.8C247.531 123.322 246.881 123.583 246.1 123.585L230.092 123.615C228.79 123.617 227.792 123.315 227.097 122.709C226.488 122.016 226.097 121.41 225.922 120.889L220.822 107.624L186.073 107.689L181.152 120.973C180.979 121.494 180.59 122.102 179.984 122.797C179.378 123.405 178.337 123.711 176.862 123.714L160.854 123.744ZM191.374 88.9376L215.581 88.8925L203.283 54.5568L191.374 88.9376ZM262.475 123.554C261.52 123.556 260.739 123.254 260.13 122.648C259.522 122.041 259.217 121.261 259.215 120.307L259.058 35.7119C259.056 34.7575 259.358 33.976 259.964 33.3676C260.57 32.7591 261.351 32.454 262.305 32.4522L276.101 32.4265C277.576 32.4237 278.617 32.7689 279.226 33.4618C279.921 34.0679 280.356 34.5443 280.53 34.891L312.379 84.9381L312.287 35.6128C312.285 34.6584 312.588 33.8769 313.194 33.2685C313.8 32.66 314.58 32.3548 315.535 32.3531L331.152 32.324C332.107 32.3222 332.888 32.6244 333.497 33.2307C334.105 33.8369 334.41 34.6172 334.412 35.5716L334.57 120.166C334.571 121.034 334.269 121.815 333.663 122.511C333.057 123.119 332.276 123.424 331.322 123.426L317.396 123.452C316.008 123.455 314.966 123.11 314.271 122.417C313.662 121.724 313.271 121.247 313.097 120.987L281.252 72.8924L281.34 120.266C281.342 121.22 281.039 122.001 280.433 122.61C279.827 123.218 279.047 123.523 278.092 123.525L262.475 123.554ZM376.06 123.343C375.105 123.345 374.324 123.042 373.715 122.436C373.107 121.83 372.802 121.05 372.8 120.095L372.674 52.6797L349.508 52.7228C348.554 52.7246 347.773 52.4223 347.164 51.8161C346.555 51.1231 346.25 50.3428 346.249 49.4752L346.223 35.5496C346.221 34.5952 346.523 33.8137 347.129 33.2053C347.736 32.5968 348.516 32.2917 349.47 32.2899L419.489 32.1595C420.443 32.1577 421.225 32.46 421.833 33.0662C422.442 33.6724 422.747 34.4527 422.749 35.4071L422.774 49.3327C422.776 50.2004 422.474 50.9818 421.868 51.677C421.262 52.2855 420.481 52.5906 419.527 52.5924L396.361 52.6355L396.486 120.051C396.488 121.006 396.186 121.787 395.58 122.395C394.974 123.004 394.193 123.309 393.239 123.311L376.06 123.343ZM420.256 123.261C419.562 123.262 418.911 123.003 418.303 122.483C417.781 121.877 417.519 121.227 417.518 120.533C417.517 120.099 417.56 119.708 417.646 119.361L448.075 35.7504C448.333 34.7955 448.852 33.9703 449.632 33.2747C450.498 32.4922 451.669 32.0996 453.144 32.0968L472.405 32.061C473.88 32.0582 475.009 32.4466 475.791 33.226C476.66 33.9185 477.226 34.7417 477.488 35.6956L508.098 119.193C508.272 119.539 508.359 119.93 508.36 120.363C508.361 121.058 508.059 121.709 507.453 122.317C506.933 122.839 506.283 123.1 505.502 123.102L489.494 123.132C488.192 123.134 487.194 122.832 486.499 122.226C485.89 121.533 485.499 120.927 485.324 120.406L480.224 107.141L445.475 107.206L440.554 120.49C440.381 121.011 439.992 121.619 439.386 122.314C438.78 122.922 437.739 123.228 436.264 123.231L420.256 123.261ZM450.776 88.4546L474.983 88.4095L462.685 54.0738L450.776 88.4546ZM521.877 123.071C520.922 123.073 520.141 122.771 519.533 122.165C518.924 121.558 518.619 120.778 518.617 119.824L518.46 35.2289C518.458 34.2745 518.76 33.493 519.366 32.8846C519.972 32.2761 520.753 31.971 521.707 31.9692L538.886 31.9372C539.754 31.9356 540.492 32.2379 541.101 32.8441C541.796 33.4502 542.144 34.2304 542.146 35.1848L542.273 103.381L581.577 103.308C582.532 103.306 583.313 103.652 583.922 104.345C584.617 104.951 584.966 105.731 584.967 106.686L584.992 119.7C584.993 120.655 584.648 121.436 583.955 122.045C583.348 122.653 582.568 122.958 581.614 122.96L521.877 123.071ZM599.532 122.927C598.578 122.928 597.796 122.626 597.188 122.02C596.579 121.414 596.274 120.634 596.273 119.679L596.115 35.0843C596.113 34.1299 596.415 33.3485 597.022 32.74C597.628 32.1315 598.408 31.8264 599.363 31.8246L635.803 31.7567C643.005 31.7433 649.254 32.8596 654.551 35.1056C659.934 37.2647 664.105 40.554 667.063 44.9735C670.108 49.3928 671.637 54.9862 671.65 61.7538C671.662 68.4346 670.154 73.947 667.125 78.2908C664.183 82.6345 660.025 85.8525 654.649 87.9449C649.36 90.0371 643.115 91.0899 635.914 91.1033L620.427 91.1321L620.48 119.634C620.481 120.588 620.136 121.37 619.443 121.979C618.837 122.587 618.056 122.892 617.102 122.894L599.532 122.927ZM620.003 73.1727L635.23 73.1443C638.961 73.1374 641.909 72.1775 644.074 70.2647C646.327 68.3517 647.449 65.443 647.442 61.5386C647.436 58.2416 646.476 55.4669 644.563 53.2146C642.65 50.9623 639.525 49.8402 635.186 49.8482L619.959 49.8766L620.003 73.1727ZM687.482 122.763C686.528 122.765 685.747 122.463 685.138 121.856C684.53 121.25 684.224 120.47 684.223 119.515L684.065 34.9205C684.063 33.9661 684.366 33.1847 684.972 32.5762C685.578 31.9677 686.358 31.6626 687.313 31.6608L704.102 31.6296C705.056 31.6278 705.837 31.93 706.446 32.5362C707.054 33.1425 707.36 33.9228 707.361 34.8772L707.42 66.2423L739.566 66.1825L739.507 34.8173C739.506 33.8629 739.808 33.0815 740.414 32.473C741.02 31.8645 741.801 31.5594 742.755 31.5576L759.544 31.5263C760.498 31.5246 761.28 31.8268 761.888 32.433C762.497 33.0392 762.802 33.8195 762.803 34.7739L762.961 119.369C762.963 120.323 762.661 121.105 762.054 121.713C761.448 122.322 760.668 122.627 759.713 122.628L742.925 122.66C741.97 122.662 741.189 122.359 740.58 121.753C739.972 121.147 739.667 120.367 739.665 119.412L739.604 87.0058L707.458 87.0657L707.519 119.472C707.521 120.426 707.218 121.208 706.612 121.816C706.006 122.425 705.226 122.73 704.271 122.732L687.482 122.763ZM775.997 122.598C775.303 122.599 774.651 122.34 774.043 121.821C773.521 121.215 773.26 120.564 773.259 119.87C773.258 119.436 773.301 119.046 773.387 118.699L803.815 35.088C804.074 34.1331 804.593 33.3079 805.372 32.6123C806.239 31.8298 807.409 31.4372 808.884 31.4345L828.146 31.3986C829.621 31.3959 830.749 31.7842 831.532 32.5636C832.401 33.2561 832.966 34.0793 833.228 35.0332L863.838 118.53C864.012 118.877 864.1 119.267 864.1 119.701C864.102 120.395 863.799 121.046 863.193 121.655C862.673 122.176 862.023 122.438 861.242 122.439L845.234 122.469C843.933 122.472 842.935 122.17 842.239 121.564C841.631 120.871 841.239 120.264 841.065 119.744L835.964 106.478L801.215 106.543L796.294 119.827C796.122 120.348 795.733 120.956 795.127 121.652C794.52 122.26 793.48 122.566 792.005 122.568L775.997 122.598ZM806.516 87.7923L830.724 87.7472L818.426 53.4114L806.516 87.7923Z"
      fill="url(#paint2_linear_4000_8066)" shape-rendering="crispEdges" />
  </g>
  <path
    d="M196.223 29.9607C193.375 29.9607 189.906 29.3802 188.402 32.0114C186.904 34.6324 184.574 37.0805 182.806 39.6061C181.38 41.6428 180.742 44.3417 179.643 46.5404"
    stroke="white" stroke-width="1.85655" stroke-linecap="round" />
  <path
    d="M152.425 117.553C152.425 121.182 155.251 124.542 158.369 126.242C162.33 128.403 166.699 128.502 171.195 128.502"
    stroke="white" stroke-width="1.85655" stroke-linecap="round" />
  <path
    d="M186.841 119.015C186.841 118.225 186.617 117.106 186.878 116.35C187.139 115.597 188.271 114.531 188.977 114.178C190.85 113.242 192.441 112.608 194.563 112.608"
    stroke="white" stroke-width="1.85655" stroke-linecap="round" />
  <path d="M198.176 111.46H200.311" stroke="white" stroke-width="1.85655" stroke-linecap="round" />
  <path
    d="M228.802 52.1836C228.802 59.9119 236.282 64.1928 239.713 70.2313C240.789 72.125 241.573 74.915 241.648 77.0825C241.71 78.8851 242.595 80.7817 242.79 82.4429C242.861 83.0485 243.53 83.85 243.789 84.4253C243.962 84.8089 244.621 85.583 244.503 85.583"
    stroke="white" stroke-width="1.85655" stroke-linecap="round" />
  <path
    d="M254.896 54.5979C254.896 48.4733 254.529 42.499 254.529 36.4056C254.529 32.0362 256.454 27.4014 261.512 27.4014"
    stroke="white" stroke-width="1.85655" stroke-linecap="round" />
  <path d="M266.288 28.137C267.126 28.137 269.214 27.7406 269.596 28.5045" stroke="white" stroke-width="1.85655"
    stroke-linecap="round" />
  <path d="M261.512 127.368C267.664 127.368 274.658 129.064 280.255 126.266" stroke="white" stroke-width="1.85655"
    stroke-linecap="round" />
  <path
    d="M284.139 110.066C284.139 111.879 284.139 113.692 284.139 115.505C284.139 117.005 283.716 119.255 284.384 120.59"
    stroke="white" stroke-width="1.85655" stroke-linecap="round" />
  <path
    d="M338.717 78.0039C338.717 85.2601 338.717 92.5163 338.717 99.7725C338.717 100.542 338.831 111.534 337.249 111.534"
    stroke="white" stroke-width="1.85655" stroke-linecap="round" />
  <path
    d="M339.563 120.971C339.563 117.871 341.033 115.034 341.295 111.977C341.436 110.33 341.593 108.711 341.593 107.058"
    stroke="white" stroke-width="1.85655" stroke-linecap="round" />
  <path
    d="M288.863 41.2373C288.863 42.4626 289.979 43.7411 290.598 44.7314C291.428 46.0596 292.538 47.2619 293.295 48.6242C294.869 51.4582 297.67 53.6178 299.369 56.3863C300.492 58.2172 302.803 62.3427 305.325 62.3427"
    stroke="white" stroke-width="1.85655" stroke-linecap="round" />
  <path
    d="M344.106 40.6895C344.106 39.3298 344.106 37.97 344.106 36.6102C344.106 35.461 343.713 33.505 344.582 32.5839C346.333 30.7306 347.351 30.4712 349.946 30.0675C352.586 29.6569 355.246 28.7695 357.933 28.7695"
    stroke="white" stroke-width="1.85655" stroke-linecap="round" />
  <path
    d="M391.067 27.3396C398.32 27.3396 405.506 26.5744 412.762 26.6244C417.273 26.6555 421.63 27.6049 425.966 28.77C427.187 29.0978 429.527 29.4013 430.165 30.6772"
    stroke="white" stroke-width="1.85655" stroke-linecap="round" />
  <path
    d="M415.625 18.518C418.54 18.518 421.496 18.3702 424.392 18.7564C427.344 19.15 429.584 20.6828 431.597 22.8225C433.019 24.3331 434.308 26.0245 434.816 28.054C434.923 28.4824 435.891 31.393 435.412 31.1532"
    stroke="white" stroke-width="1.85655" stroke-linecap="round" />
  <path
    d="M401.431 77.7344C401.431 85.2435 401.431 92.7527 401.431 100.262C401.431 104.008 401.778 107.577 402.352 111.273C402.442 111.851 402.84 113.916 402.769 113.844"
    stroke="white" stroke-width="1.85655" stroke-linecap="round" />
  <path d="M402.499 121.065C402.205 124 399.075 126.546 396.287 126.89C394.473 127.114 391.269 127.488 389.66 126.415"
    stroke="white" stroke-width="1.85655" stroke-linecap="round" />
  <path d="M441.982 37.7354V40.8375" stroke="white" stroke-width="1.85655" stroke-linecap="round" />
  <path
    d="M470.467 27.583C471.755 27.583 473.353 27.3041 474.54 27.865C477.039 29.045 479.296 30.2395 481.293 32.2363C482.253 33.1963 482.914 34.781 483.596 35.9339C485.315 38.8386 487.065 41.7114 488.563 44.7391C490.002 47.6478 491.524 50.5213 492.856 53.4816C492.896 53.5715 493.31 54.5177 493.31 54.0926"
    stroke="white" stroke-width="1.85655" stroke-linecap="round" />
  <path
    d="M487.876 51.8711C488.032 51.8906 488.205 52.6896 488.299 52.8471C489.325 54.5652 490.011 56.4589 490.79 58.2951C491.814 60.7102 492.824 63.1648 493.98 65.5204C494.04 65.6426 494.774 66.8969 494.301 66.4235"
    stroke="white" stroke-width="1.85655" stroke-linecap="round" />
  <path
    d="M445.026 122.972C445.026 119.42 444.936 116.296 447.892 113.635C448.276 113.29 450.853 113.159 451.321 113.035C452.977 112.596 454.809 112.163 456.531 112.163"
    stroke="white" stroke-width="1.85655" stroke-linecap="round" />
  <path d="M462.808 112.163H464.9" stroke="white" stroke-width="1.85655" stroke-linecap="round" />
  <path d="M515.454 36.8525V52.8909" stroke="white" stroke-width="1.85655" stroke-linecap="round" />
  <path d="M542.65 29.1816C542.726 29.7866 543.526 30.6657 544.045 30.9249" stroke="white" stroke-width="1.85655"
    stroke-linecap="round" />
  <path
    d="M546.919 36.0083C546.797 38.1455 546.616 40.2886 546.551 42.4286C546.43 46.4392 547.71 50.6005 547.95 54.596C548.23 59.266 548.962 63.9099 549.243 68.6006C549.412 71.4209 549.598 73.4284 550.932 75.7014"
    stroke="white" stroke-width="1.85655" stroke-linecap="round" />
  <path
    d="M519.638 126.457C521.778 126.457 523.755 127.456 525.836 127.503C528.068 127.554 530.306 127.503 532.538 127.503C535.444 127.503 538.349 127.503 541.255 127.503"
    stroke="white" stroke-width="1.85655" stroke-linecap="round" />
  <path d="M547.531 127.853H552.413" stroke="white" stroke-width="1.85655" stroke-linecap="round" />
  <path
    d="M556.279 98.4082C560.759 98.4082 565.203 98.7781 569.687 98.7781C573.941 98.7781 578.308 98.309 582.54 98.737C586.042 99.0912 589.012 101.481 589.012 105.251"
    stroke="white" stroke-width="1.85655" stroke-linecap="round" />
  <path
    d="M578.285 91.9336C580.298 91.9336 581.81 92.1489 583.607 93.187C583.989 93.4075 584.531 93.6532 584.758 94.05C584.888 94.2772 584.919 94.6031 585.128 94.7076"
    stroke="white" stroke-width="1.85655" stroke-linecap="round" />
  <path
    d="M618.439 27.1087C614.101 27.1087 609.685 26.8337 605.372 27.3071C603.237 27.5415 600.097 27.6897 598.158 28.7669C596.573 29.6475 593.184 31.5797 593.184 33.7415"
    stroke="white" stroke-width="1.85655" stroke-linecap="round" />
  <path
    d="M591.653 30.17C591.653 28.7732 590.996 25.8315 592.276 24.9545C594.29 23.5746 596.399 22.3121 598.541 21.2412"
    stroke="white" stroke-width="1.85655" stroke-linecap="round" />
  <path
    d="M625.128 62.2168C625.128 64.7433 624.423 67.014 626.563 68.6039C627.829 69.5445 629.13 69.8638 630.665 69.8638"
    stroke="white" stroke-width="1.85655" stroke-linecap="round" />
  <path
    d="M673.382 70.3906C673.382 73.2389 673.818 76.451 673.338 79.2535C672.907 81.7678 670.731 84.1371 669.192 86.0215C667.048 88.6461 664.735 91.0638 662.043 93.1264C657.963 96.2535 653.156 98.1528 648.068 99.0008C646.616 99.2428 642.973 100.372 642.267 98.6053"
    stroke="white" stroke-width="1.85655" stroke-linecap="round" />
  <path
    d="M677.253 81.6455C677.253 85.1167 676.23 88.1239 674.585 91.1784C674.273 91.758 670.735 98.3193 669.887 97.7538"
    stroke="white" stroke-width="1.85655" stroke-linecap="round" />
  <path d="M711.49 44.1152C711.49 47.9364 710.588 52.9444 712.167 56.4977C713.177 58.7698 714.116 62.068 717.248 62.068"
    stroke="white" stroke-width="1.85655" stroke-linecap="round" />
  <path
    d="M750.78 27.179C754.855 27.179 758.662 26.5285 762.109 28.7221C763.041 29.3152 763.627 30.1146 764.33 30.9051C764.975 31.631 766.023 34.2475 766.023 33.2762"
    stroke="white" stroke-width="1.85655" stroke-linecap="round" />
  <path d="M765.682 38.6963C765.682 40.0668 766.48 47.9512 765.344 48.5195" stroke="white" stroke-width="1.85655"
    stroke-linecap="round" />
  <path
    d="M690.951 126.727C695.737 126.727 700.415 127.3 705.222 127.3C708.03 127.3 709.999 126.552 711.465 124.051C712.176 122.839 712.452 122.409 712.452 120.994C712.452 119.489 712.508 117.974 712.452 116.47C712.413 115.399 712.176 114.016 711.943 112.966C711.788 112.27 712.246 110.426 711.592 110.1"
    stroke="white" stroke-width="1.85655" stroke-linecap="round" />
  <path
    d="M714.169 97.7726C713.083 97.6368 714.043 93.8597 714.806 93.2494C715.193 92.9397 716.874 92.0639 717.323 92.039C717.807 92.012 719.261 92.2914 718.756 92.039"
    stroke="white" stroke-width="1.85655" stroke-linecap="round" />
  <path
    d="M766.782 86.2324C766.782 90.7805 766.34 95.5586 766.836 100.079C767.12 102.669 767.459 105.259 767.699 107.852C767.839 109.358 767.762 111.036 768.239 112.468"
    stroke="white" stroke-width="1.85655" stroke-linecap="round" />
  <path
    d="M799.819 35.4629C799.819 39.2706 797.236 43.6627 795.622 47.0151C792.827 52.8207 789.96 58.6124 787.538 64.5864C786.846 66.2954 786.273 68.1711 785.244 69.7147"
    stroke="white" stroke-width="1.85655" stroke-linecap="round" />
  <path
    d="M800.79 32.3032C800.79 31.0286 800.591 30.7352 801.573 30.1169C802.387 29.6044 805.153 28.9023 804.191 28.9023"
    stroke="white" stroke-width="1.85655" stroke-linecap="round" />
  <path
    d="M773.827 127.043C776.395 127.043 778.972 127.507 781.452 128.15C783.738 128.742 785.936 128.744 788.281 128.744C790.733 128.744 792.674 127.672 794.718 126.423C795.726 125.806 796.689 124.449 797.377 123.521C798.53 121.964 799.951 120.668 801.142 119.148C802.647 117.229 803.924 116.058 806.379 115.68C808.854 115.299 809.079 116.593 810.805 117.866C813.197 119.631 815.357 121.666 817.553 123.642C818.06 124.099 819.01 124.564 819.685 124.614C819.84 124.626 820.302 124.904 820.414 124.803C820.917 124.35 821.382 123.65 821.925 123.157"
    stroke="white" stroke-width="1.85655" stroke-linecap="round" />
  <path
    d="M855.92 81.3281C858.541 82.7079 860.477 84.6349 862.382 86.8841C866.342 91.5582 869.811 96.5456 872.193 102.222C874.09 106.74 874.677 111.625 874.927 116.477C874.982 117.541 875.975 122.831 874.606 123.174"
    stroke="white" stroke-width="1.85655" stroke-linecap="round" />
  <path
    d="M877.237 97.3809C877.237 101.036 878.404 104.526 878.539 108.171C878.61 110.1 878.553 115.891 878.553 113.961"
    stroke="white" stroke-width="1.85655" stroke-linecap="round" />
  <defs>
    <filter id="filter0_d_4000_8066" x="16.4683" y="166.521" width="538.92" height="118.431"
      filterUnits="userSpaceOnUse" color-interpolation-filters="sRGB">
      <feFlood flood-opacity="0" result="BackgroundImageFix" />
      <feColorMatrix in="SourceAlpha" type="matrix" values="0 0 0 0 0 0 0 0 0 0 0 0 0 0 0 0 0 0 127 0"
        result="hardAlpha" />
      <feOffset dx="12.4726" dy="18.7089" />
      <feGaussianBlur stdDeviation="3.11816" />
      <feComposite in2="hardAlpha" operator="out" />
      <feColorMatrix type="matrix" values="0 0 0 0 0.219583 0 0 0 0 0.466435 0 0 0 0 0.775 0 0 0 0.63 0" />
      <feBlend mode="normal" in2="BackgroundImageFix" result="effect1_dropShadow_4000_8066" />
      <feBlend mode="normal" in="SourceGraphic" in2="effect1_dropShadow_4000_8066" result="shape" />
    </filter>
    <filter id="filter1_d_4000_8066" x="564.647" y="165.825" width="470.589" height="124.508"
      filterUnits="userSpaceOnUse" color-interpolation-filters="sRGB">
      <feFlood flood-opacity="0" result="BackgroundImageFix" />
      <feColorMatrix in="SourceAlpha" type="matrix" values="0 0 0 0 0 0 0 0 0 0 0 0 0 0 0 0 0 0 127 0"
        result="hardAlpha" />
      <feOffset dx="21.9899" dy="19.9908" />
      <feGaussianBlur stdDeviation="4.99769" />
      <feComposite in2="hardAlpha" operator="out" />
      <feColorMatrix type="matrix" values="0 0 0 0 0.219583 0 0 0 0 0.466435 0 0 0 0 0.775 0 0 0 0.63 0" />
      <feBlend mode="normal" in2="BackgroundImageFix" result="effect1_dropShadow_4000_8066" />
      <feBlend mode="normal" in="SourceGraphic" in2="effect1_dropShadow_4000_8066" result="shape" />
    </filter>
    <filter id="filter2_d_4000_8066" x="157.952" y="31.332" width="738.139" height="122.403"
      filterUnits="userSpaceOnUse" color-interpolation-filters="sRGB">
      <feFlood flood-opacity="0" result="BackgroundImageFix" />
      <feColorMatrix in="SourceAlpha" type="matrix" values="0 0 0 0 0 0 0 0 0 0 0 0 0 0 0 0 0 0 127 0"
        result="hardAlpha" />
      <feOffset dx="21.9899" dy="19.9908" />
      <feGaussianBlur stdDeviation="4.99769" />
      <feComposite in2="hardAlpha" operator="out" />
      <feColorMatrix type="matrix" values="0 0 0 0 0.219583 0 0 0 0 0.466435 0 0 0 0 0.775 0 0 0 0.63 0" />
      <feBlend mode="normal" in2="BackgroundImageFix" result="effect1_dropShadow_4000_8066" />
      <feBlend mode="normal" in="SourceGraphic" in2="effect1_dropShadow_4000_8066" result="shape" />
    </filter>
    <linearGradient id="paint0_linear_4000_8066" x1="274.147" y1="137.313" x2="273.91" y2="290.313"
      gradientUnits="userSpaceOnUse">
      <stop stop-color="white" />
      <stop offset="1" stop-color="#ADC4FF" stop-opacity="0.77" />
    </linearGradient>
    <linearGradient id="paint1_linear_4000_8066" x1="782.482" y1="136.64" x2="782.769" y2="290.64"
      gradientUnits="userSpaceOnUse">
      <stop stop-color="white" />
      <stop offset="1" stop-color="#ADC4FF" stop-opacity="0.77" />
    </linearGradient>
    <linearGradient id="paint2_linear_4000_8066" x1="511.222" y1="1.09092" x2="511.509" y2="155.091"
      gradientUnits="userSpaceOnUse">
      <stop stop-color="white" />
      <stop offset="1" stop-color="#ADC4FF" stop-opacity="0.77" />
    </linearGradient>
  </defs>
</svg>