<svg width="133" height="24" viewBox="0 0 133 24" fill="none" xmlns="http://www.w3.org/2000/svg">
<g clip-path="url(#clip0_2074_1874)">
<g clip-path="url(#clip1_2074_1874)">
<path fill-rule="evenodd" clip-rule="evenodd" d="M31.918 10.7405H30.8276L35.0814 1.88538H35.7104L39.9642 10.7405H38.8718L35.398 3.50124L31.918 10.7405ZM47.6037 9.40814V1.88538H48.5906V10.7405H47.4734L41.1961 3.80951V7.07434L40.2092 8.06951V1.88538H40.7906L47.6037 9.40814ZM49.7361 2.88262V1.88538H58.1258V2.88262H54.4244V9.74331L53.4375 10.7405V2.88262H49.7361ZM57.6946 10.7405H56.6022L60.858 1.88538H61.4849L65.7387 10.7405H64.6463L61.1725 3.50124L57.6946 10.7405ZM66.8299 1.88538L67.8168 2.88262V9.74331H72.0106L72.9954 10.7385V10.7405H66.8299V1.88538ZM73.9337 10.7405V1.88538H77.3392C78.8185 1.88538 80.0247 3.09365 80.0351 4.59158C80.0163 6.08124 78.8165 7.28331 77.3392 7.28331H76.6751L75.6942 6.29227H77.3392C78.2744 6.29227 79.0316 5.52882 79.0316 4.58331C79.0316 3.63779 78.2744 2.87227 77.3392 2.87227H74.9206V10.7405H73.9337ZM81.1548 1.88538H81.1569L82.1417 2.88262V5.80193H87.2252V1.88538L88.2141 2.88262V10.7219L87.2252 9.72469V6.80124H82.1417V10.7592L81.1548 9.76193V1.88538ZM89.1876 10.7405L93.4414 1.88538H94.0703L98.3241 10.7405H97.2338L93.7558 3.50124L90.2779 10.7405H89.1876Z" fill="#01011A"/>
</g>
<path fill-rule="evenodd" clip-rule="evenodd" d="M31.8145 14.8593L30.8276 13.8621V22.7172H36.9952V22.7152L36.0083 21.72H31.8145V14.8593Z" fill="#01011A"/>
<path fill-rule="evenodd" clip-rule="evenodd" d="M37.8804 22.7172H38.9624L42.4114 15.48L45.8583 22.7172H46.9383L42.7197 13.8621H42.0969L37.8804 22.7172Z" fill="#01011A"/>
<path fill-rule="evenodd" clip-rule="evenodd" d="M57.7465 18.548C58.1499 18.6287 58.5368 18.7508 58.9072 18.9246C59.1596 19.0363 59.3706 19.2142 59.5299 19.4501C59.6747 19.7252 59.7327 20.0273 59.7078 20.3252C59.6437 21.1197 58.9692 21.6928 58.183 21.759C58.1313 21.7652 58.0754 21.7673 58.0237 21.7673C57.9865 21.7673 57.943 21.7673 57.912 21.7611C57.8809 21.7673 57.8561 21.7673 57.8272 21.7673C57.3947 21.7673 56.9706 21.6411 56.6023 21.4135C56.2754 21.1901 56.0272 20.8673 55.8906 20.4949L55.8637 20.4225L55.032 20.8301L55.0547 20.888C55.2327 21.4177 55.5906 21.8728 56.052 22.1728C56.5796 22.4915 57.1837 22.659 57.7941 22.659C57.8313 22.659 57.8706 22.659 57.9099 22.657H57.9616C58.4561 22.657 58.9506 22.5452 59.3975 22.3342C59.8051 22.1439 60.1485 21.8439 60.3927 21.4611C60.6327 21.0804 60.7547 20.6397 60.7506 20.1825C60.7816 19.5783 60.5623 18.9783 60.1506 18.5418C59.7513 18.1466 59.083 17.8466 58.1644 17.648C57.7982 17.5777 57.4423 17.4639 57.0968 17.3128C56.8713 17.2156 56.6809 17.0583 56.5299 16.8494C56.4306 16.6632 56.3768 16.4583 56.3644 16.2556C56.3209 15.4839 56.9582 14.8694 57.7196 14.8073C57.7692 14.8052 57.8189 14.8032 57.8706 14.8032C57.9161 14.8032 57.9575 14.8052 57.9989 14.8073C58.8616 14.8073 59.4389 15.159 59.7161 15.8542L59.7451 15.9246L60.5727 15.5335L60.5499 15.4715C60.3885 15.0039 60.0699 14.6025 59.6541 14.3459C59.1782 14.0625 58.6361 13.9156 58.0837 13.9156C58.0527 13.9156 58.0175 13.9177 57.9803 13.9177H57.9078C57.4423 13.9177 56.9892 14.0149 56.5651 14.2052C56.1885 14.377 55.8658 14.6542 55.6444 15.008C55.4272 15.368 55.3175 15.7859 55.3258 16.2142C55.3009 16.7708 55.512 17.3149 55.8989 17.708C56.2878 18.0825 56.9272 18.3721 57.7465 18.548Z" fill="#01011A"/>
<path fill-rule="evenodd" clip-rule="evenodd" d="M53.6969 16.1503C53.7176 14.6503 52.4017 13.8621 50.8582 13.8621H48.1313V22.7172H51.7169C53.2851 22.7172 54.1665 21.6083 54.2182 20.2634C54.2617 19.1421 53.5272 18.3828 52.6665 18.06C53.3307 17.6172 53.6886 16.9717 53.6969 16.1503ZM49.0928 14.7608V21.818H51.6397C52.7135 21.818 53.2307 21.0132 53.2328 20.1587C53.2328 19.0622 52.2521 18.5325 51.2859 18.5305C51.2425 18.5325 50.3073 18.5077 50.3073 18.5077L49.4487 17.6056C49.4487 17.6056 51.2425 17.6077 51.2838 17.6098C52.2107 17.5642 52.7218 16.9663 52.7342 16.1511C52.7528 15.1022 51.8466 14.7608 50.7831 14.7608H49.0928Z" fill="#01011A"/>
<g clip-path="url(#clip2_2074_1874)">
<path fill-rule="evenodd" clip-rule="evenodd" d="M20.5188 24H3.4815C1.5588 24 0 22.4415 0 20.5188V3.4815C0 1.5588 1.5588 0 3.4815 0H20.5188C22.4415 0 24 1.5588 24 3.4815V20.5188C24 22.4415 22.4415 24 20.5188 24Z" fill="#2222FF"/>
<path fill-rule="evenodd" clip-rule="evenodd" d="M2.31738 12.4058L10.7573 16.5008V15.0806L4.40898 11.9999L10.7573 8.91977V7.49957L2.31738 11.5946V12.4058Z" fill="white"/>
<path fill-rule="evenodd" clip-rule="evenodd" d="M13.2432 7.49939V8.91959L19.5912 12L13.2432 15.0807V16.5009L21.6828 12.4056V11.5944L13.2432 7.49939Z" fill="white"/>
</g>
</g>
<defs>
<clipPath id="clip0_2074_1874">
<rect width="132.621" height="24" fill="white"/>
</clipPath>
<clipPath id="clip1_2074_1874">
<rect width="101.589" height="8.89655" fill="white" transform="translate(30.8276 1.86206)"/>
</clipPath>
<clipPath id="clip2_2074_1874">
<rect width="24" height="24" fill="white"/>
</clipPath>
</defs>
</svg>
