<svg width="237" height="21" viewBox="0 0 237 21" fill="none" xmlns="http://www.w3.org/2000/svg">
<path fill-rule="evenodd" clip-rule="evenodd" d="M166.951 0L169.25 2.29776V18.1056H179.02L181.319 20.3986V20.4033H166.951V0ZM185.902 20.4033H183.381L193.204 0H194.655L204.483 20.4033H201.967L193.937 3.7279L185.902 20.4033ZM220.228 5.27245C220.276 1.81628 217.211 0 213.615 0H207.262V20.4033H215.615C219.269 20.4033 221.322 17.8482 221.443 14.7495C221.544 12.1657 219.833 10.4162 217.828 9.67252C219.375 8.65235 220.209 7.16501 220.228 5.27245ZM0 20.457H2.54012L10.6473 3.77678L18.74 20.457H21.285L11.3751 0.0536475H9.90985L0 20.457ZM39.0824 0.0536475V17.3869L23.2102 0.0536475H21.8558V14.3026L24.1549 12.0096V4.48709L38.7787 20.457H41.3815V0.0536475H39.0824ZM44.05 0.0536475V2.35141H52.6731V20.457L54.9722 18.1592V2.35141H63.5951V0.0536475H44.05ZM60.0457 20.457H62.5906L70.693 3.77678L78.7857 20.457H81.3306L71.4208 0.0536475H69.9603L60.0457 20.457ZM86.1718 2.35141L83.8727 0.0536475V20.457H98.2362V20.4522L95.9419 18.1592H86.1718V2.35141ZM100.422 0.0536475V20.457H102.721V2.32757H108.356C110.534 2.32757 112.298 4.09141 112.298 6.26998C112.298 8.44856 110.534 10.2076 108.356 10.2076H104.523L106.808 12.4911H108.356C111.797 12.4911 114.592 9.72138 114.636 6.28905C114.612 2.83766 111.802 0.0536475 108.356 0.0536475H100.422ZM117.249 0.0536475H117.245V18.2021L119.544 20.4999V11.3803H131.386V18.1163L133.69 20.4141V2.35141L131.386 0.0536475V9.07782H119.544V2.35141L117.249 0.0536475ZM145.868 0.0536475L135.958 20.457H138.498L146.601 3.77678L154.703 20.457H157.243L147.333 0.0536475H145.868ZM232.366 11.6646C231.503 11.2642 230.602 10.9829 229.662 10.797C227.753 10.3918 226.264 9.72439 225.358 8.86154C224.457 7.95578 223.965 6.70202 224.023 5.41966C224.004 4.43288 224.259 3.46992 224.765 2.64044C225.281 1.82526 226.033 1.18646 226.91 0.790787C227.898 0.352212 228.954 0.128156 230.038 0.128156H230.207C230.294 0.128156 230.376 0.123389 230.448 0.123389C231.735 0.123389 232.998 0.461856 234.106 1.11495C235.075 1.70608 235.817 2.6309 236.193 3.70827L236.246 3.85129L234.318 4.75228L234.251 4.5902C233.605 2.98844 232.26 2.17802 230.25 2.17802C230.154 2.17326 230.057 2.16849 229.951 2.16849C229.831 2.16849 229.715 2.17326 229.6 2.17802C227.826 2.32104 226.341 3.73688 226.442 5.51501C226.471 5.98219 226.597 6.45413 226.828 6.88317C227.18 7.36465 227.623 7.72696 228.149 7.95101C228.954 8.29901 229.783 8.56121 230.636 8.72329C232.776 9.18093 234.333 9.87217 235.263 10.7827C236.222 11.7886 236.733 13.171 236.661 14.563C236.67 15.6166 236.386 16.632 235.827 17.5091C235.258 18.391 234.458 19.0823 233.508 19.5209C232.467 20.0071 231.315 20.2645 230.163 20.2645H230.043C229.951 20.2693 229.86 20.2693 229.773 20.2693C228.351 20.2693 226.944 19.8832 225.715 19.149C224.64 18.4578 223.806 17.409 223.391 16.1886L223.338 16.0551L225.276 15.116L225.339 15.2829C225.657 16.141 226.235 16.8846 226.997 17.3995C227.855 17.9239 228.843 18.2147 229.85 18.2147C229.918 18.2147 229.975 18.2147 230.048 18.2004C230.12 18.2147 230.221 18.2147 230.308 18.2147C230.429 18.2147 230.559 18.2099 230.679 18.1956C232.511 18.043 234.082 16.7225 234.231 14.892C234.289 14.2055 234.154 13.5095 233.817 12.8755C233.446 12.332 232.954 11.922 232.366 11.6646ZM209.502 2.07079V18.3315H215.436C217.937 18.3315 219.142 16.4771 219.147 14.5083C219.147 11.9817 216.862 10.7613 214.611 10.7565C214.51 10.7613 212.331 10.7041 212.331 10.7041L210.331 8.62561C210.331 8.62561 214.51 8.63038 214.607 8.63514C216.766 8.53027 217.956 7.15257 217.985 5.27431C218.029 2.85737 215.918 2.07079 213.44 2.07079H209.502Z" fill="#F5F5F6"/>
</svg>
