<svg width="207" height="78" viewBox="0 0 207 78" fill="none" xmlns="http://www.w3.org/2000/svg">
<path d="M33.37 77.05L0 57.79V19.26L33.37 0L66.74 19.26V57.79L33.37 77.05ZM3 56.05L33.37 73.58L63.74 56.05V20.99L33.37 3.46L3 20.99V56.05Z" fill="#5EEF00"/>
<path d="M34.12 76.61H32.62L0.749947 58.21L0.199951 56.16L32.07 0.969971H34.6699L66.54 56.16L65.99 58.21L34.12 76.61ZM3.54995 56.36L33.37 73.57L63.1899 56.36L33.37 4.71997L3.54995 56.36Z" fill="#5EEF00"/>
<path d="M44.05 58.42H22.81L21.51 57.67L10.89 39.27V37.77L21.51 19.37L22.81 18.62H44.05L45.35 19.37L55.97 37.77V39.27L45.35 57.67L44.05 58.42ZM23.67 55.42H43.18L52.94 38.52L43.18 21.62H23.67L13.91 38.52L23.67 55.42Z" fill="#5EEF00"/>
<path d="M41.9 49.81H24.63L23.3 47.53L33.57 38.78L23.23 29.44L24.63 27.23H41.76L43.91 30.92L41.32 32.44L40.07 30.23H28.54L36.86 37.7L36.82 39.96L28.73 46.81H40.09L41.51 44.55L44.12 46.04L41.9 49.81Z" fill="#5EEF00"/>
<path d="M32.07 76.06L0.199951 20.87L0.749947 18.82L32.62 0.419983H34.12L65.99 18.82L66.54 20.87L34.6699 76.06H32.07ZM3.54995 20.67L33.37 72.31L63.1899 20.67L33.37 3.45998L3.54995 20.67Z" fill="#5EEF00"/>
</svg>
