<svg width="116" height="27" viewBox="0 0 116 27" fill="none" xmlns="http://www.w3.org/2000/svg">
<path d="M20.7 5.16002V9.37003H9.89C7.99 9.37003 6.61 9.89002 5.75 10.93C4.88 11.97 4.45001 13.68 4.45001 16.04C4.45001 18.4 4.88 20.11 5.75 21.14C6.62 22.18 8 22.69 9.89 22.69H20.7V26.95H9.46001C6.54001 26.95 4.24001 26.06 2.54001 24.27C0.840008 22.48 0 19.74 0 16.04C0 12.34 0.850008 9.62002 2.54001 7.83002C4.23001 6.04002 6.54001 5.15002 9.46001 5.15002H20.7V5.16002Z" fill="#F5F5F6"/>
<path d="M38.93 5.16003C41.82 5.16003 44.12 6.06003 45.83 7.86003C47.54 9.66003 48.39 12.39 48.39 16.05C48.39 19.71 47.54 22.49 45.83 24.28C44.12 26.07 41.82 26.96 38.93 26.96H34.33C31.41 26.96 29.11 26.07 27.41 24.28C25.72 22.49 24.87 19.75 24.87 16.05C24.87 12.35 25.72 9.63004 27.41 7.84004C29.1 6.05004 31.41 5.16003 34.33 5.16003H38.93ZM34.76 9.37004C32.86 9.37004 31.48 9.89004 30.61 10.93C29.74 11.97 29.31 13.68 29.31 16.04C29.31 18.4 29.74 20.11 30.61 21.14C31.48 22.18 32.86 22.69 34.76 22.69H38.51C40.42 22.69 41.81 22.17 42.67 21.14C43.54 20.1 43.97 18.4 43.97 16.04C43.97 13.68 43.54 11.97 42.67 10.93C41.8 9.89004 40.41 9.37004 38.51 9.37004H34.76Z" fill="#F5F5F6"/>
<path d="M71.81 5.16003V9.37004H59.75C58.73 9.37004 58 9.58004 57.55 9.99004C57.1 10.4 56.88 11.02 56.88 11.84C56.88 12.66 57.09 13.21 57.53 13.61C57.97 14.01 58.78 14.2 59.99 14.2H65.11C66.63 14.2 67.88 14.37 68.85 14.69C69.82 15.02 70.6 15.46 71.16 16.01C71.72 16.56 72.12 17.21 72.34 17.96C72.56 18.71 72.67 19.5 72.67 20.35C72.67 21.32 72.54 22.21 72.28 23.02C72.02 23.83 71.6 24.53 71.02 25.11C70.44 25.69 69.6999 26.14 68.7899 26.47C67.8799 26.8 66.7899 26.96 65.5099 26.96H52.84V22.7H65.5099C66.5299 22.7 67.27 22.51 67.71 22.15C68.15 21.78 68.38 21.16 68.38 20.3C68.38 19.44 68.14 18.8 67.65 18.42C67.17 18.04 66.37 17.86 65.27 17.86H60.11C58.6 17.86 57.37 17.69 56.4 17.35C55.43 17.01 54.67 16.54 54.1 15.95C53.53 15.36 53.14 14.68 52.92 13.9C52.7 13.13 52.59 12.33 52.59 11.51C52.59 9.56004 53.14 8.01004 54.24 6.87004C55.34 5.73004 57.17 5.16003 59.71 5.16003H71.81Z" fill="#F5F5F6"/>
<path d="M92.04 5.16003C94.63 5.16003 96.51 5.74003 97.67 6.91003C98.83 8.08003 99.41 9.72003 99.41 11.83C99.41 13.94 98.84 15.4 97.72 16.49C96.59 17.58 94.69 18.12 92.01 18.12H81.64V19.69C81.64 20.56 81.89 21.28 82.41 21.85C82.92 22.41 83.78 22.7 84.99 22.7H98.32V26.96H84.99C83.62 26.96 82.46 26.78 81.5 26.42C80.55 26.06 79.76 25.56 79.14 24.91C78.52 24.26 78.07 23.5 77.8 22.63C77.52 21.76 77.39 20.81 77.39 19.77V12.33C77.39 11.31 77.53 10.36 77.8 9.48004C78.08 8.60004 78.52 7.84003 79.14 7.19003C79.76 6.54003 80.55 6.04003 81.5 5.69003C82.46 5.33003 83.62 5.16003 84.99 5.16003H92.05H92.04ZM81.63 14.7H91.88C93.06 14.7 93.9 14.46 94.38 13.99C94.86 13.52 95.11 12.89 95.11 12.09C95.11 11.29 94.86 10.6 94.36 10.1C93.86 9.61004 93.08 9.36003 92 9.36003H84.98C83.77 9.36003 82.91 9.65004 82.4 10.23C81.89 10.81 81.63 11.52 81.63 12.37V14.69V14.7Z" fill="#F5F5F6"/>
<path d="M105.55 5.16V0H109.97V5.16H116V9.37001H109.97V19.7C109.97 20.94 110.19 21.79 110.65 22.25C111.1 22.71 111.85 22.95 112.9 22.95H115.93V26.96H112C110.87 26.96 109.9 26.84 109.08 26.59C108.27 26.34 107.6 25.93 107.07 25.35C106.54 24.77 106.16 24 105.92 23.04C105.68 22.08 105.56 20.88 105.56 19.44V9.37001H102.58V5.16H105.56H105.55Z" fill="#F5F5F6"/>
</svg>
