<svg width="25" height="26" viewBox="0 0 25 26" fill="none" xmlns="http://www.w3.org/2000/svg">
<path fill-rule="evenodd" clip-rule="evenodd" d="M21.9284 22.4233L7.68993 23.2907C7.46482 23.3039 7.23992 23.2615 7.03508 23.1672C6.83024 23.0729 6.65177 22.9296 6.51541 22.75L3.12905 18.2864C3.04537 18.1759 3.00006 18.0411 3 17.9025V4.48609C2.99994 4.17473 3.11788 3.87491 3.33006 3.64704C3.54225 3.41917 3.83291 3.28018 4.14349 3.25807L16.6487 2.38943C17.1899 2.35195 17.7274 2.50209 18.1708 2.81456L22.8146 6.08902C22.8719 6.12944 22.9186 6.18304 22.9509 6.24529C22.9832 6.30755 23 6.37665 23 6.44677V21.2839C22.9995 21.5744 22.8885 21.8539 22.6895 22.0655C22.4904 22.2771 22.2183 22.4051 21.9284 22.4233ZM20.049 5.79456L7.5115 6.50271C7.19266 6.52078 6.8783 6.42108 6.62815 6.22255L4.81695 4.78829C4.78589 4.76365 4.76297 4.73023 4.75118 4.69237C4.7394 4.65451 4.7393 4.61398 4.7509 4.57606C4.76249 4.53814 4.78524 4.5046 4.81619 4.47981C4.84713 4.45502 4.88483 4.44013 4.92436 4.43708L16.4965 3.53862C16.9942 3.50049 17.4892 3.64125 17.8923 3.93558L20.1189 5.55688C20.1408 5.57283 20.1573 5.59518 20.166 5.62086C20.1748 5.64654 20.1754 5.67431 20.1677 5.70034C20.1601 5.72638 20.1446 5.74941 20.1233 5.76627C20.1021 5.78314 20.0761 5.79302 20.049 5.79456ZM7.0995 8.62107V20.8727C7.09959 20.9805 7.12158 21.0872 7.16413 21.1862C7.20669 21.2852 7.26893 21.3746 7.34707 21.4488C7.42521 21.5231 7.51763 21.5807 7.6187 21.6181C7.71978 21.6555 7.82741 21.672 7.93507 21.6666L20.9255 21.0173C21.1262 21.0072 21.3154 20.9204 21.4539 20.7747C21.5924 20.6291 21.6696 20.4358 21.6696 20.2348V7.74957C21.6696 7.66686 21.6527 7.58503 21.6201 7.50906C21.5874 7.43308 21.5396 7.36457 21.4795 7.3077C21.4195 7.25083 21.3485 7.20679 21.2708 7.17828C21.1932 7.14977 21.1106 7.13739 21.028 7.14188L7.82113 7.85942C7.62624 7.86998 7.44282 7.95482 7.30859 8.09649C7.17436 8.23817 7.09953 8.4259 7.0995 8.62107Z" fill="#F5F5F6"/>
<path d="M19.5761 9.25194L19.5622 9.59172C19.5582 9.68176 19.5231 9.76763 19.4628 9.83466C19.4026 9.9017 19.3209 9.94574 19.2318 9.95927L18.6004 10.0544V18.874C18.6 18.9182 18.5864 18.9613 18.5613 18.9977C18.5362 19.0341 18.5007 19.0621 18.4595 19.0782L17.7571 19.3546C17.4372 19.4803 17.0837 19.4917 16.7563 19.3869C16.429 19.2822 16.1478 19.0677 15.9602 18.7796L11.8445 12.4496V18.4121L11.8686 18.4064L13.0815 18.7274C13.0926 18.7307 13.1028 18.7363 13.1116 18.7439C13.1203 18.7515 13.1274 18.7608 13.1323 18.7713C13.1371 18.7818 13.1397 18.7932 13.1398 18.8048C13.1399 18.8164 13.1376 18.8278 13.1329 18.8384C13.0525 19.0085 12.928 19.154 12.7724 19.2597C12.6168 19.3654 12.4357 19.4275 12.248 19.4396L11.8445 19.4653L10.3024 19.5642L9.28919 19.6291C9.27485 19.63 9.2605 19.6274 9.24736 19.6216C9.23422 19.6158 9.22266 19.6069 9.21366 19.5957C9.20466 19.5845 9.19847 19.5713 9.19563 19.5572C9.19278 19.5431 9.19336 19.5286 9.1973 19.5147L9.2851 19.2109C9.30154 19.1535 9.33287 19.1015 9.3759 19.0601C9.41893 19.0187 9.47214 18.9894 9.53014 18.9753L10.302 18.7874V10.7328L9.21895 10.6654L9.34146 10.2219C9.37572 10.0973 9.44831 9.98661 9.54894 9.90554C9.64957 9.82448 9.77315 9.77713 9.90218 9.77018L10.3024 9.74895L11.8445 9.66727L12.8356 9.61581C12.8867 9.61311 12.9376 9.62379 12.9833 9.64678C13.029 9.66977 13.0679 9.70428 13.0962 9.74691L13.8974 10.9566L17.1437 15.8572V10.2313L16.153 10.1786C16.135 10.1777 16.1181 10.1703 16.1053 10.1577C16.0925 10.1451 16.0847 10.1283 16.0835 10.1104C16.0759 10.008 16.0917 9.90519 16.1297 9.8098C16.2522 9.51045 16.5981 9.31646 17.0085 9.31116L17.1437 9.3034L18.6013 9.22499L19.4997 9.17598C19.5098 9.17552 19.5199 9.17716 19.5294 9.18081C19.5388 9.18446 19.5474 9.19003 19.5546 9.19718C19.5618 9.20432 19.5674 9.21287 19.5711 9.2223C19.5748 9.23173 19.5765 9.24182 19.5761 9.25194Z" fill="#F5F5F6"/>
</svg>
