<svg width="24" height="25" viewBox="0 0 24 25" fill="none" xmlns="http://www.w3.org/2000/svg">
<path d="M21.8098 7.11103C21.8677 7.03026 21.7821 6.92597 21.6894 6.9619C21.0307 7.21723 20.3423 7.38949 19.64 7.47439C20.4219 7.00727 21.0253 6.29619 21.3599 5.45432C21.394 5.36856 21.3003 5.29198 21.2195 5.33659C20.4928 5.73793 19.7091 6.02692 18.8949 6.19336C18.8608 6.20033 18.8257 6.18873 18.8018 6.16348C18.1908 5.51881 17.3866 5.08957 16.5098 4.94124C15.6147 4.7898 14.6946 4.93975 13.8938 5.36758C13.0931 5.79541 12.457 6.47692 12.0853 7.30523C11.7319 8.09279 11.6365 8.9707 11.8108 9.81382C11.8243 9.87924 11.7731 9.941 11.7065 9.93686C10.1224 9.83848 8.57469 9.41715 7.15868 8.69825C5.74627 7.98118 4.49554 6.98362 3.48267 5.76709C3.43772 5.71309 3.35252 5.72008 3.31977 5.78223C3.0046 6.3803 2.83958 7.0469 2.84003 7.72439C2.83875 8.39877 3.00425 9.06301 3.32178 9.65795C3.63932 10.2529 4.09905 10.7601 4.66003 11.1344C4.0651 11.1182 3.48178 10.9711 2.95128 10.7045C2.88291 10.6701 2.8009 10.719 2.80446 10.7955C2.84583 11.6847 3.17228 12.5774 3.73734 13.2624C4.33866 13.9912 5.17328 14.49 6.10003 14.6744C5.74328 14.783 5.3729 14.8402 5.00003 14.8444C4.79709 14.842 4.59454 14.827 4.39356 14.7996C4.31904 14.7894 4.2582 14.8602 4.28428 14.9307C4.5607 15.6782 5.04903 16.3304 5.6911 16.8065C6.37755 17.3156 7.2056 17.5979 8.06003 17.6144C6.61723 18.7497 4.83591 19.3692 3.00003 19.3744C2.81138 19.375 2.62282 19.3689 2.43471 19.3561C2.3287 19.3488 2.27995 19.4901 2.37132 19.5443C4.16009 20.6058 6.20462 21.1669 8.29003 21.1644C9.82972 21.1804 11.3572 20.8894 12.7831 20.3085C14.2091 19.7275 15.5051 18.8683 16.5952 17.7809C17.6854 16.6935 18.548 15.3998 19.1326 13.9753C19.7172 12.5508 20.0121 11.0241 20 9.48439V9.00456C20 8.97299 20.015 8.9433 20.0402 8.92427C20.7184 8.41213 21.3149 7.80069 21.8098 7.11103Z" fill="white"/>
</svg>
