<svg width="28" height="25" viewBox="0 0 28 25" fill="none" xmlns="http://www.w3.org/2000/svg">
<g filter="url(#filter0_d_1214_52)">
<path d="M23.8098 2.72724C23.8677 2.64647 23.7821 2.54218 23.6894 2.57811C23.0307 2.83344 22.3423 3.00571 21.64 3.0906C22.4219 2.62348 23.0253 1.9124 23.3599 1.07053C23.394 0.984774 23.3003 0.908187 23.2195 0.952801C22.4928 1.35414 21.7091 1.64313 20.8949 1.80957C20.8608 1.81654 20.8257 1.80494 20.8018 1.77969C20.1908 1.13502 19.3866 0.705781 18.5098 0.557452C17.6147 0.406007 16.6946 0.555959 15.8938 0.98379C15.0931 1.41162 14.457 2.09313 14.0853 2.92144C13.7319 3.709 13.6365 4.58691 13.8108 5.43003C13.8243 5.49545 13.7731 5.55721 13.7065 5.55307C12.1224 5.45469 10.5747 5.03336 9.15868 4.31446C7.74627 3.59739 6.49554 2.59983 5.48267 1.3833C5.43772 1.32931 5.35252 1.33629 5.31977 1.39845C5.0046 1.99651 4.83958 2.66311 4.84003 3.3406C4.83875 4.01498 5.00425 4.67922 5.32178 5.27416C5.63932 5.86911 6.09905 6.37631 6.66003 6.7506C6.0651 6.73441 5.48178 6.58734 4.95128 6.32067C4.88291 6.28631 4.8009 6.33524 4.80446 6.41167C4.84583 7.30091 5.17228 8.19364 5.73734 8.87857C6.33866 9.60744 7.17328 10.1062 8.10003 10.2906C7.74328 10.3992 7.3729 10.4564 7.00003 10.4606C6.79709 10.4582 6.59454 10.4433 6.39356 10.4158C6.31904 10.4056 6.2582 10.4764 6.28428 10.5469C6.5607 11.2944 7.04903 11.9467 7.6911 12.4228C8.37755 12.9318 9.2056 13.2142 10.06 13.2306C8.61723 14.3659 6.83591 14.9855 5.00003 14.9906C4.81138 14.9912 4.62282 14.9851 4.43471 14.9723C4.3287 14.9651 4.27995 15.1063 4.37132 15.1605C6.16009 16.2221 8.20462 16.7831 10.29 16.7806C11.8297 16.7966 13.3572 16.5056 14.7831 15.9247C16.2091 15.3437 17.5051 14.4845 18.5952 13.3971C19.6854 12.3097 20.548 11.016 21.1326 9.59151C21.7172 8.16702 22.0121 6.64033 22 5.1006V4.62077C22 4.5892 22.015 4.55951 22.0402 4.54048C22.7184 4.02834 23.3149 3.41691 23.8098 2.72724Z" fill="white"/>
</g>
<defs>
<filter id="filter0_d_1214_52" x="0.323242" y="0.5" width="27.5054" height="24.2812" filterUnits="userSpaceOnUse" color-interpolation-filters="sRGB">
<feFlood flood-opacity="0" result="BackgroundImageFix"/>
<feColorMatrix in="SourceAlpha" type="matrix" values="0 0 0 0 0 0 0 0 0 0 0 0 0 0 0 0 0 0 127 0" result="hardAlpha"/>
<feOffset dy="4"/>
<feGaussianBlur stdDeviation="2"/>
<feComposite in2="hardAlpha" operator="out"/>
<feColorMatrix type="matrix" values="0 0 0 0 0 0 0 0 0 0 0 0 0 0 0 0 0 0 0.25 0"/>
<feBlend mode="normal" in2="BackgroundImageFix" result="effect1_dropShadow_1214_52"/>
<feBlend mode="normal" in="SourceGraphic" in2="effect1_dropShadow_1214_52" result="shape"/>
</filter>
</defs>
</svg>
