<svg width="22" height="15" viewBox="0 0 22 15" fill="none" xmlns="http://www.w3.org/2000/svg">
<path fill-rule="evenodd" clip-rule="evenodd" d="M5.98901 0.39055C9.32468 0.129582 12.6756 0.129582 16.0113 0.39055L18.252 0.565851C19.5001 0.663495 20.5211 1.59889 20.7274 2.83366C21.2436 5.92316 21.2436 9.0769 20.7274 12.1664C20.5211 13.4012 19.5001 14.3366 18.252 14.4342L16.0113 14.6095C12.6756 14.8705 9.32467 14.8705 5.989 14.6095L3.7483 14.4342C2.50023 14.3366 1.47921 13.4012 1.2729 12.1664C0.756691 9.0769 0.756691 5.92316 1.2729 2.83366C1.47921 1.59889 2.50023 0.663495 3.7483 0.565851L5.98901 0.39055ZM9.00012 9.97017V5.02989C9.00012 4.7967 9.25451 4.65267 9.45447 4.77264L13.5714 7.24278C13.7656 7.3593 13.7656 7.64076 13.5714 7.75728L9.45447 10.2274C9.25451 10.3474 9.00012 10.2034 9.00012 9.97017Z" fill="white"/>
</svg>
