<svg viewBox="0 0 189 60" fill="none" xmlns="http://www.w3.org/2000/svg" class="h-4 lg:h-6">
    <path fill-rule="evenodd" clip-rule="evenodd"
        d="M184.131 57.6928L175.42 39.0827H142.708L133.775 57.6928H118.63L146.453 0.0707094H161.6L188.599 57.6928H184.131ZM159.099 4.70456L144.806 34.7264H173.346L159.099 4.70456ZM112.308 57.6928H65.6033L83.325 0.0707094H88.9022L75.9657 43.2873H119.398L112.308 57.6928ZM0.030511 28.5268C0.207372 23.7215 1.58181 19.0365 4.02899 14.8972C6.71667 10.3434 10.4201 6.72198 15.1392 4.03305C19.8583 1.34412 25.0986 -0.000226065 30.8601 2.85136e-08H33.9869C39.6929 2.85136e-08 44.892 1.34435 49.584 4.03305C54.1811 6.62951 58.0136 10.3907 60.6959 14.9383C63.1525 19.0608 64.5403 23.7317 64.7334 28.5268H0.030511ZM58.8442 22.1811C56.3193 19.7942 52.9172 17.9013 48.6378 16.5022C44.3584 15.1032 39.6946 14.4041 34.6465 14.405H30.2021C25.1523 14.405 20.4744 15.1046 16.1685 16.5037C11.8597 17.9028 8.44401 19.7958 5.92137 22.1826C4.50885 23.5176 3.49313 24.9172 2.8742 26.3815L3.14551 25.7557H11.1696L12.8195 26.3815H39.9049L42.3484 24.0898L45.7093 27.2981H46.0162L48.7649 24.5482H51.3628L54.2658 27.4509H54.7236L57.3214 25.7704H61.6065C60.8993 24.424 59.9647 23.21 58.8442 22.1818V22.1811ZM2.14167 30.1994H64.7656C64.7266 35.5931 63.37 40.5473 60.6959 45.0619C58.0144 49.6102 54.1817 53.3717 49.584 55.9676C44.8937 58.657 39.6946 60.0011 33.9869 60H30.8601C25.0981 60 19.8578 58.6559 15.1392 55.9676C10.4206 53.2794 6.71724 49.6446 4.02899 45.0632C1.37861 40.5496 0.0356097 35.5955 0 30.2008H2.14167V30.1994ZM5.92137 37.819C8.44458 40.2059 11.8603 42.0989 16.1685 43.4981C20.4767 44.8973 25.1546 45.5969 30.2021 45.5969H34.6465C39.693 45.5969 44.3567 44.8973 48.6378 43.4981C52.9188 42.0989 56.321 40.2059 58.8442 37.819C59.9801 36.777 60.9227 35.5422 61.6285 34.1718H3.13705C3.8416 35.5432 4.78437 36.7784 5.92137 37.8197V37.819Z"
        fill="#1EF028"></path>
</svg>
