<svg xmlns="http://www.w3.org/2000/svg" width="7.625em" height="3.9375em" viewBox="0 0 122 63" fill="none">
    <path
        d="M100.888 37.273c8.152.026 14.285-6.455 14.312-14.781s-6.159-14.847-14.312-14.873l-11.434-.038v29.654l11.434.038zM82.756 1.629l18.247.06c12 .039 20.916 8.622 20.877 20.826-.037 11.519-9.576 20.727-21.011 20.69l-18.113-.06V1.629zm-61.439 34.7h0c-8.062 0-14.598-6.584-14.598-14.707S13.256 6.916 21.318 6.916 35.915 13.5 35.915 21.623s-6.536 14.706-14.598 14.706zm26.19 6.816l-8.935-8.911c2.555-3.541 4.063-7.899 4.063-12.612C42.635 9.761 33.092.146 21.318.146h-.001C9.544.146 0 9.761 0 21.623s9.545 21.476 21.318 21.476c4.611 0 8.88-1.476 12.367-3.982l4.084 4.028h9.738z"
        fill-rule="evenodd" fill="currentColor"></path>
    <mask id="qedlogo" mask-type="alpha" maskUnits="userSpaceOnUse" x="0" y="0" width="122" height="63">
        <path d="M0 63h121.88V.146H0V63z" fill="#fff"></path>
    </mask>
    <g mask="url(#qedlogo)">
        <path fill-rule="evenodd"
            d="M2.551 62.727h2.284V50.593H2.551v12.135zm14.768-12.134h2.198v12.135h-2.536l-3.35-5.401-2.149-3.649.068 5.88v3.172H9.352V50.593h2.538l3.366 5.403 2.132 3.647-.069-5.88.001-3.17zm15.847 0h2.368L31.22 62.728h-2.674L24.13 50.593h2.436l2.182 6.273L29.9 60.65l1.133-3.784 2.132-6.273zm15.435 2.062h-6.596v2.865h5.97v1.976h-5.97v3.171h6.563v2.063h-8.849V50.593h8.88l.003 2.062zm3.94 6.068h2.25c.017 1.789 1.133 2.42 2.979 2.42 1.574 0 2.437-.613 2.437-1.755 0-.955-.626-1.363-2.47-1.755l-1.015-.203c-2.588-.495-3.874-1.722-3.874-3.681 0-2.062 1.641-3.426 4.466-3.426 3.25 0 4.822 1.483 4.906 3.886h-2.216c-.085-1.364-.829-2.028-2.656-2.028-1.421 0-2.165.562-2.165 1.499 0 .972.575 1.432 2.353 1.79l1.047.204c2.825.563 3.992 1.638 3.992 3.596 0 2.385-1.826 3.731-4.872 3.731-3.25 0-5.145-1.498-5.162-4.277zm23.155-8.13v2.062h-3.857v10.072h-2.301V52.655h-3.854v-2.062h10.012zm9.071 10.379c2.522 0 3.637-1.992 3.637-4.312s-1.115-4.311-3.637-4.311c-2.486 0-3.638 2.01-3.638 4.311s1.152 4.312 3.638 4.312zm-6.023-4.312c0-3.698 2.267-6.34 6.023-6.34 3.772 0 6.006 2.642 6.006 6.34S88.539 63 84.767 63c-3.755 0-6.023-2.64-6.023-6.34zm19.62-.494h3.044c1.27 0 2.032-.663 2.032-1.892 0-1.176-.762-1.789-2.116-1.789h-2.959v3.681zm7.258 5.147c-.007.497.122.987.372 1.416h-2.352a3.08 3.08 0 0 1-.32-1.449l-.052-1.331c-.066-1.5-.642-1.977-1.927-1.977h-2.979v4.755H96.08V50.591h5.465c2.706 0 4.246 1.331 4.246 3.426.068 1.317-.762 2.511-2.014 2.898 1.269.409 1.692 1.227 1.743 2.591l.102 1.807zm3.675-2.59h2.251c.016 1.789 1.133 2.42 2.978 2.42 1.575 0 2.436-.613 2.436-1.755 0-.955-.626-1.363-2.469-1.755l-1.015-.203c-2.59-.495-3.876-1.722-3.876-3.681 0-2.062 1.641-3.426 4.466-3.426 3.25 0 4.823 1.483 4.909 3.886h-2.219c-.083-1.364-.828-2.028-2.656-2.028-1.421 0-2.165.562-2.165 1.499 0 .972.576 1.432 2.351 1.79l1.051.204c2.824.563 3.991 1.638 3.991 3.596 0 2.385-1.826 3.731-4.873 3.731-3.248 0-5.143-1.498-5.16-4.277zM49.287 1.63h28.718v5.93H55.986v11.766h21.479v6.026H55.986v11.766h22.02v6.027H49.288V1.63z"
            fill="currentColor"></path>
    </g>
</svg>