<svg enable-background="new 0 0 360 105.3" viewBox="0 0 360 105.3" xmlns="http://www.w3.org/2000/svg"><path d="m52.6 89.8c-20.6 0-37.3-16.7-37.3-37.3s16.7-37.2 37.3-37.2 37.2 16.7 37.2 37.3c0 13.1-6.8 24.6-17 31.3h21.9c6.5-8.7 10.3-19.6 10.3-31.3 0-29-23.5-52.6-52.6-52.6s-52.4 23.5-52.4 52.6 23.5 52.6 52.6 52.6h49.1v-15.4h-12.1z" fill="#ec1d25"/><g fill="#302450"><path d="m113.8 83.8h15.9l10.6-55.3h-15.9z"/><path d="m211.7 83.8h15.9l10.7-55.3h-16z"/><path d="m279.6 61h-.8l-12.5-32.5h-14.5l-10.6 55.3h14.5l6.3-32.6h.7l12.5 32.6h14.5l10.7-55.3h-14.6z"/><path d="m198.5 28.5h-8.5l-16.3 35.4-2.1-35.4h-7.6-11.7l-10.6 55.3h12.4l7.6-42.7h.9l2 42.7h11.5l18.5-42.7h1.1l-9.4 42.7h12.5l10.6-55.3h-5.3z"/><path d="m332.3 63.6h9.3c-.1 5.4-1.7 9-10.1 9-8.7 0-11.5-7.4-10.1-16.5s6-16.7 14.6-16.7c4.8 0 7.4 2.7 8.3 6.9l15.6-2.3c-2.7-9.8-11.1-16.6-22-16.6-15 0-29.1 12.7-31.6 28.4s7.6 28.4 22.6 28.4c10.8 0 18.9-2.6 24.2-7.3l4.5-24.7h-23.2z"/><path d="m122.5 105.1-5.5-12.5h2l3.6 9.1c.3.7.5 1.4.7 2 .2-.7.5-1.4.8-2l3.8-9.1h1.9l-5.5 12.5z"/><path d="m133.5 105.1v-12.5h10.1v1.5h-8.3v3.8h7.7v1.5h-7.7v4.3h8.6v1.5h-10.4z"/><path d="m148.4 105.1v-12.5h1.9l7.4 9.8v-9.8h1.8v12.5h-1.9l-7.4-9.8v9.8z"/><path d="m168.1 105.1v-11h-4.6v-1.5h11.1v1.5h-4.6v11z"/><path d="m187.6 92.6h1.9v7.2c0 1.3-.2 2.3-.5 3s-.9 1.3-1.7 1.8-1.9.7-3.3.7c-1.3 0-2.4-.2-3.2-.6s-1.4-1-1.8-1.8-.5-1.8-.5-3.1v-7.2h1.9v7.2c0 1.1.1 1.9.3 2.4s.6.9 1.2 1.2 1.2.4 2 .4c1.4 0 2.3-.3 2.9-.8.6-.6.9-1.6.9-3.2v-7.2z"/><path d="m194.6 105.1v-12.5h6.2c1.2 0 2.2.1 2.8.3s1.2.6 1.6 1.2.6 1.2.6 1.9c0 .9-.3 1.6-1 2.2-.6.6-1.6 1-3 1.2.5.2.9.4 1.1.6.5.4 1.1 1 1.5 1.7l2.4 3.4h-2.3l-1.9-2.6c-.5-.8-1-1.3-1.3-1.7s-.7-.7-.9-.8c-.3-.2-.6-.3-.8-.3s-.6-.1-1-.1h-2.1v5.6h-1.9zm1.8-7h4c.8 0 1.5-.1 2-.2.5-.2.8-.4 1.1-.8.2-.3.4-.7.4-1.1 0-.6-.2-1.1-.7-1.5s-1.2-.6-2.3-.6h-4.4v4.2z"/><path d="m210.7 105.1v-12.5h10.1v1.5h-8.3v3.8h7.7v1.5h-7.7v4.3h8.6v1.5h-10.4z"/><path d="m235.4 105.1v-12.5h5.3c.9 0 1.6 0 2.1.1.7.1 1.3.3 1.7.6.5.3.8.7 1.1 1.2s.4 1.1.4 1.7c0 1.1-.4 2-1.1 2.7-.8.7-2.1 1.1-4.1 1.1h-3.6v5.1zm1.8-6.6h3.6c1.2 0 2-.2 2.6-.6.5-.4.8-1 .8-1.7 0-.5-.1-1-.4-1.3-.3-.4-.7-.6-1.2-.7-.3-.1-.9-.1-1.7-.1h-3.6v4.4z"/><path d="m247.8 105.1 5.4-12.5h2l5.7 12.5h-2.1l-1.6-3.8h-5.9l-1.5 3.8zm4-5.1h4.7l-1.5-3.5c-.4-1.1-.8-1.9-1-2.6-.2.8-.4 1.6-.8 2.4z"/><path d="m265.1 105.1v-12.5h6.2c1.2 0 2.2.1 2.8.3s1.2.6 1.6 1.2.6 1.2.6 1.9c0 .9-.3 1.6-1 2.2-.6.6-1.6 1-3 1.2.5.2.9.4 1.1.6.5.4 1.1 1 1.5 1.7l2.4 3.4h-2.3l-1.9-2.6c-.5-.8-1-1.3-1.3-1.7-.4-.4-.7-.7-.9-.8-.3-.2-.6-.3-.8-.3s-.6-.1-1-.1h-2.1v5.6h-1.9zm1.9-7h4c.8 0 1.5-.1 2-.2.5-.2.8-.4 1.1-.8.2-.3.4-.7.4-1.1 0-.6-.2-1.1-.7-1.5s-1.2-.6-2.3-.6h-4.5z"/><path d="m284.8 105.1v-11h-4.6v-1.5h11.1v1.5h-4.6v11z"/><path d="m295.1 105.1v-12.5h1.9l7.4 9.8v-9.8h1.8v12.5h-1.9l-7.4-9.8v9.8z"/><path d="m311.6 105.1v-12.5h10.1v1.5h-8.3v3.8h7.7v1.5h-7.7v4.3h8.6v1.5h-10.4z"/><path d="m326.6 105.1v-12.5h6.2c1.2 0 2.2.1 2.8.3s1.2.6 1.6 1.2.6 1.2.6 1.9c0 .9-.3 1.6-1 2.2-.6.6-1.6 1-3 1.2.5.2.9.4 1.1.6.5.4 1.1 1 1.5 1.7l2.4 3.4h-2.3l-1.9-2.6c-.5-.8-1-1.3-1.3-1.7-.4-.4-.7-.7-.9-.8-.3-.2-.6-.3-.8-.3s-.6-.1-1-.1h-2.1v5.6h-1.9zm1.9-7h4c.8 0 1.5-.1 2-.2.5-.2.8-.4 1.1-.8.2-.3.4-.7.4-1.1 0-.6-.2-1.1-.7-1.5s-1.2-.6-2.3-.6h-4.4v4.2z"/><path d="m342 101.1 1.7-.1c.1.6.3 1.1.6 1.5s.8.7 1.4 1c.6.2 1.4.4 2.1.4s1.3-.1 1.9-.3c.5-.2.9-.4 1.2-.8.3-.3.4-.7.4-1.1s-.1-.7-.4-1-.7-.5-1.3-.7c-.4-.1-1.2-.3-2.5-.6s-2.2-.5-2.7-.8c-.7-.3-1.2-.7-1.5-1.2s-.5-1-.5-1.6.2-1.2.6-1.8c.4-.5 1-1 1.8-1.2.8-.3 1.6-.4 2.6-.4s2 .1 2.7.4c.8.3 1.4.7 1.8 1.3s.7 1.2.7 2l-1.8.1c-.1-.8-.4-1.4-1-1.8s-1.4-.6-2.4-.6c-1.1 0-1.9.2-2.5.6-.5.4-.8.8-.8 1.3 0 .4.2.8.5 1.1.4.3 1.3.6 2.8.9s2.5.6 3.1.8c.8.3 1.4.8 1.8 1.3s.6 1.1.6 1.8-.2 1.3-.6 1.9-1 1-1.8 1.4c-.8.3-1.7.5-2.7.5-1.3 0-2.3-.2-3.2-.5s-1.5-.8-2-1.5c-.3-.7-.6-1.5-.6-2.3z"/></g></svg>