<svg version="1.1" id="Layer_1" xmlns="http://www.w3.org/2000/svg" xmlns:xlink="http://www.w3.org/1999/xlink" x="0px" y="0px"
	 width="100%" viewBox="0 0 512 512" enable-background="new 0 0 512 512" xml:space="preserve">
<path fill="#000000" opacity="1.000000" stroke="none" 
	d="
M513.000000,193.000000 
	C513.000000,299.973999 513.000000,406.447998 513.000000,512.960999 
	C342.401001,512.960999 171.801971,512.960999 1.101477,512.960999 
	C1.101477,342.442688 1.101477,171.885315 1.101477,1.163961 
	C171.666534,1.163961 342.333252,1.163961 513.000000,1.163961 
	C513.000000,64.864655 513.000000,128.682327 513.000000,193.000000 
M402.759308,223.697525 
	C402.878845,221.482346 402.998383,219.267181 403.844727,216.599976 
	C404.276489,209.999283 404.708252,203.398575 405.140015,196.797882 
	C404.899017,196.787582 404.658020,196.777298 404.417023,196.767014 
	C402.593964,203.141754 400.770874,209.516510 398.321472,216.171097 
	C397.862518,217.411331 397.403534,218.651550 396.303497,220.196259 
	C395.163879,222.450684 394.024231,224.705109 392.261108,227.213577 
	C389.824707,230.106796 387.388275,233.000031 384.330170,236.154465 
	C382.537628,237.734634 380.745056,239.314819 378.240845,240.993851 
	C375.811951,242.627426 373.383057,244.260986 370.195923,245.997559 
	C366.097076,247.649155 361.998199,249.300751 357.090210,250.991608 
	C354.722626,251.383881 352.355011,251.776138 349.365082,251.866837 
	C342.946259,246.895004 336.527435,241.923172 329.795227,236.318756 
	C319.566071,230.196335 309.336914,224.073914 298.779968,217.311264 
	C288.760132,211.670563 278.740295,206.029861 268.120514,200.040451 
	C262.357819,195.029526 256.595123,190.018616 250.779785,184.322571 
	C248.131165,179.216843 245.482544,174.111115 242.979156,168.116653 
	C244.025131,163.091446 245.071091,158.066238 246.725800,152.777313 
	C252.735916,145.609558 260.385345,141.024490 269.601593,139.868790 
	C278.695435,138.728409 287.899567,138.466995 297.632111,138.157104 
	C295.738525,141.735611 293.844940,145.314133 291.313141,149.167999 
	C288.337555,152.980728 285.361938,156.793457 282.340454,160.665009 
	C301.997559,163.482513 321.318878,166.584854 339.630707,176.131241 
	C343.121735,179.560654 347.735901,182.435669 349.781158,186.578766 
	C351.742188,190.551331 351.037903,195.839645 351.512939,200.630402 
	C367.381927,199.773773 382.507812,188.518234 383.697601,180.582077 
	C372.659668,183.370789 371.437775,182.993698 368.974365,175.107712 
	C368.974365,173.173569 368.974365,171.239410 368.974365,169.941849 
	C363.030151,168.525909 357.601044,167.596268 352.422119,165.902008 
	C346.655609,164.015503 341.870728,160.706696 341.134735,153.345261 
	C346.303528,141.128418 362.159302,137.049271 370.458435,144.109528 
	C374.409363,147.470688 376.792419,152.674805 379.980957,157.880066 
	C380.459595,160.868912 380.938232,163.857742 381.378632,166.607773 
	C386.379242,164.500214 391.142334,162.188797 396.111359,160.474106 
	C402.577850,158.242645 409.409302,161.845184 407.909149,169.232407 
	C407.096771,173.232864 405.353241,177.044220 403.936462,181.215576 
	C414.542267,177.265045 422.798096,170.867859 427.747162,159.717850 
	C428.874542,156.956787 430.001892,154.195740 431.076965,151.562805 
	C430.315125,150.892197 429.995697,150.382370 429.571381,150.270584 
	C414.179016,146.215424 400.451874,138.933975 388.357880,128.659592 
	C385.485687,126.219521 381.421753,124.058281 382.974915,118.171570 
	C383.002106,115.461731 384.176086,111.487022 382.842590,110.278053 
	C378.760895,106.577530 373.715973,103.939468 368.771088,100.253189 
	C364.529175,97.464378 360.287292,94.675568 355.773987,91.251602 
	C352.864258,89.463654 349.954559,87.675697 346.779846,85.257278 
	C344.536530,83.802788 342.293213,82.348297 339.779572,80.256073 
	C336.560852,76.823524 333.342133,73.390984 329.832703,69.310364 
	C316.410217,50.419189 309.376404,28.911255 304.997467,7.281625 
	C304.997467,17.886499 304.239105,29.178118 305.226929,40.314854 
	C306.084503,49.983402 308.918549,59.476646 310.976624,69.760849 
	C310.611511,70.295975 309.981812,71.327377 309.919647,71.294228 
	C307.953552,70.245964 306.042542,69.094322 303.837402,67.319092 
	C284.388977,53.711197 270.326691,35.407104 258.550873,15.002144 
	C258.371002,16.488894 258.682159,17.658279 258.998993,18.826128 
	C263.766083,36.396839 271.216980,52.757961 281.201477,68.708626 
	C281.714722,69.259697 282.227997,69.810760 283.326202,70.989868 
	C280.929565,70.989868 279.283691,71.237259 277.736755,70.950737 
	C265.364960,68.659203 252.931732,68.578209 240.499191,70.067863 
	C235.936874,70.614510 231.466248,71.926414 226.153290,72.986031 
	C222.706223,74.046051 219.259171,75.106079 214.981537,76.048683 
	C211.304825,77.662834 207.628113,79.276978 203.227356,80.992653 
	C199.815567,83.050125 196.403778,85.107597 192.422409,87.110748 
	C192.210464,87.420845 191.998520,87.730942 191.345245,88.162125 
	C191.345245,88.162125 191.143341,88.572815 190.611572,88.939651 
	C185.369751,93.613884 180.127930,98.288116 174.263870,103.252831 
	C173.886383,103.955688 173.622345,104.756065 173.114532,105.346916 
	C164.177017,115.745758 158.402084,127.728416 155.014084,141.816559 
	C154.065369,148.209488 153.116653,154.602402 152.018372,161.909286 
	C152.401154,167.271362 152.783920,172.633438 153.019577,178.821213 
	C154.308075,184.228653 155.596573,189.636108 156.981979,195.823166 
	C158.614700,199.895889 160.247421,203.968597 161.990311,208.774719 
	C166.719299,216.520416 171.448288,224.266129 176.144836,232.570023 
	C176.447037,232.779526 176.749222,232.989029 177.190796,233.657608 
	C177.190796,233.657608 177.619110,233.873734 177.955887,234.398270 
	C180.264481,236.945480 182.573074,239.492706 185.155014,242.656982 
	C188.065506,245.452148 190.975998,248.247314 193.979523,251.582199 
	C193.846848,252.100220 193.714172,252.618225 193.078827,253.698044 
	C191.349777,255.474594 189.890396,258.290955 187.838638,258.823059 
	C182.700562,260.155518 177.294098,260.452942 171.286972,260.804626 
	C163.764725,257.689117 156.242477,254.573624 148.153137,251.061905 
	C142.451416,245.336990 136.749680,239.612061 130.756805,233.244278 
	C128.115982,228.161926 125.475166,223.079559 122.958847,217.229172 
	C121.010155,211.137726 119.061462,205.046265 117.012192,198.084869 
	C116.286476,191.389114 115.560768,184.693359 114.975807,177.072464 
	C115.356636,169.395386 115.737465,161.718307 116.809738,153.615463 
	C118.910172,145.091064 121.010605,136.566681 123.764023,127.686272 
	C130.574371,107.375206 143.429688,91.122383 158.359711,76.283585 
	C160.334167,74.321198 162.600632,72.652618 164.731842,70.847961 
	C164.335480,70.461708 163.939117,70.075447 163.542755,69.689186 
	C141.044800,85.115303 123.830528,105.140381 111.848183,130.660522 
	C108.620522,139.772415 105.392860,148.884323 101.797165,158.717575 
	C100.586281,166.810760 99.375389,174.903931 97.990135,183.837494 
	C97.957077,191.907562 97.924019,199.977646 97.981483,208.951523 
	C98.709534,214.966446 99.437584,220.981354 100.038338,227.793594 
	C101.746902,233.527725 103.455467,239.261856 105.032982,245.759445 
	C107.982414,252.520340 110.931847,259.281219 113.988739,266.770721 
	C117.289368,272.196655 120.589996,277.622589 124.178391,283.688049 
	C126.329529,286.752747 128.480667,289.817474 130.959244,293.398895 
	C132.786926,295.499420 134.614609,297.599945 136.816238,300.231293 
	C140.505173,303.833618 144.194107,307.435913 148.204651,311.652313 
	C149.501923,312.636993 150.780243,313.647858 152.100021,314.601379 
	C156.044296,317.451080 160.004807,320.278290 164.242569,323.741180 
	C169.127197,326.511505 174.011841,329.281830 179.244385,332.678253 
	C184.675888,335.066681 190.107391,337.455109 195.974884,340.400116 
	C213.974106,347.091888 232.495636,350.769318 251.774368,349.989258 
	C258.541290,349.715485 265.448181,350.085327 272.035095,348.823975 
	C282.499878,346.820038 292.749634,343.693512 303.856140,341.005371 
	C306.864746,339.869995 309.938629,338.881195 312.871063,337.574829 
	C328.423706,330.646118 342.714630,321.634949 355.193024,310.084656 
	C361.041138,304.671539 365.827423,298.111267 371.694763,291.768066 
	C373.499939,289.193329 375.305115,286.618561 377.722473,283.759003 
	C378.831177,281.873779 379.939911,279.988586 381.668884,277.818237 
	C382.794159,275.915466 383.919464,274.012726 385.659302,271.785400 
	C386.615265,269.764099 387.571228,267.742828 388.934906,265.130371 
	C389.971558,262.453735 391.008209,259.777100 392.705444,256.740845 
	C393.747406,253.882797 394.789398,251.024734 396.039581,247.524231 
	C396.729340,245.363770 397.419128,243.203293 398.784149,240.648895 
	C399.467346,237.097366 400.150574,233.545853 401.174408,229.296280 
	C401.464233,227.568237 401.754059,225.840210 402.759308,223.697525 
M332.999786,456.500000 
	C332.999664,442.669434 333.053436,428.838501 332.971039,415.008453 
	C332.941132,409.984833 329.726257,406.881744 325.087921,407.000427 
	C319.889343,407.133423 318.004974,409.184021 318.002014,414.753693 
	C317.995544,426.917908 318.171173,439.085419 317.936005,451.245087 
	C317.793976,458.590363 315.407837,464.133087 306.228455,463.079651 
	C302.116760,462.607788 297.905975,463.005402 293.740143,462.998596 
	C287.646027,462.988617 285.008179,460.423645 285.003326,454.464172 
	C284.992889,441.633423 285.082703,428.801910 284.963806,415.972260 
	C284.907074,409.852203 281.956451,406.959076 276.392426,407.000183 
	C271.751556,407.034454 269.019226,410.325439 269.007446,416.027649 
	C268.982300,428.191803 269.300751,440.365356 268.924744,452.517944 
	C268.438751,468.225861 279.771759,479.685822 295.500519,479.050934 
	C302.853424,478.754150 310.228180,479.000183 317.686218,479.000183 
	C319.099426,489.006317 315.226349,494.842072 304.365417,494.113525 
	C295.905212,493.546021 287.375061,493.919189 278.879425,494.069672 
	C277.225098,494.098938 275.210449,494.594635 274.018219,495.630493 
	C271.422699,497.885681 270.544525,500.752838 271.912384,504.332520 
	C273.265167,507.872772 275.807373,508.969879 279.148468,508.984467 
	C288.979645,509.027374 298.884125,508.245850 308.624207,509.188751 
	C321.118347,510.398193 333.966339,498.217468 333.105713,484.487915 
	C332.543854,475.524963 332.999786,466.498199 332.999786,456.500000 
M345.999817,440.511108 
	C345.999908,460.313110 345.944214,480.115326 346.032715,499.916931 
	C346.060791,506.205200 348.864197,509.065460 354.341919,509.000000 
	C359.366211,508.939972 361.978119,505.810150 361.995392,499.758179 
	C362.015717,492.633301 362.000153,485.508362 362.000153,479.000183 
	C369.281281,479.000183 376.142242,478.941681 383.001862,479.011871 
	C398.961975,479.175171 409.212769,468.978577 409.015472,452.890594 
	C408.925690,445.569946 409.008179,438.247284 408.998322,430.925537 
	C408.983337,419.807831 403.313629,410.469818 392.555084,408.347961 
	C383.349091,406.532288 373.524811,407.034180 364.053040,407.676453 
	C357.932159,408.091522 353.232849,412.208008 349.798645,417.626923 
	C345.454041,424.482300 346.047363,432.013855 345.999817,440.511108 
M142.022751,451.796173 
	C142.015091,436.629974 141.976151,421.463684 142.042480,406.297791 
	C142.050095,404.554443 142.378647,402.709320 143.013245,401.089569 
	C145.863449,393.814484 152.325958,392.294434 158.988831,392.093842 
	C170.311569,391.752899 181.652008,392.003601 192.985016,391.998657 
	C199.636444,391.995758 201.823105,390.299438 201.999496,385.031891 
	C202.196030,379.163483 199.273956,375.983582 192.950287,376.054596 
	C178.859650,376.212860 164.763535,376.458832 150.686157,377.057220 
	C137.544434,377.615875 125.834190,391.326538 125.964119,404.182434 
	C126.117386,419.347107 126.433113,434.530426 125.877144,449.676239 
	C125.330681,464.562927 138.909760,478.841339 154.659897,478.977203 
	C167.658554,479.089355 180.659149,479.042145 193.658478,478.980072 
	C199.123199,478.953979 202.076721,475.767242 201.999680,470.284271 
	C201.925095,464.977722 199.749512,463.016785 193.801788,463.005981 
	C182.468826,462.985443 171.127243,462.730164 159.805634,463.089447 
	C151.460968,463.354218 145.518723,460.400757 142.022751,451.796173 
M62.558620,409.893250 
	C55.420193,413.425537 49.952435,424.247772 52.998756,434.821228 
	C55.230957,442.569000 64.484406,449.762390 73.143288,449.973602 
	C78.806587,450.111755 84.499710,449.704437 90.130150,450.156158 
	C92.181244,450.320709 95.028145,451.825165 95.817490,453.511505 
	C96.734421,455.470398 96.731812,459.466858 95.450546,460.501801 
	C93.034195,462.453491 89.455025,463.692596 86.290276,463.851013 
	C77.645271,464.283691 68.957489,464.206604 60.300537,463.916718 
	C55.666454,463.761475 53.598194,465.946136 53.039207,470.049011 
	C52.468842,474.235474 55.224392,478.811646 59.104008,478.825958 
	C71.180679,478.870392 83.386528,479.301697 95.302513,477.746246 
	C107.728989,476.124115 113.661720,465.992004 111.933647,452.025452 
	C110.823479,443.052917 102.045372,434.100830 90.822044,434.944702 
	C86.347351,435.281158 81.809906,435.228882 77.332573,434.910278 
	C74.814903,434.731110 71.886520,434.246613 70.033867,432.776886 
	C68.624390,431.658752 67.478584,428.072510 68.242233,426.827271 
	C69.544014,424.704529 72.364777,422.353943 74.674881,422.214722 
	C83.476288,421.684357 92.329659,422.079163 101.161583,421.967529 
	C106.027496,421.906067 109.116295,418.521149 108.999176,413.781433 
	C108.903923,409.926880 105.504814,407.017059 100.996490,407.006226 
	C92.163216,406.984985 83.320938,406.768463 74.500671,407.107849 
	C70.685951,407.254669 66.916580,408.580048 62.558620,409.893250 
M460.405487,408.932037 
	C458.818573,408.288116 457.266907,407.224304 455.637390,407.087402 
	C452.218140,406.800140 448.757935,407.000214 444.999939,407.000214 
	C444.999939,402.981720 445.018860,399.513336 444.995483,396.045227 
	C444.961243,390.972900 443.136841,389.058350 438.334564,389.000092 
	C432.448669,388.928711 430.138519,390.869385 430.016357,396.146271 
	C429.933441,399.727264 430.000549,403.311707 430.000549,406.848999 
	C419.794098,407.241882 416.166290,408.868011 416.099182,413.652161 
	C415.962311,423.409210 423.722717,421.934570 430.000214,422.107544 
	C430.000214,433.685089 430.034058,444.668365 429.991577,455.651398 
	C429.939484,469.115295 440.642914,478.730103 453.243347,478.983704 
	C459.465149,479.108917 462.568176,476.522980 463.073700,471.845795 
	C463.621063,466.781311 461.222443,463.664795 453.405853,462.914520 
	C451.638214,462.744873 449.623260,461.866791 448.354401,460.653564 
	C446.916199,459.278381 445.338104,457.181061 445.292175,455.360596 
	C445.012878,444.290833 445.152771,433.210480 445.152771,422.000000 
	C448.562317,422.000000 451.389099,422.004761 454.215912,421.999115 
	C462.124634,421.983276 465.067139,416.551392 460.405487,408.932037 
M239.548523,407.000000 
	C237.383011,407.000122 235.215088,406.933411 233.052429,407.012024 
	C223.889389,407.344940 214.126663,417.026459 214.039536,426.205414 
	C213.895660,441.362457 213.969223,456.522064 214.053604,471.679993 
	C214.061172,473.038666 214.416031,475.126648 215.301437,475.610840 
	C217.862534,477.011475 220.923828,478.857758 223.516861,478.508789 
	C227.067886,478.030914 229.048630,474.886292 229.026642,470.863190 
	C228.954712,457.704071 228.988602,444.544342 229.004440,431.384827 
	C229.012360,424.800873 231.721146,422.038177 238.164764,422.003937 
	C242.329056,421.981842 246.494507,422.056244 250.657700,421.985443 
	C256.058289,421.893616 258.029785,419.664948 257.999969,413.865265 
	C257.975616,409.127533 255.792953,407.095734 250.521591,407.010284 
	C247.190964,406.956329 243.858719,407.000092 239.548523,407.000000 
M166.808746,67.706970 
	C166.040268,68.219772 165.271790,68.732574 164.503311,69.245377 
	C164.944580,69.630432 165.385834,70.015488 165.827103,70.400543 
	C166.355377,69.339607 166.883652,68.278679 166.808746,67.706970 
z"/>
<path fill="#F5C947" opacity="1.000000" stroke="none" 
	d="
M155.167496,140.994049 
	C158.402084,127.728416 164.177017,115.745758 173.114532,105.346916 
	C173.622345,104.756065 173.886383,103.955688 174.983276,103.178482 
	C180.617661,103.736084 185.516541,104.575569 190.450867,104.957779 
	C201.510498,105.814445 212.593842,106.361938 223.656387,107.184944 
	C239.824158,108.387764 255.978302,109.773834 272.145721,110.981682 
	C282.877350,111.783417 293.625153,112.367172 304.360291,113.125023 
	C322.186493,114.383453 340.008331,115.703438 357.979095,117.311691 
	C359.192749,118.996254 360.259338,120.366615 361.216309,121.596107 
	C363.880493,120.679970 366.382965,119.819458 369.278687,118.956810 
	C374.058929,118.968254 378.445923,118.981827 382.832916,118.995392 
	C381.421753,124.058281 385.485687,126.219521 388.357880,128.659592 
	C400.451874,138.933975 414.179016,146.215424 429.571381,150.270584 
	C429.995697,150.382370 430.315125,150.892197 431.076965,151.562805 
	C430.001892,154.195740 428.874542,156.956787 427.041199,159.715332 
	C410.852051,158.823227 395.368866,157.933670 379.885681,157.044098 
	C376.792419,152.674805 374.409363,147.470688 370.458435,144.109528 
	C362.159302,137.049271 346.303528,141.128418 340.574158,153.649109 
	C328.002533,152.968628 315.982910,152.075836 303.985291,150.948837 
	C299.945251,150.569351 295.961060,149.595078 291.951355,148.892654 
	C293.844940,145.314133 295.738525,141.735611 297.030334,137.771637 
	C289.777771,136.220612 283.161255,134.782455 276.469757,133.940781 
	C256.725647,131.457397 238.231216,134.511780 221.631287,146.997818 
	C210.865738,145.981720 200.525803,144.946335 190.176743,144.011871 
	C178.511276,142.958542 166.837601,141.996048 155.167496,140.994049 
z"/>
<path fill="#FFAA00" opacity="1.000000" stroke="none" 
	d="
M332.999786,457.000000 
	C332.999786,466.498199 332.543854,475.524963 333.105713,484.487915 
	C333.966339,498.217468 321.118347,510.398193 308.624207,509.188751 
	C298.884125,508.245850 288.979645,509.027374 279.148468,508.984467 
	C275.807373,508.969879 273.265167,507.872772 271.912384,504.332520 
	C270.544525,500.752838 271.422699,497.885681 274.018219,495.630493 
	C275.210449,494.594635 277.225098,494.098938 278.879425,494.069672 
	C287.375061,493.919189 295.905212,493.546021 304.365417,494.113525 
	C315.226349,494.842072 319.099426,489.006317 317.686218,479.000183 
	C310.228180,479.000183 302.853424,478.754150 295.500519,479.050934 
	C279.771759,479.685822 268.438751,468.225861 268.924744,452.517944 
	C269.300751,440.365356 268.982300,428.191803 269.007446,416.027649 
	C269.019226,410.325439 271.751556,407.034454 276.392426,407.000183 
	C281.956451,406.959076 284.907074,409.852203 284.963806,415.972260 
	C285.082703,428.801910 284.992889,441.633423 285.003326,454.464172 
	C285.008179,460.423645 287.646027,462.988617 293.740143,462.998596 
	C297.905975,463.005402 302.116760,462.607788 306.228455,463.079651 
	C315.407837,464.133087 317.793976,458.590363 317.936005,451.245087 
	C318.171173,439.085419 317.995544,426.917908 318.002014,414.753693 
	C318.004974,409.184021 319.889343,407.133423 325.087921,407.000427 
	C329.726257,406.881744 332.941132,409.984833 332.971039,415.008453 
	C333.053436,428.838501 332.999664,442.669434 332.999786,457.000000 
z"/>
<path fill="#FFAA00" opacity="1.000000" stroke="none" 
	d="
M345.999817,440.013855 
	C346.047363,432.013855 345.454041,424.482300 349.798645,417.626923 
	C353.232849,412.208008 357.932159,408.091522 364.053040,407.676453 
	C373.524811,407.034180 383.349091,406.532288 392.555084,408.347961 
	C403.313629,410.469818 408.983337,419.807831 408.998322,430.925537 
	C409.008179,438.247284 408.925690,445.569946 409.015472,452.890594 
	C409.212769,468.978577 398.961975,479.175171 383.001862,479.011871 
	C376.142242,478.941681 369.281281,479.000183 362.000153,479.000183 
	C362.000153,485.508362 362.015717,492.633301 361.995392,499.758179 
	C361.978119,505.810150 359.366211,508.939972 354.341919,509.000000 
	C348.864197,509.065460 346.060791,506.205200 346.032715,499.916931 
	C345.944214,480.115326 345.999908,460.313110 345.999817,440.013855 
M378.453033,422.000000 
	C375.791138,422.000610 373.122498,421.880035 370.468781,422.027893 
	C365.402863,422.310120 362.033722,425.803619 362.010437,430.729401 
	C361.972656,438.714905 361.945251,446.701233 362.019440,454.686218 
	C362.070343,460.165863 365.055939,462.986633 370.580170,462.997925 
	C375.238464,463.007416 379.896820,463.009583 384.555115,462.997375 
	C390.027405,462.983032 392.937531,460.133301 392.983154,454.551056 
	C393.048401,446.565887 392.909515,438.578308 393.039429,430.594727 
	C393.100769,426.825012 391.396332,424.193848 388.075623,423.125153 
	C385.347717,422.247253 382.307953,422.338379 378.453033,422.000000 
z"/>
<path fill="#FFAA00" opacity="1.000000" stroke="none" 
	d="
M142.101776,452.215149 
	C145.518723,460.400757 151.460968,463.354218 159.805634,463.089447 
	C171.127243,462.730164 182.468826,462.985443 193.801788,463.005981 
	C199.749512,463.016785 201.925095,464.977722 201.999680,470.284271 
	C202.076721,475.767242 199.123199,478.953979 193.658478,478.980072 
	C180.659149,479.042145 167.658554,479.089355 154.659897,478.977203 
	C138.909760,478.841339 125.330681,464.562927 125.877144,449.676239 
	C126.433113,434.530426 126.117386,419.347107 125.964119,404.182434 
	C125.834190,391.326538 137.544434,377.615875 150.686157,377.057220 
	C164.763535,376.458832 178.859650,376.212860 192.950287,376.054596 
	C199.273956,375.983582 202.196030,379.163483 201.999496,385.031891 
	C201.823105,390.299438 199.636444,391.995758 192.985016,391.998657 
	C181.652008,392.003601 170.311569,391.752899 158.988831,392.093842 
	C152.325958,392.294434 145.863449,393.814484 143.013245,401.089569 
	C142.378647,402.709320 142.050095,404.554443 142.042480,406.297791 
	C141.976151,421.463684 142.015091,436.629974 142.101776,452.215149 
z"/>
<path fill="#F7D24C" opacity="1.000000" stroke="none" 
	d="
M357.832031,116.997482 
	C340.008331,115.703438 322.186493,114.383453 304.360291,113.125023 
	C293.625153,112.367172 282.877350,111.783417 272.145721,110.981682 
	C255.978302,109.773834 239.824158,108.387764 223.656387,107.184944 
	C212.593842,106.361938 201.510498,105.814445 190.450867,104.957779 
	C185.516541,104.575569 180.617661,103.736084 175.294403,103.033249 
	C180.127930,98.288116 185.369751,93.613884 191.339874,88.901794 
	C207.385651,90.242599 222.695129,91.719543 238.023315,92.966385 
	C248.753006,93.839157 259.514343,94.315872 270.250702,95.115364 
	C286.755768,96.344444 303.251801,97.694939 319.751099,99.001312 
	C331.629303,99.941811 343.496216,101.076843 355.389465,101.748398 
	C359.910950,102.003716 364.491852,101.205978 369.045685,100.888184 
	C373.715973,103.939468 378.760895,106.577530 382.842590,110.278053 
	C384.176086,111.487022 383.002106,115.461731 382.903931,118.583481 
	C378.445923,118.981827 374.058929,118.968254 369.325897,118.585144 
	C364.193909,115.676277 359.407959,113.136932 354.622009,110.597595 
	C354.456421,110.880783 354.290863,111.163979 354.125305,111.447166 
	C355.360870,113.297272 356.596436,115.147377 357.832031,116.997482 
z"/>
<path fill="#E99D4E" opacity="1.000000" stroke="none" 
	d="
M268.720459,200.389160 
	C278.740295,206.029861 288.760132,211.670563 298.597107,217.786606 
	C296.526764,218.855881 294.663300,219.544983 292.747894,220.028427 
	C279.460327,223.382187 266.154388,226.663177 252.870895,230.032928 
	C247.705872,231.343185 247.072952,233.009232 249.731827,237.227402 
	C242.077560,236.922760 234.695969,236.394897 227.317886,235.821945 
	C222.708435,235.463989 218.104904,235.030273 213.497574,234.644135 
	C202.966156,233.761490 192.439362,232.806641 181.895691,232.107330 
	C180.515289,232.015793 179.046799,233.252335 177.619110,233.873734 
	C177.619110,233.873734 177.190796,233.657608 177.018311,233.199219 
	C176.675430,232.449722 176.452576,232.206726 176.177277,232.011841 
	C171.448288,224.266129 166.719299,216.520416 162.405304,208.397919 
	C168.096512,208.347504 173.376266,208.625763 178.648285,209.009811 
	C191.161972,209.921432 203.665909,210.993210 216.191238,211.684280 
	C217.741989,211.769836 219.398560,209.938004 221.314758,209.168594 
	C224.579224,211.780426 227.779633,211.966873 231.433624,210.984833 
	C240.741547,208.483261 250.148346,206.350418 259.461151,203.865967 
	C262.631165,203.020309 265.638702,201.565582 268.720459,200.389160 
z"/>
<path fill="#DE734A" opacity="1.000000" stroke="none" 
	d="
M163.958969,323.114288 
	C160.004807,320.278290 156.044296,317.451080 152.100021,314.601379 
	C150.780243,313.647858 149.501923,312.636993 148.411560,311.286530 
	C172.695297,300.970947 196.787338,291.057587 220.834106,281.035675 
	C224.855453,279.359680 228.362122,279.688385 231.294693,282.862854 
	C234.981628,286.853973 239.548004,287.859070 244.761215,288.082031 
	C255.008636,288.520203 265.239563,289.378601 275.471008,290.147430 
	C287.342194,291.039520 299.206543,292.022095 311.290588,292.979065 
	C311.507263,292.992737 311.941986,293.017883 312.020264,293.369995 
	C314.020966,299.488739 315.943390,305.255341 317.412750,311.015015 
	C311.662262,310.678375 306.361725,310.391998 301.067963,310.011261 
	C282.711517,308.691071 264.357422,307.338074 245.876587,305.793091 
	C245.549881,305.331940 245.303833,305.130463 244.997910,304.609985 
	C243.887344,301.660919 242.862488,299.052826 241.679535,296.518524 
	C239.728485,292.338745 237.171585,291.509552 232.563202,293.491211 
	C214.768890,301.143097 196.719070,308.198303 178.847382,315.674133 
	C173.740723,317.810272 168.914047,320.615753 163.958969,323.114288 
z"/>
<path fill="#FFAA00" opacity="1.000000" stroke="none" 
	d="
M62.842613,409.631653 
	C66.916580,408.580048 70.685951,407.254669 74.500671,407.107849 
	C83.320938,406.768463 92.163216,406.984985 100.996490,407.006226 
	C105.504814,407.017059 108.903923,409.926880 108.999176,413.781433 
	C109.116295,418.521149 106.027496,421.906067 101.161583,421.967529 
	C92.329659,422.079163 83.476288,421.684357 74.674881,422.214722 
	C72.364777,422.353943 69.544014,424.704529 68.242233,426.827271 
	C67.478584,428.072510 68.624390,431.658752 70.033867,432.776886 
	C71.886520,434.246613 74.814903,434.731110 77.332573,434.910278 
	C81.809906,435.228882 86.347351,435.281158 90.822044,434.944702 
	C102.045372,434.100830 110.823479,443.052917 111.933647,452.025452 
	C113.661720,465.992004 107.728989,476.124115 95.302513,477.746246 
	C83.386528,479.301697 71.180679,478.870392 59.104008,478.825958 
	C55.224392,478.811646 52.468842,474.235474 53.039207,470.049011 
	C53.598194,465.946136 55.666454,463.761475 60.300537,463.916718 
	C68.957489,464.206604 77.645271,464.283691 86.290276,463.851013 
	C89.455025,463.692596 93.034195,462.453491 95.450546,460.501801 
	C96.731812,459.466858 96.734421,455.470398 95.817490,453.511505 
	C95.028145,451.825165 92.181244,450.320709 90.130150,450.156158 
	C84.499710,449.704437 78.806587,450.111755 73.143288,449.973602 
	C64.484406,449.762390 55.230957,442.569000 52.998756,434.821228 
	C49.952435,424.247772 55.420193,413.425537 62.842613,409.631653 
z"/>
<path fill="#E07A4B" opacity="1.000000" stroke="none" 
	d="
M311.073883,292.965393 
	C299.206543,292.022095 287.342194,291.039520 275.471008,290.147430 
	C265.239563,289.378601 255.008636,288.520203 244.761215,288.082031 
	C239.548004,287.859070 234.981628,286.853973 231.294693,282.862854 
	C228.362122,279.688385 224.855453,279.359680 220.834106,281.035675 
	C196.787338,291.057587 172.695297,300.970947 148.250748,310.979492 
	C144.194107,307.435913 140.505173,303.833618 136.879944,299.630188 
	C139.013824,297.721130 140.950882,296.099365 143.175583,295.155731 
	C158.459167,288.673126 173.680237,282.012054 189.177551,276.077209 
	C197.276688,272.975555 204.721008,267.555023 214.284149,268.153809 
	C216.045242,269.206299 217.522308,270.103729 219.161926,271.294037 
	C222.904190,275.947876 227.094757,278.891418 233.100510,279.151978 
	C242.203827,279.546875 251.282349,280.485474 260.377319,281.106720 
	C274.931793,282.100891 289.491150,283.024292 304.343933,284.134888 
	C306.784271,287.183258 308.929077,290.074310 311.073883,292.965393 
z"/>
<path fill="#D74D43" opacity="1.000000" stroke="none" 
	d="
M303.090363,341.041809 
	C292.749634,343.693512 282.499878,346.820038 272.035095,348.823975 
	C265.448181,350.085327 258.541290,349.715485 251.774368,349.989258 
	C232.495636,350.769318 213.974106,347.091888 195.979614,339.773590 
	C196.478348,338.710876 196.901123,338.105957 197.476669,337.863098 
	C212.131439,331.679199 226.779190,325.477234 241.488632,319.425415 
	C244.616913,318.138397 246.188400,319.594635 246.016251,322.999176 
	C245.892075,325.455078 246.122818,327.736847 249.418442,327.968079 
	C253.537704,328.257080 257.645355,328.716003 261.765533,328.986755 
	C272.815979,329.712830 283.878479,330.272736 294.919556,331.116089 
	C299.664276,331.478485 304.367920,332.378601 308.923340,333.326050 
	C306.867737,336.092407 304.979065,338.567108 303.090363,341.041809 
z"/>
<path fill="#FFAA00" opacity="1.000000" stroke="none" 
	d="
M460.698364,409.214355 
	C465.067139,416.551392 462.124634,421.983276 454.215912,421.999115 
	C451.389099,422.004761 448.562317,422.000000 445.152771,422.000000 
	C445.152771,433.210480 445.012878,444.290833 445.292175,455.360596 
	C445.338104,457.181061 446.916199,459.278381 448.354401,460.653564 
	C449.623260,461.866791 451.638214,462.744873 453.405853,462.914520 
	C461.222443,463.664795 463.621063,466.781311 463.073700,471.845795 
	C462.568176,476.522980 459.465149,479.108917 453.243347,478.983704 
	C440.642914,478.730103 429.939484,469.115295 429.991577,455.651398 
	C430.034058,444.668365 430.000214,433.685089 430.000214,422.107544 
	C423.722717,421.934570 415.962311,423.409210 416.099182,413.652161 
	C416.166290,408.868011 419.794098,407.241882 430.000549,406.848999 
	C430.000549,403.311707 429.933441,399.727264 430.016357,396.146271 
	C430.138519,390.869385 432.448669,388.928711 438.334564,389.000092 
	C443.136841,389.058350 444.961243,390.972900 444.995483,396.045227 
	C445.018860,399.513336 444.999939,402.981720 444.999939,407.000214 
	C448.757935,407.000214 452.218140,406.800140 455.637390,407.087402 
	C457.266907,407.224304 458.818573,408.288116 460.698364,409.214355 
z"/>
<path fill="#F5C747" opacity="1.000000" stroke="none" 
	d="
M303.473267,341.023590 
	C304.979065,338.567108 306.867737,336.092407 309.228546,333.179565 
	C311.862762,328.845642 314.024841,324.949829 316.412842,320.744476 
	C317.047791,317.297302 317.456818,314.159607 317.865814,311.021942 
	C315.943390,305.255341 314.020966,299.488739 312.396667,293.309204 
	C319.206909,291.072510 325.678040,289.082825 332.240112,287.461090 
	C344.094116,284.531616 356.002441,281.821991 368.030701,279.315460 
	C368.493530,280.419098 368.813721,281.227783 369.114502,282.435852 
	C369.761719,285.913788 370.428314,288.992340 371.094910,292.070892 
	C365.827423,298.111267 361.041138,304.671539 355.193024,310.084656 
	C342.714630,321.634949 328.423706,330.646118 312.871063,337.574829 
	C309.938629,338.881195 306.864746,339.869995 303.473267,341.023590 
z"/>
<path fill="#D95845" opacity="1.000000" stroke="none" 
	d="
M316.186920,321.053986 
	C314.024841,324.949829 311.862762,328.845642 309.395447,332.887939 
	C304.367920,332.378601 299.664276,331.478485 294.919556,331.116089 
	C283.878479,330.272736 272.815979,329.712830 261.765533,328.986755 
	C257.645355,328.716003 253.537704,328.257080 249.418442,327.968079 
	C246.122818,327.736847 245.892075,325.455078 246.016251,322.999176 
	C246.188400,319.594635 244.616913,318.138397 241.488632,319.425415 
	C226.779190,325.477234 212.131439,331.679199 197.476669,337.863098 
	C196.901123,338.105957 196.478348,338.710876 195.761627,339.495300 
	C190.107391,337.455109 184.675888,335.066681 179.382233,332.195862 
	C181.260498,330.784210 182.940079,329.710236 184.751099,328.948822 
	C197.558273,323.564087 210.347580,318.132019 223.235611,312.946289 
	C230.402222,310.062622 237.747696,307.623535 245.012573,304.984131 
	C245.303833,305.130463 245.549881,305.331940 245.890381,306.193970 
	C247.973282,315.339355 248.426468,315.654022 254.869217,316.029175 
	C270.745575,316.953644 286.619202,317.944519 302.480591,319.093140 
	C307.072632,319.425659 311.619385,320.383057 316.186920,321.053986 
z"/>
<path fill="#ECA84C" opacity="1.000000" stroke="none" 
	d="
M250.005997,236.985123 
	C247.072952,233.009232 247.705872,231.343185 252.870895,230.032928 
	C266.154388,226.663177 279.460327,223.382187 292.747894,220.028427 
	C294.663300,219.544983 296.526764,218.855881 298.761017,218.106720 
	C309.336914,224.073914 319.566071,230.196335 329.612183,236.793091 
	C327.718994,237.887421 326.045776,238.649628 324.292877,239.105087 
	C309.002808,243.077927 293.683289,246.938980 278.417145,251.000900 
	C276.471588,251.518570 274.782532,253.000198 272.633911,253.973480 
	C268.866577,251.603226 265.439941,249.294739 261.847290,246.694916 
	C257.789520,243.264099 253.897766,240.124603 250.005997,236.985123 
z"/>
<path fill="#EFB34A" opacity="1.000000" stroke="none" 
	d="
M272.974640,254.035248 
	C274.782532,253.000198 276.471588,251.518570 278.417145,251.000900 
	C293.683289,246.938980 309.002808,243.077927 324.292877,239.105087 
	C326.045776,238.649628 327.718994,237.887421 329.768860,237.109390 
	C336.527435,241.923172 342.946259,246.895004 349.736755,252.342270 
	C351.721619,254.884537 353.334839,256.951355 354.503448,259.012085 
	C350.616028,259.351410 347.083496,259.318085 343.746155,260.108673 
	C330.212677,263.314575 316.712433,266.672272 303.266785,270.227112 
	C300.667419,270.914368 298.368347,272.737427 295.644531,273.872345 
	C292.919647,271.797607 290.480927,269.887085 287.873596,267.686584 
	C283.815369,264.259796 279.925720,261.122955 275.884216,257.710876 
	C274.813080,256.302155 273.893860,255.168701 272.974640,254.035248 
z"/>
<path fill="#E2844D" opacity="1.000000" stroke="none" 
	d="
M288.042206,267.976562 
	C290.480927,269.887085 292.919647,271.797607 295.672394,274.192993 
	C296.011505,275.107117 296.036560,275.536407 295.684540,276.133545 
	C290.903778,276.201172 286.496399,276.182922 282.097351,275.981720 
	C275.172150,275.664948 268.239868,275.378387 261.333282,274.805298 
	C247.213989,273.633636 233.109802,272.279907 218.999390,271.001190 
	C217.522308,270.103729 216.045242,269.206299 214.118469,267.856720 
	C208.304382,261.649384 205.429855,260.878662 198.354736,263.749390 
	C180.400085,271.034454 162.446121,278.323792 144.572144,285.803253 
	C139.777527,287.809601 135.270737,290.503754 130.631805,292.882172 
	C128.480667,289.817474 126.329529,286.752747 124.359100,283.218262 
	C135.326065,278.125458 146.160797,273.611145 156.877609,268.832397 
	C162.031601,266.534210 166.963058,263.736877 171.995285,261.165558 
	C177.294098,260.452942 182.700562,260.155518 187.838638,258.823059 
	C189.890396,258.290955 191.349777,255.474594 193.563171,253.770599 
	C198.263931,256.008118 202.374512,258.425323 206.732208,260.253448 
	C209.880676,261.574341 213.312531,262.592743 216.696335,262.909698 
	C226.917038,263.867096 237.176300,264.411285 247.419861,265.126373 
	C260.960968,266.071594 274.501465,267.026062 288.042206,267.976562 
z"/>
<path fill="#FFAA00" opacity="1.000000" stroke="none" 
	d="
M240.037872,407.000000 
	C243.858719,407.000092 247.190964,406.956329 250.521591,407.010284 
	C255.792953,407.095734 257.975616,409.127533 257.999969,413.865265 
	C258.029785,419.664948 256.058289,421.893616 250.657700,421.985443 
	C246.494507,422.056244 242.329056,421.981842 238.164764,422.003937 
	C231.721146,422.038177 229.012360,424.800873 229.004440,431.384827 
	C228.988602,444.544342 228.954712,457.704071 229.026642,470.863190 
	C229.048630,474.886292 227.067886,478.030914 223.516861,478.508789 
	C220.923828,478.857758 217.862534,477.011475 215.301437,475.610840 
	C214.416031,475.126648 214.061172,473.038666 214.053604,471.679993 
	C213.969223,456.522064 213.895660,441.362457 214.039536,426.205414 
	C214.126663,417.026459 223.889389,407.344940 233.052429,407.012024 
	C235.215088,406.933411 237.383011,407.000122 240.037872,407.000000 
z"/>
<path fill="#F9D951" opacity="1.000000" stroke="none" 
	d="
M368.908386,100.570686 
	C364.491852,101.205978 359.910950,102.003716 355.389465,101.748398 
	C343.496216,101.076843 331.629303,99.941811 319.751099,99.001312 
	C303.251801,97.694939 286.755768,96.344444 270.250702,95.115364 
	C259.514343,94.315872 248.753006,93.839157 238.023315,92.966385 
	C222.695129,91.719543 207.385651,90.242599 191.605774,88.718369 
	C191.143341,88.572815 191.345245,88.162125 191.798340,88.000999 
	C192.498276,87.614937 192.745132,87.389999 192.991989,87.165062 
	C196.403778,85.107597 199.815567,83.050125 203.862473,81.216492 
	C211.687134,82.293526 218.858963,83.365669 226.070343,83.949051 
	C237.127121,84.843506 248.220490,85.279839 259.281311,86.131699 
	C274.620026,87.313004 289.939423,88.743591 305.273834,89.983940 
	C318.137634,91.024445 331.002441,92.096428 343.885315,92.829903 
	C347.907715,93.058914 351.990326,92.230896 356.045380,91.886749 
	C360.287292,94.675568 364.529175,97.464378 368.908386,100.570686 
z"/>
<path fill="#F2BD48" opacity="1.000000" stroke="none" 
	d="
M155.090790,141.405304 
	C166.837601,141.996048 178.511276,142.958542 190.176743,144.011871 
	C200.525803,144.946335 210.865738,145.981720 221.458984,147.283997 
	C219.114655,151.033844 216.521042,154.472260 213.681458,158.140106 
	C212.281708,160.577835 211.127930,162.786118 209.511353,164.995880 
	C205.727234,164.975876 202.389801,165.158707 199.087357,164.898102 
	C183.442322,163.663513 167.806824,162.307861 152.167938,160.995331 
	C153.116653,154.602402 154.065369,148.209488 155.090790,141.405304 
z"/>
<path fill="#DB6647" opacity="1.000000" stroke="none" 
	d="
M244.997910,304.609985 
	C237.747696,307.623535 230.402222,310.062622 223.235611,312.946289 
	C210.347580,318.132019 197.558273,323.564087 184.751099,328.948822 
	C182.940079,329.710236 181.260498,330.784210 179.208282,331.882812 
	C174.011841,329.281830 169.127197,326.511505 164.100769,323.427734 
	C168.914047,320.615753 173.740723,317.810272 178.847382,315.674133 
	C196.719070,308.198303 214.768890,301.143097 232.563202,293.491211 
	C237.171585,291.509552 239.728485,292.338745 241.679535,296.518524 
	C242.862488,299.052826 243.887344,301.660919 244.997910,304.609985 
z"/>
<path fill="#F2BF48" opacity="1.000000" stroke="none" 
	d="
M291.632263,149.030334 
	C295.961060,149.595078 299.945251,150.569351 303.985291,150.948837 
	C315.982910,152.075836 328.002533,152.968628 340.423462,153.973801 
	C341.870728,160.706696 346.655609,164.015503 352.422119,165.902008 
	C357.601044,167.596268 363.030151,168.525909 368.974365,169.941849 
	C368.974365,171.239410 368.974365,173.173569 368.475708,175.552460 
	C361.475769,175.375000 354.984192,174.481918 348.468964,174.247894 
	C345.334534,174.135315 342.155426,175.266144 338.996552,175.833908 
	C321.318878,166.584854 301.997559,163.482513 282.340454,160.665009 
	C285.361938,156.793457 288.337555,152.980728 291.632263,149.030334 
z"/>
<path fill="#EFB54A" opacity="1.000000" stroke="none" 
	d="
M152.093155,161.452301 
	C167.806824,162.307861 183.442322,163.663513 199.087357,164.898102 
	C202.389801,165.158707 205.727234,164.975876 209.504730,165.399048 
	C209.343369,169.525101 208.725845,173.249466 208.083176,177.391907 
	C208.057159,179.206329 208.056274,180.602676 207.591644,181.999237 
	C189.140839,180.664810 171.153778,179.330154 153.166718,177.995514 
	C152.783920,172.633438 152.401154,167.271362 152.093155,161.452301 
z"/>
<path fill="#EDAC4B" opacity="1.000000" stroke="none" 
	d="
M153.093140,178.408356 
	C171.153778,179.330154 189.140839,180.664810 207.827728,182.282196 
	C209.687271,186.375504 210.846985,190.186096 212.042389,194.313599 
	C212.382904,195.422043 212.687729,196.213562 212.745834,197.274292 
	C206.493439,197.648392 200.467926,198.113297 194.486221,197.783432 
	C181.940292,197.091629 169.417404,195.981766 156.885056,195.043549 
	C155.596573,189.636108 154.308075,184.228653 153.093140,178.408356 
z"/>
<path fill="#FCE55A" opacity="1.000000" stroke="none" 
	d="
M330.123413,69.958435 
	C333.342133,73.390984 336.560852,76.823524 339.611938,80.845993 
	C332.699097,81.227905 325.937042,81.252121 319.212036,80.765060 
	C303.706696,79.642105 288.225708,78.185257 272.722534,77.029083 
	C261.496796,76.191887 250.242676,75.731766 239.019119,74.870338 
	C234.970505,74.559593 230.974060,73.569382 226.953796,72.889236 
	C231.466248,71.926414 235.936874,70.614510 240.499191,70.067863 
	C252.931732,68.578209 265.364960,68.659203 277.736755,70.950737 
	C279.283691,71.237259 280.929565,70.989868 283.326202,70.989868 
	C282.227997,69.810760 281.714722,69.259697 281.567841,68.336243 
	C289.330536,67.962029 296.726868,67.960197 304.123199,67.958366 
	C306.042542,69.094322 307.953552,70.245964 309.919647,71.294228 
	C309.981812,71.327377 310.611511,70.295975 311.362549,69.397453 
	C317.873444,69.342186 323.998444,69.650314 330.123413,69.958435 
z"/>
<path fill="#E69550" opacity="1.000000" stroke="none" 
	d="
M212.992554,197.005066 
	C212.687729,196.213562 212.382904,195.422043 212.461700,194.314331 
	C225.507690,191.001328 238.170059,188.004517 250.832443,185.007690 
	C256.595123,190.018616 262.357819,195.029526 268.420471,200.214798 
	C265.638702,201.565582 262.631165,203.020309 259.461151,203.865967 
	C250.148346,206.350418 240.741547,208.483261 231.433624,210.984833 
	C227.779633,211.966873 224.579224,211.780426 221.149445,208.875763 
	C218.114502,204.607681 215.553528,200.806381 212.992554,197.005066 
z"/>
<path fill="#E48A4E" opacity="1.000000" stroke="none" 
	d="
M171.641129,260.985107 
	C166.963058,263.736877 162.031601,266.534210 156.877609,268.832397 
	C146.160797,273.611145 135.326065,278.125458 124.215210,282.898499 
	C120.589996,277.622589 117.289368,272.196655 114.310524,266.344971 
	C125.994949,261.098816 137.357590,256.278473 148.720230,251.458115 
	C156.242477,254.573624 163.764725,257.689117 171.641129,260.985107 
z"/>
<path fill="#FADD54" opacity="1.000000" stroke="none" 
	d="
M355.909668,91.569176 
	C351.990326,92.230896 347.907715,93.058914 343.885315,92.829903 
	C331.002441,92.096428 318.137634,91.024445 305.273834,89.983940 
	C289.939423,88.743591 274.620026,87.313004 259.281311,86.131699 
	C248.220490,85.279839 237.127121,84.843506 226.070343,83.949051 
	C218.858963,83.365669 211.687134,82.293526 204.224487,81.165726 
	C207.628113,79.276978 211.304825,77.662834 215.629425,76.488754 
	C219.006760,77.329636 221.723724,77.885216 224.467651,78.105904 
	C241.135147,79.446388 257.806641,80.738907 274.481140,81.989853 
	C284.888733,82.770645 295.306854,83.410797 305.714935,84.185608 
	C317.766022,85.082741 329.807343,86.117195 341.863647,86.932816 
	C343.559387,87.047539 345.316254,86.258476 347.044830,85.887756 
	C349.954559,87.675697 352.864258,89.463654 355.909668,91.569176 
z"/>
<path fill="#E07A4B" opacity="1.000000" stroke="none" 
	d="
M213.927429,157.910675 
	C216.521042,154.472260 219.114655,151.033844 221.880585,147.309250 
	C238.231216,134.511780 256.725647,131.457397 276.469757,133.940781 
	C283.161255,134.782455 289.777771,136.220612 296.741913,137.603058 
	C287.899567,138.466995 278.695435,138.728409 269.601593,139.868790 
	C260.385345,141.024490 252.735916,145.609558 245.993866,152.899521 
	C236.704468,154.980789 228.171051,157.058731 219.569489,158.800003 
	C217.820480,159.154068 215.814804,158.240097 213.927429,157.910675 
z"/>
<path fill="#E58F4F" opacity="1.000000" stroke="none" 
	d="
M272.633911,253.973480 
	C273.893860,255.168701 274.813080,256.302155 275.423157,257.715271 
	C263.255371,257.285797 251.373566,256.840118 239.543823,255.801620 
	C224.302902,254.463638 209.103668,252.650787 193.886475,251.042480 
	C190.975998,248.247314 188.065506,245.452148 185.464844,242.338654 
	C194.316376,242.680206 202.859421,243.322952 211.399399,244.004120 
	C223.057816,244.934052 234.706421,246.004364 246.374390,246.789047 
	C251.568283,247.138336 256.799194,246.937424 262.013306,246.986252 
	C265.439941,249.294739 268.866577,251.603226 272.633911,253.973480 
z"/>
<path fill="#E48A4E" opacity="1.000000" stroke="none" 
	d="
M193.933014,251.312347 
	C209.103668,252.650787 224.302902,254.463638 239.543823,255.801620 
	C251.373566,256.840118 263.255371,257.285797 275.575073,257.990570 
	C279.925720,261.122955 283.815369,264.259796 287.873596,267.686584 
	C274.501465,267.026062 260.960968,266.071594 247.419861,265.126373 
	C237.176300,264.411285 226.917038,263.867096 216.696335,262.909698 
	C213.312531,262.592743 209.880676,261.574341 206.732208,260.253448 
	C202.374512,258.425323 198.263931,256.008118 193.814514,253.489700 
	C193.714172,252.618225 193.846848,252.100220 193.933014,251.312347 
z"/>
<path fill="#E69550" opacity="1.000000" stroke="none" 
	d="
M148.436676,251.260010 
	C137.357590,256.278473 125.994949,261.098816 114.256798,265.980652 
	C110.931847,259.281219 107.982414,252.520340 105.472504,245.362671 
	C114.290665,241.272980 122.669312,237.580063 131.047958,233.887146 
	C136.749680,239.612061 142.451416,245.336990 148.436676,251.260010 
z"/>
<path fill="#EBA54D" opacity="1.000000" stroke="none" 
	d="
M212.745834,197.274292 
	C215.553528,200.806381 218.114502,204.607681 220.840790,208.701843 
	C219.398560,209.938004 217.741989,211.769836 216.191238,211.684280 
	C203.665909,210.993210 191.161972,209.921432 178.648285,209.009811 
	C173.376266,208.625763 168.096512,208.347504 162.350204,208.031219 
	C160.247421,203.968597 158.614700,199.895889 156.933517,195.433365 
	C169.417404,195.981766 181.940292,197.091629 194.486221,197.783432 
	C200.467926,198.113297 206.493439,197.648392 212.745834,197.274292 
z"/>
<path fill="#E69550" opacity="1.000000" stroke="none" 
	d="
M261.847290,246.694916 
	C256.799194,246.937424 251.568283,247.138336 246.374390,246.789047 
	C234.706421,246.004364 223.057816,244.934052 211.399399,244.004120 
	C202.859421,243.322952 194.316376,242.680206 185.328186,242.030121 
	C182.573074,239.492706 180.264481,236.945480 177.787506,234.136002 
	C179.046799,233.252335 180.515289,232.015793 181.895691,232.107330 
	C192.439362,232.806641 202.966156,233.761490 213.497574,234.644135 
	C218.104904,235.030273 222.708435,235.463989 227.317886,235.821945 
	C234.695969,236.394897 242.077560,236.922760 249.731827,237.227402 
	C253.897766,240.124603 257.789520,243.264099 261.847290,246.694916 
z"/>
<path fill="#E48A4E" opacity="1.000000" stroke="none" 
	d="
M250.806122,184.665131 
	C238.170059,188.004517 225.507690,191.001328 212.425995,193.997406 
	C210.846985,190.186096 209.687271,186.375504 208.291473,182.281982 
	C208.056274,180.602676 208.057159,179.206329 208.481079,177.395538 
	C220.214066,174.322525 231.523987,171.663940 242.833923,169.005371 
	C245.482544,174.111115 248.131165,179.216843 250.806122,184.665131 
z"/>
<path fill="#E1804C" opacity="1.000000" stroke="none" 
	d="
M130.795532,293.140533 
	C135.270737,290.503754 139.777527,287.809601 144.572144,285.803253 
	C162.446121,278.323792 180.400085,271.034454 198.354736,263.749390 
	C205.429855,260.878662 208.304382,261.649384 213.834473,267.701691 
	C204.721008,267.555023 197.276688,272.975555 189.177551,276.077209 
	C173.680237,282.012054 158.459167,288.673126 143.175583,295.155731 
	C140.950882,296.099365 139.013824,297.721130 136.692978,299.364777 
	C134.614609,297.599945 132.786926,295.499420 130.795532,293.140533 
z"/>
<path fill="#EFB54A" opacity="1.000000" stroke="none" 
	d="
M339.313629,175.982574 
	C342.155426,175.266144 345.334534,174.135315 348.468964,174.247894 
	C354.984192,174.481918 361.475769,175.375000 368.405212,175.995987 
	C371.437775,182.993698 372.659668,183.370789 383.697601,180.582077 
	C382.507812,188.518234 367.381927,199.773773 351.512939,200.630402 
	C351.037903,195.839645 351.742188,190.551331 349.781158,186.578766 
	C347.735901,182.435669 343.121735,179.560654 339.313629,175.982574 
z"/>
<path fill="#FBE157" opacity="1.000000" stroke="none" 
	d="
M346.912354,85.572517 
	C345.316254,86.258476 343.559387,87.047539 341.863647,86.932816 
	C329.807343,86.117195 317.766022,85.082741 305.714935,84.185608 
	C295.306854,83.410797 284.888733,82.770645 274.481140,81.989853 
	C257.806641,80.738907 241.135147,79.446388 224.467651,78.105904 
	C221.723724,77.885216 219.006760,77.329636 216.044708,76.547470 
	C219.259171,75.106079 222.706223,74.046051 226.553543,72.937630 
	C230.974060,73.569382 234.970505,74.559593 239.019119,74.870338 
	C250.242676,75.731766 261.496796,76.191887 272.722534,77.029083 
	C288.225708,78.185257 303.706696,79.642105 319.212036,80.765060 
	C325.937042,81.252121 332.699097,81.227905 339.747101,81.164864 
	C342.293213,82.348297 344.536530,83.802788 346.912354,85.572517 
z"/>
<path fill="#FFF262" opacity="1.000000" stroke="none" 
	d="
M329.978058,69.634399 
	C323.998444,69.650314 317.873444,69.342186 311.313782,69.040710 
	C308.918549,59.476646 306.084503,49.983402 305.226929,40.314854 
	C304.239105,29.178118 304.997467,17.886499 304.997467,7.281625 
	C309.376404,28.911255 316.410217,50.419189 329.978058,69.634399 
z"/>
<path fill="#FFF262" opacity="1.000000" stroke="none" 
	d="
M303.980286,67.638733 
	C296.726868,67.960197 289.330536,67.962029 281.547913,67.979431 
	C271.216980,52.757961 263.766083,36.396839 258.998993,18.826128 
	C258.682159,17.658279 258.371002,16.488894 258.550873,15.002144 
	C270.326691,35.407104 284.388977,53.711197 303.980286,67.638733 
z"/>
<path fill="#E1804C" opacity="1.000000" stroke="none" 
	d="
M242.906540,168.561005 
	C231.523987,171.663940 220.214066,174.322525 208.506226,176.977478 
	C208.725845,173.249466 209.343369,169.525101 209.967529,165.397568 
	C211.127930,162.786118 212.281708,160.577835 213.681458,158.140106 
	C215.814804,158.240097 217.820480,159.154068 219.569489,158.800003 
	C228.171051,157.058731 236.704468,154.980789 245.689514,153.031372 
	C245.071091,158.066238 244.025131,163.091446 242.906540,168.561005 
z"/>
<path fill="#E99D4E" opacity="1.000000" stroke="none" 
	d="
M130.902374,233.565704 
	C122.669312,237.580063 114.290665,241.272980 105.538025,244.980942 
	C103.455467,239.261856 101.746902,233.527725 100.458252,227.331482 
	C108.196899,223.911987 115.515625,220.954605 122.834343,217.997223 
	C125.475166,223.079559 128.115982,228.161926 130.902374,233.565704 
z"/>
<path fill="#EBA54D" opacity="1.000000" stroke="none" 
	d="
M122.896591,217.613190 
	C115.515625,220.954605 108.196899,223.911987 100.521904,226.932831 
	C99.437584,220.981354 98.709534,214.966446 98.260773,208.349762 
	C104.730965,204.816940 110.921867,201.885880 117.112778,198.954819 
	C119.061462,205.046265 121.010155,211.137726 122.896591,217.613190 
z"/>
<path fill="#EDAC4B" opacity="1.000000" stroke="none" 
	d="
M117.062485,198.519836 
	C110.921867,201.885880 104.730965,204.816940 98.215515,207.897858 
	C97.924019,199.977646 97.957077,191.907562 98.462784,183.415359 
	C104.235306,181.328018 109.535179,179.662811 114.835052,177.997604 
	C115.560768,184.693359 116.286476,191.389114 117.062485,198.519836 
z"/>
<path fill="#F2BF48" opacity="1.000000" stroke="none" 
	d="
M379.933319,157.462097 
	C395.368866,157.933670 410.852051,158.823227 426.720734,159.881500 
	C422.798096,170.867859 414.542267,177.265045 403.936462,181.215576 
	C405.353241,177.044220 407.096771,173.232864 407.909149,169.232407 
	C409.409302,161.845184 402.577850,158.242645 396.111359,160.474106 
	C391.142334,162.188797 386.379242,164.500214 381.378632,166.607773 
	C380.938232,163.857742 380.459595,160.868912 379.933319,157.462097 
z"/>
<path fill="#F5C747" opacity="1.000000" stroke="none" 
	d="
M112.166954,129.996841 
	C123.830528,105.140381 141.044800,85.115303 163.542755,69.689186 
	C163.939117,70.075447 164.335480,70.461708 164.731842,70.847961 
	C162.600632,72.652618 160.334167,74.321198 158.359711,76.283585 
	C143.429688,91.122383 130.574371,107.375206 123.030861,127.856415 
	C118.920784,128.683319 115.543869,129.340073 112.166954,129.996841 
z"/>
<path fill="#EFB54A" opacity="1.000000" stroke="none" 
	d="
M114.905426,177.535034 
	C109.535179,179.662811 104.235306,181.328018 98.549965,182.995178 
	C99.375389,174.903931 100.586281,166.810760 102.352203,158.342316 
	C107.310921,156.658447 111.714607,155.349838 116.118286,154.041229 
	C115.737465,161.718307 115.356636,169.395386 114.905426,177.535034 
z"/>
<path fill="#F2BF48" opacity="1.000000" stroke="none" 
	d="
M116.464012,153.828339 
	C111.714607,155.349838 107.310921,156.658447 102.536217,157.981644 
	C105.392860,148.884323 108.620522,139.772415 112.007568,130.328674 
	C115.543869,129.340073 118.920784,128.683319 122.704369,128.034424 
	C121.010605,136.566681 118.910172,145.091064 116.464012,153.828339 
z"/>
<path fill="#E69550" opacity="1.000000" stroke="none" 
	d="
M354.948090,259.018188 
	C353.334839,256.951355 351.721619,254.884537 350.047913,252.493057 
	C352.355011,251.776138 354.722626,251.383881 357.821655,251.123352 
	C362.917023,253.183838 367.342194,254.986603 371.629730,257.072357 
	C377.318512,259.839783 382.899750,262.828125 388.527222,265.721558 
	C387.571228,267.742828 386.615265,269.764099 385.125916,271.673401 
	C382.043579,270.367615 379.554810,269.017029 376.933655,268.011353 
	C370.622833,265.590027 364.250031,263.330200 357.632935,260.878235 
	C356.558441,260.173523 355.753265,259.595856 354.948090,259.018188 
z"/>
<path fill="#EBA54D" opacity="1.000000" stroke="none" 
	d="
M388.731079,265.425964 
	C382.899750,262.828125 377.318512,259.839783 371.629730,257.072357 
	C367.342194,254.986603 362.917023,253.183838 358.226227,251.103729 
	C361.998199,249.300751 366.097076,247.649155 370.749908,246.251221 
	C373.413361,247.682251 375.484222,248.936401 377.640198,250.021332 
	C382.419067,252.426132 387.240662,254.745972 392.044830,257.100464 
	C391.008209,259.777100 389.971558,262.453735 388.731079,265.425964 
z"/>
<path fill="#E2844D" opacity="1.000000" stroke="none" 
	d="
M357.902222,261.005280 
	C364.250031,263.330200 370.622833,265.590027 376.933655,268.011353 
	C379.554810,269.017029 382.043579,270.367615 384.818665,271.835693 
	C383.919464,274.012726 382.794159,275.915466 381.134674,277.688904 
	C377.797302,276.238373 375.079834,274.660126 372.160675,273.686951 
	C370.234100,273.044708 368.017548,273.272369 365.652924,272.913818 
	C362.884094,268.813141 360.393158,264.909210 357.902222,261.005280 
z"/>
<path fill="#EFB34A" opacity="1.000000" stroke="none" 
	d="
M392.375122,256.920654 
	C387.240662,254.745972 382.419067,252.426132 377.640198,250.021332 
	C375.484222,248.936401 373.413361,247.682251 371.129028,246.199722 
	C373.383057,244.260986 375.811951,242.627426 378.817566,241.213867 
	C384.873291,243.678162 390.352356,245.922424 395.831390,248.166687 
	C394.789398,251.024734 393.747406,253.882797 392.375122,256.920654 
z"/>
<path fill="#F5C947" opacity="1.000000" stroke="none" 
	d="
M400.833801,229.994339 
	C400.150574,233.545853 399.467346,237.097366 398.044312,240.833481 
	C393.186951,239.309799 389.069427,237.601517 384.951874,235.893250 
	C387.388275,233.000031 389.824707,230.106796 392.930939,227.143036 
	C396.011780,228.046448 398.422791,229.020401 400.833801,229.994339 
z"/>
<path fill="#F2BD48" opacity="1.000000" stroke="none" 
	d="
M384.641022,236.023865 
	C389.069427,237.601517 393.186951,239.309799 397.706696,241.030457 
	C397.419128,243.203293 396.729340,245.363770 395.935486,247.845459 
	C390.352356,245.922424 384.873291,243.678162 379.173401,241.164444 
	C380.745056,239.314819 382.537628,237.734634 384.641022,236.023865 
z"/>
<path fill="#E07A4B" opacity="1.000000" stroke="none" 
	d="
M365.930817,273.110535 
	C368.017548,273.272369 370.234100,273.044708 372.160675,273.686951 
	C375.079834,274.660126 377.797302,276.238373 380.824524,277.831482 
	C379.939911,279.988586 378.831177,281.873779 377.043945,283.837982 
	C373.954926,283.290131 371.544403,282.663330 369.133881,282.036499 
	C368.813721,281.227783 368.493530,280.419098 367.936584,278.981750 
	C367.110138,276.605591 366.520477,274.858063 365.930817,273.110535 
z"/>
<path fill="#FFF262" opacity="1.000000" stroke="none" 
	d="
M398.947784,215.891251 
	C400.770874,209.516510 402.593964,203.141754 404.417023,196.767014 
	C404.658020,196.777298 404.899017,196.787582 405.140015,196.797882 
	C404.708252,203.398575 404.276489,209.999283 403.102753,216.813553 
	C401.223114,216.648499 400.085449,216.269867 398.947784,215.891251 
z"/>
<path fill="#F7D24C" opacity="1.000000" stroke="none" 
	d="
M401.004089,229.645309 
	C398.422791,229.020401 396.011780,228.046448 393.242676,227.016006 
	C394.024231,224.705109 395.163879,222.450684 396.790588,220.339142 
	C398.866455,221.692078 400.455170,222.902130 402.043884,224.112183 
	C401.754059,225.840210 401.464233,227.568237 401.004089,229.645309 
z"/>
<path fill="#DB6647" opacity="1.000000" stroke="none" 
	d="
M369.114502,282.435852 
	C371.544403,282.663330 373.954926,283.290131 376.737854,283.980377 
	C375.305115,286.618561 373.499939,289.193329 371.394836,291.919495 
	C370.428314,288.992340 369.761719,285.913788 369.114502,282.435852 
z"/>
<path fill="#FBE157" opacity="1.000000" stroke="none" 
	d="
M402.401611,223.904846 
	C400.455170,222.902130 398.866455,221.692078 397.111145,220.186905 
	C397.403534,218.651550 397.862518,217.411331 398.634644,216.031174 
	C400.085449,216.269867 401.223114,216.648499 402.739349,217.039566 
	C402.998383,219.267181 402.878845,221.482346 402.401611,223.904846 
z"/>
<path fill="#F5C747" opacity="1.000000" stroke="none" 
	d="
M167.110336,67.462357 
	C166.883652,68.278679 166.355377,69.339607 165.827103,70.400543 
	C165.385834,70.015488 164.944580,69.630432 164.503311,69.245377 
	C165.271790,68.732574 166.040268,68.219772 167.110336,67.462357 
z"/>
<path fill="#E69550" opacity="1.000000" stroke="none" 
	d="
M176.161041,232.290924 
	C176.452576,232.206726 176.675430,232.449722 176.948624,232.969696 
	C176.749222,232.989029 176.447037,232.779526 176.161041,232.290924 
z"/>
<path fill="#F7D24C" opacity="1.000000" stroke="none" 
	d="
M192.707199,87.137909 
	C192.745132,87.389999 192.498276,87.614937 192.018997,87.940460 
	C191.998520,87.730942 192.210464,87.420845 192.707199,87.137909 
z"/>
<path fill="#000000" opacity="1.000000" stroke="none" 
	d="
M357.979095,117.311691 
	C356.596436,115.147377 355.360870,113.297272 354.125305,111.447166 
	C354.290863,111.163979 354.456421,110.880783 354.622009,110.597595 
	C359.407959,113.136932 364.193909,115.676277 368.932617,118.587280 
	C366.382965,119.819458 363.880493,120.679970 361.216309,121.596107 
	C360.259338,120.366615 359.192749,118.996254 357.979095,117.311691 
z"/>
<path fill="#000000" opacity="1.000000" stroke="none" 
	d="
M378.929749,422.000000 
	C382.307953,422.338379 385.347717,422.247253 388.075623,423.125153 
	C391.396332,424.193848 393.100769,426.825012 393.039429,430.594727 
	C392.909515,438.578308 393.048401,446.565887 392.983154,454.551056 
	C392.937531,460.133301 390.027405,462.983032 384.555115,462.997375 
	C379.896820,463.009583 375.238464,463.007416 370.580170,462.997925 
	C365.055939,462.986633 362.070343,460.165863 362.019440,454.686218 
	C361.945251,446.701233 361.972656,438.714905 362.010437,430.729401 
	C362.033722,425.803619 365.402863,422.310120 370.468781,422.027893 
	C373.122498,421.880035 375.791138,422.000610 378.929749,422.000000 
z"/>
<path fill="#F2BD48" opacity="1.000000" stroke="none" 
	d="
M365.652924,272.913818 
	C366.520477,274.858063 367.110138,276.605591 367.793945,278.686829 
	C356.002441,281.821991 344.094116,284.531616 332.240112,287.461090 
	C325.678040,289.082825 319.206909,291.072510 312.318359,292.957092 
	C311.941986,293.017883 311.507263,292.992737 311.290588,292.979065 
	C308.929077,290.074310 306.784271,287.183258 304.179077,283.846008 
	C301.166382,280.921783 298.614014,278.443726 296.061646,275.965668 
	C296.036560,275.536407 296.011505,275.107117 295.958618,274.357178 
	C298.368347,272.737427 300.667419,270.914368 303.266785,270.227112 
	C316.712433,266.672272 330.212677,263.314575 343.746155,260.108673 
	C347.083496,259.318085 350.616028,259.351410 354.503448,259.012085 
	C355.753265,259.595856 356.558441,260.173523 357.632935,260.878235 
	C360.393158,264.909210 362.884094,268.813141 365.652924,272.913818 
z"/>
<path fill="#DB6647" opacity="1.000000" stroke="none" 
	d="
M316.412842,320.744476 
	C311.619385,320.383057 307.072632,319.425659 302.480591,319.093140 
	C286.619202,317.944519 270.745575,316.953644 254.869217,316.029175 
	C248.426468,315.654022 247.973282,315.339355 246.016220,306.398438 
	C264.357422,307.338074 282.711517,308.691071 301.067963,310.011261 
	C306.361725,310.391998 311.662262,310.678375 317.412750,311.015015 
	C317.456818,314.159607 317.047791,317.297302 316.412842,320.744476 
z"/>
<path fill="#E1804C" opacity="1.000000" stroke="none" 
	d="
M295.684540,276.133545 
	C298.614014,278.443726 301.166382,280.921783 303.883575,283.688721 
	C289.491150,283.024292 274.931793,282.100891 260.377319,281.106720 
	C251.282349,280.485474 242.203827,279.546875 233.100510,279.151978 
	C227.094757,278.891418 222.904190,275.947876 219.161926,271.294037 
	C233.109802,272.279907 247.213989,273.633636 261.333282,274.805298 
	C268.239868,275.378387 275.172150,275.664948 282.097351,275.981720 
	C286.496399,276.182922 290.903778,276.201172 295.684540,276.133545 
z"/>
</svg>