<svg width="133" height="24" viewBox="0 0 133 24" fill="none" xmlns="http://www.w3.org/2000/svg">
<g clip-path="url(#clip0_2694_492)">
<g clip-path="url(#clip1_2694_492)">
<path fill-rule="evenodd" clip-rule="evenodd" d="M31.9185 10.7404H30.8281L35.0819 1.88525H35.7109L39.9647 10.7404H38.8723L35.3985 3.50112L31.9185 10.7404ZM47.6042 9.40801V1.88525H48.5911V10.7404H47.4738L41.1966 3.80939V7.07422L40.2097 8.06939V1.88525H40.7911L47.6042 9.40801ZM49.7366 2.8825V1.88525H58.1263V2.8825H54.4249V9.74319L53.438 10.7404V2.8825H49.7366ZM57.6951 10.7404H56.6027L60.8585 1.88525H61.4854L65.7392 10.7404H64.6468L61.173 3.50112L57.6951 10.7404ZM66.8304 1.88525L67.8173 2.8825V9.74319H72.0111L72.9959 10.7384V10.7404H66.8304V1.88525ZM73.9342 10.7404V1.88525H77.3397C78.819 1.88525 80.0252 3.09353 80.0356 4.59146C80.0167 6.08112 78.817 7.28319 77.3397 7.28319H76.6756L75.6947 6.29215H77.3397C78.2749 6.29215 79.0321 5.5287 79.0321 4.58319C79.0321 3.63767 78.2749 2.87215 77.3397 2.87215H74.9211V10.7404H73.9342ZM81.1553 1.88525H81.1574L82.1422 2.8825V5.80181H87.2256V1.88525L88.2146 2.8825V10.7218L87.2256 9.72457V6.80112H82.1422V10.759L81.1553 9.76181V1.88525ZM89.1881 10.7404L93.4418 1.88525H94.0708L98.3246 10.7404H97.2343L93.7563 3.50112L90.2784 10.7404H89.1881Z" fill="#01011A"/>
</g>
<path fill-rule="evenodd" clip-rule="evenodd" d="M31.815 14.8593L30.8281 13.8621V22.7172H36.9957V22.7152L36.0088 21.72H31.815V14.8593Z" fill="#01011A"/>
<path fill-rule="evenodd" clip-rule="evenodd" d="M37.8809 22.7172H38.9629L42.4119 15.48L45.8588 22.7172H46.9388L42.7202 13.8621H42.0974L37.8809 22.7172Z" fill="#01011A"/>
<path fill-rule="evenodd" clip-rule="evenodd" d="M57.7477 18.5479C58.1511 18.6286 58.538 18.7507 58.9084 18.9245C59.1608 19.0362 59.3718 19.2141 59.5311 19.45C59.676 19.7252 59.7339 20.0273 59.7091 20.3252C59.6449 21.1197 58.9704 21.6928 58.1842 21.759C58.1325 21.7652 58.0767 21.7673 58.0249 21.7673C57.9877 21.7673 57.9442 21.7673 57.9132 21.761C57.8822 21.7673 57.8573 21.7673 57.8284 21.7673C57.396 21.7673 56.9718 21.641 56.6035 21.4135C56.2767 21.19 56.0284 20.8673 55.8918 20.4948L55.8649 20.4224L55.0332 20.83L55.056 20.8879C55.2339 21.4176 55.5918 21.8728 56.0532 22.1728C56.5808 22.4914 57.1849 22.659 57.7953 22.659C57.8325 22.659 57.8718 22.659 57.9111 22.6569H57.9629C58.4573 22.6569 58.9518 22.5452 59.3987 22.3341C59.8063 22.1438 60.1498 21.8438 60.3939 21.461C60.6339 21.0804 60.756 20.6397 60.7518 20.1824C60.7829 19.5783 60.5635 18.9783 60.1518 18.5417C59.7525 18.1466 59.0842 17.8466 58.1656 17.6479C57.7994 17.5776 57.4435 17.4638 57.098 17.3128C56.8725 17.2155 56.6822 17.0583 56.5311 16.8493C56.4318 16.6631 56.378 16.4583 56.3656 16.2555C56.3222 15.4838 56.9594 14.8693 57.7208 14.8073C57.7704 14.8052 57.8201 14.8031 57.8718 14.8031C57.9173 14.8031 57.9587 14.8052 58.0001 14.8073C58.8629 14.8073 59.4401 15.159 59.7173 15.8541L59.7463 15.9245L60.5739 15.5335L60.5511 15.4714C60.3898 15.0038 60.0711 14.6024 59.6553 14.3459C59.1794 14.0624 58.6373 13.9155 58.0849 13.9155C58.0539 13.9155 58.0187 13.9176 57.9815 13.9176H57.9091C57.4435 13.9176 56.9904 14.0148 56.5663 14.2052C56.1898 14.3769 55.867 14.6541 55.6456 15.0079C55.4284 15.3679 55.3187 15.7859 55.327 16.2141C55.3022 16.7707 55.5132 17.3148 55.9001 17.7079C56.2891 18.0824 56.9284 18.3721 57.7477 18.5479Z" fill="#01011A"/>
<path fill-rule="evenodd" clip-rule="evenodd" d="M53.6964 16.1503C53.7171 14.6503 52.4012 13.8621 50.8578 13.8621H48.1309V22.7172H51.7164C53.2847 22.7172 54.166 21.6083 54.2178 20.2634C54.2612 19.1421 53.5267 18.3828 52.666 18.06C53.3302 17.6172 53.6881 16.9717 53.6964 16.1503ZM49.0923 14.7608V21.818H51.6392C52.713 21.818 53.2302 21.0132 53.2323 20.1587C53.2323 19.0622 52.2516 18.5325 51.2854 18.5305C51.242 18.5325 50.3068 18.5077 50.3068 18.5077L49.4482 17.6056C49.4482 17.6056 51.242 17.6077 51.2833 17.6098C52.2102 17.5642 52.7213 16.9663 52.7337 16.1511C52.7523 15.1022 51.8461 14.7608 50.7827 14.7608H49.0923Z" fill="#01011A"/>
<g clip-path="url(#clip2_2694_492)">
<path fill-rule="evenodd" clip-rule="evenodd" d="M20.5188 24H3.4815C1.5588 24 0 22.4415 0 20.5188V3.4815C0 1.5588 1.5588 0 3.4815 0H20.5188C22.4415 0 24 1.5588 24 3.4815V20.5188C24 22.4415 22.4415 24 20.5188 24Z" fill="#2222FF"/>
<path fill-rule="evenodd" clip-rule="evenodd" d="M2.31641 12.4057L10.7563 16.5007V15.0805L4.40801 11.9998L10.7563 8.91971V7.49951L2.31641 11.5945V12.4057Z" fill="white"/>
<path fill-rule="evenodd" clip-rule="evenodd" d="M13.2441 7.49951V8.91971L19.5921 12.0001L13.2441 15.0808V16.501L21.6837 12.4057V11.5945L13.2441 7.49951Z" fill="white"/>
</g>
</g>
<defs>
<clipPath id="clip0_2694_492">
<rect width="132.621" height="24" fill="white"/>
</clipPath>
<clipPath id="clip1_2694_492">
<rect width="101.589" height="8.89655" fill="white" transform="translate(30.8281 1.86206)"/>
</clipPath>
<clipPath id="clip2_2694_492">
<rect width="24" height="24" fill="white"/>
</clipPath>
</defs>
</svg>
