<svg width="488" height="647" viewBox="0 0 488 647" fill="none" xmlns="http://www.w3.org/2000/svg">
<path d="M215.525 44.9969L59.5741 158.667L75.7277 214.444L272.007 225.395L256.098 172.926L129.538 167.188L230.406 92.3136L215.525 44.9969Z" fill="url(#paint0_linear_820_169)" stroke="url(#paint1_linear_820_169)" stroke-width="0.398633"/>
<path d="M215.975 43.6517L413.391 53.1767L430.01 108.683L272.076 225.373L255.961 171.395L359.384 98.7739L231.37 92.3471L215.975 43.6517Z" fill="url(#paint2_linear_820_169)" stroke="url(#paint3_linear_820_169)" stroke-width="0.398633"/>
<path d="M216.861 43.8561L60.1105 129.34L75.5783 191.36L272.719 224.665L256.94 172.503L134.386 148.006L231.127 91.4341L216.861 43.8561Z" fill="url(#paint4_linear_820_169)" stroke="url(#paint5_linear_820_169)" stroke-width="0.398633"/>
<path d="M216.255 43.9683L397.693 43.2253L416.338 104.694L272.095 225.075L256.39 171.721L345.629 96.1266L230.95 91.8722L216.255 43.9683Z" fill="url(#paint6_linear_820_169)" stroke="url(#paint7_linear_820_169)" stroke-width="0.398633"/>
<path d="M216.609 43.0923L372.93 34.6584L392.508 97.9805L272.393 225.093L256.129 171.106L328.537 91.7761L231.239 92.0398L216.609 43.0923Z" fill="url(#paint8_linear_820_169)" stroke="url(#paint9_linear_820_169)" stroke-width="0.398633"/>
<path d="M216.563 43.8377L336.257 22.6604L356.983 89.1965L272.515 225.55L256.129 171.106L304.95 85.9759L231.239 92.0397L216.563 43.8377Z" fill="url(#paint10_linear_820_169)" stroke="url(#paint11_linear_820_169)" stroke-width="0.398633"/>
<path d="M216.888 43.4089L82.6663 93.7693L97.9496 158.771L272.719 224.665L256.67 172.037L150.856 126.127L231.425 91.4526L216.888 43.4089Z" fill="url(#paint12_linear_820_169)" stroke="url(#paint13_linear_820_169)" stroke-width="0.398633"/>
<path d="M216.861 43.8561L107.354 69.7048L123.392 134.604L272.719 224.665L257.351 173.127L166.502 112.727L231.379 92.198L216.861 43.8561Z" fill="url(#paint14_linear_820_169)" stroke="url(#paint15_linear_820_169)" stroke-width="0.398633"/>
<path d="M216.115 43.81L147.831 39.5836L166.125 106.717L272.421 224.646L256.876 173.547L191.017 96.285L231.379 92.1981L216.115 43.81Z" fill="url(#paint16_linear_820_169)" stroke="url(#paint17_linear_820_169)" stroke-width="0.398633"/>
<path d="M216.87 43.7071L292.954 18.6333L313.179 88.4309L272.393 225.093L256.371 172.019L278.783 83.1591L231.249 91.8907L216.87 43.7071Z" fill="url(#paint18_linear_820_169)" stroke="url(#paint19_linear_820_169)" stroke-width="0.398633"/>
<path fill-rule="evenodd" clip-rule="evenodd" d="M272.418 225.263L258.089 75.662L237.508 11.0108L216.203 44.0654L182.309 26.6027L201.081 91.8022L272.418 225.263ZM212.417 87.7856L231.091 92.2589L246.431 78.6145L256.666 172.394L212.417 87.7856Z" fill="url(#paint20_linear_820_169)" stroke="url(#paint21_linear_820_169)" stroke-width="0.398633"/>
<line x1="216.437" y1="44.0589" x2="231.132" y2="91.9628" stroke="#DAE1FF" stroke-width="0.398633"/>
<line x1="256.17" y1="584.039" x2="272.547" y2="638.633" stroke="#DAE1FF" stroke-width="0.398633"/>
<path d="M70.32 67.5244V39.5244H76.8V62.2444H90.84V67.5244H70.32ZM100.46 50.8044H113.94V55.8444H100.46V50.8044ZM100.94 62.3244H116.18V67.5244H94.4997V39.5244H115.66V44.7244H100.94V62.3244ZM127.136 67.5244V44.8044H118.176V39.5244H142.576V44.8044H133.616V67.5244H127.136ZM145.649 50.8844L145.249 39.5244H150.569L150.129 50.8844H145.649ZM165.028 68.0044C162.788 68.0044 160.641 67.7111 158.588 67.1244C156.534 66.5111 154.881 65.7244 153.628 64.7644L155.828 59.8844C157.028 60.7377 158.441 61.4444 160.068 62.0044C161.721 62.5377 163.388 62.8044 165.068 62.8044C166.348 62.8044 167.374 62.6844 168.148 62.4444C168.948 62.1777 169.534 61.8177 169.908 61.3644C170.281 60.911 170.468 60.3911 170.468 59.8044C170.468 59.0577 170.174 58.471 169.588 58.0444C169.001 57.591 168.228 57.2311 167.268 56.9644C166.308 56.6711 165.241 56.4044 164.068 56.1644C162.921 55.8977 161.761 55.5777 160.588 55.2044C159.441 54.831 158.388 54.351 157.428 53.7644C156.468 53.1777 155.681 52.4044 155.068 51.4444C154.481 50.4844 154.188 49.2577 154.188 47.7644C154.188 46.1644 154.614 44.711 155.468 43.4044C156.348 42.071 157.654 41.0177 159.388 40.2444C161.148 39.4444 163.348 39.0444 165.988 39.0444C167.748 39.0444 169.481 39.2577 171.188 39.6844C172.894 40.0844 174.401 40.6977 175.708 41.5244L173.708 46.4444C172.401 45.6977 171.094 45.151 169.788 44.8044C168.481 44.431 167.201 44.2444 165.948 44.2444C164.694 44.2444 163.668 44.391 162.868 44.6844C162.068 44.9777 161.494 45.3644 161.148 45.8444C160.801 46.2977 160.628 46.831 160.628 47.4444C160.628 48.1644 160.921 48.751 161.508 49.2044C162.094 49.631 162.868 49.9777 163.828 50.2444C164.788 50.511 165.841 50.7777 166.988 51.0444C168.161 51.311 169.321 51.6177 170.468 51.9644C171.641 52.311 172.708 52.7777 173.668 53.3644C174.628 53.951 175.401 54.7244 175.988 55.6844C176.601 56.6444 176.908 57.8577 176.908 59.3244C176.908 60.8977 176.468 62.3377 175.588 63.6444C174.708 64.9511 173.388 66.0044 171.628 66.8044C169.894 67.6044 167.694 68.0044 165.028 68.0044ZM192.664 67.5244V39.5244H199.144V62.2444H213.184V67.5244H192.664ZM222.803 50.8044H236.283V55.8444H222.803V50.8044ZM223.283 62.3244H238.523V67.5244H216.843V39.5244H238.003V44.7244H223.283V62.3244ZM239.999 67.5244L252.479 39.5244H258.879L271.399 67.5244H264.599L254.359 42.8044H256.919L246.639 67.5244H239.999ZM246.239 61.5244L247.959 56.6044H262.359L264.119 61.5244H246.239ZM274.304 67.5244V39.5244H286.424C288.931 39.5244 291.091 39.9377 292.904 40.7644C294.718 41.5644 296.118 42.7244 297.104 44.2444C298.091 45.7644 298.584 47.5777 298.584 49.6844C298.584 51.7644 298.091 53.5644 297.104 55.0844C296.118 56.5777 294.718 57.7244 292.904 58.5244C291.091 59.3244 288.931 59.7244 286.424 59.7244H277.904L280.784 56.8844V67.5244H274.304ZM292.104 67.5244L285.104 57.3644H292.024L299.104 67.5244H292.104ZM280.784 57.6044L277.904 54.5644H286.064C288.064 54.5644 289.558 54.1377 290.544 53.2844C291.531 52.4044 292.024 51.2044 292.024 49.6844C292.024 48.1377 291.531 46.9377 290.544 46.0844C289.558 45.231 288.064 44.8044 286.064 44.8044H277.904L280.784 41.7244V57.6044ZM303.718 67.5244V39.5244H309.078L325.598 59.6844H322.998V39.5244H329.398V67.5244H324.078L307.518 47.3644H310.118V67.5244H303.718ZM334.503 73.6844L337.143 64.0844L338.023 67.6844C336.876 67.6844 335.93 67.3511 335.183 66.6844C334.463 66.0177 334.103 65.0977 334.103 63.9244C334.103 62.7511 334.476 61.8177 335.223 61.1244C335.97 60.431 336.89 60.0844 337.983 60.0844C339.103 60.0844 340.023 60.4444 340.743 61.1644C341.463 61.8577 341.823 62.7777 341.823 63.9244C341.823 64.271 341.796 64.6177 341.743 64.9644C341.69 65.2844 341.583 65.6844 341.423 66.1644C341.29 66.6177 341.063 67.2044 340.743 67.9244L338.463 73.6844H334.503ZM83.72 110.004C81.56 110.004 79.5467 109.658 77.68 108.964C75.84 108.244 74.24 107.231 72.88 105.924C71.52 104.618 70.4533 103.084 69.68 101.324C68.9333 99.5644 68.56 97.631 68.56 95.5244C68.56 93.4177 68.9333 91.4844 69.68 89.7244C70.4533 87.9644 71.52 86.431 72.88 85.1244C74.2667 83.8177 75.88 82.8177 77.72 82.1244C79.56 81.4044 81.5733 81.0444 83.76 81.0444C86.1867 81.0444 88.3733 81.471 90.32 82.3244C92.2933 83.151 93.9467 84.3777 95.28 86.0044L91.12 89.8444C90.16 88.751 89.0933 87.9377 87.92 87.4044C86.7467 86.8444 85.4667 86.5644 84.08 86.5644C82.7733 86.5644 81.5733 86.7777 80.48 87.2044C79.3867 87.631 78.44 88.2444 77.64 89.0444C76.84 89.8444 76.2133 90.791 75.76 91.8844C75.3333 92.9777 75.12 94.191 75.12 95.5244C75.12 96.8577 75.3333 98.071 75.76 99.1644C76.2133 100.258 76.84 101.204 77.64 102.004C78.44 102.804 79.3867 103.418 80.48 103.844C81.5733 104.271 82.7733 104.484 84.08 104.484C85.4667 104.484 86.7467 104.218 87.92 103.684C89.0933 103.124 90.16 102.284 91.12 101.164L95.28 105.004C93.9467 106.631 92.2933 107.871 90.32 108.724C88.3733 109.578 86.1733 110.004 83.72 110.004ZM112.67 110.004C110.457 110.004 108.403 109.644 106.51 108.924C104.643 108.204 103.017 107.191 101.63 105.884C100.27 104.578 99.2033 103.044 98.43 101.284C97.6833 99.5244 97.31 97.6044 97.31 95.5244C97.31 93.4444 97.6833 91.5244 98.43 89.7644C99.2033 88.0044 100.283 86.471 101.67 85.1644C103.057 83.8577 104.683 82.8444 106.55 82.1244C108.417 81.4044 110.443 81.0444 112.63 81.0444C114.843 81.0444 116.87 81.4044 118.71 82.1244C120.577 82.8444 122.19 83.8577 123.55 85.1644C124.937 86.471 126.017 88.0044 126.79 89.7644C127.563 91.4977 127.95 93.4177 127.95 95.5244C127.95 97.6044 127.563 99.5377 126.79 101.324C126.017 103.084 124.937 104.618 123.55 105.924C122.19 107.204 120.577 108.204 118.71 108.924C116.87 109.644 114.857 110.004 112.67 110.004ZM112.63 104.484C113.883 104.484 115.03 104.271 116.07 103.844C117.137 103.418 118.07 102.804 118.87 102.004C119.67 101.204 120.283 100.258 120.71 99.1644C121.163 98.071 121.39 96.8577 121.39 95.5244C121.39 94.191 121.163 92.9777 120.71 91.8844C120.283 90.791 119.67 89.8444 118.87 89.0444C118.097 88.2444 117.177 87.631 116.11 87.2044C115.043 86.7777 113.883 86.5644 112.63 86.5644C111.377 86.5644 110.217 86.7777 109.15 87.2044C108.11 87.631 107.19 88.2444 106.39 89.0444C105.59 89.8444 104.963 90.791 104.51 91.8844C104.083 92.9777 103.87 94.191 103.87 95.5244C103.87 96.831 104.083 98.0444 104.51 99.1644C104.963 100.258 105.577 101.204 106.35 102.004C107.15 102.804 108.083 103.418 109.15 103.844C110.217 104.271 111.377 104.484 112.63 104.484ZM132.82 109.524V81.5244H138.18L150.1 101.284H147.26L158.98 81.5244H164.3L164.38 109.524H158.3L158.26 90.8444H159.38L150.02 106.564H147.1L137.54 90.8444H138.9V109.524H132.82ZM171.023 109.524V81.5244H176.383L188.303 101.284H185.463L197.183 81.5244H202.503L202.583 109.524H196.503L196.463 90.8444H197.583L188.223 106.564H185.303L175.743 90.8444H177.103V109.524H171.023ZM221.666 110.004C217.693 110.004 214.586 108.898 212.346 106.684C210.106 104.471 208.986 101.311 208.986 97.2044V81.5244H215.466V96.9644C215.466 99.631 216.013 101.551 217.106 102.724C218.2 103.898 219.733 104.484 221.706 104.484C223.68 104.484 225.213 103.898 226.306 102.724C227.4 101.551 227.946 99.631 227.946 96.9644V81.5244H234.346V97.2044C234.346 101.311 233.226 104.471 230.986 106.684C228.746 108.898 225.64 110.004 221.666 110.004ZM240.75 109.524V81.5244H246.11L262.63 101.684H260.03V81.5244H266.43V109.524H261.11L244.55 89.3644H247.15V109.524H240.75ZM273.054 109.524V81.5244H279.534V109.524H273.054ZM299.579 110.004C297.419 110.004 295.406 109.658 293.539 108.964C291.699 108.244 290.099 107.231 288.739 105.924C287.379 104.618 286.313 103.084 285.539 101.324C284.793 99.5644 284.419 97.631 284.419 95.5244C284.419 93.4177 284.793 91.4844 285.539 89.7244C286.313 87.9644 287.379 86.431 288.739 85.1244C290.126 83.8177 291.739 82.8177 293.579 82.1244C295.419 81.4044 297.433 81.0444 299.619 81.0444C302.046 81.0444 304.233 81.471 306.179 82.3244C308.153 83.151 309.806 84.3777 311.139 86.0044L306.979 89.8444C306.019 88.751 304.953 87.9377 303.779 87.4044C302.606 86.8444 301.326 86.5644 299.939 86.5644C298.633 86.5644 297.433 86.7777 296.339 87.2044C295.246 87.631 294.299 88.2444 293.499 89.0444C292.699 89.8444 292.073 90.791 291.619 91.8844C291.193 92.9777 290.979 94.191 290.979 95.5244C290.979 96.8577 291.193 98.071 291.619 99.1644C292.073 100.258 292.699 101.204 293.499 102.004C294.299 102.804 295.246 103.418 296.339 103.844C297.433 104.271 298.633 104.484 299.939 104.484C301.326 104.484 302.606 104.218 303.779 103.684C304.953 103.124 306.019 102.284 306.979 101.164L311.139 105.004C309.806 106.631 308.153 107.871 306.179 108.724C304.233 109.578 302.033 110.004 299.579 110.004ZM311.327 109.524L323.808 81.5244H330.208L342.728 109.524H335.928L325.688 84.8044H328.248L317.968 109.524H311.327ZM317.567 103.524L319.288 98.6044H333.688L335.448 103.524H317.567ZM350.026 109.524V86.8044H341.066V81.5244H365.466V86.8044H356.506V109.524H350.026ZM374.913 92.8044H388.393V97.8444H374.913V92.8044ZM375.393 104.324H390.633V109.524H368.953V81.5244H390.113V86.7244H375.393V104.324ZM66.64 151.524L79.12 123.524H85.52L98.04 151.524H91.24L81 126.804H83.56L73.28 151.524H66.64ZM72.88 145.524L74.6 140.604H89L90.76 145.524H72.88ZM100.945 151.524V123.524H106.305L122.825 143.684H120.225V123.524H126.625V151.524H121.305L104.745 131.364H107.345V151.524H100.945ZM133.25 151.524V123.524H145.97C149.01 123.524 151.69 124.111 154.01 125.284C156.33 126.431 158.143 128.044 159.45 130.124C160.756 132.204 161.41 134.671 161.41 137.524C161.41 140.351 160.756 142.818 159.45 144.924C158.143 147.004 156.33 148.631 154.01 149.804C151.69 150.951 149.01 151.524 145.97 151.524H133.25ZM139.73 146.204H145.65C147.516 146.204 149.13 145.858 150.49 145.164C151.876 144.444 152.943 143.431 153.69 142.124C154.463 140.818 154.85 139.284 154.85 137.524C154.85 135.738 154.463 134.204 153.69 132.924C152.943 131.618 151.876 130.618 150.49 129.924C149.13 129.204 147.516 128.844 145.65 128.844H139.73V146.204ZM177.625 151.524V123.524H191.305C194.825 123.524 197.465 124.191 199.225 125.524C201.011 126.858 201.905 128.618 201.905 130.804C201.905 132.271 201.545 133.551 200.825 134.644C200.105 135.711 199.118 136.538 197.865 137.124C196.611 137.711 195.171 138.004 193.545 138.004L194.305 136.364C196.065 136.364 197.625 136.658 198.985 137.244C200.345 137.804 201.398 138.644 202.145 139.764C202.918 140.884 203.305 142.258 203.305 143.884C203.305 146.284 202.358 148.164 200.465 149.524C198.571 150.858 195.785 151.524 192.105 151.524H177.625ZM184.065 146.644H191.625C193.305 146.644 194.571 146.378 195.425 145.844C196.305 145.284 196.745 144.404 196.745 143.204C196.745 142.031 196.305 141.164 195.425 140.604C194.571 140.018 193.305 139.724 191.625 139.724H183.585V135.004H190.505C192.078 135.004 193.278 134.738 194.105 134.204C194.958 133.644 195.385 132.804 195.385 131.684C195.385 130.591 194.958 129.778 194.105 129.244C193.278 128.684 192.078 128.404 190.505 128.404H184.065V146.644ZM220.651 152.004C216.677 152.004 213.571 150.898 211.331 148.684C209.091 146.471 207.971 143.311 207.971 139.204V123.524H214.451V138.964C214.451 141.631 214.997 143.551 216.091 144.724C217.184 145.898 218.717 146.484 220.691 146.484C222.664 146.484 224.197 145.898 225.291 144.724C226.384 143.551 226.931 141.631 226.931 138.964V123.524H233.331V139.204C233.331 143.311 232.211 146.471 229.971 148.684C227.731 150.898 224.624 152.004 220.651 152.004ZM239.734 151.524V123.524H246.214V151.524H239.734ZM252.859 151.524V123.524H259.339V146.244H273.379V151.524H252.859ZM277.039 151.524V123.524H289.759C292.799 123.524 295.479 124.111 297.799 125.284C300.119 126.431 301.932 128.044 303.239 130.124C304.545 132.204 305.199 134.671 305.199 137.524C305.199 140.351 304.545 142.818 303.239 144.924C301.932 147.004 300.119 148.631 297.799 149.804C295.479 150.951 292.799 151.524 289.759 151.524H277.039ZM283.519 146.204H289.439C291.305 146.204 292.919 145.858 294.279 145.164C295.665 144.444 296.732 143.431 297.479 142.124C298.252 140.818 298.639 139.284 298.639 137.524C298.639 135.738 298.252 134.204 297.479 132.924C296.732 131.618 295.665 130.618 294.279 129.924C292.919 129.204 291.305 128.844 289.439 128.844H283.519V146.204ZM76.12 193.524V170.804H67.16V165.524H91.56V170.804H82.6V193.524H76.12ZM108.256 194.004C106.043 194.004 103.989 193.644 102.096 192.924C100.229 192.204 98.6026 191.191 97.2159 189.884C95.8559 188.578 94.7893 187.044 94.0159 185.284C93.2693 183.524 92.8959 181.604 92.8959 179.524C92.8959 177.444 93.2693 175.524 94.0159 173.764C94.7893 172.004 95.8693 170.471 97.2559 169.164C98.6426 167.858 100.269 166.844 102.136 166.124C104.003 165.404 106.029 165.044 108.216 165.044C110.429 165.044 112.456 165.404 114.296 166.124C116.163 166.844 117.776 167.858 119.136 169.164C120.523 170.471 121.603 172.004 122.376 173.764C123.149 175.498 123.536 177.418 123.536 179.524C123.536 181.604 123.149 183.538 122.376 185.324C121.603 187.084 120.523 188.618 119.136 189.924C117.776 191.204 116.163 192.204 114.296 192.924C112.456 193.644 110.443 194.004 108.256 194.004ZM108.216 188.484C109.469 188.484 110.616 188.271 111.656 187.844C112.723 187.418 113.656 186.804 114.456 186.004C115.256 185.204 115.869 184.258 116.296 183.164C116.749 182.071 116.976 180.858 116.976 179.524C116.976 178.191 116.749 176.978 116.296 175.884C115.869 174.791 115.256 173.844 114.456 173.044C113.683 172.244 112.763 171.631 111.696 171.204C110.629 170.778 109.469 170.564 108.216 170.564C106.963 170.564 105.803 170.778 104.736 171.204C103.696 171.631 102.776 172.244 101.976 173.044C101.176 173.844 100.549 174.791 100.096 175.884C99.6693 176.978 99.4559 178.191 99.4559 179.524C99.4559 180.831 99.6693 182.044 100.096 183.164C100.549 184.258 101.163 185.204 101.936 186.004C102.736 186.804 103.669 187.418 104.736 187.844C105.803 188.271 106.963 188.484 108.216 188.484ZM141.926 194.004C139.713 194.004 137.673 193.658 135.806 192.964C133.966 192.244 132.353 191.231 130.966 189.924C129.606 188.618 128.539 187.084 127.766 185.324C127.019 183.564 126.646 181.631 126.646 179.524C126.646 177.418 127.019 175.484 127.766 173.724C128.539 171.964 129.619 170.431 131.006 169.124C132.393 167.818 134.019 166.818 135.886 166.124C137.753 165.404 139.806 165.044 142.046 165.044C144.526 165.044 146.753 165.458 148.726 166.284C150.726 167.111 152.406 168.311 153.766 169.884L149.606 173.724C148.593 172.658 147.486 171.871 146.286 171.364C145.086 170.831 143.779 170.564 142.366 170.564C141.006 170.564 139.766 170.778 138.646 171.204C137.526 171.631 136.553 172.244 135.726 173.044C134.926 173.844 134.299 174.791 133.846 175.884C133.419 176.978 133.206 178.191 133.206 179.524C133.206 180.831 133.419 182.031 133.846 183.124C134.299 184.218 134.926 185.178 135.726 186.004C136.553 186.804 137.513 187.418 138.606 187.844C139.726 188.271 140.953 188.484 142.286 188.484C143.566 188.484 144.806 188.284 146.006 187.884C147.233 187.458 148.419 186.751 149.566 185.764L153.246 190.444C151.726 191.591 149.953 192.471 147.926 193.084C145.926 193.698 143.926 194.004 141.926 194.004ZM147.326 189.604V179.084H153.246V190.444L147.326 189.604ZM165.225 176.804H178.705V181.844H165.225V176.804ZM165.705 188.324H180.945V193.524H159.265V165.524H180.425V170.724H165.705V188.324ZM191.901 193.524V170.804H182.941V165.524H207.341V170.804H198.381V193.524H191.901ZM230.028 165.524H236.508V193.524H230.028V165.524ZM217.308 193.524H210.828V165.524H217.308V193.524ZM230.508 182.044H216.828V176.564H230.508V182.044ZM249.093 176.804H262.573V181.844H249.093V176.804ZM249.573 188.324H264.812V193.524H243.133V165.524H264.293V170.724H249.573V188.324ZM269.968 193.524V165.524H282.088C284.595 165.524 286.755 165.938 288.568 166.764C290.382 167.564 291.782 168.724 292.768 170.244C293.755 171.764 294.248 173.578 294.248 175.684C294.248 177.764 293.755 179.564 292.768 181.084C291.782 182.578 290.382 183.724 288.568 184.524C286.755 185.324 284.595 185.724 282.088 185.724H273.568L276.448 182.884V193.524H269.968ZM287.768 193.524L280.768 183.364H287.688L294.768 193.524H287.768ZM276.448 183.604L273.568 180.564H281.728C283.728 180.564 285.222 180.138 286.208 179.284C287.195 178.404 287.688 177.204 287.688 175.684C287.688 174.138 287.195 172.938 286.208 172.084C285.222 171.231 283.728 170.804 281.728 170.804H273.568L276.448 167.724V183.604Z" fill="#0F1227"/>
<path d="M475.033 76.4757C475.597 78.4545 475.01 80.9988 472.74 84.2163C470.487 87.4111 466.746 91.0133 461.569 94.9473C451.229 102.805 435.478 111.75 415.443 121.214C375.396 140.132 318.508 160.998 254.278 179.31C190.048 197.622 130.709 209.892 86.7075 214.936C64.6938 217.46 46.5937 218.166 33.6644 216.943C27.1911 216.33 22.113 215.242 18.5137 213.716C14.8888 212.179 13.0484 210.327 12.4843 208.348C11.9201 206.369 12.507 203.825 14.7764 200.607C17.0297 197.412 20.7707 193.81 25.9477 189.876C36.2881 182.019 52.0393 173.074 72.0742 163.609C112.121 144.692 169.009 123.826 233.239 105.514C297.469 87.2019 356.808 74.9317 400.809 69.8872C422.823 67.3635 440.923 66.6574 453.852 67.8808C460.326 68.4934 465.404 69.5813 469.003 71.1075C472.628 72.6445 474.468 74.4969 475.033 76.4757Z" stroke="url(#paint22_linear_820_169)" stroke-width="3.17946"/>
<defs>
<linearGradient id="paint0_linear_820_169" x1="31.0973" y1="141.072" x2="194.691" y2="252.906" gradientUnits="userSpaceOnUse">
<stop stop-color="#C2C8FA"/>
<stop offset="0.415966" stop-color="#E0E5FF"/>
<stop offset="1" stop-color="#DBE7FD"/>
</linearGradient>
<linearGradient id="paint1_linear_820_169" x1="175.046" y1="42.4915" x2="164.065" y2="219.911" gradientUnits="userSpaceOnUse">
<stop stop-color="white"/>
<stop offset="1" stop-color="white" stop-opacity="0"/>
</linearGradient>
<linearGradient id="paint2_linear_820_169" x1="324.755" y1="47.6906" x2="331.975" y2="211.357" gradientUnits="userSpaceOnUse">
<stop stop-color="#C2C8FA"/>
<stop offset="0.415966" stop-color="#E0E5FF"/>
<stop offset="1" stop-color="#DBE7FD"/>
</linearGradient>
<linearGradient id="paint3_linear_820_169" x1="324.755" y1="47.6906" x2="313.599" y2="227.943" gradientUnits="userSpaceOnUse">
<stop stop-color="white"/>
<stop offset="1" stop-color="white" stop-opacity="0"/>
</linearGradient>
<linearGradient id="paint4_linear_820_169" x1="135.367" y1="91.0446" x2="171.504" y2="227.963" gradientUnits="userSpaceOnUse">
<stop stop-color="#C2C8FA"/>
<stop offset="0.415966" stop-color="#E0E5FF"/>
<stop offset="1" stop-color="#DBE7FD"/>
</linearGradient>
<linearGradient id="paint5_linear_820_169" x1="174.817" y1="41.2538" x2="163.882" y2="217.928" gradientUnits="userSpaceOnUse">
<stop stop-color="white"/>
<stop offset="1" stop-color="white" stop-opacity="0"/>
</linearGradient>
<linearGradient id="paint6_linear_820_169" x1="344.295" y1="33.0357" x2="331.624" y2="171.672" gradientUnits="userSpaceOnUse">
<stop stop-color="#C2C8FA"/>
<stop offset="0.415966" stop-color="#E0E5FF"/>
<stop offset="1" stop-color="#DBE7FD"/>
</linearGradient>
<linearGradient id="paint7_linear_820_169" x1="318.525" y1="38.3252" x2="306.833" y2="227.225" gradientUnits="userSpaceOnUse">
<stop stop-color="white"/>
<stop offset="1" stop-color="white" stop-opacity="0"/>
</linearGradient>
<linearGradient id="paint8_linear_820_169" x1="329.839" y1="41.7195" x2="287.865" y2="244.371" gradientUnits="userSpaceOnUse">
<stop stop-color="#C2C8FA"/>
<stop offset="0.415966" stop-color="#E0E5FF"/>
<stop offset="1" stop-color="#DBE7FD"/>
</linearGradient>
<linearGradient id="paint9_linear_820_169" x1="307.032" y1="30.5797" x2="294.906" y2="226.487" gradientUnits="userSpaceOnUse">
<stop stop-color="white"/>
<stop offset="1" stop-color="white" stop-opacity="0"/>
</linearGradient>
<linearGradient id="paint10_linear_820_169" x1="325.573" y1="28.4346" x2="288.826" y2="249.757" gradientUnits="userSpaceOnUse">
<stop stop-color="#C3CDFF"/>
<stop offset="0.415966" stop-color="#E0E5FF"/>
<stop offset="1" stop-color="#C3D4FF"/>
</linearGradient>
<linearGradient id="paint11_linear_820_169" x1="289.666" y1="19.7767" x2="276.913" y2="225.822" gradientUnits="userSpaceOnUse">
<stop stop-color="white"/>
<stop offset="1" stop-color="white" stop-opacity="0"/>
</linearGradient>
<linearGradient id="paint12_linear_820_169" x1="152.149" y1="76.219" x2="238.084" y2="239.343" gradientUnits="userSpaceOnUse">
<stop stop-color="#C2C8FA"/>
<stop offset="0.415966" stop-color="#E0E5FF"/>
<stop offset="1" stop-color="#DBE7FD"/>
</linearGradient>
<linearGradient id="paint13_linear_820_169" x1="184.983" y1="41.4341" x2="174.02" y2="218.556" gradientUnits="userSpaceOnUse">
<stop stop-color="white"/>
<stop offset="1" stop-color="white" stop-opacity="0"/>
</linearGradient>
<linearGradient id="paint14_linear_820_169" x1="182.323" y1="49.7682" x2="181.542" y2="217.734" gradientUnits="userSpaceOnUse">
<stop stop-color="#AEB8FE"/>
<stop offset="0.4883" stop-color="#DCE1FF"/>
<stop offset="1" stop-color="#DFE6FF"/>
</linearGradient>
<linearGradient id="paint15_linear_820_169" x1="196.51" y1="42.5965" x2="185.575" y2="219.271" gradientUnits="userSpaceOnUse">
<stop stop-color="white"/>
<stop offset="1" stop-color="white" stop-opacity="0"/>
</linearGradient>
<linearGradient id="paint16_linear_820_169" x1="204.452" y1="51.1379" x2="206.406" y2="218.915" gradientUnits="userSpaceOnUse">
<stop stop-color="#AEB8FE"/>
<stop offset="0.4883" stop-color="#DCE1FF"/>
<stop offset="1" stop-color="#DFE6FF"/>
</linearGradient>
<linearGradient id="paint17_linear_820_169" x1="215.593" y1="43.7777" x2="204.658" y2="220.452" gradientUnits="userSpaceOnUse">
<stop stop-color="white"/>
<stop offset="1" stop-color="white" stop-opacity="0"/>
</linearGradient>
<linearGradient id="paint18_linear_820_169" x1="240.176" y1="46.7959" x2="275.46" y2="211.814" gradientUnits="userSpaceOnUse">
<stop stop-color="#AEB8FE"/>
<stop offset="0.4883" stop-color="#DBE4FF"/>
<stop offset="1" stop-color="#C0D2FF"/>
</linearGradient>
<linearGradient id="paint19_linear_820_169" x1="268.056" y1="17.0922" x2="255.247" y2="224.032" gradientUnits="userSpaceOnUse">
<stop stop-color="white"/>
<stop offset="1" stop-color="white" stop-opacity="0"/>
</linearGradient>
<linearGradient id="paint20_linear_820_169" x1="219.475" y1="52.3991" x2="269.691" y2="225.225" gradientUnits="userSpaceOnUse">
<stop stop-color="#9BA6FD"/>
<stop offset="0.250664" stop-color="#C5CFFE"/>
<stop offset="0.565057" stop-color="#DBE4FE"/>
<stop offset="1" stop-color="#B2C8FF"/>
</linearGradient>
<linearGradient id="paint21_linear_820_169" x1="234.488" y1="10.8239" x2="221.411" y2="222.106" gradientUnits="userSpaceOnUse">
<stop stop-color="white"/>
<stop offset="1" stop-color="white" stop-opacity="0"/>
</linearGradient>
<linearGradient id="paint22_linear_820_169" x1="252.223" y1="178.467" x2="233.91" y2="115.844" gradientUnits="userSpaceOnUse">
<stop stop-color="#2525F9"/>
<stop offset="1" stop-color="#B9B9FF" stop-opacity="0"/>
</linearGradient>
</defs>
</svg>
