<svg width="214" height="20" viewBox="0 0 214 20" fill="none" xmlns="http://www.w3.org/2000/svg">
<path fill-rule="evenodd" clip-rule="evenodd" d="M150.722 0.773682L152.792 2.84167V17.0687H161.585L163.654 19.1324V19.1367H150.722V0.773682ZM167.779 19.1367H165.51L174.351 0.773682H175.656L184.502 19.1367H182.237L175.01 4.12879L167.779 19.1367ZM198.672 5.51889C198.715 2.40833 195.956 0.773682 192.72 0.773682H187.003V19.1367H194.521C197.809 19.1367 199.657 16.837 199.765 14.0483C199.856 11.7228 198.316 10.1483 196.512 9.47895C197.904 8.5608 198.655 7.22219 198.672 5.51889ZM0.466797 19.185H2.75291L10.0494 4.17279L17.3328 19.185H19.6233L10.7044 0.821964H9.38566L0.466797 19.185ZM35.6409 0.821964V16.4219L21.356 0.821964H20.137V13.646L22.2062 11.5823V4.81206L35.3676 19.185H37.7101V0.821964H35.6409ZM40.1118 0.821964V2.88995H47.8725V19.185L49.9418 17.117V2.88995H57.7024V0.821964H40.1118ZM54.5079 19.185H56.7983L64.0905 4.17279L71.3739 19.185H73.6644L64.7455 0.821964H63.4311L54.5079 19.185ZM78.0214 2.88995L75.9522 0.821964V19.185H88.8794V19.1807L86.8145 17.117H78.0214V2.88995ZM90.8466 0.821964V19.185H92.9158V2.8685H97.9869C99.9477 2.8685 101.535 4.45595 101.535 6.41666C101.535 8.37738 99.9477 9.96055 97.9869 9.96055H94.5378L96.5944 12.0157H97.9869C101.084 12.0157 103.6 9.52293 103.639 6.43382C103.618 3.32757 101.089 0.821964 97.9869 0.821964H90.8466ZM105.991 0.821964H105.987V17.1556L108.056 19.2236V11.016H118.715V17.0784L120.788 19.1463V2.88995L118.715 0.821964V8.94372H108.056V2.88995L105.991 0.821964ZM131.748 0.821964L122.829 19.185H125.115L132.407 4.17279L139.7 19.185H141.986L133.067 0.821964H131.748ZM209.596 11.2718C208.82 10.9114 208.009 10.6583 207.163 10.491C205.445 10.1263 204.104 9.52563 203.289 8.74906C202.478 7.93388 202.035 6.8055 202.087 5.65138C202.07 4.76327 202.3 3.89661 202.755 3.15007C203.22 2.41641 203.896 1.8415 204.686 1.48539C205.575 1.09067 206.525 0.889022 207.501 0.889022H207.653C207.731 0.889022 207.805 0.884732 207.87 0.884732C209.028 0.884732 210.165 1.18935 211.162 1.77714C212.034 2.30915 212.702 3.14149 213.041 4.11113L213.088 4.23984L211.353 5.05073L211.292 4.90486C210.711 3.46327 209.501 2.7339 207.692 2.7339C207.605 2.72961 207.518 2.72532 207.423 2.72532C207.315 2.72532 207.21 2.72961 207.106 2.7339C205.51 2.86262 204.174 4.13687 204.265 5.73719C204.291 6.15765 204.404 6.5824 204.612 6.96854C204.929 7.40187 205.328 7.72794 205.801 7.92959C206.525 8.24279 207.271 8.47877 208.039 8.62464C209.965 9.03652 211.366 9.65863 212.203 10.4781C213.067 11.3834 213.527 12.6276 213.461 13.8804C213.47 14.8286 213.214 15.7425 212.711 16.5319C212.199 17.3256 211.479 17.9477 210.624 18.3424C209.687 18.7801 208.651 19.0118 207.614 19.0118H207.505C207.423 19.016 207.341 19.016 207.262 19.016C205.983 19.016 204.716 18.6685 203.61 18.0078C202.643 17.3857 201.892 16.4418 201.519 15.3434L201.471 15.2233L203.215 14.3781L203.272 14.5283C203.558 15.3005 204.078 15.9698 204.764 16.4332C205.536 16.9052 206.425 17.1669 207.332 17.1669C207.393 17.1669 207.445 17.1669 207.51 17.154C207.575 17.1669 207.666 17.1669 207.744 17.1669C207.852 17.1669 207.97 17.1626 208.078 17.1497C209.726 17.0124 211.141 15.824 211.275 14.1764C211.327 13.5586 211.206 12.9322 210.902 12.3616C210.568 11.8725 210.126 11.5035 209.596 11.2718ZM189.019 2.63739V17.272H194.359C196.61 17.272 197.695 15.6031 197.699 13.8311C197.699 11.5572 195.643 10.4588 193.617 10.4545C193.526 10.4588 191.565 10.4074 191.565 10.4074L189.765 8.53673C189.765 8.53673 193.526 8.54102 193.613 8.54531C195.556 8.45092 196.628 7.21099 196.654 5.52056C196.693 3.34531 194.793 2.63739 192.563 2.63739H189.019Z" fill="#0F1227"/>
</svg>
