<svg width="478" height="156" viewBox="0 0 478 156" fill="none" xmlns="http://www.w3.org/2000/svg">
<path d="M26.752 94.5558C23.3387 94.5558 20.1813 94.0012 17.28 92.8918C14.4213 91.7398 11.9253 90.1398 9.792 88.0918C7.70133 86.0012 6.05867 83.5692 4.864 80.7958C3.66933 78.0225 3.072 74.9718 3.072 71.6438C3.072 68.3158 3.66933 65.2652 4.864 62.4918C6.05867 59.7185 7.72267 57.3078 9.856 55.2598C11.9893 53.1692 14.4853 51.5692 17.344 50.4598C20.2453 49.3078 23.4027 48.7318 26.816 48.7318C30.272 48.7318 33.4507 49.3292 36.352 50.5238C39.296 51.6758 41.792 53.4038 43.84 55.7078L39.68 59.7398C37.9733 57.9478 36.0533 56.6252 33.92 55.7718C31.7867 54.8758 29.504 54.4278 27.072 54.4278C24.5547 54.4278 22.208 54.8545 20.032 55.7078C17.8987 56.5612 16.0427 57.7558 14.464 59.2918C12.8853 60.8278 11.648 62.6625 10.752 64.7958C9.89867 66.8865 9.472 69.1692 9.472 71.6438C9.472 74.1185 9.89867 76.4225 10.752 78.5558C11.648 80.6465 12.8853 82.4598 14.464 83.9958C16.0427 85.5318 17.8987 86.7265 20.032 87.5798C22.208 88.4332 24.5547 88.8598 27.072 88.8598C29.504 88.8598 31.7867 88.4332 33.92 87.5798C36.0533 86.6838 37.9733 85.3185 39.68 83.4838L43.84 87.5158C41.792 89.8198 39.296 91.5692 36.352 92.7638C33.4507 93.9585 30.2507 94.5558 26.752 94.5558ZM65.1645 94.4278C61.7512 94.4278 58.7218 93.6812 56.0765 92.1878C53.4312 90.6945 51.3405 88.6465 49.8045 86.0438C48.2685 83.3985 47.5005 80.4118 47.5005 77.0838C47.5005 73.7132 48.2685 70.7265 49.8045 68.1238C51.3405 65.5212 53.4312 63.4945 56.0765 62.0438C58.7218 60.5505 61.7512 59.8038 65.1645 59.8038C68.5352 59.8038 71.5432 60.5505 74.1885 62.0438C76.8765 63.4945 78.9672 65.5212 80.4605 68.1238C81.9965 70.6838 82.7645 73.6705 82.7645 77.0838C82.7645 80.4545 81.9965 83.4412 80.4605 86.0438C78.9672 88.6465 76.8765 90.6945 74.1885 92.1878C71.5432 93.6812 68.5352 94.4278 65.1645 94.4278ZM65.1645 89.0518C67.3405 89.0518 69.2818 88.5612 70.9885 87.5798C72.7378 86.5985 74.1032 85.2118 75.0845 83.4198C76.0658 81.5852 76.5565 79.4732 76.5565 77.0838C76.5565 74.6518 76.0658 72.5612 75.0845 70.8118C74.1032 69.0198 72.7378 67.6332 70.9885 66.6518C69.2818 65.6705 67.3405 65.1798 65.1645 65.1798C62.9885 65.1798 61.0472 65.6705 59.3405 66.6518C57.6338 67.6332 56.2685 69.0198 55.2445 70.8118C54.2205 72.5612 53.7085 74.6518 53.7085 77.0838C53.7085 79.4732 54.2205 81.5852 55.2445 83.4198C56.2685 85.2118 57.6338 86.5985 59.3405 87.5798C61.0472 88.5612 62.9885 89.0518 65.1645 89.0518ZM133.694 59.8038C136.424 59.8038 138.835 60.3372 140.926 61.4038C143.016 62.4705 144.638 64.0918 145.79 66.2678C146.984 68.4438 147.582 71.1958 147.582 74.5238V94.0438H141.438V75.2278C141.438 71.9425 140.67 69.4678 139.134 67.8038C137.598 66.1398 135.443 65.3078 132.67 65.3078C130.622 65.3078 128.83 65.7345 127.294 66.5878C125.758 67.4412 124.563 68.6998 123.71 70.3638C122.899 72.0278 122.494 74.0972 122.494 76.5718V94.0438H116.35V75.2278C116.35 71.9425 115.582 69.4678 114.046 67.8038C112.552 66.1398 110.398 65.3078 107.582 65.3078C105.576 65.3078 103.806 65.7345 102.27 66.5878C100.734 67.4412 99.5388 68.6998 98.6855 70.3638C97.8322 72.0278 97.4055 74.0972 97.4055 76.5718V94.0438H91.2615V60.1238H97.1495V69.1478L96.1895 66.8438C97.2562 64.6252 98.8988 62.8972 101.118 61.6598C103.336 60.4225 105.918 59.8038 108.862 59.8038C112.104 59.8038 114.899 60.6145 117.246 62.2358C119.592 63.8145 121.128 66.2252 121.854 69.4678L119.358 68.4438C120.382 65.8412 122.174 63.7505 124.734 62.1718C127.294 60.5932 130.28 59.8038 133.694 59.8038ZM158.887 94.0438V60.1238H165.031V94.0438H158.887ZM161.959 53.5958C160.764 53.5958 159.761 53.2118 158.951 52.4438C158.183 51.6758 157.799 50.7372 157.799 49.6278C157.799 48.4758 158.183 47.5158 158.951 46.7478C159.761 45.9798 160.764 45.5958 161.959 45.5958C163.153 45.5958 164.135 45.9798 164.903 46.7478C165.713 47.4732 166.119 48.3905 166.119 49.4998C166.119 50.6518 165.735 51.6332 164.967 52.4438C164.199 53.2118 163.196 53.5958 161.959 53.5958ZM194.874 59.8038C197.647 59.8038 200.079 60.3372 202.17 61.4038C204.303 62.4705 205.967 64.0918 207.162 66.2678C208.356 68.4438 208.954 71.1958 208.954 74.5238V94.0438H202.81V75.2278C202.81 71.9425 201.999 69.4678 200.378 67.8038C198.799 66.1398 196.559 65.3078 193.658 65.3078C191.482 65.3078 189.583 65.7345 187.962 66.5878C186.34 67.4412 185.082 68.6998 184.186 70.3638C183.332 72.0278 182.906 74.0972 182.906 76.5718V94.0438H176.762V60.1238H182.65V69.2758L181.69 66.8438C182.799 64.6252 184.506 62.8972 186.81 61.6598C189.114 60.4225 191.802 59.8038 194.874 59.8038ZM235.172 106.844C232.057 106.844 229.028 106.396 226.084 105.5C223.183 104.646 220.815 103.409 218.98 101.788L221.924 97.0518C223.503 98.4172 225.444 99.4838 227.748 100.252C230.052 101.062 232.463 101.468 234.98 101.468C238.991 101.468 241.935 100.529 243.812 98.6518C245.689 96.7745 246.628 93.9158 246.628 90.0758V82.9078L247.268 76.1878L246.948 69.4038V60.1238H252.772V89.4358C252.772 95.4092 251.279 99.8038 248.292 102.62C245.305 105.436 240.932 106.844 235.172 106.844ZM234.404 92.6358C231.119 92.6358 228.175 91.9532 225.572 90.5878C223.012 89.1798 220.964 87.2385 219.428 84.7638C217.935 82.2892 217.188 79.4305 217.188 76.1878C217.188 72.9025 217.935 70.0438 219.428 67.6118C220.964 65.1372 223.012 63.2172 225.572 61.8518C228.175 60.4865 231.119 59.8038 234.404 59.8038C237.305 59.8038 239.951 60.4012 242.34 61.5958C244.729 62.7478 246.628 64.5398 248.036 66.9718C249.487 69.4038 250.212 72.4758 250.212 76.1878C250.212 79.8572 249.487 82.9078 248.036 85.3398C246.628 87.7718 244.729 89.6065 242.34 90.8438C239.951 92.0385 237.305 92.6358 234.404 92.6358ZM235.108 87.2598C237.369 87.2598 239.375 86.7905 241.124 85.8518C242.873 84.9132 244.239 83.6118 245.22 81.9478C246.244 80.2838 246.756 78.3638 246.756 76.1878C246.756 74.0118 246.244 72.0918 245.22 70.4278C244.239 68.7638 242.873 67.4838 241.124 66.5878C239.375 65.6492 237.369 65.1798 235.108 65.1798C232.847 65.1798 230.82 65.6492 229.028 66.5878C227.279 67.4838 225.892 68.7638 224.868 70.4278C223.887 72.0918 223.396 74.0118 223.396 76.1878C223.396 78.3638 223.887 80.2838 224.868 81.9478C225.892 83.6118 227.279 84.9132 229.028 85.8518C230.82 86.7905 232.847 87.2598 235.108 87.2598ZM295.651 94.5558C292.238 94.5558 288.974 94.0438 285.859 93.0198C282.744 91.9532 280.291 90.5878 278.499 88.9238L280.867 83.9318C282.574 85.4252 284.75 86.6625 287.395 87.6438C290.04 88.6252 292.792 89.1158 295.651 89.1158C298.254 89.1158 300.366 88.8172 301.987 88.2198C303.608 87.6225 304.803 86.8118 305.571 85.7878C306.339 84.7212 306.723 83.5265 306.723 82.2038C306.723 80.6678 306.211 79.4305 305.187 78.4918C304.206 77.5532 302.904 76.8065 301.283 76.2518C299.704 75.6545 297.955 75.1425 296.035 74.7158C294.115 74.2892 292.174 73.7985 290.211 73.2438C288.291 72.6465 286.52 71.8998 284.899 71.0038C283.32 70.1078 282.04 68.9132 281.059 67.4198C280.078 65.8838 279.587 63.9212 279.587 61.5318C279.587 59.2278 280.184 57.1158 281.379 55.1958C282.616 53.2332 284.494 51.6758 287.011 50.5238C289.571 49.3292 292.814 48.7318 296.739 48.7318C299.342 48.7318 301.923 49.0732 304.483 49.7558C307.043 50.4385 309.262 51.4198 311.139 52.6998L309.027 57.8198C307.107 56.5398 305.08 55.6225 302.947 55.0678C300.814 54.4705 298.744 54.1718 296.739 54.1718C294.222 54.1718 292.152 54.4918 290.531 55.1318C288.91 55.7718 287.715 56.6252 286.947 57.6918C286.222 58.7585 285.859 59.9532 285.859 61.2758C285.859 62.8545 286.35 64.1132 287.331 65.0518C288.355 65.9905 289.656 66.7372 291.235 67.2918C292.856 67.8465 294.627 68.3585 296.547 68.8278C298.467 69.2545 300.387 69.7452 302.307 70.2998C304.27 70.8545 306.04 71.5798 307.619 72.4758C309.24 73.3718 310.542 74.5665 311.523 76.0598C312.504 77.5532 312.995 79.4732 312.995 81.8198C312.995 84.0812 312.376 86.1932 311.139 88.1558C309.902 90.0758 307.982 91.6332 305.379 92.8278C302.819 93.9798 299.576 94.5558 295.651 94.5558ZM335.977 94.4278C332.564 94.4278 329.534 93.6812 326.889 92.1878C324.244 90.6945 322.153 88.6465 320.617 86.0438C319.081 83.3985 318.313 80.4118 318.313 77.0838C318.313 73.7132 319.081 70.7265 320.617 68.1238C322.153 65.5212 324.244 63.4945 326.889 62.0438C329.534 60.5505 332.564 59.8038 335.977 59.8038C339.348 59.8038 342.356 60.5505 345.001 62.0438C347.689 63.4945 349.78 65.5212 351.273 68.1238C352.809 70.6838 353.577 73.6705 353.577 77.0838C353.577 80.4545 352.809 83.4412 351.273 86.0438C349.78 88.6465 347.689 90.6945 345.001 92.1878C342.356 93.6812 339.348 94.4278 335.977 94.4278ZM335.977 89.0518C338.153 89.0518 340.094 88.5612 341.801 87.5798C343.55 86.5985 344.916 85.2118 345.897 83.4198C346.878 81.5852 347.369 79.4732 347.369 77.0838C347.369 74.6518 346.878 72.5612 345.897 70.8118C344.916 69.0198 343.55 67.6332 341.801 66.6518C340.094 65.6705 338.153 65.1798 335.977 65.1798C333.801 65.1798 331.86 65.6705 330.153 66.6518C328.446 67.6332 327.081 69.0198 326.057 70.8118C325.033 72.5612 324.521 74.6518 324.521 77.0838C324.521 79.4732 325.033 81.5852 326.057 83.4198C327.081 85.2118 328.446 86.5985 330.153 87.5798C331.86 88.5612 333.801 89.0518 335.977 89.0518ZM376.602 94.4278C373.189 94.4278 370.159 93.6812 367.514 92.1878C364.869 90.6945 362.778 88.6465 361.242 86.0438C359.706 83.3985 358.938 80.4118 358.938 77.0838C358.938 73.7132 359.706 70.7265 361.242 68.1238C362.778 65.5212 364.869 63.4945 367.514 62.0438C370.159 60.5505 373.189 59.8038 376.602 59.8038C379.973 59.8038 382.981 60.5505 385.626 62.0438C388.314 63.4945 390.405 65.5212 391.898 68.1238C393.434 70.6838 394.202 73.6705 394.202 77.0838C394.202 80.4545 393.434 83.4412 391.898 86.0438C390.405 88.6465 388.314 90.6945 385.626 92.1878C382.981 93.6812 379.973 94.4278 376.602 94.4278ZM376.602 89.0518C378.778 89.0518 380.719 88.5612 382.426 87.5798C384.175 86.5985 385.541 85.2118 386.522 83.4198C387.503 81.5852 387.994 79.4732 387.994 77.0838C387.994 74.6518 387.503 72.5612 386.522 70.8118C385.541 69.0198 384.175 67.6332 382.426 66.6518C380.719 65.6705 378.778 65.1798 376.602 65.1798C374.426 65.1798 372.485 65.6705 370.778 66.6518C369.071 67.6332 367.706 69.0198 366.682 70.8118C365.658 72.5612 365.146 74.6518 365.146 77.0838C365.146 79.4732 365.658 81.5852 366.682 83.4198C367.706 85.2118 369.071 86.5985 370.778 87.5798C372.485 88.5612 374.426 89.0518 376.602 89.0518ZM420.811 59.8038C423.584 59.8038 426.016 60.3372 428.107 61.4038C430.24 62.4705 431.904 64.0918 433.099 66.2678C434.294 68.4438 434.891 71.1958 434.891 74.5238V94.0438H428.747V75.2278C428.747 71.9425 427.936 69.4678 426.315 67.8038C424.736 66.1398 422.496 65.3078 419.595 65.3078C417.419 65.3078 415.52 65.7345 413.899 66.5878C412.278 67.4412 411.019 68.6998 410.123 70.3638C409.27 72.0278 408.843 74.0972 408.843 76.5718V94.0438H402.699V60.1238H408.587V69.2758L407.627 66.8438C408.736 64.6252 410.443 62.8972 412.747 61.6598C415.051 60.4225 417.739 59.8038 420.811 59.8038ZM465.526 77.0838C463.99 77.0838 462.646 76.7638 461.494 76.1238C460.342 75.4838 459.275 74.7585 458.294 73.9478C457.355 73.1372 456.459 72.4332 455.606 71.8358C454.752 71.1958 453.814 70.8758 452.79 70.8758C451.424 70.8758 450.336 71.3878 449.526 72.4118C448.715 73.4358 448.267 74.8438 448.182 76.6358H444.15C444.235 73.0518 445.067 70.4065 446.646 68.6998C448.224 66.9932 450.208 66.1398 452.598 66.1398C454.134 66.1398 455.478 66.4598 456.63 67.0998C457.782 67.7398 458.827 68.4652 459.766 69.2758C460.747 70.0865 461.664 70.8118 462.518 71.4518C463.371 72.0492 464.31 72.3478 465.334 72.3478C466.742 72.3478 467.851 71.8358 468.662 70.8118C469.472 69.7452 469.899 68.3158 469.942 66.5238H473.974C473.888 70.1078 473.056 72.7745 471.478 74.5238C469.942 76.2305 467.958 77.0838 465.526 77.0838Z" fill="#2222FF" fill-opacity="0.3"/>
<path d="M17.28 92.8918L16.9062 93.8193L16.9145 93.8227L16.9229 93.8259L17.28 92.8918ZM9.792 88.0918L9.08489 88.7989L9.09211 88.8061L9.09947 88.8132L9.792 88.0918ZM4.864 80.7958L5.78241 80.4002L4.864 80.7958ZM4.864 62.4918L5.78241 62.8874V62.8874L4.864 62.4918ZM9.856 55.2598L10.5486 55.9812L10.5559 55.974L9.856 55.2598ZM17.344 50.4598L17.7058 51.3921L17.713 51.3892L17.344 50.4598ZM36.352 50.5238L35.9713 51.4485L35.9794 51.4519L35.9876 51.4551L36.352 50.5238ZM43.84 55.7078L44.536 56.4259L45.2237 55.7593L44.5874 55.0435L43.84 55.7078ZM39.68 59.7398L38.9559 60.4295L39.6516 61.16L40.376 60.4579L39.68 59.7398ZM33.92 55.7718L33.5328 56.6938L33.5407 56.6971L33.5486 56.7003L33.92 55.7718ZM20.032 55.7078L19.6669 54.7768L19.6606 54.7793L20.032 55.7078ZM10.752 64.7958L9.82997 64.4086L9.82615 64.4179L10.752 64.7958ZM10.752 78.5558L9.82352 78.9272L9.82805 78.9385L9.83286 78.9497L10.752 78.5558ZM20.032 87.5798L19.6606 88.5083L19.6669 88.5108L20.032 87.5798ZM33.92 87.5798L34.2914 88.5083L34.2993 88.5051L34.3072 88.5018L33.92 87.5798ZM39.68 83.4838L40.376 82.7658L39.643 82.0554L38.9478 82.8027L39.68 83.4838ZM43.84 87.5158L44.5874 88.1802L45.2237 87.4643L44.536 86.7978L43.84 87.5158ZM36.352 92.7638L35.976 91.8372L35.9713 91.8391L36.352 92.7638ZM26.752 93.5558C23.4487 93.5558 20.4137 93.0194 17.6371 91.9578L16.9229 93.8259C19.949 94.9829 23.2287 95.5558 26.752 95.5558V93.5558ZM17.6538 91.9643C14.9085 90.858 12.5219 89.3263 10.4845 87.3704L9.09947 88.8132C11.3288 90.9534 13.9342 92.6217 16.9062 93.8193L17.6538 91.9643ZM10.4991 87.3847C8.49989 85.3855 6.92809 83.0598 5.78241 80.4002L3.94559 81.1914C5.18925 84.0785 6.90278 86.6168 9.08489 88.7989L10.4991 87.3847ZM5.78241 80.4002C4.64683 77.764 4.072 74.8497 4.072 71.6438H2.072C2.072 75.0939 2.69183 78.2809 3.94559 81.1914L5.78241 80.4002ZM4.072 71.6438C4.072 68.4379 4.64683 65.5236 5.78241 62.8874L3.94559 62.0962C2.69183 65.0067 2.072 68.1937 2.072 71.6438H4.072ZM5.78241 62.8874C6.92542 60.234 8.51354 57.9348 10.5485 55.9812L9.16347 54.5384C6.9318 56.6808 5.19191 59.2029 3.94559 62.0962L5.78241 62.8874ZM10.5559 55.974C12.5899 53.9808 14.97 52.4537 17.7058 51.3921L16.9822 49.5276C14.0007 50.6846 11.3888 52.3575 9.15607 54.5456L10.5559 55.974ZM17.713 51.3892C20.4864 50.2881 23.5172 49.7318 26.816 49.7318V47.7318C23.2881 47.7318 20.0043 48.3276 16.975 49.5304L17.713 51.3892ZM26.816 49.7318C30.1547 49.7318 33.2024 50.3084 35.9713 51.4485L36.7327 49.5991C33.6989 48.3499 30.3893 47.7318 26.816 47.7318V49.7318ZM35.9876 51.4551C38.7886 52.5511 41.1522 54.1892 43.0926 56.3722L44.5874 55.0435C42.4318 52.6184 39.8034 50.8006 36.7164 49.5926L35.9876 51.4551ZM43.144 54.9898L38.984 59.0218L40.376 60.4579L44.536 56.4259L43.144 54.9898ZM40.4041 59.0502C38.6062 57.1623 36.5681 55.754 34.2914 54.8433L33.5486 56.7003C35.5385 57.4963 37.3405 58.7334 38.9559 60.4295L40.4041 59.0502ZM34.3072 54.8498C32.0451 53.8997 29.6301 53.4278 27.072 53.4278V55.4278C29.3779 55.4278 31.5283 55.8519 33.5328 56.6938L34.3072 54.8498ZM27.072 53.4278C24.4394 53.4278 21.9679 53.8745 19.6669 54.7768L20.3971 56.6388C22.4481 55.8345 24.6699 55.4278 27.072 55.4278V53.4278ZM19.6606 54.7793C17.4112 55.6791 15.4431 56.9439 13.7666 58.5751L15.1614 60.0085C16.6422 58.5677 18.3862 57.4432 20.4034 56.6363L19.6606 54.7793ZM13.7666 58.5751C12.0869 60.2094 10.7753 62.1578 9.83002 64.4086L11.674 65.1831C12.5207 63.1672 13.6838 61.4462 15.1614 60.0085L13.7666 58.5751ZM9.82615 64.4179C8.91935 66.6396 8.472 69.0521 8.472 71.6438H10.472C10.472 69.2863 10.878 67.1334 11.6778 65.1737L9.82615 64.4179ZM8.472 71.6438C8.472 74.2358 8.91941 76.6669 9.82352 78.9272L11.6805 78.1844C10.8779 76.1781 10.472 74.0011 10.472 71.6438H8.472ZM9.83286 78.9497C10.7791 81.1575 12.0904 83.0816 13.7666 84.7125L15.1614 83.2791C13.6803 81.838 12.5169 80.1354 11.6711 78.1619L9.83286 78.9497ZM13.7666 84.7125C15.4431 86.3437 17.4112 87.6085 19.6606 88.5083L20.4034 86.6513C18.3862 85.8445 16.6422 84.7199 15.1614 83.2791L13.7666 84.7125ZM19.6669 88.5108C21.9679 89.4132 24.4394 89.8598 27.072 89.8598V87.8598C24.6699 87.8598 22.4481 87.4532 20.3971 86.6488L19.6669 88.5108ZM27.072 89.8598C29.6237 89.8598 32.0331 89.4116 34.2914 88.5083L33.5486 86.6513C31.5402 87.4547 29.3843 87.8598 27.072 87.8598V89.8598ZM34.3072 88.5018C36.5819 87.5464 38.617 86.0947 40.4122 84.1649L38.9478 82.8027C37.3296 84.5423 35.5248 85.8212 33.5328 86.6578L34.3072 88.5018ZM38.984 84.2019L43.144 88.2339L44.536 86.7978L40.376 82.7658L38.984 84.2019ZM43.0926 86.8515C41.1498 89.0371 38.7822 90.6985 35.976 91.8372L36.728 93.6904C39.8098 92.4399 42.4342 90.6025 44.5874 88.1802L43.0926 86.8515ZM35.9713 91.8391C33.2039 92.9787 30.1351 93.5558 26.752 93.5558V95.5558C30.3663 95.5558 33.6975 94.9383 36.7327 93.6885L35.9713 91.8391ZM56.0765 92.1878L56.5681 91.317L56.0765 92.1878ZM49.8045 86.0438L48.9397 86.546L48.9433 86.5521L49.8045 86.0438ZM49.8045 68.1238L48.9433 67.6156L48.9433 67.6156L49.8045 68.1238ZM56.0765 62.0438L56.5574 62.9207L56.5681 62.9146L56.0765 62.0438ZM74.1885 62.0438L73.6969 62.9146L73.7052 62.9193L73.7136 62.9238L74.1885 62.0438ZM80.4605 68.1238L79.5931 68.6215L79.598 68.63L79.603 68.6383L80.4605 68.1238ZM80.4605 86.0438L79.5992 85.5355L79.5931 85.5462L80.4605 86.0438ZM74.1885 92.1878L73.7029 91.3136L73.6969 91.317L74.1885 92.1878ZM70.9885 87.5798L70.4992 86.7076L70.49 86.7129L70.9885 87.5798ZM75.0845 83.4198L75.9616 83.9002L75.9663 83.8915L75.0845 83.4198ZM75.0845 70.8118L74.2074 71.2922L74.2124 71.3011L75.0845 70.8118ZM70.9885 66.6518L70.49 67.5188L70.4993 67.524L70.9885 66.6518ZM55.2445 70.8118L56.1076 71.317L56.1127 71.308L55.2445 70.8118ZM55.2445 83.4198L54.3713 83.9072L54.3763 83.916L55.2445 83.4198ZM65.1645 93.4278C61.9017 93.4278 59.0456 92.7156 56.5681 91.317L55.5849 93.0586C58.3981 94.6467 61.6006 95.4278 65.1645 95.4278V93.4278ZM56.5681 91.317C54.0748 89.9095 52.112 87.9862 50.6657 85.5356L48.9433 86.5521C50.569 89.3068 52.7875 91.4795 55.5849 93.0586L56.5681 91.317ZM50.6693 85.5417C49.2296 83.0621 48.5005 80.2514 48.5005 77.0838H46.5005C46.5005 80.5722 47.3074 83.7348 48.9397 86.546L50.6693 85.5417ZM48.5005 77.0838C48.5005 73.8708 49.2307 71.0635 50.6657 68.6321L48.9433 67.6156C47.3063 70.3894 46.5005 73.5555 46.5005 77.0838H48.5005ZM50.6657 68.6321C52.1105 66.1839 54.0699 64.2847 56.5573 62.9206L55.5957 61.167C52.7924 62.7043 50.5705 64.8584 48.9433 67.6156L50.6657 68.6321ZM56.5681 62.9146C59.0456 61.5161 61.9017 60.8038 65.1645 60.8038V58.8038C61.6006 58.8038 58.3981 59.5849 55.5849 61.173L56.5681 62.9146ZM65.1645 60.8038C68.3822 60.8038 71.2175 61.515 73.6969 62.9146L74.6801 61.173C71.8688 59.586 68.6881 58.8038 65.1645 58.8038V60.8038ZM73.7136 62.9238C76.2408 64.2878 78.1942 66.1834 79.5931 68.6215L81.3279 67.6262C79.7401 64.859 77.5122 62.7012 74.6634 61.1638L73.7136 62.9238ZM79.603 68.6383C81.033 71.0217 81.7645 73.8253 81.7645 77.0838H83.7645C83.7645 73.5157 82.96 70.346 81.318 67.6093L79.603 68.6383ZM81.7645 77.0838C81.7645 80.2968 81.0343 83.1041 79.5993 85.5356L81.3217 86.5521C82.9587 83.7782 83.7645 80.6121 83.7645 77.0838H81.7645ZM79.5931 85.5462C78.1927 87.9869 76.2359 89.9064 73.7029 91.3137L74.6741 93.062C77.5171 91.4825 79.7416 89.3061 81.3279 86.5415L79.5931 85.5462ZM73.6969 91.317C71.2175 92.7166 68.3822 93.4278 65.1645 93.4278V95.4278C68.6881 95.4278 71.8688 94.6457 74.6801 93.0586L73.6969 91.317ZM65.1645 90.0518C67.4966 90.0518 69.6131 89.5242 71.487 88.4467L70.49 86.7129C68.9506 87.5981 67.1845 88.0518 65.1645 88.0518V90.0518ZM71.4778 88.452C73.3937 87.3772 74.892 85.8533 75.9616 83.9001L74.2074 82.9395C73.3143 84.5704 72.082 85.8198 70.4993 86.7077L71.4778 88.452ZM75.9663 83.8915C77.0361 81.8915 77.5565 79.6131 77.5565 77.0838H75.5565C75.5565 79.3332 75.0956 81.2789 74.2027 82.9482L75.9663 83.8915ZM77.5565 77.0838C77.5565 74.5167 77.0379 72.25 75.9566 70.3226L74.2124 71.3011C75.0938 72.8723 75.5565 74.7869 75.5565 77.0838H77.5565ZM75.9616 70.3315C74.892 68.3784 73.3937 66.8545 71.4778 65.7797L70.4993 67.524C72.082 68.4118 73.3143 69.6613 74.2074 71.2921L75.9616 70.3315ZM71.487 65.7849C69.6131 64.7074 67.4966 64.1798 65.1645 64.1798V66.1798C67.1845 66.1798 68.9506 66.6336 70.49 67.5187L71.487 65.7849ZM65.1645 64.1798C62.8325 64.1798 60.7159 64.7074 58.842 65.7849L59.839 67.5187C61.3784 66.6336 63.1446 66.1798 65.1645 66.1798V64.1798ZM58.842 65.7849C56.9738 66.8592 55.484 68.3772 54.3763 70.3157L56.1127 71.308C57.0531 69.6624 58.2939 68.4071 59.839 67.5187L58.842 65.7849ZM54.3815 70.3066C53.2514 72.2372 52.7085 74.5098 52.7085 77.0838H54.7085C54.7085 74.7938 55.1896 72.8851 56.1075 71.317L54.3815 70.3066ZM52.7085 77.0838C52.7085 79.62 53.2533 81.9041 54.3713 83.9072L56.1177 82.9325C55.1877 81.2662 54.7085 79.3263 54.7085 77.0838H52.7085ZM54.3763 83.916C55.484 85.8544 56.9738 87.3725 58.842 88.4467L59.839 86.7129C58.2939 85.8245 57.0531 84.5692 56.1127 82.9237L54.3763 83.916ZM58.842 88.4467C60.7159 89.5242 62.8325 90.0518 65.1645 90.0518V88.0518C63.1446 88.0518 61.3784 87.5981 59.839 86.7129L58.842 88.4467ZM140.926 61.4038L141.38 60.5131V60.5131L140.926 61.4038ZM145.79 66.2678L144.906 66.7357L144.909 66.7424L144.913 66.7491L145.79 66.2678ZM147.582 94.0438V95.0438H148.582V94.0438H147.582ZM141.438 94.0438H140.438V95.0438H141.438V94.0438ZM123.71 70.3638L122.82 69.9075L122.815 69.9166L122.811 69.9259L123.71 70.3638ZM122.493 94.0438V95.0438H123.493V94.0438H122.493ZM116.35 94.0438H115.35V95.0438H116.35V94.0438ZM114.046 67.8038L113.301 68.4718L113.311 68.4821L114.046 67.8038ZM102.27 66.5878L101.784 65.7137L102.27 66.5878ZM98.6855 70.3638L99.5753 70.8201L98.6855 70.3638ZM97.4055 94.0438V95.0438H98.4055V94.0438H97.4055ZM91.2615 94.0438H90.2615V95.0438H91.2615V94.0438ZM91.2615 60.1238V59.1238H90.2615V60.1238H91.2615ZM97.1495 60.1238H98.1495V59.1238H97.1495V60.1238ZM97.1495 69.1478L96.2264 69.5324L98.1495 69.1478H97.1495ZM96.1895 66.8438L95.2882 66.4105L95.094 66.8146L95.2664 67.2284L96.1895 66.8438ZM101.118 61.6598L100.63 60.7865L101.118 61.6598ZM117.245 62.2358L116.677 63.0586L116.687 63.0655L117.245 62.2358ZM121.854 69.4678L121.474 70.393L123.248 71.1208L122.829 69.2495L121.854 69.4678ZM119.357 68.4438L118.427 68.0777L118.066 68.9949L118.978 69.369L119.357 68.4438ZM133.693 60.8038C136.292 60.8038 138.542 61.3106 140.471 62.2946L141.38 60.5131C139.127 59.3637 136.556 58.8038 133.693 58.8038V60.8038ZM140.471 62.2946C142.369 63.263 143.845 64.732 144.906 66.7357L146.673 65.7999C145.43 63.4516 143.663 61.6779 141.38 60.5131L140.471 62.2946ZM144.913 66.7491C146.004 68.7359 146.582 71.309 146.582 74.5238H148.582C148.582 71.0826 147.965 68.1518 146.666 65.7866L144.913 66.7491ZM146.582 74.5238V94.0438H148.582V74.5238H146.582ZM147.582 93.0438H141.438V95.0438H147.582V93.0438ZM142.438 94.0438V75.2278H140.438V94.0438H142.438ZM142.438 75.2278C142.438 71.8032 141.638 69.0428 139.868 67.1255L138.399 68.4821C139.701 69.8929 140.438 72.0818 140.438 75.2278H142.438ZM139.868 67.1255C138.102 65.2116 135.654 64.3078 132.669 64.3078V66.3078C135.231 66.3078 137.093 67.068 138.399 68.4821L139.868 67.1255ZM132.669 64.3078C130.48 64.3078 128.515 64.7651 126.808 65.7137L127.779 67.462C129.144 66.7039 130.763 66.3078 132.669 66.3078V64.3078ZM126.808 65.7137C125.087 66.6695 123.757 68.0792 122.82 69.9075L124.599 70.8201C125.368 69.3205 126.428 68.2128 127.779 67.462L126.808 65.7137ZM122.811 69.9259C121.915 71.7642 121.493 73.9941 121.493 76.5718H123.493C123.493 74.2002 123.883 72.2914 124.608 70.8018L122.811 69.9259ZM121.493 76.5718V94.0438H123.493V76.5718H121.493ZM122.493 93.0438H116.35V95.0438H122.493V93.0438ZM117.35 94.0438V75.2278H115.35V94.0438H117.35ZM117.35 75.2278C117.35 71.8032 116.55 69.0428 114.78 67.1255L113.311 68.4821C114.613 69.8929 115.35 72.0818 115.35 75.2278H117.35ZM114.79 67.1359C113.06 65.2081 110.602 64.3078 107.581 64.3078V66.3078C110.193 66.3078 112.045 67.0715 113.301 68.4717L114.79 67.1359ZM107.581 64.3078C105.431 64.3078 103.488 64.7667 101.784 65.7137L102.755 67.462C104.123 66.7022 105.722 66.3078 107.581 66.3078V64.3078ZM101.784 65.7137C100.063 66.6695 98.7333 68.0792 97.7957 69.9075L99.5753 70.8201C100.344 69.3205 101.404 68.2128 102.755 67.462L101.784 65.7137ZM97.7957 69.9075C96.8504 71.7509 96.4055 73.9877 96.4055 76.5718H98.4055C98.4055 74.2066 98.814 72.3048 99.5753 70.8201L97.7957 69.9075ZM96.4055 76.5718V94.0438H98.4055V76.5718H96.4055ZM97.4055 93.0438H91.2615V95.0438H97.4055V93.0438ZM92.2615 94.0438V60.1238H90.2615V94.0438H92.2615ZM91.2615 61.1238H97.1495V59.1238H91.2615V61.1238ZM96.1495 60.1238V69.1478H98.1495V60.1238H96.1495ZM98.0726 68.7632L97.1126 66.4592L95.2664 67.2284L96.2264 69.5324L98.0726 68.7632ZM97.0908 67.2771C98.065 65.2506 99.5599 63.6735 101.605 62.5332L100.63 60.7865C98.2378 62.1208 96.4473 63.9997 95.2882 66.4105L97.0908 67.2771ZM101.605 62.5332C103.652 61.3913 106.061 60.8038 108.862 60.8038V58.8038C105.774 58.8038 103.02 59.4537 100.63 60.7865L101.605 62.5332ZM108.862 60.8038C111.93 60.8038 114.52 61.568 116.677 63.0586L117.814 61.4131C115.278 59.661 112.278 58.8038 108.862 58.8038V60.8038ZM116.687 63.0655C118.785 64.4767 120.198 66.6465 120.878 69.6861L122.829 69.2495C122.059 65.8038 120.399 63.1522 117.804 61.4061L116.687 63.0655ZM122.233 68.5427L119.737 67.5187L118.978 69.369L121.474 70.393L122.233 68.5427ZM120.288 68.8099C121.227 66.4241 122.868 64.4972 125.258 63.023L124.209 61.3207C121.479 63.0038 119.536 65.2582 118.427 68.0777L120.288 68.8099ZM125.258 63.023C127.64 61.5542 130.44 60.8038 133.693 60.8038V58.8038C130.12 58.8038 126.947 59.6321 124.209 61.3207L125.258 63.023ZM158.887 94.0438H157.887V95.0438H158.887V94.0438ZM158.887 60.1238V59.1238H157.887V60.1238H158.887ZM165.031 60.1238H166.031V59.1238H165.031V60.1238ZM165.031 94.0438V95.0438H166.031V94.0438H165.031ZM158.951 52.4438L158.243 53.1509L158.253 53.1605L158.263 53.1698L158.951 52.4438ZM158.951 46.7478L158.263 46.0219L158.253 46.0312L158.243 46.0407L158.951 46.7478ZM164.902 46.7478L164.195 47.4549L164.215 47.4746L164.236 47.4931L164.902 46.7478ZM164.967 52.4438L165.674 53.1509L165.683 53.1414L165.692 53.1316L164.967 52.4438ZM159.887 94.0438V60.1238H157.887V94.0438H159.887ZM158.887 61.1238H165.031V59.1238H158.887V61.1238ZM164.031 60.1238V94.0438H166.031V60.1238H164.031ZM165.031 93.0438H158.887V95.0438H165.031V93.0438ZM161.958 52.5958C161 52.5958 160.249 52.2969 159.638 51.7179L158.263 53.1698C159.273 54.1268 160.528 54.5958 161.958 54.5958V52.5958ZM159.658 51.7367C159.082 51.1607 158.798 50.4783 158.798 49.6278H156.798C156.798 50.996 157.283 52.1909 158.243 53.1509L159.658 51.7367ZM158.798 49.6278C158.798 48.7232 159.089 48.0231 159.658 47.4549L158.243 46.0407C157.276 47.0085 156.798 48.2285 156.798 49.6278H158.798ZM159.638 47.4738C160.249 46.8948 161 46.5958 161.958 46.5958V44.5958C160.528 44.5958 159.273 45.0649 158.263 46.0219L159.638 47.4738ZM161.958 46.5958C162.917 46.5958 163.635 46.8941 164.195 47.4549L165.61 46.0407C164.634 45.0655 163.389 44.5958 161.958 44.5958V46.5958ZM164.236 47.4931C164.83 48.0244 165.118 48.6686 165.118 49.4998H167.118C167.118 48.1124 166.597 46.9219 165.569 46.0026L164.236 47.4931ZM165.118 49.4998C165.118 50.4049 164.827 51.1376 164.241 51.7561L165.692 53.1316C166.643 52.1287 167.118 50.8987 167.118 49.4998H165.118ZM164.259 51.7367C163.706 52.2906 162.971 52.5958 161.958 52.5958V54.5958C163.421 54.5958 164.691 54.1331 165.674 53.1509L164.259 51.7367ZM202.169 61.4038L201.715 62.2946L201.722 62.2982L202.169 61.4038ZM208.954 94.0438V95.0438H209.954V94.0438H208.954ZM202.81 94.0438H201.81V95.0438H202.81V94.0438ZM200.378 67.8038L199.652 68.4921L199.661 68.5017L200.378 67.8038ZM187.962 66.5878L187.496 65.7029L187.962 66.5878ZM184.186 70.3638L183.305 69.8897L183.3 69.8986L183.296 69.9075L184.186 70.3638ZM182.906 94.0438V95.0438H183.906V94.0438H182.906ZM176.762 94.0438H175.762V95.0438H176.762V94.0438ZM176.762 60.1238V59.1238H175.762V60.1238H176.762ZM182.65 60.1238H183.65V59.1238H182.65V60.1238ZM182.65 69.2758L181.719 69.643L183.65 69.2758H182.65ZM181.689 66.8438L180.795 66.3966L180.595 66.7958L180.759 67.211L181.689 66.8438ZM186.809 61.6598L186.336 60.7788L186.809 61.6598ZM194.874 60.8038C197.517 60.8038 199.789 61.3117 201.715 62.2946L202.624 60.5131C200.369 59.3626 197.776 58.8038 194.874 58.8038V60.8038ZM201.722 62.2982C203.666 63.2702 205.184 64.7435 206.285 66.7491L208.038 65.7866C206.75 63.4401 204.94 61.6708 202.617 60.5094L201.722 62.2982ZM206.285 66.7491C207.376 68.7359 207.954 71.309 207.954 74.5238H209.954C209.954 71.0826 209.337 68.1518 208.038 65.7866L206.285 66.7491ZM207.954 74.5238V94.0438H209.954V74.5238H207.954ZM208.954 93.0438H202.81V95.0438H208.954V93.0438ZM203.81 94.0438V75.2278H201.81V94.0438H203.81ZM203.81 75.2278C203.81 71.7905 202.961 69.0223 201.094 67.106L199.661 68.5017C201.037 69.9134 201.81 72.0945 201.81 75.2278H203.81ZM201.103 67.1156C199.288 65.2028 196.756 64.3078 193.658 64.3078V66.3078C196.362 66.3078 198.309 67.0769 199.652 68.4921L201.103 67.1156ZM193.658 64.3078C191.35 64.3078 189.285 64.761 187.496 65.7029L188.427 67.4727C189.88 66.708 191.613 66.3078 193.658 66.3078V64.3078ZM187.496 65.7029C185.693 66.6519 184.292 68.0564 183.305 69.8897L185.066 70.8379C185.871 69.3432 186.988 68.2304 188.427 67.4727L187.496 65.7029ZM183.296 69.9075C182.35 71.7509 181.906 73.9877 181.906 76.5718H183.906C183.906 74.2066 184.314 72.3048 185.075 70.8201L183.296 69.9075ZM181.906 76.5718V94.0438H183.906V76.5718H181.906ZM182.906 93.0438H176.762V95.0438H182.906V93.0438ZM177.762 94.0438V60.1238H175.762V94.0438H177.762ZM176.762 61.1238H182.65V59.1238H176.762V61.1238ZM181.65 60.1238V69.2758H183.65V60.1238H181.65ZM183.58 68.9087L182.62 66.4767L180.759 67.211L181.719 69.643L183.58 68.9087ZM182.584 67.291C183.596 65.2673 185.15 63.6861 187.283 62.5408L186.336 60.7788C183.861 62.1082 182.002 63.983 180.795 66.3966L182.584 67.291ZM187.283 62.5408C189.418 61.3942 191.938 60.8038 194.874 60.8038V58.8038C191.665 58.8038 188.809 59.4508 186.336 60.7788L187.283 62.5408ZM226.084 105.5L226.375 104.543L226.366 104.54L226.084 105.5ZM218.98 101.788L218.131 101.26L217.685 101.978L218.318 102.537L218.98 101.788ZM221.924 97.0518L222.578 96.2955L221.693 95.5297L221.075 96.5239L221.924 97.0518ZM227.748 100.252L228.08 99.3085L228.072 99.3058L228.064 99.3031L227.748 100.252ZM243.812 98.6518L244.519 99.3589L243.812 98.6518ZM246.628 82.9078L245.633 82.813L245.628 82.8603V82.9078H246.628ZM247.268 76.1878L248.264 76.2826L248.27 76.2118L248.267 76.1407L247.268 76.1878ZM246.948 69.4038H245.948V69.4274L245.949 69.4509L246.948 69.4038ZM246.948 60.1238V59.1238H245.948V60.1238H246.948ZM252.772 60.1238H253.772V59.1238H252.772V60.1238ZM248.292 102.62L247.606 101.892L248.292 102.62ZM225.572 90.5878L225.09 91.464L225.099 91.4688L225.107 91.4734L225.572 90.5878ZM219.428 84.7638L218.572 85.2805L218.578 85.2912L219.428 84.7638ZM219.428 67.6118L218.578 67.0845L218.576 67.0886L219.428 67.6118ZM225.572 61.8518L225.107 60.9663L225.101 60.9695L225.572 61.8518ZM242.34 61.5958L241.893 62.4902L241.899 62.4935L241.906 62.4966L242.34 61.5958ZM248.036 66.9718L247.171 67.4729L247.177 67.4841L248.036 66.9718ZM248.036 85.3398L247.177 84.8275L247.171 84.8388L248.036 85.3398ZM242.34 90.8438L242.787 91.7383L242.794 91.7351L242.8 91.7318L242.34 90.8438ZM241.124 85.8518L240.651 84.9707L241.124 85.8518ZM245.22 81.9478L244.368 81.4237L244.363 81.4317L244.359 81.4398L245.22 81.9478ZM245.22 70.4278L244.359 70.9358L244.363 70.9439L244.368 70.9519L245.22 70.4278ZM241.124 66.5878L240.651 67.469L240.66 67.4735L240.668 67.4779L241.124 66.5878ZM229.028 66.5878L229.484 67.4779L229.492 67.4737L229.028 66.5878ZM224.868 70.4278L224.016 69.9037L224.011 69.9117L224.007 69.9198L224.868 70.4278ZM224.868 81.9478L224.007 82.4558L224.011 82.4639L224.016 82.4719L224.868 81.9478ZM229.028 85.8518L228.555 86.733L228.564 86.7377L229.028 85.8518ZM235.172 105.844C232.155 105.844 229.224 105.41 226.375 104.543L225.793 106.456C228.832 107.382 231.96 107.844 235.172 107.844V105.844ZM226.366 104.54C223.573 103.719 221.344 102.543 219.642 101.038L218.318 102.537C220.285 104.276 222.792 105.574 225.802 106.459L226.366 104.54ZM219.829 102.316L222.773 97.5798L221.075 96.5239L218.131 101.26L219.829 102.316ZM221.27 97.8082C222.962 99.2719 225.024 100.398 227.432 101.201L228.064 99.3031C225.864 98.5698 224.043 97.5624 222.578 96.2955L221.27 97.8082ZM227.416 101.195C229.83 102.044 232.353 102.468 234.98 102.468V100.468C232.572 100.468 230.274 100.081 228.08 99.3085L227.416 101.195ZM234.98 102.468C239.122 102.468 242.377 101.501 244.519 99.3589L243.105 97.9447C241.492 99.5575 238.859 100.468 234.98 100.468V102.468ZM244.519 99.3589C246.654 97.2242 247.628 94.0624 247.628 90.0758H245.628C245.628 93.7693 244.725 96.3248 243.105 97.9447L244.519 99.3589ZM247.628 90.0758V82.9078H245.628V90.0758H247.628ZM247.624 83.0026L248.264 76.2826L246.273 76.093L245.633 82.813L247.624 83.0026ZM248.267 76.1407L247.947 69.3567L245.949 69.4509L246.269 76.2349L248.267 76.1407ZM247.948 69.4038V60.1238H245.948V69.4038H247.948ZM246.948 61.1238H252.772V59.1238H246.948V61.1238ZM251.772 60.1238V89.4358H253.772V60.1238H251.772ZM251.772 89.4358C251.772 95.2603 250.316 99.3373 247.606 101.892L248.978 103.347C252.242 100.27 253.772 95.558 253.772 89.4358H251.772ZM247.606 101.892C244.868 104.473 240.78 105.844 235.172 105.844V107.844C241.084 107.844 245.742 106.398 248.978 103.347L247.606 101.892ZM234.404 91.6358C231.261 91.6358 228.48 90.9839 226.037 89.7023L225.107 91.4734C227.87 92.9224 230.976 93.6358 234.404 93.6358V91.6358ZM226.054 89.7116C223.644 88.3861 221.723 86.5647 220.278 84.2365L218.578 85.2912C220.205 87.9123 222.38 89.9735 225.09 91.464L226.054 89.7116ZM220.284 84.2472C218.896 81.9468 218.188 79.2712 218.188 76.1878H216.188C216.188 79.5898 216.973 82.6315 218.572 85.2805L220.284 84.2472ZM218.188 76.1878C218.188 73.0587 218.897 70.3871 220.28 68.1351L218.576 67.0886C216.972 69.7006 216.188 72.7462 216.188 76.1878H218.188ZM220.278 68.1392C221.721 65.8136 223.639 64.0163 226.043 62.7342L225.101 60.9695C222.385 62.418 220.207 64.4608 218.578 67.0845L220.278 68.1392ZM226.037 62.7374C228.48 61.4557 231.261 60.8038 234.404 60.8038V58.8038C230.976 58.8038 227.87 59.5173 225.107 60.9663L226.037 62.7374ZM234.404 60.8038C237.164 60.8038 239.654 61.3709 241.893 62.4902L242.787 60.7014C240.247 59.4315 237.447 58.8038 234.404 58.8038V60.8038ZM241.906 62.4966C244.104 63.5563 245.857 65.2034 247.171 67.4729L248.901 66.4708C247.399 63.8762 245.355 61.9394 242.774 60.6951L241.906 62.4966ZM247.177 67.4841C248.511 69.7202 249.212 72.6015 249.212 76.1878H251.212C251.212 72.3501 250.462 69.0875 248.895 66.4595L247.177 67.4841ZM249.212 76.1878C249.212 79.729 248.512 82.5899 247.177 84.8275L248.895 85.8521C250.461 83.2258 251.212 79.9853 251.212 76.1878H249.212ZM247.171 84.8388C245.854 87.1135 244.092 88.8102 241.88 89.9558L242.8 91.7318C245.366 90.4028 247.402 88.4302 248.901 85.8409L247.171 84.8388ZM241.893 89.9494C239.654 91.0688 237.164 91.6358 234.404 91.6358V93.6358C237.447 93.6358 240.247 93.0082 242.787 91.7383L241.893 89.9494ZM235.108 88.2598C237.511 88.2598 239.683 87.7599 241.597 86.733L240.651 84.9707C239.066 85.821 237.228 86.2598 235.108 86.2598V88.2598ZM241.597 86.733C243.503 85.7103 245.004 84.2819 246.081 82.4558L244.359 81.4398C243.473 82.9417 242.244 84.116 240.651 84.9707L241.597 86.733ZM246.072 82.4719C247.203 80.6328 247.756 78.5272 247.756 76.1878H245.756C245.756 78.2004 245.285 79.9348 244.368 81.4237L246.072 82.4719ZM247.756 76.1878C247.756 73.8484 247.203 71.7428 246.072 69.9037L244.368 70.9519C245.285 72.4408 245.756 74.1752 245.756 76.1878H247.756ZM246.081 69.9198C245.002 68.0897 243.495 66.6786 241.58 65.6978L240.668 67.4779C242.252 68.2891 243.475 69.438 244.359 70.9358L246.081 69.9198ZM241.597 65.7067C239.683 64.6797 237.511 64.1798 235.108 64.1798V66.1798C237.228 66.1798 239.066 66.6186 240.651 67.469L241.597 65.7067ZM235.108 64.1798C232.704 64.1798 230.515 64.6799 228.564 65.702L229.492 67.4737C231.125 66.6185 232.989 66.1798 235.108 66.1798V64.1798ZM228.572 65.6978C226.661 66.6767 225.137 68.0828 224.016 69.9037L225.72 70.9519C226.647 69.4448 227.896 68.2909 229.484 67.4779L228.572 65.6978ZM224.007 69.9198C222.923 71.7565 222.396 73.8562 222.396 76.1878H224.396C224.396 74.1674 224.85 72.4272 225.729 70.9358L224.007 69.9198ZM222.396 76.1878C222.396 78.5194 222.923 80.6192 224.007 82.4558L225.729 81.4398C224.85 79.9485 224.396 78.2082 224.396 76.1878H222.396ZM224.016 82.4719C225.134 84.2888 226.653 85.7122 228.555 86.733L229.501 84.9707C227.904 84.1141 226.65 82.9348 225.72 81.4237L224.016 82.4719ZM228.564 86.7377C230.515 87.7598 232.704 88.2598 235.108 88.2598V86.2598C232.989 86.2598 231.125 85.8212 229.492 84.966L228.564 86.7377ZM285.859 93.0198L285.535 93.966L285.547 93.9698L285.859 93.0198ZM278.499 88.9238L277.595 88.4952L277.281 89.1577L277.819 89.6566L278.499 88.9238ZM280.867 83.9318L281.526 83.1792L280.53 82.3084L279.964 83.5032L280.867 83.9318ZM287.395 87.6438L287.047 88.5814L287.395 87.6438ZM301.987 88.2198L302.333 89.1582L301.987 88.2198ZM305.571 85.7878L306.371 86.3878L306.377 86.38L306.383 86.3721L305.571 85.7878ZM305.187 78.4918L304.496 79.2145L304.503 79.2218L304.511 79.229L305.187 78.4918ZM301.283 76.2518L300.929 77.1871L300.944 77.1928L300.959 77.198L301.283 76.2518ZM296.035 74.7158L296.252 73.7396L296.035 74.7158ZM290.211 73.2438L289.914 74.1987L289.926 74.2026L289.939 74.2061L290.211 73.2438ZM284.899 71.0038L284.405 71.8736L284.415 71.8791L284.899 71.0038ZM281.059 67.4198L280.216 67.9583L280.223 67.969L281.059 67.4198ZM281.379 55.1958L280.533 54.6625L280.53 54.6675L281.379 55.1958ZM287.011 50.5238L287.427 51.4332L287.434 51.43L287.011 50.5238ZM311.139 52.6998L312.063 53.0812L312.373 52.3308L311.702 51.8736L311.139 52.6998ZM309.027 57.8198L308.472 58.6519L309.487 59.3281L309.951 58.2012L309.027 57.8198ZM302.947 55.0678L302.677 56.0308L302.686 56.0333L302.695 56.0356L302.947 55.0678ZM286.947 57.6918L286.135 57.1075L286.128 57.1184L286.12 57.1295L286.947 57.6918ZM287.331 65.0518L286.64 65.7745L286.647 65.7818L286.655 65.789L287.331 65.0518ZM291.235 67.2918L290.904 68.2353L290.911 68.238L291.235 67.2918ZM296.547 68.8278L296.31 69.7992L296.32 69.8017L296.33 69.804L296.547 68.8278ZM302.307 70.2998L302.029 71.2606L302.035 71.2621L302.307 70.2998ZM307.619 72.4758L307.125 73.3456L307.135 73.3511L307.619 72.4758ZM311.523 76.0598L312.359 75.5106L311.523 76.0598ZM311.139 88.1558L311.98 88.6976L311.985 88.6891L311.139 88.1558ZM305.379 92.8278L305.789 93.7398L305.796 93.7367L305.379 92.8278ZM295.651 93.5558C292.339 93.5558 289.181 93.0594 286.171 92.0698L285.547 93.9698C288.766 95.0283 292.136 95.5558 295.651 95.5558V93.5558ZM286.183 92.0738C283.157 91.0376 280.84 89.7329 279.179 88.191L277.819 89.6566C279.742 91.4428 282.331 92.8687 285.535 93.9659L286.183 92.0738ZM279.402 89.3524L281.771 84.3604L279.964 83.5032L277.595 88.4952L279.402 89.3524ZM280.208 84.6844C282.026 86.2746 284.315 87.5677 287.047 88.5814L287.743 86.7063C285.185 85.7573 283.121 84.5757 281.526 83.1792L280.208 84.6844ZM287.047 88.5814C289.805 89.6046 292.675 90.1158 295.651 90.1158V88.1158C292.909 88.1158 290.275 87.6457 287.743 86.7063L287.047 88.5814ZM295.651 90.1158C298.318 90.1158 300.56 89.8114 302.333 89.1582L301.641 87.2815C300.172 87.8229 298.189 88.1158 295.651 88.1158V90.1158ZM302.333 89.1582C304.073 88.5169 305.453 87.6113 306.371 86.3878L304.771 85.1878C304.153 86.0124 303.143 86.7281 301.641 87.2815L302.333 89.1582ZM306.383 86.3721C307.274 85.1341 307.723 83.7348 307.723 82.2038H305.723C305.723 83.3182 305.404 84.3082 304.759 85.2035L306.383 86.3721ZM307.723 82.2038C307.723 80.4205 307.116 78.9039 305.863 77.7547L304.511 79.229C305.306 79.957 305.723 80.9152 305.723 82.2038H307.723ZM305.878 77.7692C304.768 76.7076 303.33 75.8954 301.607 75.3057L300.959 77.198C302.478 77.7176 303.643 78.3987 304.496 79.2145L305.878 77.7692ZM301.637 75.3165C300.007 74.6998 298.211 74.175 296.252 73.7396L295.818 75.692C297.699 76.11 299.402 76.6091 300.929 77.1871L301.637 75.3165ZM296.252 73.7396C294.351 73.3172 292.428 72.8312 290.483 72.2815L289.939 74.2061C291.919 74.7658 293.879 75.2611 295.818 75.692L296.252 73.7396ZM290.508 72.289C288.647 71.7101 286.94 70.9891 285.383 70.1286L284.415 71.8791C286.101 72.8105 287.935 73.5829 289.914 74.1987L290.508 72.289ZM285.393 70.1341C283.949 69.3151 282.788 68.2294 281.895 66.8706L280.223 67.969C281.293 69.5969 282.691 70.9006 284.405 71.8735L285.393 70.1341ZM281.902 66.8814C281.05 65.5491 280.587 63.7886 280.587 61.5318H278.587C278.587 64.0537 279.105 66.2185 280.216 67.9582L281.902 66.8814ZM280.587 61.5318C280.587 59.4108 281.134 57.4824 282.228 55.7241L280.53 54.6675C279.235 56.7492 278.587 59.0448 278.587 61.5318H280.587ZM282.225 55.7291C283.34 53.9604 285.052 52.5201 287.427 51.4331L286.595 49.6145C283.935 50.8315 281.893 52.5059 280.533 54.6625L282.225 55.7291ZM287.434 51.43C289.82 50.3163 292.906 49.7318 296.739 49.7318V47.7318C292.721 47.7318 289.322 48.342 286.588 49.6176L287.434 51.43ZM296.739 49.7318C299.253 49.7318 301.748 50.0614 304.225 50.7221L304.741 48.7896C302.098 48.0849 299.43 47.7318 296.739 47.7318V49.7318ZM304.225 50.7221C306.694 51.3804 308.806 52.3192 310.576 53.526L311.702 51.8736C309.718 50.5204 307.392 49.4966 304.741 48.7896L304.225 50.7221ZM310.215 52.3185L308.103 57.4385L309.951 58.2012L312.063 53.0812L310.215 52.3185ZM309.582 56.9878C307.573 55.6489 305.445 54.684 303.199 54.1L302.695 56.0356C304.716 56.561 306.641 57.4308 308.472 58.6519L309.582 56.9878ZM303.217 54.1049C301.005 53.4855 298.844 53.1718 296.739 53.1718V55.1718C298.644 55.1718 300.623 55.4555 302.677 56.0308L303.217 54.1049ZM296.739 53.1718C294.147 53.1718 291.942 53.4999 290.164 54.2017L290.898 56.062C292.363 55.4838 294.296 55.1718 296.739 55.1718V53.1718ZM290.164 54.2017C288.421 54.8896 287.046 55.8423 286.135 57.1075L287.759 58.2761C288.384 57.408 289.398 56.6541 290.898 56.062L290.164 54.2017ZM286.12 57.1295C285.279 58.3664 284.859 59.758 284.859 61.2758H286.859C286.859 60.1483 287.164 59.1505 287.774 58.2541L286.12 57.1295ZM284.859 61.2758C284.859 63.0791 285.429 64.6162 286.64 65.7745L288.022 64.3292C287.27 63.6101 286.859 62.6298 286.859 61.2758H284.859ZM286.655 65.789C287.797 66.8356 289.223 67.6448 290.904 68.2353L291.566 66.3484C290.09 65.8295 288.913 65.1453 288.007 64.3147L286.655 65.789ZM290.911 68.238C292.565 68.8037 294.365 69.3238 296.31 69.7992L296.784 67.8564C294.889 67.3932 293.148 66.8893 291.559 66.3457L290.911 68.238ZM296.33 69.804C298.229 70.2261 300.129 70.7116 302.029 71.2605L302.585 69.3391C300.645 68.7787 298.705 68.2829 296.764 67.8516L296.33 69.804ZM302.035 71.2621C303.93 71.7976 305.625 72.4937 307.125 73.3455L308.113 71.6061C306.456 70.6659 304.61 69.9114 302.579 69.3375L302.035 71.2621ZM307.135 73.3511C308.62 74.1715 309.798 75.2564 310.687 76.609L312.359 75.5106C311.285 73.8766 309.861 72.5721 308.103 71.6006L307.135 73.3511ZM310.687 76.609C311.533 77.8953 311.995 79.6082 311.995 81.8198H313.995C313.995 79.3381 313.476 77.211 312.359 75.5106L310.687 76.609ZM311.995 81.8198C311.995 83.8873 311.433 85.8151 310.293 87.6225L311.985 88.6891C313.32 86.5712 313.995 84.275 313.995 81.8198H311.995ZM310.298 87.6141C309.188 89.3377 307.435 90.7837 304.962 91.919L305.796 93.7367C308.528 92.4826 310.616 90.8139 311.98 88.6975L310.298 87.6141ZM304.969 91.9159C302.578 92.9916 299.487 93.5558 295.651 93.5558V95.5558C299.665 95.5558 303.06 94.9681 305.789 93.7397L304.969 91.9159ZM326.889 92.1878L327.381 91.317L326.889 92.1878ZM320.617 86.0438L319.752 86.546L319.756 86.5521L320.617 86.0438ZM320.617 68.1238L319.756 67.6156V67.6156L320.617 68.1238ZM326.889 62.0438L327.37 62.9207L327.381 62.9146L326.889 62.0438ZM345.001 62.0438L344.509 62.9146L344.518 62.9193L344.526 62.9238L345.001 62.0438ZM351.273 68.1238L350.406 68.6215L350.41 68.63L350.415 68.6383L351.273 68.1238ZM351.273 86.0438L350.412 85.5355L350.406 85.5462L351.273 86.0438ZM345.001 92.1878L344.515 91.3136L344.509 91.317L345.001 92.1878ZM341.801 87.5798L341.312 86.7076L341.303 86.7129L341.801 87.5798ZM345.897 83.4198L346.774 83.9002L346.779 83.8915L345.897 83.4198ZM345.897 70.8118L345.02 71.2922L345.025 71.3011L345.897 70.8118ZM341.801 66.6518L341.302 67.5188L341.312 67.524L341.801 66.6518ZM326.057 70.8118L326.92 71.317L326.925 71.308L326.057 70.8118ZM326.057 83.4198L325.184 83.9072L325.189 83.916L326.057 83.4198ZM335.977 93.4278C332.714 93.4278 329.858 92.7156 327.381 91.317L326.397 93.0586C329.211 94.6467 332.413 95.4278 335.977 95.4278V93.4278ZM327.381 91.317C324.887 89.9095 322.924 87.9862 321.478 85.5356L319.756 86.5521C321.382 89.3068 323.6 91.4795 326.397 93.0586L327.381 91.317ZM321.482 85.5417C320.042 83.0621 319.313 80.2514 319.313 77.0838H317.313C317.313 80.5722 318.12 83.7348 319.752 86.546L321.482 85.5417ZM319.313 77.0838C319.313 73.8708 320.043 71.0635 321.478 68.6321L319.756 67.6156C318.119 70.3894 317.313 73.5555 317.313 77.0838H319.313ZM321.478 68.6321C322.923 66.1839 324.882 64.2847 327.37 62.9206L326.408 61.167C323.605 62.7043 321.383 64.8584 319.756 67.6156L321.478 68.6321ZM327.381 62.9146C329.858 61.5161 332.714 60.8038 335.977 60.8038V58.8038C332.413 58.8038 329.211 59.5849 326.397 61.173L327.381 62.9146ZM335.977 60.8038C339.195 60.8038 342.03 61.515 344.509 62.9146L345.493 61.173C342.681 59.586 339.501 58.8038 335.977 58.8038V60.8038ZM344.526 62.9238C347.053 64.2878 349.007 66.1834 350.406 68.6215L352.14 67.6262C350.553 64.859 348.325 62.7012 345.476 61.1638L344.526 62.9238ZM350.415 68.6383C351.846 71.0217 352.577 73.8253 352.577 77.0838H354.577C354.577 73.5157 353.772 70.346 352.13 67.6093L350.415 68.6383ZM352.577 77.0838C352.577 80.2968 351.847 83.1041 350.412 85.5356L352.134 86.5521C353.771 83.7782 354.577 80.6121 354.577 77.0838H352.577ZM350.406 85.5462C349.005 87.9869 347.048 89.9064 344.515 91.3137L345.487 93.062C348.33 91.4825 350.554 89.3061 352.14 86.5415L350.406 85.5462ZM344.509 91.317C342.03 92.7166 339.195 93.4278 335.977 93.4278V95.4278C339.501 95.4278 342.681 94.6457 345.493 93.0586L344.509 91.317ZM335.977 90.0518C338.309 90.0518 340.426 89.5242 342.299 88.4467L341.303 86.7129C339.763 87.5981 337.997 88.0518 335.977 88.0518V90.0518ZM342.29 88.452C344.206 87.3772 345.705 85.8533 346.774 83.9001L345.02 82.9395C344.127 84.5704 342.894 85.8198 341.312 86.7077L342.29 88.452ZM346.779 83.8915C347.849 81.8915 348.369 79.6131 348.369 77.0838H346.369C346.369 79.3332 345.908 81.2789 345.015 82.9482L346.779 83.8915ZM348.369 77.0838C348.369 74.5167 347.85 72.25 346.769 70.3226L345.025 71.3011C345.906 72.8723 346.369 74.7869 346.369 77.0838H348.369ZM346.774 70.3315C345.705 68.3784 344.206 66.8545 342.29 65.7797L341.312 67.524C342.894 68.4118 344.127 69.6613 345.02 71.2921L346.774 70.3315ZM342.299 65.7849C340.426 64.7074 338.309 64.1798 335.977 64.1798V66.1798C337.997 66.1798 339.763 66.6336 341.303 67.5187L342.299 65.7849ZM335.977 64.1798C333.645 64.1798 331.528 64.7074 329.655 65.7849L330.651 67.5187C332.191 66.6336 333.957 66.1798 335.977 66.1798V64.1798ZM329.655 65.7849C327.786 66.8592 326.296 68.3772 325.189 70.3157L326.925 71.308C327.866 69.6624 329.106 68.4071 330.651 67.5187L329.655 65.7849ZM325.194 70.3066C324.064 72.2372 323.521 74.5098 323.521 77.0838H325.521C325.521 74.7938 326.002 72.8851 326.92 71.317L325.194 70.3066ZM323.521 77.0838C323.521 79.62 324.066 81.9041 325.184 83.9072L326.93 82.9325C326 81.2662 325.521 79.3263 325.521 77.0838H323.521ZM325.189 83.916C326.296 85.8544 327.786 87.3725 329.655 88.4467L330.651 86.7129C329.106 85.8245 327.866 84.5692 326.925 82.9237L325.189 83.916ZM329.655 88.4467C331.528 89.5242 333.645 90.0518 335.977 90.0518V88.0518C333.957 88.0518 332.191 87.5981 330.651 86.7129L329.655 88.4467ZM367.514 92.1878L368.006 91.317L367.514 92.1878ZM361.242 86.0438L360.377 86.546L360.381 86.5521L361.242 86.0438ZM361.242 68.1238L360.381 67.6156V67.6156L361.242 68.1238ZM367.514 62.0438L367.995 62.9207L368.006 62.9146L367.514 62.0438ZM385.626 62.0438L385.134 62.9146L385.143 62.9193L385.151 62.9238L385.626 62.0438ZM391.898 68.1238L391.031 68.6215L391.035 68.63L391.04 68.6383L391.898 68.1238ZM391.898 86.0438L391.037 85.5355L391.031 85.5462L391.898 86.0438ZM385.626 92.1878L385.14 91.3136L385.134 91.317L385.626 92.1878ZM382.426 87.5798L381.937 86.7076L381.928 86.7129L382.426 87.5798ZM386.522 83.4198L387.399 83.9002L387.404 83.8915L386.522 83.4198ZM386.522 70.8118L385.645 71.2922L385.65 71.3011L386.522 70.8118ZM382.426 66.6518L381.927 67.5188L381.937 67.524L382.426 66.6518ZM366.682 70.8118L367.545 71.317L367.55 71.308L366.682 70.8118ZM366.682 83.4198L365.809 83.9072L365.814 83.916L366.682 83.4198ZM376.602 93.4278C373.339 93.4278 370.483 92.7156 368.006 91.317L367.022 93.0586C369.836 94.6467 373.038 95.4278 376.602 95.4278V93.4278ZM368.006 91.317C365.512 89.9095 363.549 87.9862 362.103 85.5356L360.381 86.5521C362.007 89.3068 364.225 91.4795 367.022 93.0586L368.006 91.317ZM362.107 85.5417C360.667 83.0621 359.938 80.2514 359.938 77.0838H357.938C357.938 80.5722 358.745 83.7348 360.377 86.546L362.107 85.5417ZM359.938 77.0838C359.938 73.8708 360.668 71.0635 362.103 68.6321L360.381 67.6156C358.744 70.3894 357.938 73.5555 357.938 77.0838H359.938ZM362.103 68.6321C363.548 66.1839 365.507 64.2847 367.995 62.9206L367.033 61.167C364.23 62.7043 362.008 64.8584 360.381 67.6156L362.103 68.6321ZM368.006 62.9146C370.483 61.5161 373.339 60.8038 376.602 60.8038V58.8038C373.038 58.8038 369.836 59.5849 367.022 61.173L368.006 62.9146ZM376.602 60.8038C379.82 60.8038 382.655 61.515 385.134 62.9146L386.118 61.173C383.306 59.586 380.126 58.8038 376.602 58.8038V60.8038ZM385.151 62.9238C387.678 64.2878 389.632 66.1834 391.031 68.6215L392.765 67.6262C391.178 64.859 388.95 62.7012 386.101 61.1638L385.151 62.9238ZM391.04 68.6383C392.471 71.0217 393.202 73.8253 393.202 77.0838H395.202C395.202 73.5157 394.397 70.346 392.755 67.6093L391.04 68.6383ZM393.202 77.0838C393.202 80.2968 392.472 83.1041 391.037 85.5356L392.759 86.5521C394.396 83.7782 395.202 80.6121 395.202 77.0838H393.202ZM391.031 85.5462C389.63 87.9869 387.673 89.9064 385.14 91.3137L386.112 93.062C388.955 91.4825 391.179 89.3061 392.765 86.5415L391.031 85.5462ZM385.134 91.317C382.655 92.7166 379.82 93.4278 376.602 93.4278V95.4278C380.126 95.4278 383.306 94.6457 386.118 93.0586L385.134 91.317ZM376.602 90.0518C378.934 90.0518 381.051 89.5242 382.924 88.4467L381.928 86.7129C380.388 87.5981 378.622 88.0518 376.602 88.0518V90.0518ZM382.915 88.452C384.831 87.3772 386.33 85.8533 387.399 83.9001L385.645 82.9395C384.752 84.5704 383.519 85.8198 381.937 86.7077L382.915 88.452ZM387.404 83.8915C388.474 81.8915 388.994 79.6131 388.994 77.0838H386.994C386.994 79.3332 386.533 81.2789 385.64 82.9482L387.404 83.8915ZM388.994 77.0838C388.994 74.5167 388.475 72.25 387.394 70.3226L385.65 71.3011C386.531 72.8723 386.994 74.7869 386.994 77.0838H388.994ZM387.399 70.3315C386.33 68.3784 384.831 66.8545 382.915 65.7797L381.937 67.524C383.519 68.4118 384.752 69.6613 385.645 71.2921L387.399 70.3315ZM382.924 65.7849C381.051 64.7074 378.934 64.1798 376.602 64.1798V66.1798C378.622 66.1798 380.388 66.6336 381.928 67.5187L382.924 65.7849ZM376.602 64.1798C374.27 64.1798 372.153 64.7074 370.28 65.7849L371.276 67.5187C372.816 66.6336 374.582 66.1798 376.602 66.1798V64.1798ZM370.28 65.7849C368.411 66.8592 366.921 68.3772 365.814 70.3157L367.55 71.308C368.491 69.6624 369.731 68.4071 371.276 67.5187L370.28 65.7849ZM365.819 70.3066C364.689 72.2372 364.146 74.5098 364.146 77.0838H366.146C366.146 74.7938 366.627 72.8851 367.545 71.317L365.819 70.3066ZM364.146 77.0838C364.146 79.62 364.691 81.9041 365.809 83.9072L367.555 82.9325C366.625 81.2662 366.146 79.3263 366.146 77.0838H364.146ZM365.814 83.916C366.921 85.8544 368.411 87.3725 370.28 88.4467L371.276 86.7129C369.731 85.8245 368.491 84.5692 367.55 82.9237L365.814 83.916ZM370.28 88.4467C372.153 89.5242 374.27 90.0518 376.602 90.0518V88.0518C374.582 88.0518 372.816 87.5981 371.276 86.7129L370.28 88.4467ZM428.107 61.4038L427.653 62.2946L427.66 62.2982L428.107 61.4038ZM434.891 94.0438V95.0438H435.891V94.0438H434.891ZM428.747 94.0438H427.747V95.0438H428.747V94.0438ZM426.315 67.8038L425.589 68.4921L425.599 68.5017L426.315 67.8038ZM413.899 66.5878L413.433 65.7029L413.899 66.5878ZM410.123 70.3638L409.243 69.8897L409.238 69.8986L409.233 69.9075L410.123 70.3638ZM408.843 94.0438V95.0438H409.843V94.0438H408.843ZM402.699 94.0438H401.699V95.0438H402.699V94.0438ZM402.699 60.1238V59.1238H401.699V60.1238H402.699ZM408.587 60.1238H409.587V59.1238H408.587V60.1238ZM408.587 69.2758L407.657 69.643L409.587 69.2758H408.587ZM407.627 66.8438L406.733 66.3966L406.533 66.7958L406.697 67.211L407.627 66.8438ZM412.747 61.6598L412.274 60.7788L412.747 61.6598ZM420.811 60.8038C423.455 60.8038 425.726 61.3117 427.653 62.2946L428.561 60.5131C426.307 59.3626 423.714 58.8038 420.811 58.8038V60.8038ZM427.66 62.2982C429.604 63.2702 431.121 64.7435 432.222 66.7491L433.976 65.7866C432.687 63.4401 430.877 61.6708 428.554 60.5094L427.66 62.2982ZM432.222 66.7491C433.313 68.7359 433.891 71.309 433.891 74.5238H435.891C435.891 71.0826 435.274 68.1518 433.976 65.7866L432.222 66.7491ZM433.891 74.5238V94.0438H435.891V74.5238H433.891ZM434.891 93.0438H428.747V95.0438H434.891V93.0438ZM429.747 94.0438V75.2278H427.747V94.0438H429.747ZM429.747 75.2278C429.747 71.7905 428.898 69.0223 427.031 67.106L425.599 68.5017C426.974 69.9134 427.747 72.0945 427.747 75.2278H429.747ZM427.04 67.1156C425.226 65.2028 422.694 64.3078 419.595 64.3078V66.3078C422.299 66.3078 424.247 67.0769 425.59 68.4921L427.04 67.1156ZM419.595 64.3078C417.287 64.3078 415.223 64.761 413.433 65.7029L414.365 67.4727C415.818 66.708 417.551 66.3078 419.595 66.3078V64.3078ZM413.433 65.7029C411.63 66.6519 410.23 68.0564 409.243 69.8897L411.003 70.8379C411.808 69.3432 412.925 68.2304 414.365 67.4727L413.433 65.7029ZM409.233 69.9075C408.288 71.7509 407.843 73.9877 407.843 76.5718H409.843C409.843 74.2066 410.251 72.3048 411.013 70.8201L409.233 69.9075ZM407.843 76.5718V94.0438H409.843V76.5718H407.843ZM408.843 93.0438H402.699V95.0438H408.843V93.0438ZM403.699 94.0438V60.1238H401.699V94.0438H403.699ZM402.699 61.1238H408.587V59.1238H402.699V61.1238ZM407.587 60.1238V69.2758H409.587V60.1238H407.587ZM409.517 68.9087L408.557 66.4767L406.697 67.211L407.657 69.643L409.517 68.9087ZM408.521 67.291C409.533 65.2673 411.087 63.6861 413.22 62.5408L412.274 60.7788C409.798 62.1082 407.939 63.983 406.733 66.3966L408.521 67.291ZM413.22 62.5408C415.355 61.3942 417.875 60.8038 420.811 60.8038V58.8038C417.603 58.8038 414.747 59.4508 412.274 60.7788L413.22 62.5408ZM461.493 76.1238L461.008 76.998L461.493 76.1238ZM458.293 73.9478L457.64 74.7046L457.648 74.7118L457.657 74.7188L458.293 73.9478ZM455.605 71.8358L455.005 72.6358L455.019 72.6457L455.032 72.6551L455.605 71.8358ZM449.526 72.4118L448.741 71.7911L449.526 72.4118ZM448.181 76.6358V77.6358H449.135L449.18 76.6834L448.181 76.6358ZM444.15 76.6358L443.15 76.612L443.125 77.6358H444.15V76.6358ZM446.646 68.6998L445.911 68.0208L446.646 68.6998ZM456.63 67.0998L457.115 66.2257V66.2257L456.63 67.0998ZM459.766 69.2758L459.112 70.0326L459.12 70.0398L459.129 70.0468L459.766 69.2758ZM462.518 71.4518L461.918 72.2518L461.931 72.2617L461.944 72.2711L462.518 71.4518ZM468.661 70.8118L469.446 71.4325L469.452 71.4248L469.458 71.4169L468.661 70.8118ZM469.941 66.5238V65.5238H468.965L468.942 66.5L469.941 66.5238ZM473.974 66.5238L474.973 66.5476L474.998 65.5238H473.974V66.5238ZM471.478 74.5238L470.735 73.8539L470.734 73.8549L471.478 74.5238ZM465.526 76.0838C464.131 76.0838 462.96 75.7944 461.979 75.2497L461.008 76.998C462.331 77.7333 463.848 78.0838 465.526 78.0838V76.0838ZM461.979 75.2497C460.879 74.6383 459.863 73.9472 458.93 73.1769L457.657 74.7188C458.687 75.5697 459.804 76.3293 461.008 76.998L461.979 75.2497ZM458.947 73.191C457.987 72.3622 457.065 71.6366 456.179 71.0166L455.032 72.6551C455.853 73.2297 456.722 73.9121 457.64 74.7046L458.947 73.191ZM456.206 71.0358C455.187 70.2718 454.039 69.8758 452.789 69.8758V71.8758C453.588 71.8758 454.318 72.1199 455.005 72.6358L456.206 71.0358ZM452.789 69.8758C451.135 69.8758 449.752 70.5152 448.741 71.7911L450.31 73.0325C450.921 72.2604 451.714 71.8758 452.789 71.8758V69.8758ZM448.741 71.7911C447.761 73.0301 447.274 74.6637 447.183 76.5883L449.18 76.6834C449.259 75.0239 449.669 73.8415 450.31 73.0325L448.741 71.7911ZM448.181 75.6358H444.15V77.6358H448.181V75.6358ZM445.149 76.6596C445.232 73.1925 446.036 70.8316 447.38 69.3789L445.911 68.0208C444.098 69.9813 443.238 72.9112 443.15 76.612L445.149 76.6596ZM447.38 69.3789C448.763 67.8832 450.478 67.1398 452.598 67.1398V65.1398C449.938 65.1398 447.685 66.1031 445.911 68.0208L447.38 69.3789ZM452.598 67.1398C453.992 67.1398 455.163 67.4293 456.144 67.974L457.115 66.2257C455.792 65.4904 454.275 65.1398 452.598 65.1398V67.1398ZM456.144 67.974C457.24 68.5828 458.228 69.2694 459.112 70.0326L460.419 68.519C459.426 67.6609 458.323 66.8969 457.115 66.2257L456.144 67.974ZM459.129 70.0468C460.12 70.8656 461.05 71.6008 461.918 72.2518L463.117 70.6518C462.279 70.0228 461.374 69.3074 460.402 68.5049L459.129 70.0468ZM461.944 72.2711C462.962 72.9839 464.101 73.3478 465.333 73.3478V71.3478C464.518 71.3478 463.779 71.1144 463.091 70.6326L461.944 72.2711ZM465.333 73.3478C467.02 73.3478 468.429 72.7168 469.446 71.4325L467.877 70.1911C467.273 70.9548 466.463 71.3478 465.333 71.3478V73.3478ZM469.458 71.4169C470.432 70.1343 470.895 68.4798 470.941 66.5476L468.942 66.5C468.902 68.1519 468.512 69.356 467.865 70.2067L469.458 71.4169ZM469.941 67.5238H473.974V65.5238H469.941V67.5238ZM472.974 66.5C472.891 69.9647 472.088 72.3546 470.735 73.8539L472.22 75.1938C474.024 73.1944 474.885 70.2509 474.973 66.5476L472.974 66.5ZM470.734 73.8549C469.4 75.3371 467.693 76.0838 465.526 76.0838V78.0838C468.222 78.0838 470.483 77.1239 472.221 75.1928L470.734 73.8549Z" fill="white"/>
<path d="M84.4169 114.558L83.9506 113.352L83.4843 114.558L81.8612 118.755L77.6643 120.378L76.4584 120.844L77.6643 121.311L81.8612 122.934L83.4843 127.131L83.9515 128.339L84.4172 127.13L86.04 122.917L90.2354 121.311L91.449 120.847L90.2369 120.378L86.04 118.755L84.4169 114.558Z" fill="#2222FF" stroke="white"/>
<path d="M49.6998 2.73482L49.2334 1.52892L48.7671 2.73482L47.1441 6.93177L42.9471 8.55482L41.7412 9.02116L42.9471 9.4875L47.1441 11.1105L48.7671 15.3075L49.2334 16.5134L49.6998 15.3075L51.3228 11.1105L55.5198 9.4875L56.7257 9.02116L55.5198 8.55482L51.3228 6.93177L49.6998 2.73482Z" fill="#2222FF" stroke="white"/>
<path d="M204.999 28.7817L204.531 27.5697L204.066 28.7833L202.46 32.9787L198.247 34.6015L197.038 35.0671L198.247 35.5344L202.444 37.1574L204.067 41.3544L204.533 42.5603L204.999 41.3544L206.622 37.1574L210.819 35.5344L212.025 35.068L210.819 34.6017L206.622 32.9787L204.999 28.7817Z" fill="#2222FF" stroke="white"/>
<path d="M352.441 140.163L351.973 138.945L351.508 140.164L349.902 144.376L345.689 145.999L344.474 146.467L345.69 146.932L349.886 148.538L351.508 152.751L351.975 153.962L352.441 152.751L354.064 148.538L358.26 146.932L359.473 146.468L358.261 145.999L354.065 144.376L352.441 140.163Z" fill="#2222FF" stroke="white"/>
<path d="M429.872 28.7823L429.406 27.5711L428.939 28.7823L427.316 32.995L423.121 34.6011L421.907 35.0657L423.119 35.5344L427.316 37.1574L428.939 41.3544L429.406 42.5603L429.872 41.3544L431.495 37.1574L435.692 35.5344L436.904 35.0657L435.69 34.6011L431.495 32.995L429.872 28.7823Z" fill="#2222FF" stroke="white"/>
</svg>
