<svg width="232" height="212" viewBox="0 0 232 212" fill="none" xmlns="http://www.w3.org/2000/svg">
<path d="M100.999 134.421C95.7286 134.421 90.7748 131.139 87.4044 125.402C84.4525 120.388 82.8239 113.814 82.8239 106.91C82.8239 99.9961 84.4525 93.4326 87.4044 88.4194C90.7748 82.6933 95.7399 79.4002 100.999 79.4002C106.269 79.4002 111.223 82.682 114.594 88.4194C117.546 93.4326 119.174 100.007 119.174 106.91C119.174 113.814 117.546 120.388 114.594 125.402C111.223 131.128 106.269 134.421 100.999 134.421Z" fill="#F5F5F6" stroke="#2222FF" stroke-width="3" stroke-miterlimit="10"/>
<path d="M100.999 129.6C108.382 129.6 114.367 119.442 114.367 106.91C114.367 94.3794 108.382 84.221 100.999 84.221C93.6159 84.221 87.6306 94.3794 87.6306 106.91C87.6306 119.442 93.6159 129.6 100.999 129.6Z" stroke="#2222FF" stroke-width="3" stroke-miterlimit="10"/>
<path d="M102.096 79.4455L180.655 86.0882C180.655 86.0882 188.244 91.4183 188.244 106.91C188.244 122.403 180.655 127.721 180.655 127.721L102.096 134.375" stroke="#2222FF" stroke-width="3" stroke-miterlimit="10"/>
<path d="M182.77 88.227L217.673 91.1806C217.673 91.1806 223.407 95.198 223.407 106.91C223.407 118.623 217.673 122.629 217.673 122.629L182.77 125.583" stroke="#2222FF" stroke-width="3" stroke-miterlimit="10"/>
<path d="M221.767 97.2123L226.551 97.6197C226.551 97.6197 229.933 99.9961 229.933 106.91C229.933 113.825 226.551 116.201 226.551 116.201L221.767 116.609" stroke="#2222FF" stroke-width="3" stroke-miterlimit="10"/>
<path d="M61.4027 134.421C56.1323 134.421 51.1785 131.139 47.8081 125.402C44.8562 120.388 43.2275 113.814 43.2275 106.91C43.2275 99.9961 44.8562 93.4326 47.8081 88.4194C51.1785 82.6933 56.1436 79.4002 61.4027 79.4002C66.6732 79.4002 71.627 82.682 74.9973 88.4194C77.9492 93.4326 79.5779 100.007 79.5779 106.91C79.5779 113.814 77.9492 120.388 74.9973 125.402C71.6156 131.128 66.6619 134.421 61.4027 134.421Z" fill="#F5F5F6" stroke="#2222FF" stroke-width="3" stroke-miterlimit="10"/>
<path d="M61.4027 129.6C68.7859 129.6 74.7711 119.442 74.7711 106.91C74.7711 94.3794 68.7859 84.221 61.4027 84.221C54.0195 84.221 48.0343 94.3794 48.0343 106.91C48.0343 119.442 54.0195 129.6 61.4027 129.6Z" stroke="#2222FF" stroke-width="3" stroke-miterlimit="10"/>
<path d="M93.082 131.784L62.4885 134.376" stroke="#2222FF" stroke-width="3" stroke-miterlimit="10"/>
<path d="M62.4885 79.4455L92.9124 82.0143" stroke="#2222FF" stroke-width="3" stroke-miterlimit="10"/>
<path d="M122.475 160.981L123.99 164.919L127.938 166.435L123.99 167.952L122.475 171.901L120.959 167.963L117.023 166.435L120.959 164.919L122.475 160.981Z" fill="#F12052"/>
<path d="M30.9716 52.1097L32.4871 56.0591L36.4343 57.5755L32.4871 59.0919L30.9716 63.0414L29.456 59.0919L25.5201 57.5755L29.456 56.0591L30.9716 52.1097Z" fill="#F12052"/>
<path d="M136.58 46.8311L138.096 50.7693L142.032 52.297L138.096 53.8134L136.58 57.7515L135.053 53.8134L131.118 52.297L135.065 50.7693L136.58 46.8311Z" fill="#F12052"/>
<path d="M223.407 145.014L224.923 148.964L228.859 150.48L224.923 151.996L223.407 155.946L221.892 151.996L217.944 150.48L221.892 148.964L223.407 145.014Z" fill="#F12052"/>
<path d="M190.617 170.203H189.69V211.531H190.617V170.203Z" fill="#2222FF"/>
<path d="M210.812 191.33V190.402H169.508V191.33H210.812Z" fill="#2222FF"/>
<path d="M175.875 175.931L175.219 176.587L204.425 205.81L205.081 205.154L175.875 175.931Z" fill="#2222FF"/>
<path d="M205.087 176.579L204.431 175.923L175.225 205.146L175.881 205.802L205.087 176.579Z" fill="#2222FF"/>
<path d="M190.154 194.556C192.19 194.556 193.841 192.904 193.841 190.867C193.841 188.83 192.19 187.178 190.154 187.178C188.117 187.178 186.467 188.83 186.467 190.867C186.467 192.904 188.117 194.556 190.154 194.556Z" fill="#2222FF"/>
<path d="M142.054 1.95059V20.6906C142.054 22.4899 143.513 23.9611 145.323 23.9611H182.714C184.512 23.9611 185.982 25.4209 185.982 27.2315V48.348C185.982 50.1473 187.441 51.6185 189.251 51.6185H225.873" stroke="#2222FF" stroke-width="3" stroke-miterlimit="10"/>
<path d="M142.054 3.50095C142.91 3.50095 143.604 2.80683 143.604 1.95059C143.604 1.09436 142.91 0.400238 142.054 0.400238C141.199 0.400238 140.505 1.09436 140.505 1.95059C140.505 2.80683 141.199 3.50095 142.054 3.50095Z" fill="#2222FF"/>
<path d="M225.85 53.1688C226.706 53.1688 227.4 52.4747 227.4 51.6185C227.4 50.7622 226.706 50.0681 225.85 50.0681C224.994 50.0681 224.301 50.7622 224.301 51.6185C224.301 52.4747 224.994 53.1688 225.85 53.1688Z" fill="#2222FF"/>
<path d="M2.43646 159.447H17.0603C19.0169 159.447 20.6003 161.031 20.6003 162.989V175.109C20.6003 177.067 22.1837 178.651 24.1403 178.651H60.977C62.9337 178.651 64.5171 180.235 64.5171 182.193V202.766C64.5171 204.724 66.1005 206.308 68.0571 206.308H129.776" stroke="#2222FF" stroke-width="3" stroke-miterlimit="10"/>
<path d="M2.43643 160.997C3.29218 160.997 3.9859 160.303 3.9859 159.447C3.9859 158.591 3.29218 157.897 2.43643 157.897C1.58069 157.897 0.886963 158.591 0.886963 159.447C0.886963 160.303 1.58069 160.997 2.43643 160.997Z" fill="#2222FF"/>
<path d="M129.764 207.847C130.62 207.847 131.314 207.153 131.314 206.297C131.314 205.441 130.62 204.747 129.764 204.747C128.909 204.747 128.215 205.441 128.215 206.297C128.215 207.153 128.909 207.847 129.764 207.847Z" fill="#2222FF"/>
</svg>
