<svg width="800" height="226" viewBox="0 0 800 226" fill="none" xmlns="http://www.w3.org/2000/svg">
<rect x="0.486328" width="799.028" height="225.956" rx="28.6728" fill="white" fill-opacity="0.26"/>
<path d="M65.693 93.478L81.569 46.543H94.547L110.423 93.478H99.776L96.626 83.902H79.427L76.277 93.478H65.693ZM82.136 75.397H93.917L86.735 53.221H89.381L82.136 75.397ZM112.608 93.478V59.08H121.428V65.884L120.924 64.372C121.722 62.314 123.003 60.802 124.767 59.836C126.573 58.828 128.673 58.324 131.067 58.324C133.671 58.324 135.939 58.87 137.871 59.962C139.845 61.054 141.378 62.587 142.47 64.561C143.562 66.493 144.108 68.761 144.108 71.365V93.478H134.658V73.381C134.658 72.037 134.385 70.882 133.839 69.916C133.335 68.95 132.6 68.194 131.634 67.648C130.71 67.102 129.618 66.829 128.358 66.829C127.14 66.829 126.048 67.102 125.082 67.648C124.116 68.194 123.36 68.95 122.814 69.916C122.31 70.882 122.058 72.037 122.058 73.381V93.478H112.608ZM164.89 93.856C160.732 93.856 157.498 92.743 155.188 90.517C152.92 88.249 151.786 85.099 151.786 81.067V67.27H145.99V59.08H146.305C148.069 59.08 149.413 58.639 150.337 57.757C151.303 56.875 151.786 55.552 151.786 53.788V51.268H161.236V59.08H169.3V67.27H161.236V80.437C161.236 81.613 161.446 82.6 161.866 83.398C162.286 84.154 162.937 84.721 163.819 85.099C164.701 85.477 165.793 85.666 167.095 85.666C167.389 85.666 167.725 85.645 168.103 85.603C168.481 85.561 168.88 85.519 169.3 85.477V93.478C168.67 93.562 167.956 93.646 167.158 93.73C166.36 93.814 165.604 93.856 164.89 93.856ZM183.485 94.234C181.007 94.234 178.865 93.835 177.059 93.037C175.253 92.239 173.867 91.105 172.901 89.635C171.935 88.123 171.452 86.338 171.452 84.28C171.452 82.348 171.893 80.647 172.775 79.177C173.657 77.665 175.001 76.405 176.807 75.397C178.655 74.389 180.944 73.675 183.674 73.255L194.195 71.554V78.484L185.375 80.059C184.031 80.311 183.002 80.752 182.288 81.382C181.574 81.97 181.217 82.831 181.217 83.965C181.217 85.015 181.616 85.834 182.414 86.422C183.212 87.01 184.199 87.304 185.375 87.304C186.929 87.304 188.294 86.968 189.47 86.296C190.646 85.624 191.549 84.721 192.179 83.587C192.851 82.411 193.187 81.13 193.187 79.744V70.798C193.187 69.496 192.662 68.404 191.612 67.522C190.604 66.64 189.218 66.199 187.454 66.199C185.774 66.199 184.283 66.661 182.981 67.585C181.721 68.509 180.797 69.727 180.209 71.239L172.649 67.648C173.321 65.716 174.392 64.057 175.862 62.671C177.332 61.285 179.096 60.214 181.154 59.458C183.212 58.702 185.459 58.324 187.895 58.324C190.793 58.324 193.355 58.849 195.581 59.899C197.807 60.949 199.529 62.419 200.747 64.309C202.007 66.157 202.637 68.32 202.637 70.798V93.478H193.817V87.934L195.959 87.556C194.951 89.068 193.838 90.328 192.62 91.336C191.402 92.302 190.037 93.016 188.525 93.478C187.013 93.982 185.333 94.234 183.485 94.234ZM207.568 93.478V45.787H217.018V93.478H207.568ZM221.933 106.078V59.08H230.753V65.632L229.934 63.742C231.068 62.02 232.601 60.697 234.533 59.773C236.507 58.807 238.754 58.324 241.274 58.324C244.55 58.324 247.511 59.122 250.157 60.718C252.803 62.314 254.903 64.477 256.457 67.207C258.011 69.895 258.788 72.919 258.788 76.279C258.788 79.597 258.011 82.621 256.457 85.351C254.945 88.081 252.866 90.244 250.22 91.84C247.574 93.436 244.571 94.234 241.211 94.234C238.859 94.234 236.675 93.814 234.659 92.974C232.685 92.092 231.089 90.811 229.871 89.131L231.383 87.178V106.078H221.933ZM240.077 85.729C241.841 85.729 243.395 85.33 244.739 84.532C246.083 83.734 247.133 82.621 247.889 81.193C248.645 79.765 249.023 78.127 249.023 76.279C249.023 74.431 248.645 72.814 247.889 71.428C247.133 70 246.083 68.887 244.739 68.089C243.395 67.249 241.841 66.829 240.077 66.829C238.397 66.829 236.885 67.228 235.541 68.026C234.239 68.824 233.21 69.937 232.454 71.365C231.74 72.793 231.383 74.431 231.383 76.279C231.383 78.127 231.74 79.765 232.454 81.193C233.21 82.621 234.239 83.734 235.541 84.532C236.885 85.33 238.397 85.729 240.077 85.729ZM262.322 93.478V45.787H271.772V65.884L270.638 64.372C271.436 62.314 272.717 60.802 274.481 59.836C276.287 58.828 278.387 58.324 280.781 58.324C283.385 58.324 285.653 58.87 287.585 59.962C289.559 61.054 291.092 62.587 292.184 64.561C293.276 66.493 293.822 68.761 293.822 71.365V93.478H284.372V73.381C284.372 72.037 284.099 70.882 283.553 69.916C283.049 68.95 282.314 68.194 281.348 67.648C280.424 67.102 279.332 66.829 278.072 66.829C276.854 66.829 275.762 67.102 274.796 67.648C273.83 68.194 273.074 68.95 272.528 69.916C272.024 70.882 271.772 72.037 271.772 73.381V93.478H262.322ZM308.683 94.234C306.205 94.234 304.063 93.835 302.257 93.037C300.451 92.239 299.065 91.105 298.099 89.635C297.133 88.123 296.65 86.338 296.65 84.28C296.65 82.348 297.091 80.647 297.973 79.177C298.855 77.665 300.199 76.405 302.005 75.397C303.853 74.389 306.142 73.675 308.872 73.255L319.393 71.554V78.484L310.573 80.059C309.229 80.311 308.2 80.752 307.486 81.382C306.772 81.97 306.415 82.831 306.415 83.965C306.415 85.015 306.814 85.834 307.612 86.422C308.41 87.01 309.397 87.304 310.573 87.304C312.127 87.304 313.492 86.968 314.668 86.296C315.844 85.624 316.747 84.721 317.377 83.587C318.049 82.411 318.385 81.13 318.385 79.744V70.798C318.385 69.496 317.86 68.404 316.81 67.522C315.802 66.64 314.416 66.199 312.652 66.199C310.972 66.199 309.481 66.661 308.179 67.585C306.919 68.509 305.995 69.727 305.407 71.239L297.847 67.648C298.519 65.716 299.59 64.057 301.06 62.671C302.53 61.285 304.294 60.214 306.352 59.458C308.41 58.702 310.657 58.324 313.093 58.324C315.991 58.324 318.553 58.849 320.779 59.899C323.005 60.949 324.727 62.419 325.945 64.309C327.205 66.157 327.835 68.32 327.835 70.798V93.478H319.015V87.934L321.157 87.556C320.149 89.068 319.036 90.328 317.818 91.336C316.6 92.302 315.235 93.016 313.723 93.478C312.211 93.982 310.531 94.234 308.683 94.234ZM342.779 93.478V46.543H352.544V66.829H370.814V46.543H380.579V93.478H370.814V75.334H352.544V93.478H342.779ZM396.876 94.234C394.398 94.234 392.256 93.835 390.45 93.037C388.644 92.239 387.258 91.105 386.292 89.635C385.326 88.123 384.843 86.338 384.843 84.28C384.843 82.348 385.284 80.647 386.166 79.177C387.048 77.665 388.392 76.405 390.198 75.397C392.046 74.389 394.335 73.675 397.065 73.255L407.586 71.554V78.484L398.766 80.059C397.422 80.311 396.393 80.752 395.679 81.382C394.965 81.97 394.608 82.831 394.608 83.965C394.608 85.015 395.007 85.834 395.805 86.422C396.603 87.01 397.59 87.304 398.766 87.304C400.32 87.304 401.685 86.968 402.861 86.296C404.037 85.624 404.94 84.721 405.57 83.587C406.242 82.411 406.578 81.13 406.578 79.744V70.798C406.578 69.496 406.053 68.404 405.003 67.522C403.995 66.64 402.609 66.199 400.845 66.199C399.165 66.199 397.674 66.661 396.372 67.585C395.112 68.509 394.188 69.727 393.6 71.239L386.04 67.648C386.712 65.716 387.783 64.057 389.253 62.671C390.723 61.285 392.487 60.214 394.545 59.458C396.603 58.702 398.85 58.324 401.286 58.324C404.184 58.324 406.746 58.849 408.972 59.899C411.198 60.949 412.92 62.419 414.138 64.309C415.398 66.157 416.028 68.32 416.028 70.798V93.478H407.208V87.934L409.35 87.556C408.342 89.068 407.229 90.328 406.011 91.336C404.793 92.302 403.428 93.016 401.916 93.478C400.404 93.982 398.724 94.234 396.876 94.234ZM437.842 94.234C434.398 94.234 431.29 93.457 428.518 91.903C425.788 90.307 423.604 88.144 421.966 85.414C420.37 82.684 419.572 79.618 419.572 76.216C419.572 72.814 420.37 69.769 421.966 67.081C423.562 64.351 425.746 62.209 428.518 60.655C431.29 59.101 434.398 58.324 437.842 58.324C440.404 58.324 442.777 58.765 444.961 59.647C447.145 60.529 449.014 61.768 450.568 63.364C452.122 64.918 453.235 66.766 453.907 68.908L445.717 72.436C445.129 70.714 444.121 69.349 442.693 68.341C441.307 67.333 439.69 66.829 437.842 66.829C436.204 66.829 434.734 67.228 433.432 68.026C432.172 68.824 431.164 69.937 430.408 71.365C429.694 72.793 429.337 74.431 429.337 76.279C429.337 78.127 429.694 79.765 430.408 81.193C431.164 82.621 432.172 83.734 433.432 84.532C434.734 85.33 436.204 85.729 437.842 85.729C439.732 85.729 441.37 85.225 442.756 84.217C444.142 83.209 445.129 81.844 445.717 80.122L453.907 83.713C453.277 85.729 452.185 87.535 450.631 89.131C449.077 90.727 447.208 91.987 445.024 92.911C442.84 93.793 440.446 94.234 437.842 94.234ZM457.472 93.478V45.787H466.922V76.342L463.394 75.208L478.577 59.08H490.232L477.758 72.94L490.169 93.478H479.459L469.064 76.027L474.545 74.641L464.024 86.107L466.922 80.626V93.478H457.472ZM508.34 94.234C504.686 94.234 501.515 93.436 498.827 91.84C496.139 90.202 494.06 88.018 492.59 85.288C491.12 82.558 490.385 79.534 490.385 76.216C490.385 72.772 491.141 69.706 492.653 67.018C494.207 64.33 496.286 62.209 498.89 60.655C501.494 59.101 504.434 58.324 507.71 58.324C510.44 58.324 512.855 58.765 514.955 59.647C517.055 60.487 518.819 61.684 520.247 63.238C521.717 64.792 522.83 66.598 523.586 68.656C524.342 70.672 524.72 72.877 524.72 75.271C524.72 75.943 524.678 76.615 524.594 77.287C524.552 77.917 524.447 78.463 524.279 78.925H498.512V71.995H518.924L514.451 75.271C514.871 73.465 514.85 71.869 514.388 70.483C513.926 69.055 513.107 67.942 511.931 67.144C510.797 66.304 509.39 65.884 507.71 65.884C506.072 65.884 504.665 66.283 503.489 67.081C502.313 67.879 501.431 69.055 500.843 70.609C500.255 72.163 500.024 74.053 500.15 76.279C499.982 78.211 500.213 79.912 500.843 81.382C501.473 82.852 502.439 84.007 503.741 84.847C505.043 85.645 506.618 86.044 508.466 86.044C510.146 86.044 511.574 85.708 512.75 85.036C513.968 84.364 514.913 83.44 515.585 82.264L523.145 85.855C522.473 87.535 521.402 89.005 519.932 90.265C518.504 91.525 516.803 92.512 514.829 93.226C512.855 93.898 510.692 94.234 508.34 94.234ZM528.284 93.478V59.08H537.104V67.333L536.474 66.136C537.23 63.238 538.469 61.285 540.191 60.277C541.955 59.227 544.034 58.702 546.428 58.702H548.444V66.892H545.483C543.173 66.892 541.304 67.606 539.876 69.034C538.448 70.42 537.734 72.394 537.734 74.956V93.478H528.284ZM551.279 93.478V46.543H561.044V66.829H579.314V46.543H589.079V93.478H579.314V75.334H561.044V93.478H551.279ZM611.802 94.234C608.4 94.234 605.292 93.457 602.478 91.903C599.706 90.349 597.48 88.228 595.8 85.54C594.162 82.81 593.343 79.723 593.343 76.279C593.343 72.793 594.162 69.706 595.8 67.018C597.48 64.33 599.706 62.209 602.478 60.655C605.292 59.101 608.4 58.324 611.802 58.324C615.204 58.324 618.291 59.101 621.063 60.655C623.835 62.209 626.04 64.33 627.678 67.018C629.358 69.706 630.198 72.793 630.198 76.279C630.198 79.723 629.358 82.81 627.678 85.54C626.04 88.228 623.835 90.349 621.063 91.903C618.291 93.457 615.204 94.234 611.802 94.234ZM611.802 85.729C613.524 85.729 615.015 85.33 616.275 84.532C617.577 83.734 618.585 82.621 619.299 81.193C620.055 79.765 620.433 78.127 620.433 76.279C620.433 74.431 620.055 72.814 619.299 71.428C618.585 70 617.577 68.887 616.275 68.089C615.015 67.249 613.524 66.829 611.802 66.829C610.08 66.829 608.568 67.249 607.266 68.089C605.964 68.887 604.935 70 604.179 71.428C603.465 72.814 603.108 74.431 603.108 76.279C603.108 78.127 603.465 79.765 604.179 81.193C604.935 82.621 605.964 83.734 607.266 84.532C608.568 85.33 610.08 85.729 611.802 85.729ZM646.113 94.234C643.341 94.234 640.968 93.646 638.994 92.47C637.062 91.252 635.592 89.572 634.584 87.43C633.576 85.288 633.072 82.789 633.072 79.933V59.08H642.522V79.177C642.522 80.479 642.774 81.634 643.278 82.642C643.824 83.608 644.58 84.364 645.546 84.91C646.512 85.456 647.604 85.729 648.822 85.729C650.082 85.729 651.174 85.456 652.098 84.91C653.064 84.364 653.799 83.608 654.303 82.642C654.849 81.634 655.122 80.479 655.122 79.177V59.08H664.572V93.478H655.752V86.674L656.256 88.186C655.458 90.244 654.156 91.777 652.35 92.785C650.586 93.751 648.507 94.234 646.113 94.234ZM682.961 94.234C679.181 94.234 675.884 93.352 673.07 91.588C670.298 89.782 668.408 87.367 667.4 84.343L674.33 81.067C675.212 82.915 676.409 84.364 677.921 85.414C679.433 86.464 681.113 86.989 682.961 86.989C684.305 86.989 685.334 86.716 686.048 86.17C686.762 85.624 687.119 84.868 687.119 83.902C687.119 83.398 686.993 82.978 686.741 82.642C686.489 82.264 686.111 81.928 685.607 81.634C685.103 81.34 684.473 81.088 683.717 80.878L677.858 79.24C675.044 78.442 672.881 77.161 671.369 75.397C669.857 73.591 669.101 71.47 669.101 69.034C669.101 66.892 669.647 65.023 670.739 63.427C671.831 61.831 673.364 60.592 675.338 59.71C677.312 58.786 679.58 58.324 682.142 58.324C685.502 58.324 688.442 59.122 690.962 60.718C693.524 62.272 695.33 64.477 696.38 67.333L689.387 70.609C688.883 69.181 687.959 68.047 686.615 67.207C685.313 66.325 683.822 65.884 682.142 65.884C680.924 65.884 679.958 66.136 679.244 66.64C678.572 67.144 678.236 67.837 678.236 68.719C678.236 69.181 678.362 69.601 678.614 69.979C678.866 70.357 679.265 70.693 679.811 70.987C680.399 71.281 681.113 71.554 681.953 71.806L687.434 73.444C690.29 74.284 692.474 75.565 693.986 77.287C695.498 78.967 696.254 81.046 696.254 83.524C696.254 85.666 695.687 87.535 694.553 89.131C693.461 90.727 691.928 91.987 689.954 92.911C687.98 93.793 685.649 94.234 682.961 94.234ZM716.471 94.234C712.817 94.234 709.646 93.436 706.958 91.84C704.27 90.202 702.191 88.018 700.721 85.288C699.251 82.558 698.516 79.534 698.516 76.216C698.516 72.772 699.272 69.706 700.784 67.018C702.338 64.33 704.417 62.209 707.021 60.655C709.625 59.101 712.565 58.324 715.841 58.324C718.571 58.324 720.986 58.765 723.086 59.647C725.186 60.487 726.95 61.684 728.378 63.238C729.848 64.792 730.961 66.598 731.717 68.656C732.473 70.672 732.851 72.877 732.851 75.271C732.851 75.943 732.809 76.615 732.725 77.287C732.683 77.917 732.578 78.463 732.41 78.925H706.643V71.995H727.055L722.582 75.271C723.002 73.465 722.981 71.869 722.519 70.483C722.057 69.055 721.238 67.942 720.062 67.144C718.928 66.304 717.521 65.884 715.841 65.884C714.203 65.884 712.796 66.283 711.62 67.081C710.444 67.879 709.562 69.055 708.974 70.609C708.386 72.163 708.155 74.053 708.281 76.279C708.113 78.211 708.344 79.912 708.974 81.382C709.604 82.852 710.57 84.007 711.872 84.847C713.174 85.645 714.749 86.044 716.597 86.044C718.277 86.044 719.705 85.708 720.881 85.036C722.099 84.364 723.044 83.44 723.716 82.264L731.276 85.855C730.604 87.535 729.533 89.005 728.063 90.265C726.635 91.525 724.934 92.512 722.96 93.226C720.986 93.898 718.823 94.234 716.471 94.234Z" fill="#131313"/>
<path d="M294.663 185.478L298.028 173.78H288.852V163.84H300.857L304.833 150.077H295.657V140.137H307.662L311.026 128.515H322.495L319.131 140.137H330.6L333.888 128.515H345.357L342.069 140.137H351.244V150.077H339.163L335.264 163.84H344.439V173.78H332.358L329.071 185.478H317.601L320.889 173.78H309.497L306.132 185.478H294.663ZM312.326 163.84H323.795L327.694 150.077H316.302L312.326 163.84ZM371.181 185.478V175.92L397.101 138.837H372.71V128.515H412.087V138.072L386.244 175.156H412.852V185.478H371.181ZM418.769 185.478V128.515H430.62V157.035L427.332 155.888L450.118 128.515H464.951L442.395 155.735L443.083 147.324L465.41 185.478H451.57L437.654 161.393L430.62 169.88V185.478H418.769ZM471.261 185.478V128.515H493.128C497.053 128.515 500.52 129.203 503.527 130.579C506.586 131.956 508.981 133.994 510.714 136.696C512.448 139.398 513.314 142.736 513.314 146.712C513.314 150.586 512.422 153.874 510.638 156.576C508.905 159.277 506.509 161.342 503.451 162.769C500.443 164.145 497.003 164.834 493.128 164.834H483.112V185.478H471.261ZM483.112 154.511H493.205C494.887 154.511 496.34 154.18 497.563 153.517C498.787 152.855 499.73 151.937 500.392 150.765C501.106 149.592 501.463 148.242 501.463 146.712C501.463 145.132 501.106 143.756 500.392 142.584C499.73 141.411 498.787 140.494 497.563 139.831C496.34 139.168 494.887 138.837 493.205 138.837H483.112V154.511Z" fill="#2222FF"/>
<rect x="2.27838" y="1.79205" width="795.443" height="222.372" rx="26.8807" stroke="white" stroke-opacity="0.1" stroke-width="3.5841"/>
</svg>
