<svg width="149" height="36" viewBox="0 0 149 36" fill="none" xmlns="http://www.w3.org/2000/svg">
<path d="M35.1548 25.7331C34.2676 25.7331 33.3878 25.6518 32.5154 25.4891C31.6578 25.3412 30.9554 25.1342 30.4083 24.8681V22.8275C31.8278 23.4929 33.3582 23.8256 34.9996 23.8256C37.3063 23.8256 38.4597 23.0493 38.4597 21.4967C38.4597 20.9643 38.334 20.5355 38.0826 20.2102C37.8312 19.8849 37.469 19.604 36.9958 19.3674C36.5226 19.116 35.7537 18.7759 34.689 18.3471C33.2252 17.7556 32.1679 17.105 31.5173 16.3952C30.8667 15.6855 30.5413 14.7909 30.5413 13.7114C30.5413 12.8981 30.7631 12.181 31.2068 11.5599C31.6504 10.9241 32.2714 10.4361 33.0699 10.096C33.8684 9.74116 34.7852 9.56371 35.8202 9.56371C36.6631 9.56371 37.4246 9.63025 38.1048 9.76334C38.785 9.89642 39.4504 10.1108 40.101 10.4066V12.3584C38.8146 11.7817 37.5133 11.4934 36.1973 11.4934C35.1327 11.4934 34.3194 11.6856 33.7575 12.0701C33.1956 12.4545 32.9146 13.0016 32.9146 13.7114C32.9146 14.1994 33.0329 14.6134 33.2695 14.9535C33.5209 15.2788 33.8832 15.5746 34.3563 15.8407C34.8443 16.0921 35.5615 16.41 36.5078 16.7945C37.5577 17.2233 38.3858 17.6299 38.992 18.0144C39.5983 18.3988 40.0567 18.872 40.3672 19.4339C40.6925 19.981 40.8551 20.6686 40.8551 21.4967C40.8551 22.8423 40.3746 23.8847 39.4134 24.6241C38.4523 25.3634 37.0328 25.7331 35.1548 25.7331ZM48.5716 25.7331C47.3739 25.7331 46.3166 25.5113 45.3998 25.0677C44.4978 24.6093 43.7881 23.9587 43.2705 23.1158C42.7678 22.2582 42.5164 21.2527 42.5164 20.0993C42.5164 18.9607 42.7678 17.9626 43.2705 17.105C43.7733 16.2474 44.4831 15.5893 45.3998 15.1309C46.3166 14.6578 47.3739 14.4212 48.5716 14.4212C49.7693 14.4212 50.8266 14.6578 51.7434 15.1309C52.6602 15.5893 53.3699 16.2474 53.8727 17.105C54.3902 17.9626 54.649 18.9607 54.649 20.0993C54.649 21.2527 54.3902 22.2582 53.8727 23.1158C53.3699 23.9587 52.6602 24.6093 51.7434 25.0677C50.8266 25.5113 49.7693 25.7331 48.5716 25.7331ZM48.5716 23.9587C49.725 23.9587 50.6418 23.6038 51.322 22.894C52.0022 22.1843 52.3422 21.2527 52.3422 20.0993C52.3422 18.9016 52.0022 17.9552 51.322 17.2603C50.6418 16.5653 49.725 16.2178 48.5716 16.2178C47.4182 16.2178 46.5015 16.5653 45.8213 17.2603C45.1411 17.9552 44.801 18.9016 44.801 20.0993C44.801 21.2527 45.1411 22.1843 45.8213 22.894C46.5015 23.6038 47.4182 23.9587 48.5716 23.9587ZM61.319 25.7331C59.8847 25.7331 58.7978 25.3486 58.0585 24.5797C57.334 23.8108 56.9717 22.7831 56.9717 21.4967V14.7539H59.2119V21.408C59.2119 23.1084 60.0621 23.9587 61.7626 23.9587C63.2561 23.9587 64.4242 23.2859 65.2671 21.9403V14.7539H67.5073V25.4004H65.3336V23.8921C64.8309 24.528 64.232 24.9938 63.537 25.2895C62.8568 25.5852 62.1175 25.7331 61.319 25.7331ZM70.382 9.00921H72.6222V25.4004H70.382V9.00921ZM83.2812 9.89642H85.6323L89.0924 21.6741L92.5082 9.89642H94.2826L97.6762 21.6741L101.136 9.89642H103.487L98.9626 25.4004H96.8112L93.3732 13.6892L89.9575 25.4004H87.806L83.2812 9.89642ZM108.074 25.7331C106.787 25.7331 105.752 25.4078 104.969 24.7572C104.2 24.0918 103.815 23.1972 103.815 22.0734C103.815 20.8904 104.185 19.981 104.924 19.3452C105.678 18.6946 106.743 18.3693 108.118 18.3693C109.582 18.3693 110.824 18.665 111.844 19.2565V18.702C111.844 17.8591 111.586 17.2381 111.068 16.8388C110.565 16.4248 109.767 16.2178 108.673 16.2178C108.022 16.2178 107.386 16.2843 106.765 16.4174C106.159 16.5357 105.612 16.7057 105.124 16.9275V15.1088C105.567 14.9018 106.144 14.7391 106.854 14.6208C107.564 14.4877 108.251 14.4212 108.917 14.4212C110.676 14.4212 111.978 14.813 112.82 15.5967C113.678 16.3656 114.107 17.4377 114.107 18.8129V25.4004H112V24.2027C111.541 24.7054 110.994 25.0899 110.358 25.356C109.737 25.6074 108.976 25.7331 108.074 25.7331ZM108.628 24.0252C109.338 24.0252 109.981 23.8847 110.558 23.6038C111.135 23.3228 111.564 22.931 111.844 22.4282V20.9865C110.883 20.3655 109.811 20.055 108.628 20.055C107.771 20.055 107.128 20.225 106.699 20.5651C106.285 20.8904 106.078 21.3932 106.078 22.0734C106.078 23.3746 106.928 24.0252 108.628 24.0252ZM116.887 9.00921H119.127V25.4004H116.887V9.00921ZM122.02 9.00921H124.261V25.4004H122.02V9.00921ZM133.009 25.7331C131.043 25.7331 129.498 25.2451 128.374 24.2692C127.265 23.2785 126.71 21.8885 126.71 20.0993C126.71 18.3545 127.206 16.9719 128.196 15.9516C129.202 14.9313 130.629 14.4212 132.477 14.4212C133.704 14.4212 134.747 14.6578 135.605 15.1309C136.462 15.5893 137.105 16.2326 137.534 17.0606C137.978 17.8739 138.2 18.8055 138.2 19.8553V20.9643H128.84C128.914 21.9699 129.335 22.724 130.104 23.2267C130.888 23.7147 131.945 23.9587 133.276 23.9587C133.956 23.9587 134.643 23.8995 135.338 23.7812C136.033 23.6482 136.647 23.4781 137.179 23.2711V25.0677C136.706 25.2599 136.078 25.4152 135.294 25.5335C134.525 25.6666 133.764 25.7331 133.009 25.7331ZM136.093 19.3896C136.063 18.384 135.73 17.6077 135.094 17.0606C134.473 16.4987 133.586 16.2178 132.433 16.2178C131.309 16.2178 130.437 16.5061 129.815 17.0828C129.194 17.6595 128.869 18.4284 128.84 19.3896H136.093ZM144.752 25.7331C143.672 25.7331 142.837 25.4226 142.245 24.8015C141.669 24.1805 141.38 23.3007 141.38 22.1621V16.4839H139.761V14.7539H141.38V11.5599H143.643V14.7539H146.26V16.4839H143.643V22.0068C143.643 22.7166 143.776 23.2193 144.042 23.5151C144.323 23.8108 144.826 23.9587 145.55 23.9587C145.979 23.9587 146.408 23.8626 146.837 23.6703V25.4448C146.275 25.637 145.58 25.7331 144.752 25.7331Z" fill="white"/>
<g clip-path="url(#clip0_2908_1565)">
<path d="M8.52575 20.0186C7.00962 20.395 5.34856 20.3083 3.82799 19.6669C0.455297 18.2441 -0.948988 14.6307 0.69143 11.5961C2.33185 8.56148 14.445 0.0263672 14.445 0.0263672C14.445 0.0263672 14.5077 8.56209 13.7261 13.6467C15.2979 13.2491 17.0256 13.3501 18.5877 14.0464C21.9244 15.5339 23.2414 19.1744 21.5291 22.1779C19.8168 25.1812 7.50548 33.485 7.50548 33.485C7.50548 33.485 7.64492 25.1042 8.52575 20.0186Z" fill="url(#paint0_linear_2908_1565)"/>
</g>
<defs>
<linearGradient id="paint0_linear_2908_1565" x1="-3.47633" y1="1.67871" x2="25.6871" y2="34.1325" gradientUnits="userSpaceOnUse">
<stop offset="0.182292" stop-color="#BE7DFF"/>
<stop offset="0.822917" stop-color="#A6FBF5"/>
</linearGradient>
<clipPath id="clip0_2908_1565">
<rect width="22.4083" height="33.6124" fill="white"/>
</clipPath>
</defs>
</svg>
