<svg width="139" height="44" viewBox="0 0 139 44" fill="none" xmlns="http://www.w3.org/2000/svg">
<g clip-path="url(#clip0_2908_1556)">
<path fill-rule="evenodd" clip-rule="evenodd" d="M19.9528 7.00369C16.6371 7.00369 13.9987 9.65464 13.9987 12.8642V17.7412C13.9987 20.9507 16.6371 23.6017 19.9528 23.6017C21.2979 23.6017 22.3885 24.6931 22.3885 26.0395C22.3885 27.3859 21.2979 28.4774 19.9528 28.4774C14.0012 28.4774 9.12721 23.6977 9.12721 17.7412V16.0544C6.92409 16.9012 5.33827 19.0632 5.33827 21.631C5.33827 24.5356 7.36742 26.921 10.0239 27.4708C10.4434 27.1281 10.9792 26.9226 11.5629 26.9226C12.9082 26.9226 13.9987 28.014 13.9987 29.3604V30.3978C13.9987 33.6073 16.6371 36.2583 19.9528 36.2583C23.2683 36.2583 25.9067 33.6073 25.9067 30.3978V25.5209C25.9067 22.3113 23.2683 19.6604 19.9528 19.6604C18.6075 19.6604 17.517 18.5688 17.517 17.2224C17.517 15.876 18.6075 14.7846 19.9528 14.7846C25.9042 14.7846 30.7782 19.5642 30.7782 25.5209V27.2075C32.9814 26.3607 34.5671 24.1987 34.5671 21.631C34.5671 18.7264 32.538 16.3409 29.8815 15.7912C29.462 16.1339 28.9263 16.3394 28.3425 16.3394C26.9973 16.3394 25.9067 15.2479 25.9067 13.9015V12.8642C25.9067 9.65464 23.2683 7.00369 19.9528 7.00369ZM30.6098 10.9646C29.7039 5.92323 25.2562 2.12793 19.9528 2.12793C14.6494 2.12793 10.2016 5.92323 9.29572 10.9646C4.25878 11.8713 0.466797 16.3229 0.466797 21.631C0.466797 26.939 4.25878 31.3907 9.29572 32.2973C10.2016 37.3387 14.6493 41.1341 19.9528 41.1341C25.2562 41.1341 29.7039 37.3387 30.6098 32.2973C35.6466 31.3907 39.4386 26.939 39.4386 21.631C39.4386 16.3229 35.6466 11.8713 30.6098 10.9646Z" fill="white"/>
<path d="M61.4772 31.6849C60.6856 31.6849 60.0399 31.5181 59.54 31.1845C59.0609 30.8509 58.6547 30.3193 58.3214 29.5896L50.7601 12.89C50.4268 12.1603 50.3226 11.5036 50.4476 10.9198C50.5726 10.336 50.8642 9.8878 51.3225 9.57507C51.7807 9.2415 52.3536 9.07471 53.041 9.07471C53.895 9.07471 54.5303 9.26234 54.9469 9.63762C55.3844 10.0129 55.7593 10.5654 56.0718 11.2951L62.4458 26.0558H60.6961L67.0701 11.2638C67.3826 10.5341 67.7575 9.99204 68.1949 9.63762C68.6324 9.26234 69.2469 9.07471 70.0384 9.07471C70.6841 9.07471 71.2257 9.2415 71.6632 9.57507C72.1006 9.8878 72.3714 10.336 72.4755 10.9198C72.6005 11.5036 72.4964 12.1603 72.1631 12.89L64.5705 29.5896C64.258 30.3193 63.8623 30.8509 63.3832 31.1845C62.9041 31.5181 62.2687 31.6849 61.4772 31.6849ZM81.1973 31.7474C79.3225 31.7474 77.6978 31.4243 76.323 30.778C74.969 30.1108 73.9275 29.1726 73.1985 27.9634C72.4694 26.7542 72.1049 25.3261 72.1049 23.6791C72.1049 22.0946 72.4486 20.7082 73.136 19.5198C73.8442 18.3106 74.8024 17.3724 76.0105 16.7053C77.2395 16.0173 78.6352 15.6733 80.1974 15.6733C81.3431 15.6733 82.3846 15.8609 83.3219 16.2362C84.2593 16.5906 85.0613 17.1222 85.7278 17.8311C86.3944 18.5191 86.8943 19.353 87.2276 20.3329C87.5817 21.3128 87.7588 22.4073 87.7588 23.6165C87.7588 24.0335 87.6442 24.3462 87.4151 24.5547C87.1859 24.7423 86.8214 24.8362 86.3215 24.8362H76.7604V22.2093H83.6969L83.197 22.6158C83.197 21.8444 83.0928 21.2189 82.8845 20.7394C82.6762 20.2599 82.3638 19.8951 81.9472 19.6449C81.5514 19.3947 81.0515 19.2696 80.4474 19.2696C79.8016 19.2696 79.2392 19.426 78.7601 19.7387C78.3019 20.0306 77.9478 20.4684 77.6978 21.0522C77.4478 21.6359 77.3228 22.3656 77.3228 23.2413V23.5227C77.3228 25.0029 77.6457 26.0662 78.2915 26.7125C78.958 27.338 79.9787 27.6507 81.3535 27.6507C81.8118 27.6507 82.3325 27.5986 82.9158 27.4943C83.5198 27.3692 84.0927 27.2025 84.6342 26.994C85.1758 26.7855 85.6445 26.7542 86.0403 26.9002C86.4361 27.0253 86.7381 27.2546 86.9464 27.5882C87.1755 27.9009 87.3005 28.2657 87.3213 28.6827C87.3422 29.0788 87.2484 29.4749 87.0401 29.8711C86.8318 30.2463 86.4881 30.5382 86.009 30.7467C85.28 31.0803 84.4989 31.3305 83.6656 31.4972C82.8533 31.664 82.0305 31.7474 81.1973 31.7474ZM93.2586 31.6849C92.3421 31.6849 91.6338 31.4451 91.1339 30.9656C90.6548 30.4861 90.4153 29.7877 90.4153 28.8703V18.5191C90.4153 17.6226 90.6444 16.9346 91.1027 16.4551C91.5818 15.9756 92.2588 15.7358 93.1336 15.7358C94.0085 15.7358 94.675 15.9756 95.1333 16.4551C95.5916 16.9346 95.8207 17.6226 95.8207 18.5191V19.8013H95.5083C95.7166 18.5503 96.2477 17.56 97.1018 16.8303C97.9766 16.1006 99.0598 15.7149 100.351 15.6733C100.955 15.6524 101.403 15.8088 101.695 16.1423C102.007 16.4551 102.174 17.0493 102.195 17.9249C102.195 18.6754 102.039 19.2696 101.726 19.7074C101.414 20.1453 100.82 20.4059 99.9451 20.4893L99.2264 20.5518C98.1224 20.656 97.3205 20.9688 96.8206 21.49C96.3206 21.9903 96.0707 22.7409 96.0707 23.7416V28.8703C96.0707 29.7877 95.8311 30.4861 95.352 30.9656C94.8729 31.4451 94.1751 31.6849 93.2586 31.6849ZM110.195 31.7474C109.278 31.7474 108.341 31.6745 107.383 31.5285C106.446 31.4034 105.591 31.1637 104.821 30.8092C104.3 30.6008 103.925 30.3193 103.696 29.9649C103.488 29.6105 103.384 29.2352 103.384 28.8391C103.404 28.4429 103.519 28.0885 103.727 27.7758C103.956 27.4422 104.248 27.2129 104.602 27.0878C104.977 26.9419 105.394 26.9523 105.852 27.1191C106.727 27.4318 107.508 27.6611 108.195 27.8071C108.903 27.9322 109.58 27.9947 110.226 27.9947C110.997 27.9947 111.549 27.8905 111.882 27.682C112.215 27.4526 112.382 27.1608 112.382 26.8063C112.382 26.4936 112.268 26.2539 112.038 26.0871C111.83 25.9203 111.528 25.8056 111.132 25.7431L107.664 25.1802C106.373 24.9508 105.373 24.4817 104.665 23.7729C103.956 23.0432 103.602 22.0946 103.602 20.9271C103.602 19.8429 103.904 18.9152 104.508 18.1438C105.133 17.3516 105.977 16.7469 107.039 16.33C108.122 15.8922 109.362 15.6733 110.757 15.6733C111.695 15.6733 112.549 15.7462 113.319 15.8922C114.09 16.0173 114.84 16.257 115.569 16.6114C116.027 16.7991 116.35 17.0701 116.538 17.4245C116.725 17.7789 116.798 18.1542 116.756 18.5503C116.715 18.9256 116.579 19.28 116.35 19.6136C116.142 19.9263 115.85 20.1453 115.475 20.2703C115.1 20.3746 114.663 20.3433 114.163 20.1765C113.476 19.9055 112.861 19.7074 112.32 19.5823C111.799 19.4573 111.309 19.3947 110.851 19.3947C109.997 19.3947 109.393 19.5094 109.039 19.7387C108.685 19.968 108.508 20.2599 108.508 20.6143C108.508 20.8854 108.601 21.1147 108.789 21.3023C108.976 21.4691 109.268 21.5838 109.664 21.6463L113.132 22.2405C114.465 22.449 115.486 22.9077 116.194 23.6165C116.923 24.3045 117.288 25.2427 117.288 26.4311C117.288 28.1198 116.642 29.4333 115.35 30.3714C114.059 31.2888 112.34 31.7474 110.195 31.7474ZM125.831 31.7474C124.519 31.7474 123.352 31.4243 122.331 30.778C121.332 30.1317 120.54 29.2039 119.957 27.9947C119.394 26.7855 119.113 25.3574 119.113 23.7103C119.113 22.0216 119.394 20.5831 119.957 19.3947C120.54 18.2063 121.332 17.289 122.331 16.6427C123.352 15.9964 124.519 15.6733 125.831 15.6733C126.977 15.6733 128.008 15.9443 128.924 16.4863C129.841 17.0284 130.455 17.7268 130.768 18.5816L130.486 19.8638V18.5191C130.486 17.6226 130.726 16.9346 131.205 16.4551C131.705 15.9756 132.382 15.7358 133.236 15.7358C134.132 15.7358 134.809 15.9756 135.267 16.4551C135.746 16.9346 135.986 17.6226 135.986 18.5191V28.8703C135.986 29.7877 135.746 30.4861 135.267 30.9656C134.809 31.4451 134.132 31.6849 133.236 31.6849C132.361 31.6849 131.684 31.4451 131.205 30.9656C130.726 30.4861 130.486 29.7877 130.486 28.8703V27.5882L130.83 28.6202C130.539 29.5583 129.924 30.3193 128.987 30.9031C128.07 31.466 127.018 31.7474 125.831 31.7474ZM127.612 27.6507C128.174 27.6507 128.674 27.5152 129.112 27.2442C129.549 26.9523 129.882 26.5249 130.111 25.962C130.361 25.3782 130.486 24.6277 130.486 23.7103C130.486 22.3135 130.216 21.3128 129.674 20.7082C129.132 20.0827 128.445 19.77 127.612 19.77C127.049 19.77 126.55 19.9055 126.112 20.1765C125.675 20.4476 125.331 20.8749 125.081 21.4587C124.831 22.0216 124.706 22.7722 124.706 23.7103C124.706 25.0863 124.977 26.0871 125.518 26.7125C126.06 27.338 126.758 27.6507 127.612 27.6507Z" fill="white"/>
</g>
<defs>
<clipPath id="clip0_2908_1556">
<rect width="138" height="43" fill="white" transform="translate(0.466797 0.130859)"/>
</clipPath>
</defs>
</svg>
