<svg width="117" height="27" viewBox="0 0 117 27" fill="none" xmlns="http://www.w3.org/2000/svg">
<path d="M21.2401 5.2V9.41H10.43C8.53004 9.41 7.15004 9.93 6.29004 10.97C5.42004 12.01 4.99005 13.72 4.99005 16.08C4.99005 18.44 5.42004 20.15 6.29004 21.18C7.16004 22.22 8.54004 22.73 10.43 22.73H21.2401V26.99H10C7.08005 26.99 4.78005 26.1 3.08005 24.31C1.38005 22.52 0.540039 19.78 0.540039 16.08C0.540039 12.38 1.39005 9.66 3.08005 7.87C4.77005 6.08 7.08005 5.19 10 5.19H21.2401V5.2Z" fill="#0C0C0C"/>
<path d="M39.47 5.2C42.36 5.2 44.66 6.09999 46.37 7.89999C48.08 9.69999 48.93 12.43 48.93 16.09C48.93 19.75 48.08 22.53 46.37 24.32C44.66 26.11 42.36 27 39.47 27H34.87C31.95 27 29.65 26.11 27.95 24.32C26.26 22.53 25.41 19.79 25.41 16.09C25.41 12.39 26.26 9.67 27.95 7.88C29.64 6.09 31.95 5.2 34.87 5.2H39.47ZM35.3 9.41C33.4 9.41 32.02 9.93 31.15 10.97C30.28 12.01 29.85 13.72 29.85 16.08C29.85 18.44 30.28 20.15 31.15 21.18C32.02 22.22 33.4 22.73 35.3 22.73H39.05C40.96 22.73 42.35 22.21 43.21 21.18C44.08 20.14 44.51 18.44 44.51 16.08C44.51 13.72 44.08 12.01 43.21 10.97C42.34 9.93 40.95 9.41 39.05 9.41H35.3Z" fill="#0C0C0C"/>
<path d="M72.35 5.2V9.41H60.29C59.27 9.41 58.54 9.62 58.09 10.03C57.64 10.44 57.42 11.06 57.42 11.88C57.42 12.7 57.63 13.25 58.07 13.65C58.51 14.05 59.32 14.24 60.53 14.24H65.65C67.17 14.24 68.42 14.41 69.39 14.73C70.36 15.06 71.14 15.5 71.7 16.05C72.26 16.6 72.66 17.25 72.88 18C73.1 18.75 73.21 19.54 73.21 20.39C73.21 21.36 73.08 22.25 72.82 23.06C72.56 23.87 72.14 24.57 71.56 25.15C70.98 25.73 70.24 26.18 69.33 26.51C68.42 26.84 67.33 27 66.05 27H53.38V22.74H66.05C67.07 22.74 67.81 22.55 68.25 22.19C68.69 21.82 68.92 21.2 68.92 20.34C68.92 19.48 68.68 18.84 68.19 18.46C67.71 18.08 66.91 17.9 65.81 17.9H60.65C59.14 17.9 57.91 17.73 56.94 17.39C55.97 17.05 55.21 16.58 54.64 15.99C54.07 15.4 53.68 14.72 53.46 13.94C53.24 13.17 53.13 12.37 53.13 11.55C53.13 9.6 53.68 8.05 54.78 6.91C55.88 5.77 57.71 5.2 60.25 5.2H72.35Z" fill="#0C0C0C"/>
<path d="M92.58 5.2C95.17 5.2 97.0501 5.78 98.2101 6.95C99.3701 8.12 99.9501 9.76 99.9501 11.87C99.9501 13.98 99.3801 15.44 98.2601 16.53C97.1301 17.62 95.23 18.16 92.55 18.16H82.1801V19.73C82.1801 20.6 82.4301 21.32 82.9501 21.89C83.4601 22.45 84.3201 22.74 85.5301 22.74H98.86V27H85.5301C84.1601 27 83.0001 26.82 82.0401 26.46C81.0901 26.1 80.3001 25.6 79.6801 24.95C79.0601 24.3 78.6101 23.54 78.3401 22.67C78.0601 21.8 77.9301 20.85 77.9301 19.81V12.37C77.9301 11.35 78.0701 10.4 78.3401 9.52C78.6201 8.64 79.0601 7.88 79.6801 7.23C80.3001 6.58 81.0901 6.08 82.0401 5.73C83.0001 5.37 84.1601 5.2 85.5301 5.2H92.5901H92.58ZM82.1701 14.74H92.4201C93.6001 14.74 94.4401 14.5 94.9201 14.03C95.4001 13.56 95.6501 12.93 95.6501 12.13C95.6501 11.33 95.4001 10.64 94.9001 10.14C94.4001 9.65 93.6201 9.39999 92.5401 9.39999H85.5201C84.3101 9.39999 83.4501 9.69 82.9401 10.27C82.4301 10.85 82.1701 11.56 82.1701 12.41V14.73V14.74Z" fill="#0C0C0C"/>
<path d="M106.09 5.2V0.0399933H110.51V5.2H116.54V9.41H110.51V19.74C110.51 20.98 110.73 21.83 111.19 22.29C111.64 22.75 112.39 22.99 113.44 22.99H116.47V27H112.54C111.41 27 110.44 26.88 109.62 26.63C108.81 26.38 108.14 25.97 107.61 25.39C107.08 24.81 106.7 24.04 106.46 23.08C106.22 22.12 106.1 20.92 106.1 19.48V9.41H103.12V5.2H106.1H106.09Z" fill="#0C0C0C"/>
</svg>
