<svg width="248" height="46" viewBox="0 0 248 46" fill="none" xmlns="http://www.w3.org/2000/svg">
<g clip-path="url(#clip0_2675_1221)">
<g clip-path="url(#clip1_2675_1221)">
<path fill-rule="evenodd" clip-rule="evenodd" d="M59.5135 20.4166H57.4805L65.4121 3.90527H66.5848L74.5164 20.4166H72.4795L66.0023 6.9182L59.5135 20.4166ZM88.761 17.9321V3.90527H90.6011V20.4166H88.5179L76.8134 7.49301V13.5806L74.9733 15.4362V3.90527H76.0573L88.761 17.9321ZM92.737 5.76472V3.90527H108.38V5.76472H101.479V18.5571L99.6386 20.4166V5.76472H92.737ZM107.576 20.4166H105.539L113.475 3.90527H114.644L122.575 20.4166H120.539L114.061 6.9182L107.576 20.4166ZM124.61 3.90527L126.45 5.76472V18.5571H134.27L136.106 20.4127V20.4166H124.61V3.90527ZM137.856 20.4166V3.90527H144.206C146.964 3.90527 149.213 6.15821 149.232 8.95124C149.197 11.7288 146.96 13.9702 144.206 13.9702H142.967L141.138 12.1223H144.206C145.949 12.1223 147.361 10.6988 147.361 8.93581C147.361 7.17281 145.949 5.74543 144.206 5.74543H139.696V20.4166H137.856ZM151.32 3.90527H151.324L153.16 5.76472V11.208H162.639V3.90527L164.483 5.76472V20.3818L162.639 18.5224V13.0714H153.16V20.4513L151.32 18.5918V3.90527ZM166.298 20.4166L174.23 3.90527H175.402L183.334 20.4166H181.301L174.816 6.9182L168.331 20.4166H166.298Z" fill="#F5F5F6"/>
</g>
<path fill-rule="evenodd" clip-rule="evenodd" d="M59.3206 28.0963L57.4805 26.2368V42.7481H68.9805V42.7442L67.1403 40.8886H59.3206V28.0963Z" fill="#F5F5F6"/>
<path fill-rule="evenodd" clip-rule="evenodd" d="M70.6309 42.7481H72.6485L79.0794 29.2536L85.5064 42.7481H87.5202L79.6542 26.2368H78.493L70.6309 42.7481Z" fill="#F5F5F6"/>
<path fill-rule="evenodd" clip-rule="evenodd" d="M107.673 34.974C108.425 35.1244 109.146 35.352 109.837 35.6761C110.308 35.8844 110.701 36.2162 110.998 36.656C111.268 37.1691 111.376 37.7323 111.33 38.2878C111.21 39.7692 109.953 40.8378 108.487 40.9613C108.39 40.9728 108.286 40.9767 108.19 40.9767C108.12 40.9767 108.039 40.9767 107.981 40.9651C107.923 40.9767 107.877 40.9767 107.823 40.9767C107.017 40.9767 106.226 40.7414 105.539 40.317C104.93 39.9004 104.467 39.2986 104.212 38.6042L104.162 38.4691L102.611 39.2291L102.654 39.3371C102.986 40.3247 103.653 41.1734 104.513 41.7328C105.497 42.3269 106.623 42.6394 107.761 42.6394C107.831 42.6394 107.904 42.6394 107.977 42.6355H108.074C108.996 42.6355 109.918 42.4272 110.751 42.0337C111.511 41.6788 112.152 41.1194 112.607 40.4057C113.054 39.6959 113.282 38.8742 113.274 38.0216C113.332 36.8952 112.923 35.7764 112.155 34.9624C111.411 34.2256 110.165 33.6662 108.452 33.2959C107.769 33.1647 107.106 32.9525 106.461 32.6709C106.041 32.4896 105.686 32.1964 105.404 31.8068C105.219 31.4596 105.119 31.0776 105.096 30.6996C105.015 29.2606 106.203 28.1149 107.623 27.9991C107.715 27.9953 107.808 27.9914 107.904 27.9914C107.989 27.9914 108.066 27.9953 108.143 27.9991C109.752 27.9991 110.828 28.6549 111.345 29.9512L111.399 30.0823L112.942 29.3532L112.9 29.2375C112.599 28.3656 112.005 27.6172 111.23 27.1388C110.342 26.6103 109.332 26.3364 108.302 26.3364C108.244 26.3364 108.178 26.3403 108.109 26.3403H107.974C107.106 26.3403 106.261 26.5216 105.47 26.8765C104.768 27.1967 104.166 27.7137 103.753 28.3733C103.348 29.0446 103.144 29.8239 103.159 30.6224C103.113 31.6602 103.506 32.6748 104.228 33.4077C104.953 34.106 106.145 34.6461 107.673 34.974Z" fill="#F5F5F6"/>
<path fill-rule="evenodd" clip-rule="evenodd" d="M100.122 30.5035C100.16 27.7066 97.7066 26.2368 94.8287 26.2368H89.7441V42.7481H96.4297C99.3539 42.7481 100.997 40.6803 101.094 38.1728C101.175 36.0819 99.8052 34.6661 98.2004 34.0642C99.4387 33.2387 100.106 32.0351 100.122 30.5035ZM91.5368 27.9126V41.0715H96.2858C98.288 41.0715 99.2524 39.5708 99.2563 37.9775C99.2563 35.9329 97.4277 34.9453 95.6261 34.9415C95.5451 34.9453 93.8014 34.899 93.8014 34.899L92.2004 33.217C92.2004 33.217 95.5451 33.2209 95.6222 33.2248C97.3505 33.1399 98.3034 32.025 98.3265 30.505C98.3613 28.5491 96.6715 27.9126 94.6887 27.9126H91.5368Z" fill="#F5F5F6"/>
<g clip-path="url(#clip2_2675_1221)">
<path d="M38.2592 44.6399H6.49158C3.18261 44.6399 0.5 41.9577 0.5 38.6488V6.88123C0.5 3.57232 3.18267 0.889648 6.49158 0.889648H38.2592C41.568 0.889648 44.2502 3.57226 44.2502 6.88123V38.6488C44.2502 41.9577 41.5681 44.6399 38.2592 44.6399Z" fill="#2222FF" stroke="white"/>
<path fill-rule="evenodd" clip-rule="evenodd" d="M4.32031 23.5211L20.0573 31.1566V28.5085L8.22029 22.7643L20.0573 17.0211V14.373L4.32031 22.0085V23.5211Z" fill="white"/>
<path fill-rule="evenodd" clip-rule="evenodd" d="M24.6934 14.373V17.0211L36.5298 22.7648L24.6934 28.5091V31.1572L40.4298 23.5211V22.0086L24.6934 14.373Z" fill="white"/>
</g>
</g>
<defs>
<clipPath id="clip0_2675_1221">
<rect width="247.283" height="44.7502" fill="white" transform="translate(0 0.389648)"/>
</clipPath>
<clipPath id="clip1_2675_1221">
<rect width="189.422" height="16.5884" fill="white" transform="translate(57.4805 3.86182)"/>
</clipPath>
<clipPath id="clip2_2675_1221">
<rect width="44.7502" height="44.7502" fill="white" transform="translate(0 0.389648)"/>
</clipPath>
</defs>
</svg>
