<svg width="20" height="21" viewBox="0 0 20 21" fill="none" xmlns="http://www.w3.org/2000/svg">
<path fill-rule="evenodd" clip-rule="evenodd" d="M18.9284 20.0395L4.68993 20.907C4.46482 20.9201 4.23992 20.8777 4.03508 20.7834C3.83024 20.6891 3.65177 20.5458 3.51541 20.3662L0.129051 15.9026C0.0453701 15.7921 5.68003e-05 15.6573 2.498e-08 15.5187V2.10231C-6.26667e-05 1.79094 0.117879 1.49112 0.330064 1.26325C0.542249 1.03538 0.832909 0.89639 1.14349 0.874282L13.6487 0.00564044C14.1899 -0.0318378 14.7274 0.1183 15.1708 0.430773L19.8146 3.70523C19.8719 3.74565 19.9186 3.79925 19.9509 3.86151C19.9832 3.92376 20 3.99286 20 4.06298V18.9001C19.9995 19.1906 19.8885 19.4701 19.6895 19.6817C19.4904 19.8933 19.2183 20.0213 18.9284 20.0395ZM17.049 3.41077L4.5115 4.11892C4.19266 4.13699 3.8783 4.03729 3.62815 3.83876L1.81695 2.4045C1.78589 2.37986 1.76297 2.34644 1.75118 2.30858C1.7394 2.27072 1.7393 2.23019 1.7509 2.19227C1.76249 2.15436 1.78524 2.12081 1.81619 2.09602C1.84713 2.07123 1.88483 2.05634 1.92436 2.05329L13.4965 1.15483C13.9942 1.1167 14.4891 1.25746 14.8923 1.55179L17.1189 3.17309C17.1408 3.18904 17.1573 3.21139 17.166 3.23707C17.1748 3.26276 17.1754 3.29052 17.1677 3.31655C17.1601 3.34259 17.1446 3.36562 17.1233 3.38249C17.1021 3.39935 17.0761 3.40923 17.049 3.41077ZM4.0995 6.23728V18.4889C4.09959 18.5967 4.12158 18.7034 4.16413 18.8024C4.20669 18.9014 4.26893 18.9908 4.34707 19.065C4.42521 19.1393 4.51763 19.1969 4.6187 19.2343C4.71978 19.2717 4.82741 19.2883 4.93507 19.2828L17.9255 18.6335C18.1262 18.6234 18.3154 18.5366 18.4539 18.391C18.5924 18.2453 18.6696 18.052 18.6696 17.851V5.36578C18.6696 5.28308 18.6527 5.20124 18.6201 5.12527C18.5874 5.04929 18.5396 4.98078 18.4795 4.92391C18.4195 4.86704 18.3485 4.823 18.2708 4.79449C18.1932 4.76599 18.1106 4.7536 18.028 4.7581L4.82113 5.47563C4.62624 5.48619 4.44282 5.57103 4.30859 5.7127C4.17436 5.85438 4.09953 6.04211 4.0995 6.23728Z" fill="#F5F5F6"/>
<path d="M16.5761 6.86815L16.5622 7.20793C16.5582 7.29797 16.5231 7.38384 16.4628 7.45087C16.4026 7.51791 16.3209 7.56195 16.2318 7.57548L15.6004 7.67063V16.4902C15.6 16.5344 15.5864 16.5775 15.5613 16.6139C15.5362 16.6503 15.5007 16.6783 15.4595 16.6944L14.7571 16.9709C14.4372 17.0965 14.0837 17.1079 13.7563 17.0031C13.429 16.8984 13.1478 16.6839 12.9602 16.3958L8.84447 10.0658V16.0283L8.86857 16.0226L10.0815 16.3436C10.0926 16.3469 10.1028 16.3525 10.1116 16.3601C10.1203 16.3677 10.1274 16.377 10.1323 16.3875C10.1371 16.398 10.1397 16.4094 10.1398 16.421C10.1399 16.4326 10.1376 16.4441 10.1329 16.4547C10.0525 16.6247 9.92805 16.7702 9.77242 16.8759C9.6168 16.9816 9.43571 17.0437 9.24796 17.0558L8.84447 17.0815L7.3024 17.1804L6.28919 17.2453C6.27485 17.2462 6.2605 17.2436 6.24736 17.2378C6.23422 17.232 6.22266 17.2231 6.21366 17.2119C6.20466 17.2007 6.19847 17.1875 6.19563 17.1734C6.19278 17.1593 6.19336 17.1448 6.1973 17.1309L6.2851 16.8271C6.30154 16.7697 6.33287 16.7177 6.3759 16.6763C6.41893 16.6349 6.47214 16.6056 6.53014 16.5915L7.30199 16.4036V8.34897L6.21895 8.28158L6.34146 7.83807C6.37572 7.71348 6.44831 7.60282 6.54894 7.52175C6.64957 7.44069 6.77315 7.39334 6.90218 7.38639L7.3024 7.36516L8.84447 7.28348L9.83563 7.23202C9.88671 7.22932 9.93761 7.24 9.98331 7.26299C10.029 7.28598 10.0679 7.32049 10.0962 7.36312L10.8974 8.57276L14.1437 13.4734V7.84747L13.153 7.79478C13.135 7.79392 13.1181 7.78649 13.1053 7.77391C13.0925 7.76134 13.0847 7.74449 13.0835 7.72658C13.0759 7.62419 13.0917 7.5214 13.1297 7.42601C13.2522 7.12666 13.5981 6.93268 14.0085 6.92737L14.1437 6.91961L15.6013 6.8412L16.4997 6.79219C16.5098 6.79173 16.5199 6.79337 16.5294 6.79702C16.5388 6.80067 16.5474 6.80624 16.5546 6.81339C16.5618 6.82053 16.5674 6.82908 16.5711 6.83851C16.5748 6.84794 16.5765 6.85803 16.5761 6.86815Z" fill="#F5F5F6"/>
</svg>
