<svg width="24" height="25" viewBox="0 0 24 25" fill="none" xmlns="http://www.w3.org/2000/svg">
<path fill-rule="evenodd" clip-rule="evenodd" d="M6.98901 5.77434C10.3247 5.51337 13.6756 5.51337 17.0113 5.77434L19.252 5.94964C20.5001 6.04728 21.5211 6.98268 21.7274 8.21745C22.2436 11.3069 22.2436 14.4607 21.7274 17.5502C21.5211 18.785 20.5001 19.7204 19.252 19.818L17.0113 19.9933C13.6756 20.2543 10.3247 20.2543 6.989 19.9933L4.7483 19.818C3.50023 19.7204 2.47921 18.785 2.2729 17.5502C1.75669 14.4607 1.75669 11.3069 2.2729 8.21745C2.47921 6.98268 3.50023 6.04728 4.7483 5.94964L6.98901 5.77434ZM10.0001 15.354V10.4137C10.0001 10.1805 10.2545 10.0365 10.4545 10.1564L14.5714 12.6266C14.7656 12.7431 14.7656 13.0245 14.5714 13.1411L10.4545 15.6112C10.2545 15.7312 10.0001 15.5872 10.0001 15.354Z" fill="white"/>
</svg>
