<svg width="237" height="22" viewBox="0 0 237 22" fill="none" xmlns="http://www.w3.org/2000/svg">
<path fill-rule="evenodd" clip-rule="evenodd" d="M167.284 0.750671L169.583 3.04843V18.8563H179.353L181.652 21.1493V21.154H167.284V0.750671ZM186.236 21.154H183.715L193.538 0.750671H194.989L204.817 21.154H202.301L194.271 4.47857L186.236 21.154ZM220.562 6.02313C220.61 2.56695 217.544 0.750671 213.949 0.750671H207.596V21.154H215.949C219.602 21.154 221.656 18.5988 221.776 15.5002C221.877 12.9164 220.166 11.1669 218.161 10.4232C219.708 9.40303 220.542 7.91568 220.562 6.02313ZM0.333496 21.2076H2.87362L10.9808 4.52745L19.0735 21.2076H21.6185L11.7086 0.804319H10.2433L0.333496 21.2076ZM39.4159 0.804319V18.1376L23.5437 0.804319H22.1893V15.0533L24.4884 12.7603V5.23776L39.1122 21.2076H41.715V0.804319H39.4159ZM44.3835 0.804319V3.10208H53.0065V21.2076L55.3057 18.9099V3.10208H63.9286V0.804319H44.3835ZM60.3792 21.2076H62.9241L71.0265 4.52745L79.1192 21.2076H81.6641L71.7543 0.804319H70.2938L60.3792 21.2076ZM86.5053 3.10208L84.2062 0.804319V21.2076H98.5697V21.2029L96.2754 18.9099H86.5053V3.10208ZM100.756 0.804319V21.2076H103.055V3.07825H108.689C110.868 3.07825 112.632 4.84209 112.632 7.02065C112.632 9.19923 110.868 10.9583 108.689 10.9583H104.857L107.142 13.2418H108.689C112.131 13.2418 114.926 10.4721 114.97 7.03972C114.946 3.58833 112.135 0.804319 108.689 0.804319H100.756ZM117.583 0.804319H117.578V18.9528L119.877 21.2506V12.131H131.72V18.867L134.024 21.1647V3.10208L131.72 0.804319V9.82849H119.877V3.10208L117.583 0.804319ZM146.202 0.804319L136.292 21.2076H138.832L146.934 4.52745L155.037 21.2076H157.577L147.667 0.804319H146.202ZM232.7 12.4153C231.837 12.0148 230.936 11.7336 229.996 11.5477C228.087 11.1425 226.598 10.4751 225.691 9.61221C224.79 8.70645 224.298 7.45269 224.356 6.17033C224.337 5.18355 224.592 4.22059 225.099 3.39111C225.614 2.57593 226.366 1.93713 227.243 1.54146C228.232 1.10288 229.287 0.878828 230.372 0.878828H230.54C230.627 0.878828 230.709 0.874061 230.781 0.874061C232.068 0.874061 233.331 1.21253 234.44 1.86562C235.408 2.45675 236.151 3.38157 236.527 4.45895L236.58 4.60196L234.652 5.50295L234.584 5.34087C233.938 3.73911 232.594 2.9287 230.584 2.9287C230.487 2.92393 230.391 2.91916 230.285 2.91916C230.164 2.91916 230.049 2.92393 229.933 2.9287C228.159 3.07171 226.675 4.48755 226.776 6.26568C226.805 6.73286 226.93 7.2048 227.162 7.63385C227.513 8.11533 227.957 8.47763 228.482 8.70168C229.287 9.04969 230.116 9.31188 230.969 9.47396C233.109 9.93161 234.666 10.6228 235.596 11.5334C236.556 12.5392 237.067 13.9217 236.994 15.3137C237.004 16.3672 236.719 17.3826 236.16 18.2598C235.592 19.1417 234.792 19.8329 233.842 20.2715C232.801 20.7578 231.649 21.0152 230.497 21.0152H230.376C230.285 21.02 230.193 21.02 230.107 21.02C228.685 21.02 227.277 20.6338 226.048 19.8997C224.973 19.2085 224.139 18.1597 223.725 16.9393L223.672 16.8058L225.609 15.8667L225.672 16.0335C225.99 16.8916 226.569 17.6353 227.33 18.1502C228.188 18.6745 229.176 18.9653 230.184 18.9653C230.251 18.9653 230.309 18.9653 230.381 18.951C230.454 18.9653 230.555 18.9653 230.642 18.9653C230.762 18.9653 230.892 18.9606 231.013 18.9463C232.844 18.7937 234.416 17.4732 234.565 15.6426C234.623 14.9562 234.488 14.2602 234.15 13.6261C233.779 13.0827 233.288 12.6727 232.7 12.4153ZM209.836 2.82146V19.0822H215.769C218.271 19.0822 219.476 17.2278 219.48 15.2589C219.48 12.7323 217.196 11.512 214.945 11.5072C214.844 11.512 212.665 11.4548 212.665 11.4548L210.665 9.37628C210.665 9.37628 214.844 9.38105 214.94 9.38582C217.099 9.28094 218.29 7.90324 218.319 6.02498C218.362 3.60804 216.251 2.82146 213.774 2.82146H209.836Z" fill="#0F1227"/>
</svg>
