<svg width="436" height="664" viewBox="0 0 436 664" fill="none" xmlns="http://www.w3.org/2000/svg">
<mask id="mask0_820_191" style="mask-type:alpha" maskUnits="userSpaceOnUse" x="0" y="0" width="436" height="664">
<rect x="0.418959" y="0.740004" width="435.162" height="662.841" rx="21.9738" fill="#D9D9D9" stroke="black" stroke-width="0.335477"/>
</mask>
<g mask="url(#mask0_820_191)">
<path d="M0.443115 551.88L0.443115 641.934C0.443115 654.163 10.3562 664.076 22.5846 664.076H413.416C425.644 664.076 435.557 654.163 435.557 641.934V277.5" stroke="url(#paint0_linear_820_191)" stroke-width="4" stroke-linecap="round"/>
<path d="M433.557 167.079C433.557 168.184 434.453 169.079 435.557 169.079C436.662 169.079 437.557 168.184 437.557 167.079H433.557ZM22.5846 2.57226H413.416V-1.42774H22.5846V2.57226ZM433.557 22.7138V167.079H437.557V22.7138H433.557ZM2.44312 503.711V22.7138H-1.55688V503.711H2.44312ZM413.416 2.57226C424.539 2.57226 433.557 11.5899 433.557 22.7138H437.557C437.557 9.38078 426.749 -1.42774 413.416 -1.42774V2.57226ZM22.5846 -1.42774C9.25163 -1.42774 -1.55688 9.38078 -1.55688 22.7138H2.44312C2.44312 11.5899 11.4608 2.57226 22.5846 2.57226V-1.42774Z" fill="url(#paint1_linear_820_191)"/>
<path d="M368.424 373.908L368.424 373.908L70.4742 417.844C68.8671 418.08 67.9835 419.842 68.7543 421.272L112.595 502.604C113.07 503.484 114.052 503.966 115.039 503.803L287.359 475.33C287.681 475.277 287.887 475.66 287.666 475.899L169.154 604.196C168.476 604.931 168.338 606.016 168.813 606.896L212.654 688.228C213.425 689.658 215.382 689.888 216.463 688.676L416.952 463.935C417.608 463.199 417.733 462.132 417.266 461.264L370.827 375.114C370.36 374.246 369.399 373.764 368.424 373.908Z" stroke="url(#paint2_linear_820_191)" stroke-width="2"/>
<path d="M-65.7432 599.354C-66.3433 600.863 -65.2619 602.511 -63.6382 602.56L112.664 607.923C113.649 607.953 114.547 607.363 114.911 606.447L135.941 553.547C136.305 552.632 136.057 551.586 135.321 550.931L3.45872 433.784C2.24433 432.705 0.327162 433.16 -0.272948 434.669L-19.9607 484.192C-20.3302 485.122 -20.0686 486.183 -19.3092 486.835L57.3272 552.576C57.5742 552.788 57.4134 553.193 57.0882 553.177L-43.7675 548.357C-44.7667 548.309 -45.6859 548.902 -46.0555 549.831L-65.7432 599.354Z" stroke="#2222FF" stroke-width="2"/>
</g>
<defs>
<linearGradient id="paint0_linear_820_191" x1="5.64302" y1="648.979" x2="435.557" y2="555.381" gradientUnits="userSpaceOnUse">
<stop stop-color="#2222FF"/>
<stop offset="0.527416" stop-color="#2222FF"/>
<stop offset="0.583247" stop-color="#2222FF" stop-opacity="0"/>
<stop offset="0.811971" stop-color="#2222FF" stop-opacity="0"/>
<stop offset="0.958061" stop-color="#2222FF"/>
</linearGradient>
<linearGradient id="paint1_linear_820_191" x1="17.9436" y1="99.7124" x2="435.694" y2="142.237" gradientUnits="userSpaceOnUse">
<stop stop-color="#2222FF"/>
<stop offset="0.115107" stop-color="#2222FF" stop-opacity="0"/>
<stop offset="0.312633" stop-color="#2222FF" stop-opacity="0"/>
<stop offset="0.442584" stop-color="#2222FF"/>
<stop offset="0.946052" stop-color="#2222FF"/>
<stop offset="1" stop-color="#2222FF" stop-opacity="0"/>
</linearGradient>
<linearGradient id="paint2_linear_820_191" x1="213.399" y1="611.542" x2="321.515" y2="353.621" gradientUnits="userSpaceOnUse">
<stop stop-color="#2222F5"/>
<stop offset="1" stop-color="white" stop-opacity="0"/>
</linearGradient>
</defs>
</svg>
